<svg width="366" height="12" viewBox="0 0 366 12" fill="none" xmlns="http://www.w3.org/2000/svg">
<g clip-path="url(#clip0_324_66)">
<path d="M18.2541 9.04C18.2861 9.168 18.3021 9.328 18.3021 9.52C18.3021 9.704 18.2861 9.864 18.2541 10H15.3741C15.3421 9.864 15.3261 9.704 15.3261 9.52C15.3261 9.328 15.3421 9.168 15.3741 9.04H16.3341C16.3021 8.904 16.2861 8.744 16.2861 8.56C16.2861 8.368 16.3021 8.208 16.3341 8.08C16.3021 7.944 16.2861 7.784 16.2861 7.6C16.2861 7.408 16.3021 7.248 16.3341 7.12C16.3021 6.984 16.2861 6.824 16.2861 6.64C16.2861 6.448 16.3021 6.288 16.3341 6.16C16.3021 6.024 16.2861 5.864 16.2861 5.68C16.2861 5.488 16.3021 5.328 16.3341 5.2H15.6141C15.5821 5.064 15.5661 4.904 15.5661 4.72C15.5661 4.528 15.5821 4.368 15.6141 4.24H16.3341C16.3021 4.104 16.2861 3.944 16.2861 3.76C16.2861 3.568 16.3021 3.408 16.3341 3.28H17.2941C17.3261 3.408 17.3421 3.568 17.3421 3.76C17.3421 3.944 17.3261 4.104 17.2941 4.24C17.3261 4.368 17.3421 4.528 17.3421 4.72C17.3421 4.904 17.3261 5.064 17.2941 5.2C17.3261 5.328 17.3421 5.488 17.3421 5.68C17.3421 5.864 17.3261 6.024 17.2941 6.16C17.3261 6.288 17.3421 6.448 17.3421 6.64C17.3421 6.824 17.3261 6.984 17.2941 7.12C17.3261 7.248 17.3421 7.408 17.3421 7.6C17.3421 7.784 17.3261 7.944 17.2941 8.08C17.3261 8.208 17.3421 8.368 17.3421 8.56C17.3421 8.744 17.3261 8.904 17.2941 9.04H18.2541ZM23.5388 4.24C23.5708 4.368 23.5868 4.528 23.5868 4.72C23.5868 4.904 23.5708 5.064 23.5388 5.2C23.5708 5.328 23.5868 5.488 23.5868 5.68C23.5868 5.864 23.5708 6.024 23.5388 6.16C23.5708 6.288 23.5868 6.448 23.5868 6.64C23.5868 6.824 23.5708 6.984 23.5388 7.12C23.5708 7.248 23.5868 7.408 23.5868 7.6C23.5868 7.784 23.5708 7.944 23.5388 8.08C23.5708 8.208 23.5868 8.368 23.5868 8.56C23.5868 8.744 23.5708 8.904 23.5388 9.04C23.5708 9.168 23.5868 9.328 23.5868 9.52C23.5868 9.704 23.5708 9.864 23.5388 10H22.5788C22.5468 9.864 22.5308 9.704 22.5308 9.52C22.5308 9.328 22.5468 9.168 22.5788 9.04C22.5468 8.904 22.5308 8.744 22.5308 8.56C22.5308 8.368 22.5468 8.208 22.5788 8.08C22.5468 7.944 22.5308 7.784 22.5308 7.6C22.5308 7.408 22.5468 7.248 22.5788 7.12C22.5468 6.984 22.5308 6.824 22.5308 6.64C22.5308 6.448 22.5468 6.288 22.5788 6.16C22.5468 6.024 22.5308 5.864 22.5308 5.68C22.5308 5.488 22.5468 5.328 22.5788 5.2H22.2188C22.2508 5.328 22.2668 5.488 22.2668 5.68C22.2668 5.864 22.2508 6.024 22.2188 6.16C22.2508 6.288 22.2668 6.448 22.2668 6.64C22.2668 6.824 22.2508 6.984 22.2188 7.12H21.9788C22.0108 7.248 22.0268 7.408 22.0268 7.6C22.0268 7.784 22.0108 7.944 21.9788 8.08C22.0108 8.208 22.0268 8.368 22.0268 8.56C22.0268 8.744 22.0108 8.904 21.9788 9.04H21.2588C21.2268 8.904 21.2108 8.744 21.2108 8.56C21.2108 8.368 21.2268 8.208 21.2588 8.08C21.2268 7.944 21.2108 7.784 21.2108 7.6C21.2108 7.408 21.2268 7.248 21.2588 7.12H21.0188C20.9868 6.984 20.9708 6.824 20.9708 6.64C20.9708 6.448 20.9868 6.288 21.0188 6.16C20.9868 6.024 20.9708 5.864 20.9708 5.68C20.9708 5.488 20.9868 5.328 21.0188 5.2H20.6588C20.6908 5.328 20.7068 5.488 20.7068 5.68C20.7068 5.864 20.6908 6.024 20.6588 6.16C20.6908 6.288 20.7068 6.448 20.7068 6.64C20.7068 6.824 20.6908 6.984 20.6588 7.12C20.6908 7.248 20.7068 7.408 20.7068 7.6C20.7068 7.784 20.6908 7.944 20.6588 8.08C20.6908 8.208 20.7068 8.368 20.7068 8.56C20.7068 8.744 20.6908 8.904 20.6588 9.04C20.6908 9.168 20.7068 9.328 20.7068 9.52C20.7068 9.704 20.6908 9.864 20.6588 10H19.6988C19.6668 9.864 19.6508 9.704 19.6508 9.52C19.6508 9.328 19.6668 9.168 19.6988 9.04C19.6668 8.904 19.6508 8.744 19.6508 8.56C19.6508 8.368 19.6668 8.208 19.6988 8.08C19.6668 7.944 19.6508 7.784 19.6508 7.6C19.6508 7.408 19.6668 7.248 19.6988 7.12C19.6668 6.984 19.6508 6.824 19.6508 6.64C19.6508 6.448 19.6668 6.288 19.6988 6.16C19.6668 6.024 19.6508 5.864 19.6508 5.68C19.6508 5.488 19.6668 5.328 19.6988 5.2C19.6668 5.064 19.6508 4.904 19.6508 4.72C19.6508 4.528 19.6668 4.368 19.6988 4.24C19.6668 4.104 19.6508 3.944 19.6508 3.76C19.6508 3.568 19.6668 3.408 19.6988 3.28H20.8988C20.9308 3.408 20.9468 3.568 20.9468 3.76C20.9468 3.944 20.9308 4.104 20.8988 4.24H21.2588C21.2908 4.368 21.3068 4.528 21.3068 4.72C21.3068 4.904 21.2908 5.064 21.2588 5.2H21.4388C21.4708 5.328 21.4868 5.488 21.4868 5.68C21.4868 5.864 21.4708 6.024 21.4388 6.16H21.7988C21.7668 6.024 21.7508 5.864 21.7508 5.68C21.7508 5.488 21.7668 5.328 21.7988 5.2H21.9788C21.9468 5.064 21.9308 4.904 21.9308 4.72C21.9308 4.528 21.9468 4.368 21.9788 4.24H22.3388C22.3068 4.104 22.2908 3.944 22.2908 3.76C22.2908 3.568 22.3068 3.408 22.3388 3.28H23.5388C23.5708 3.408 23.5868 3.568 23.5868 3.76C23.5868 3.944 23.5708 4.104 23.5388 4.24ZM27.6714 6.64C27.6714 6.824 27.6554 6.984 27.6234 7.12H26.6634C26.6314 6.984 26.6154 6.824 26.6154 6.64C26.6154 6.448 26.6314 6.288 26.6634 6.16H24.7434C24.7114 6.024 24.6954 5.864 24.6954 5.68C24.6954 5.488 24.7114 5.328 24.7434 5.2H28.1034C28.1354 5.328 28.1514 5.488 28.1514 5.68C28.1514 5.864 28.1354 6.024 28.1034 6.16H27.6234C27.6554 6.288 27.6714 6.448 27.6714 6.64ZM26.7114 7.6C26.7114 7.784 26.6954 7.944 26.6634 8.08H25.7034C25.6714 7.944 25.6554 7.784 25.6554 7.6C25.6554 7.408 25.6714 7.248 25.7034 7.12H26.6634C26.6954 7.248 26.7114 7.408 26.7114 7.6ZM28.1034 9.04C28.1354 9.168 28.1514 9.328 28.1514 9.52C28.1514 9.704 28.1354 9.864 28.1034 10H24.7434C24.7114 9.864 24.6954 9.704 24.6954 9.52C24.6954 9.328 24.7114 9.168 24.7434 9.04C24.7114 8.904 24.6954 8.744 24.6954 8.56C24.6954 8.368 24.7114 8.208 24.7434 8.08H25.7034C25.7354 8.208 25.7514 8.368 25.7514 8.56C25.7514 8.744 25.7354 8.904 25.7034 9.04H28.1034ZM32.9561 3.76C32.9561 3.944 32.9401 4.104 32.9081 4.24C32.9401 4.368 32.9561 4.528 32.9561 4.72C32.9561 4.904 32.9401 5.064 32.9081 5.2H32.5481C32.5801 5.328 32.5961 5.488 32.5961 5.68C32.5961 5.864 32.5801 6.024 32.5481 6.16H32.1881C32.2201 6.288 32.2361 6.448 32.2361 6.64C32.2361 6.824 32.2201 6.984 32.1881 7.12H31.8281C31.8601 7.248 31.8761 7.408 31.8761 7.6C31.8761 7.784 31.8601 7.944 31.8281 8.08H31.4681C31.5001 8.208 31.5161 8.368 31.5161 8.56C31.5161 8.744 31.5001 8.904 31.4681 9.04H31.1081C31.1401 9.168 31.1561 9.328 31.1561 9.52C31.1561 9.704 31.1401 9.864 31.1081 10H30.1481C30.1161 9.864 30.1001 9.704 30.1001 9.52C30.1001 9.328 30.1161 9.168 30.1481 9.04H30.5081C30.4761 8.904 30.4601 8.744 30.4601 8.56C30.4601 8.368 30.4761 8.208 30.5081 8.08H30.8681C30.8361 7.944 30.8201 7.784 30.8201 7.6C30.8201 7.408 30.8361 7.248 30.8681 7.12H31.2281C31.1961 6.984 31.1801 6.824 31.1801 6.64C31.1801 6.448 31.1961 6.288 31.2281 6.16H31.5881C31.5561 6.024 31.5401 5.864 31.5401 5.68C31.5401 5.488 31.5561 5.328 31.5881 5.2H31.9481C31.9161 5.064 31.9001 4.904 31.9001 4.72C31.9001 4.528 31.9161 4.368 31.9481 4.24H29.5481C29.5161 4.104 29.5001 3.944 29.5001 3.76C29.5001 3.568 29.5161 3.408 29.5481 3.28H32.9081C32.9401 3.408 32.9561 3.568 32.9561 3.76ZM37.4728 9.04C37.5048 9.168 37.5208 9.328 37.5208 9.52C37.5208 9.704 37.5048 9.864 37.4728 10H34.5928C34.5608 9.864 34.5448 9.704 34.5448 9.52C34.5448 9.328 34.5608 9.168 34.5928 9.04H35.5528C35.5208 8.904 35.5048 8.744 35.5048 8.56C35.5048 8.368 35.5208 8.208 35.5528 8.08C35.5208 7.944 35.5048 7.784 35.5048 7.6C35.5048 7.408 35.5208 7.248 35.5528 7.12C35.5208 6.984 35.5048 6.824 35.5048 6.64C35.5048 6.448 35.5208 6.288 35.5528 6.16C35.5208 6.024 35.5048 5.864 35.5048 5.68C35.5048 5.488 35.5208 5.328 35.5528 5.2H34.8328C34.8008 5.064 34.7848 4.904 34.7848 4.72C34.7848 4.528 34.8008 4.368 34.8328 4.24H35.5528C35.5208 4.104 35.5048 3.944 35.5048 3.76C35.5048 3.568 35.5208 3.408 35.5528 3.28H36.5128C36.5448 3.408 36.5608 3.568 36.5608 3.76C36.5608 3.944 36.5448 4.104 36.5128 4.24C36.5448 4.368 36.5608 4.528 36.5608 4.72C36.5608 4.904 36.5448 5.064 36.5128 5.2C36.5448 5.328 36.5608 5.488 36.5608 5.68C36.5608 5.864 36.5448 6.024 36.5128 6.16C36.5448 6.288 36.5608 6.448 36.5608 6.64C36.5608 6.824 36.5448 6.984 36.5128 7.12C36.5448 7.248 36.5608 7.408 36.5608 7.6C36.5608 7.784 36.5448 7.944 36.5128 8.08C36.5448 8.208 36.5608 8.368 36.5608 8.56C36.5608 8.744 36.5448 8.904 36.5128 9.04H37.4728ZM40.1655 5.68C40.1655 5.864 40.1495 6.024 40.1175 6.16H40.4775C40.5095 6.288 40.5255 6.448 40.5255 6.64C40.5255 6.824 40.5095 6.984 40.4775 7.12H39.1575C39.1255 6.984 39.1095 6.824 39.1095 6.64C39.1095 6.448 39.1255 6.288 39.1575 6.16C39.1255 6.024 39.1095 5.864 39.1095 5.68C39.1095 5.488 39.1255 5.328 39.1575 5.2C39.1255 5.064 39.1095 4.904 39.1095 4.72C39.1095 4.528 39.1255 4.368 39.1575 4.24C39.1255 4.104 39.1095 3.944 39.1095 3.76C39.1095 3.568 39.1255 3.408 39.1575 3.28H42.3975C42.4295 3.408 42.4455 3.568 42.4455 3.76C42.4455 3.944 42.4295 4.104 42.3975 4.24H40.1175C40.1495 4.368 40.1655 4.528 40.1655 4.72C40.1655 4.904 40.1495 5.064 40.1175 5.2C40.1495 5.328 40.1655 5.488 40.1655 5.68ZM42.8055 7.6C42.8055 7.784 42.7895 7.944 42.7575 8.08H42.3975C42.4295 8.208 42.4455 8.368 42.4455 8.56C42.4455 8.744 42.4295 8.904 42.3975 9.04H41.7975C41.8295 9.168 41.8455 9.328 41.8455 9.52C41.8455 9.704 41.8295 9.864 41.7975 10H39.6375C39.6055 9.864 39.5895 9.704 39.5895 9.52C39.5895 9.328 39.6055 9.168 39.6375 9.04H39.1575C39.1255 8.904 39.1095 8.744 39.1095 8.56C39.1095 8.368 39.1255 8.208 39.1575 8.08H39.8775C39.9095 8.208 39.9255 8.368 39.9255 8.56C39.9255 8.744 39.9095 8.904 39.8775 9.04H41.4375C41.4055 8.904 41.3895 8.744 41.3895 8.56C41.3895 8.368 41.4055 8.208 41.4375 8.08H41.7975C41.7655 7.944 41.7495 7.784 41.7495 7.6C41.7495 7.408 41.7655 7.248 41.7975 7.12H41.4375C41.4055 6.984 41.3895 6.824 41.3895 6.64C41.3895 6.448 41.4055 6.288 41.4375 6.16H40.4775C40.4455 6.024 40.4295 5.864 40.4295 5.68C40.4295 5.488 40.4455 5.328 40.4775 5.2H41.7975C41.8295 5.328 41.8455 5.488 41.8455 5.68C41.8455 5.864 41.8295 6.024 41.7975 6.16H42.3975C42.4295 6.288 42.4455 6.448 42.4455 6.64C42.4455 6.824 42.4295 6.984 42.3975 7.12H42.7575C42.7895 7.248 42.8055 7.408 42.8055 7.6ZM47.3702 5.68C47.3702 5.864 47.3542 6.024 47.3222 6.16H46.8422C46.8742 6.288 46.8902 6.448 46.8902 6.64C46.8902 6.824 46.8742 6.984 46.8422 7.12H47.3222C47.3542 7.248 47.3702 7.408 47.3702 7.6C47.3702 7.784 47.3542 7.944 47.3222 8.08C47.3542 8.208 47.3702 8.368 47.3702 8.56C47.3702 8.744 47.3542 8.904 47.3222 9.04H46.8422C46.8742 9.168 46.8902 9.328 46.8902 9.52C46.8902 9.704 46.8742 9.864 46.8422 10H44.4422C44.4102 9.864 44.3942 9.704 44.3942 9.52C44.3942 9.328 44.4102 9.168 44.4422 9.04H43.9622C43.9302 8.904 43.9142 8.744 43.9142 8.56C43.9142 8.368 43.9302 8.208 43.9622 8.08H44.9222C44.9542 8.208 44.9702 8.368 44.9702 8.56C44.9702 8.744 44.9542 8.904 44.9222 9.04H46.3622C46.3302 8.904 46.3142 8.744 46.3142 8.56C46.3142 8.368 46.3302 8.208 46.3622 8.08C46.3302 7.944 46.3142 7.784 46.3142 7.6C46.3142 7.408 46.3302 7.248 46.3622 7.12H45.1622C45.1302 6.984 45.1142 6.824 45.1142 6.64C45.1142 6.448 45.1302 6.288 45.1622 6.16H46.3622C46.3302 6.024 46.3142 5.864 46.3142 5.68C46.3142 5.488 46.3302 5.328 46.3622 5.2C46.3302 5.064 46.3142 4.904 46.3142 4.72C46.3142 4.528 46.3302 4.368 46.3622 4.24H44.9222C44.9542 4.368 44.9702 4.528 44.9702 4.72C44.9702 4.904 44.9542 5.064 44.9222 5.2H43.9622C43.9302 5.064 43.9142 4.904 43.9142 4.72C43.9142 4.528 43.9302 4.368 43.9622 4.24H44.4422C44.4102 4.104 44.3942 3.944 44.3942 3.76C44.3942 3.568 44.4102 3.408 44.4422 3.28H46.8422C46.8742 3.408 46.8902 3.568 46.8902 3.76C46.8902 3.944 46.8742 4.104 46.8422 4.24H47.3222C47.3542 4.368 47.3702 4.528 47.3702 4.72C47.3702 4.904 47.3542 5.064 47.3222 5.2C47.3542 5.328 47.3702 5.488 47.3702 5.68ZM52.3669 4.24C52.3989 4.368 52.4149 4.528 52.4149 4.72C52.4149 4.904 52.3989 5.064 52.3669 5.2C52.3989 5.328 52.4149 5.488 52.4149 5.68C52.4149 5.864 52.3989 6.024 52.3669 6.16C52.3989 6.288 52.4149 6.448 52.4149 6.64C52.4149 6.824 52.3989 6.984 52.3669 7.12C52.3989 7.248 52.4149 7.408 52.4149 7.6C52.4149 7.784 52.3989 7.944 52.3669 8.08C52.3989 8.208 52.4149 8.368 52.4149 8.56C52.4149 8.744 52.3989 8.904 52.3669 9.04C52.3989 9.168 52.4149 9.328 52.4149 9.52C52.4149 9.704 52.3989 9.864 52.3669 10H51.4069C51.3749 9.864 51.3589 9.704 51.3589 9.52C51.3589 9.328 51.3749 9.168 51.4069 9.04C51.3749 8.904 51.3589 8.744 51.3589 8.56C51.3589 8.368 51.3749 8.208 51.4069 8.08C51.3749 7.944 51.3589 7.784 51.3589 7.6C51.3589 7.408 51.3749 7.248 51.4069 7.12H49.4869C49.5189 7.248 49.5349 7.408 49.5349 7.6C49.5349 7.784 49.5189 7.944 49.4869 8.08C49.5189 8.208 49.5349 8.368 49.5349 8.56C49.5349 8.744 49.5189 8.904 49.4869 9.04C49.5189 9.168 49.5349 9.328 49.5349 9.52C49.5349 9.704 49.5189 9.864 49.4869 10H48.5269C48.4949 9.864 48.4789 9.704 48.4789 9.52C48.4789 9.328 48.4949 9.168 48.5269 9.04C48.4949 8.904 48.4789 8.744 48.4789 8.56C48.4789 8.368 48.4949 8.208 48.5269 8.08C48.4949 7.944 48.4789 7.784 48.4789 7.6C48.4789 7.408 48.4949 7.248 48.5269 7.12C48.4949 6.984 48.4789 6.824 48.4789 6.64C48.4789 6.448 48.4949 6.288 48.5269 6.16C48.4949 6.024 48.4789 5.864 48.4789 5.68C48.4789 5.488 48.4949 5.328 48.5269 5.2C48.4949 5.064 48.4789 4.904 48.4789 4.72C48.4789 4.528 48.4949 4.368 48.5269 4.24C48.4949 4.104 48.4789 3.944 48.4789 3.76C48.4789 3.568 48.4949 3.408 48.5269 3.28H49.4869C49.5189 3.408 49.5349 3.568 49.5349 3.76C49.5349 3.944 49.5189 4.104 49.4869 4.24C49.5189 4.368 49.5349 4.528 49.5349 4.72C49.5349 4.904 49.5189 5.064 49.4869 5.2C49.5189 5.328 49.5349 5.488 49.5349 5.68C49.5349 5.864 49.5189 6.024 49.4869 6.16H51.4069C51.3749 6.024 51.3589 5.864 51.3589 5.68C51.3589 5.488 51.3749 5.328 51.4069 5.2C51.3749 5.064 51.3589 4.904 51.3589 4.72C51.3589 4.528 51.3749 4.368 51.4069 4.24C51.3749 4.104 51.3589 3.944 51.3589 3.76C51.3589 3.568 51.3749 3.408 51.4069 3.28H52.3669C52.3989 3.408 52.4149 3.568 52.4149 3.76C52.4149 3.944 52.3989 4.104 52.3669 4.24ZM57.1716 4.24C57.2036 4.368 57.2196 4.528 57.2196 4.72C57.2196 4.904 57.2036 5.064 57.1716 5.2C57.2036 5.328 57.2196 5.488 57.2196 5.68C57.2196 5.864 57.2036 6.024 57.1716 6.16C57.2036 6.288 57.2196 6.448 57.2196 6.64C57.2196 6.824 57.2036 6.984 57.1716 7.12C57.2036 7.248 57.2196 7.408 57.2196 7.6C57.2196 7.784 57.2036 7.944 57.1716 8.08C57.2036 8.208 57.2196 8.368 57.2196 8.56C57.2196 8.744 57.2036 8.904 57.1716 9.04C57.2036 9.168 57.2196 9.328 57.2196 9.52C57.2196 9.704 57.2036 9.864 57.1716 10H56.2116C56.1796 9.864 56.1636 9.704 56.1636 9.52C56.1636 9.328 56.1796 9.168 56.2116 9.04C56.1796 8.904 56.1636 8.744 56.1636 8.56C56.1636 8.368 56.1796 8.208 56.2116 8.08C56.1796 7.944 56.1636 7.784 56.1636 7.6C56.1636 7.408 56.1796 7.248 56.2116 7.12C56.1796 6.984 56.1636 6.824 56.1636 6.64C56.1636 6.448 56.1796 6.288 56.2116 6.16C56.1796 6.024 56.1636 5.864 56.1636 5.68C56.1636 5.488 56.1796 5.328 56.2116 5.2H55.8516C55.8836 5.328 55.8996 5.488 55.8996 5.68C55.8996 5.864 55.8836 6.024 55.8516 6.16C55.8836 6.288 55.8996 6.448 55.8996 6.64C55.8996 6.824 55.8836 6.984 55.8516 7.12H55.6116C55.6436 7.248 55.6596 7.408 55.6596 7.6C55.6596 7.784 55.6436 7.944 55.6116 8.08C55.6436 8.208 55.6596 8.368 55.6596 8.56C55.6596 8.744 55.6436 8.904 55.6116 9.04H54.8916C54.8596 8.904 54.8436 8.744 54.8436 8.56C54.8436 8.368 54.8596 8.208 54.8916 8.08C54.8596 7.944 54.8436 7.784 54.8436 7.6C54.8436 7.408 54.8596 7.248 54.8916 7.12H54.6516C54.6196 6.984 54.6036 6.824 54.6036 6.64C54.6036 6.448 54.6196 6.288 54.6516 6.16C54.6196 6.024 54.6036 5.864 54.6036 5.68C54.6036 5.488 54.6196 5.328 54.6516 5.2H54.2916C54.3236 5.328 54.3396 5.488 54.3396 5.68C54.3396 5.864 54.3236 6.024 54.2916 6.16C54.3236 6.288 54.3396 6.448 54.3396 6.64C54.3396 6.824 54.3236 6.984 54.2916 7.12C54.3236 7.248 54.3396 7.408 54.3396 7.6C54.3396 7.784 54.3236 7.944 54.2916 8.08C54.3236 8.208 54.3396 8.368 54.3396 8.56C54.3396 8.744 54.3236 8.904 54.2916 9.04C54.3236 9.168 54.3396 9.328 54.3396 9.52C54.3396 9.704 54.3236 9.864 54.2916 10H53.3316C53.2996 9.864 53.2836 9.704 53.2836 9.52C53.2836 9.328 53.2996 9.168 53.3316 9.04C53.2996 8.904 53.2836 8.744 53.2836 8.56C53.2836 8.368 53.2996 8.208 53.3316 8.08C53.2996 7.944 53.2836 7.784 53.2836 7.6C53.2836 7.408 53.2996 7.248 53.3316 7.12C53.2996 6.984 53.2836 6.824 53.2836 6.64C53.2836 6.448 53.2996 6.288 53.3316 6.16C53.2996 6.024 53.2836 5.864 53.2836 5.68C53.2836 5.488 53.2996 5.328 53.3316 5.2C53.2996 5.064 53.2836 4.904 53.2836 4.72C53.2836 4.528 53.2996 4.368 53.3316 4.24C53.2996 4.104 53.2836 3.944 53.2836 3.76C53.2836 3.568 53.2996 3.408 53.3316 3.28H54.5316C54.5636 3.408 54.5796 3.568 54.5796 3.76C54.5796 3.944 54.5636 4.104 54.5316 4.24H54.8916C54.9236 4.368 54.9396 4.528 54.9396 4.72C54.9396 4.904 54.9236 5.064 54.8916 5.2H55.0716C55.1036 5.328 55.1196 5.488 55.1196 5.68C55.1196 5.864 55.1036 6.024 55.0716 6.16H55.4316C55.3996 6.024 55.3836 5.864 55.3836 5.68C55.3836 5.488 55.3996 5.328 55.4316 5.2H55.6116C55.5796 5.064 55.5636 4.904 55.5636 4.72C55.5636 4.528 55.5796 4.368 55.6116 4.24H55.9716C55.9396 4.104 55.9236 3.944 55.9236 3.76C55.9236 3.568 55.9396 3.408 55.9716 3.28H57.1716C57.2036 3.408 57.2196 3.568 57.2196 3.76C57.2196 3.944 57.2036 4.104 57.1716 4.24ZM59.5043 8.56C59.5043 8.744 59.4883 8.904 59.4563 9.04H60.6562C60.6883 9.168 60.7043 9.328 60.7043 9.52C60.7043 9.704 60.6883 9.864 60.6562 10H58.7363C58.7043 9.864 58.6883 9.704 58.6883 9.52C58.6883 9.328 58.7043 9.168 58.7363 9.04H58.1363C58.1043 8.904 58.0883 8.744 58.0883 8.56C58.0883 8.368 58.1043 8.208 58.1363 8.08C58.1043 7.944 58.0883 7.784 58.0883 7.6C58.0883 7.408 58.1043 7.248 58.1363 7.12C58.1043 6.984 58.0883 6.824 58.0883 6.64C58.0883 6.448 58.1043 6.288 58.1363 6.16C58.1043 6.024 58.0883 5.864 58.0883 5.68C58.0883 5.488 58.1043 5.328 58.1363 5.2H59.0963C59.1283 5.328 59.1443 5.488 59.1443 5.68C59.1443 5.864 59.1283 6.024 59.0963 6.16C59.1283 6.288 59.1443 6.448 59.1443 6.64C59.1443 6.824 59.1283 6.984 59.0963 7.12C59.1283 7.248 59.1443 7.408 59.1443 7.6C59.1443 7.784 59.1283 7.944 59.0963 8.08H59.4563C59.4883 8.208 59.5043 8.368 59.5043 8.56ZM61.9763 6.16C62.0083 6.288 62.0243 6.448 62.0243 6.64C62.0243 6.824 62.0083 6.984 61.9763 7.12C62.0083 7.248 62.0243 7.408 62.0243 7.6C62.0243 7.784 62.0083 7.944 61.9763 8.08C62.0083 8.208 62.0243 8.368 62.0243 8.56C62.0243 8.744 62.0083 8.904 61.9763 9.04C62.0083 9.168 62.0243 9.328 62.0243 9.52C62.0243 9.704 62.0083 9.864 61.9763 10H61.0163C60.9843 9.864 60.9683 9.704 60.9683 9.52C60.9683 9.328 60.9843 9.168 61.0163 9.04H60.6562C60.6243 8.904 60.6083 8.744 60.6083 8.56C60.6083 8.368 60.6243 8.208 60.6562 8.08H61.0163C60.9843 7.944 60.9683 7.784 60.9683 7.6C60.9683 7.408 60.9843 7.248 61.0163 7.12C60.9843 6.984 60.9683 6.824 60.9683 6.64C60.9683 6.448 60.9843 6.288 61.0163 6.16C60.9843 6.024 60.9683 5.864 60.9683 5.68C60.9683 5.488 60.9843 5.328 61.0163 5.2H61.9763C62.0083 5.328 62.0243 5.488 62.0243 5.68C62.0243 5.864 62.0083 6.024 61.9763 6.16ZM66.5409 9.04C66.5729 9.168 66.5889 9.328 66.5889 9.52C66.5889 9.704 66.5729 9.864 66.5409 10H65.5809C65.5489 9.864 65.5329 9.704 65.5329 9.52C65.5329 9.328 65.5489 9.168 65.5809 9.04H65.2209C65.1889 8.904 65.1729 8.744 65.1729 8.56C65.1729 8.368 65.1889 8.208 65.2209 8.08H64.6209C64.6529 8.208 64.6689 8.368 64.6689 8.56C64.6689 8.744 64.6529 8.904 64.6209 9.04H64.1409C64.1729 9.168 64.1889 9.328 64.1889 9.52C64.1889 9.704 64.1729 9.864 64.1409 10H63.1809C63.1489 9.864 63.1329 9.704 63.1329 9.52C63.1329 9.328 63.1489 9.168 63.1809 9.04H63.6609C63.6289 8.904 63.6129 8.744 63.6129 8.56C63.6129 8.368 63.6289 8.208 63.6609 8.08H64.1409C64.1089 7.944 64.0929 7.784 64.0929 7.6C64.0929 7.408 64.1089 7.248 64.1409 7.12H63.6609C63.6289 6.984 63.6129 6.824 63.6129 6.64C63.6129 6.448 63.6289 6.288 63.6609 6.16H63.1809C63.1489 6.024 63.1329 5.864 63.1329 5.68C63.1329 5.488 63.1489 5.328 63.1809 5.2H64.1409C64.1729 5.328 64.1889 5.488 64.1889 5.68C64.1889 5.864 64.1729 6.024 64.1409 6.16H64.6209C64.6529 6.288 64.6689 6.448 64.6689 6.64C64.6689 6.824 64.6529 6.984 64.6209 7.12H65.2209C65.1889 6.984 65.1729 6.824 65.1729 6.64C65.1729 6.448 65.1889 6.288 65.2209 6.16H65.5809C65.5489 6.024 65.5329 5.864 65.5329 5.68C65.5329 5.488 65.5489 5.328 65.5809 5.2H66.5409C66.5729 5.328 66.5889 5.488 66.5889 5.68C66.5889 5.864 66.5729 6.024 66.5409 6.16H66.1809C66.2129 6.288 66.2289 6.448 66.2289 6.64C66.2289 6.824 66.2129 6.984 66.1809 7.12H65.5809C65.6129 7.248 65.6289 7.408 65.6289 7.6C65.6289 7.784 65.6129 7.944 65.5809 8.08H66.1809C66.2129 8.208 66.2289 8.368 66.2289 8.56C66.2289 8.744 66.2129 8.904 66.1809 9.04H66.5409ZM71.5856 9.04C71.6176 9.168 71.6336 9.328 71.6336 9.52C71.6336 9.704 71.6176 9.864 71.5856 10H70.6256C70.5936 9.864 70.5776 9.704 70.5776 9.52C70.5776 9.328 70.5936 9.168 70.6256 9.04H70.2656C70.2336 8.904 70.2176 8.744 70.2176 8.56C70.2176 8.368 70.2336 8.208 70.2656 8.08H70.0256C69.9936 7.944 69.9776 7.784 69.9776 7.6C69.9776 7.408 69.9936 7.248 70.0256 7.12H69.3056C69.3376 7.248 69.3536 7.408 69.3536 7.6C69.3536 7.784 69.3376 7.944 69.3056 8.08H69.0656C69.0976 8.208 69.1136 8.368 69.1136 8.56C69.1136 8.744 69.0976 8.904 69.0656 9.04H68.7056C68.7376 9.168 68.7536 9.328 68.7536 9.52C68.7536 9.704 68.7376 9.864 68.7056 10H67.7456C67.7136 9.864 67.6976 9.704 67.6976 9.52C67.6976 9.328 67.7136 9.168 67.7456 9.04H68.1056C68.0736 8.904 68.0576 8.744 68.0576 8.56C68.0576 8.368 68.0736 8.208 68.1056 8.08H68.5856C68.5536 7.944 68.5376 7.784 68.5376 7.6C68.5376 7.408 68.5536 7.248 68.5856 7.12H68.9456C68.9136 6.984 68.8976 6.824 68.8976 6.64C68.8976 6.448 68.9136 6.288 68.9456 6.16H68.5856C68.5536 6.024 68.5376 5.864 68.5376 5.68C68.5376 5.488 68.5536 5.328 68.5856 5.2H68.1056C68.0736 5.064 68.0576 4.904 68.0576 4.72C68.0576 4.528 68.0736 4.368 68.1056 4.24H67.7456C67.7136 4.104 67.6976 3.944 67.6976 3.76C67.6976 3.568 67.7136 3.408 67.7456 3.28H68.7056C68.7376 3.408 68.7536 3.568 68.7536 3.76C68.7536 3.944 68.7376 4.104 68.7056 4.24H69.0656C69.0976 4.368 69.1136 4.528 69.1136 4.72C69.1136 4.904 69.0976 5.064 69.0656 5.2H69.3056C69.3376 5.328 69.3536 5.488 69.3536 5.68C69.3536 5.864 69.3376 6.024 69.3056 6.16H70.0256C69.9936 6.024 69.9776 5.864 69.9776 5.68C69.9776 5.488 69.9936 5.328 70.0256 5.2H70.2656C70.2336 5.064 70.2176 4.904 70.2176 4.72C70.2176 4.528 70.2336 4.368 70.2656 4.24H70.6256C70.5936 4.104 70.5776 3.944 70.5776 3.76C70.5776 3.568 70.5936 3.408 70.6256 3.28H71.5856C71.6176 3.408 71.6336 3.568 71.6336 3.76C71.6336 3.944 71.6176 4.104 71.5856 4.24H71.2256C71.2576 4.368 71.2736 4.528 71.2736 4.72C71.2736 4.904 71.2576 5.064 71.2256 5.2H70.7456C70.7776 5.328 70.7936 5.488 70.7936 5.68C70.7936 5.864 70.7776 6.024 70.7456 6.16H70.3856C70.4176 6.288 70.4336 6.448 70.4336 6.64C70.4336 6.824 70.4176 6.984 70.3856 7.12H70.7456C70.7776 7.248 70.7936 7.408 70.7936 7.6C70.7936 7.784 70.7776 7.944 70.7456 8.08H71.2256C71.2576 8.208 71.2736 8.368 71.2736 8.56C71.2736 8.744 71.2576 8.904 71.2256 9.04H71.5856ZM76.4383 3.76C76.4383 3.944 76.4223 4.104 76.3903 4.24H74.9503C74.9823 4.368 74.9983 4.528 74.9983 4.72C74.9983 4.904 74.9823 5.064 74.9503 5.2C74.9823 5.328 74.9983 5.488 74.9983 5.68C74.9983 5.864 74.9823 6.024 74.9503 6.16C74.9823 6.288 74.9983 6.448 74.9983 6.64C74.9983 6.824 74.9823 6.984 74.9503 7.12C74.9823 7.248 74.9983 7.408 74.9983 7.6C74.9983 7.784 74.9823 7.944 74.9503 8.08C74.9823 8.208 74.9983 8.368 74.9983 8.56C74.9983 8.744 74.9823 8.904 74.9503 9.04C74.9823 9.168 74.9983 9.328 74.9983 9.52C74.9983 9.704 74.9823 9.864 74.9503 10H73.9903C73.9583 9.864 73.9423 9.704 73.9423 9.52C73.9423 9.328 73.9583 9.168 73.9903 9.04C73.9583 8.904 73.9423 8.744 73.9423 8.56C73.9423 8.368 73.9583 8.208 73.9903 8.08C73.9583 7.944 73.9423 7.784 73.9423 7.6C73.9423 7.408 73.9583 7.248 73.9903 7.12C73.9583 6.984 73.9423 6.824 73.9423 6.64C73.9423 6.448 73.9583 6.288 73.9903 6.16C73.9583 6.024 73.9423 5.864 73.9423 5.68C73.9423 5.488 73.9583 5.328 73.9903 5.2C73.9583 5.064 73.9423 4.904 73.9423 4.72C73.9423 4.528 73.9583 4.368 73.9903 4.24H72.5503C72.5183 4.104 72.5023 3.944 72.5023 3.76C72.5023 3.568 72.5183 3.408 72.5503 3.28H76.3903C76.4223 3.408 76.4383 3.568 76.4383 3.76ZM78.723 8.56C78.723 8.744 78.707 8.904 78.675 9.04H79.875C79.907 9.168 79.923 9.328 79.923 9.52C79.923 9.704 79.907 9.864 79.875 10H77.955C77.923 9.864 77.907 9.704 77.907 9.52C77.907 9.328 77.923 9.168 77.955 9.04H77.355C77.323 8.904 77.307 8.744 77.307 8.56C77.307 8.368 77.323 8.208 77.355 8.08C77.323 7.944 77.307 7.784 77.307 7.6C77.307 7.408 77.323 7.248 77.355 7.12C77.323 6.984 77.307 6.824 77.307 6.64C77.307 6.448 77.323 6.288 77.355 6.16C77.323 6.024 77.307 5.864 77.307 5.68C77.307 5.488 77.323 5.328 77.355 5.2H78.315C78.347 5.328 78.363 5.488 78.363 5.68C78.363 5.864 78.347 6.024 78.315 6.16C78.347 6.288 78.363 6.448 78.363 6.64C78.363 6.824 78.347 6.984 78.315 7.12C78.347 7.248 78.363 7.408 78.363 7.6C78.363 7.784 78.347 7.944 78.315 8.08H78.675C78.707 8.208 78.723 8.368 78.723 8.56ZM81.195 6.16C81.227 6.288 81.243 6.448 81.243 6.64C81.243 6.824 81.227 6.984 81.195 7.12C81.227 7.248 81.243 7.408 81.243 7.6C81.243 7.784 81.227 7.944 81.195 8.08C81.227 8.208 81.243 8.368 81.243 8.56C81.243 8.744 81.227 8.904 81.195 9.04C81.227 9.168 81.243 9.328 81.243 9.52C81.243 9.704 81.227 9.864 81.195 10H80.235C80.203 9.864 80.187 9.704 80.187 9.52C80.187 9.328 80.203 9.168 80.235 9.04H79.875C79.843 8.904 79.827 8.744 79.827 8.56C79.827 8.368 79.843 8.208 79.875 8.08H80.235C80.203 7.944 80.187 7.784 80.187 7.6C80.187 7.408 80.203 7.248 80.235 7.12C80.203 6.984 80.187 6.824 80.187 6.64C80.187 6.448 80.203 6.288 80.235 6.16C80.203 6.024 80.187 5.864 80.187 5.68C80.187 5.488 80.203 5.328 80.235 5.2H81.195C81.227 5.328 81.243 5.488 81.243 5.68C81.243 5.864 81.227 6.024 81.195 6.16ZM85.9997 9.04C86.0317 9.168 86.0477 9.328 86.0477 9.52C86.0477 9.704 86.0317 9.864 85.9997 10H85.0397C85.0077 9.864 84.9917 9.704 84.9917 9.52C84.9917 9.328 85.0077 9.168 85.0397 9.04H84.6797C84.6477 8.904 84.6317 8.744 84.6317 8.56C84.6317 8.368 84.6477 8.208 84.6797 8.08H84.3197C84.2877 7.944 84.2717 7.784 84.2717 7.6C84.2717 7.408 84.2877 7.248 84.3197 7.12H83.1197C83.1517 7.248 83.1677 7.408 83.1677 7.6C83.1677 7.784 83.1517 7.944 83.1197 8.08C83.1517 8.208 83.1677 8.368 83.1677 8.56C83.1677 8.744 83.1517 8.904 83.1197 9.04C83.1517 9.168 83.1677 9.328 83.1677 9.52C83.1677 9.704 83.1517 9.864 83.1197 10H82.1597C82.1277 9.864 82.1117 9.704 82.1117 9.52C82.1117 9.328 82.1277 9.168 82.1597 9.04C82.1277 8.904 82.1117 8.744 82.1117 8.56C82.1117 8.368 82.1277 8.208 82.1597 8.08C82.1277 7.944 82.1117 7.784 82.1117 7.6C82.1117 7.408 82.1277 7.248 82.1597 7.12C82.1277 6.984 82.1117 6.824 82.1117 6.64C82.1117 6.448 82.1277 6.288 82.1597 6.16C82.1277 6.024 82.1117 5.864 82.1117 5.68C82.1117 5.488 82.1277 5.328 82.1597 5.2C82.1277 5.064 82.1117 4.904 82.1117 4.72C82.1117 4.528 82.1277 4.368 82.1597 4.24C82.1277 4.104 82.1117 3.944 82.1117 3.76C82.1117 3.568 82.1277 3.408 82.1597 3.28H85.5197C85.5517 3.408 85.5677 3.568 85.5677 3.76C85.5677 3.944 85.5517 4.104 85.5197 4.24H85.9997C86.0317 4.368 86.0477 4.528 86.0477 4.72C86.0477 4.904 86.0317 5.064 85.9997 5.2H85.7597C85.7917 5.328 85.8077 5.488 85.8077 5.68C85.8077 5.864 85.7917 6.024 85.7597 6.16H85.0397C85.0717 6.288 85.0877 6.448 85.0877 6.64C85.0877 6.824 85.0717 6.984 85.0397 7.12H85.2797C85.3117 7.248 85.3277 7.408 85.3277 7.6C85.3277 7.784 85.3117 7.944 85.2797 8.08H85.6397C85.6717 8.208 85.6877 8.368 85.6877 8.56C85.6877 8.744 85.6717 8.904 85.6397 9.04H85.9997ZM84.7997 6.16C84.7677 6.024 84.7517 5.864 84.7517 5.68C84.7517 5.488 84.7677 5.328 84.7997 5.2C84.7677 5.064 84.7517 4.904 84.7517 4.72C84.7517 4.528 84.7677 4.368 84.7997 4.24H83.1197C83.1517 4.368 83.1677 4.528 83.1677 4.72C83.1677 4.904 83.1517 5.064 83.1197 5.2C83.1517 5.328 83.1677 5.488 83.1677 5.68C83.1677 5.864 83.1517 6.024 83.1197 6.16H84.7997ZM90.6124 5.68C90.6124 5.864 90.5964 6.024 90.5644 6.16H89.9644C89.9964 6.288 90.0124 6.448 90.0124 6.64C90.0124 6.824 89.9964 6.984 89.9644 7.12H89.3644C89.3964 7.248 89.4124 7.408 89.4124 7.6C89.4124 7.784 89.3964 7.944 89.3644 8.08H88.7644C88.7964 8.208 88.8124 8.368 88.8124 8.56C88.8124 8.744 88.7964 8.904 88.7644 9.04H90.5644C90.5964 9.168 90.6124 9.328 90.6124 9.52C90.6124 9.704 90.5964 9.864 90.5644 10H87.2044C87.1724 9.864 87.1564 9.704 87.1564 9.52C87.1564 9.328 87.1724 9.168 87.2044 9.04H87.8044C87.7724 8.904 87.7564 8.744 87.7564 8.56C87.7564 8.368 87.7724 8.208 87.8044 8.08H88.4044C88.3724 7.944 88.3564 7.784 88.3564 7.6C88.3564 7.408 88.3724 7.248 88.4044 7.12H89.0044C88.9724 6.984 88.9564 6.824 88.9564 6.64C88.9564 6.448 88.9724 6.288 89.0044 6.16H89.6044C89.5724 6.024 89.5564 5.864 89.5564 5.68C89.5564 5.488 89.5724 5.328 89.6044 5.2C89.5724 5.064 89.5564 4.904 89.5564 4.72C89.5564 4.528 89.5724 4.368 89.6044 4.24H87.9244C87.9564 4.368 87.9724 4.528 87.9724 4.72C87.9724 4.904 87.9564 5.064 87.9244 5.2H87.2044C87.1724 5.064 87.1564 4.904 87.1564 4.72C87.1564 4.528 87.1724 4.368 87.2044 4.24H87.6844C87.6524 4.104 87.6364 3.944 87.6364 3.76C87.6364 3.568 87.6524 3.408 87.6844 3.28H90.0844C90.1164 3.408 90.1324 3.568 90.1324 3.76C90.1324 3.944 90.1164 4.104 90.0844 4.24H90.5644C90.5964 4.368 90.6124 4.528 90.6124 4.72C90.6124 4.904 90.5964 5.064 90.5644 5.2C90.5964 5.328 90.6124 5.488 90.6124 5.68ZM95.6091 9.04C95.6411 9.168 95.6571 9.328 95.6571 9.52C95.6571 9.704 95.6411 9.864 95.6091 10H94.6491C94.6171 9.864 94.6011 9.704 94.6011 9.52C94.6011 9.328 94.6171 9.168 94.6491 9.04H94.2891C94.2571 8.904 94.2411 8.744 94.2411 8.56C94.2411 8.368 94.2571 8.208 94.2891 8.08H93.9291C93.8971 7.944 93.8811 7.784 93.8811 7.6C93.8811 7.408 93.8971 7.248 93.9291 7.12H92.7291C92.7611 7.248 92.7771 7.408 92.7771 7.6C92.7771 7.784 92.7611 7.944 92.7291 8.08C92.7611 8.208 92.7771 8.368 92.7771 8.56C92.7771 8.744 92.7611 8.904 92.7291 9.04C92.7611 9.168 92.7771 9.328 92.7771 9.52C92.7771 9.704 92.7611 9.864 92.7291 10H91.7691C91.7371 9.864 91.7211 9.704 91.7211 9.52C91.7211 9.328 91.7371 9.168 91.7691 9.04C91.7371 8.904 91.7211 8.744 91.7211 8.56C91.7211 8.368 91.7371 8.208 91.7691 8.08C91.7371 7.944 91.7211 7.784 91.7211 7.6C91.7211 7.408 91.7371 7.248 91.7691 7.12C91.7371 6.984 91.7211 6.824 91.7211 6.64C91.7211 6.448 91.7371 6.288 91.7691 6.16C91.7371 6.024 91.7211 5.864 91.7211 5.68C91.7211 5.488 91.7371 5.328 91.7691 5.2C91.7371 5.064 91.7211 4.904 91.7211 4.72C91.7211 4.528 91.7371 4.368 91.7691 4.24C91.7371 4.104 91.7211 3.944 91.7211 3.76C91.7211 3.568 91.7371 3.408 91.7691 3.28H95.1291C95.1611 3.408 95.1771 3.568 95.1771 3.76C95.1771 3.944 95.1611 4.104 95.1291 4.24H95.6091C95.6411 4.368 95.6571 4.528 95.6571 4.72C95.6571 4.904 95.6411 5.064 95.6091 5.2H95.3691C95.4011 5.328 95.4171 5.488 95.4171 5.68C95.4171 5.864 95.4011 6.024 95.3691 6.16H94.6491C94.6811 6.288 94.6971 6.448 94.6971 6.64C94.6971 6.824 94.6811 6.984 94.6491 7.12H94.8891C94.9211 7.248 94.9371 7.408 94.9371 7.6C94.9371 7.784 94.9211 7.944 94.8891 8.08H95.2491C95.2811 8.208 95.2971 8.368 95.2971 8.56C95.2971 8.744 95.2811 8.904 95.2491 9.04H95.6091ZM94.4091 6.16C94.3771 6.024 94.3611 5.864 94.3611 5.68C94.3611 5.488 94.3771 5.328 94.4091 5.2C94.3771 5.064 94.3611 4.904 94.3611 4.72C94.3611 4.528 94.3771 4.368 94.4091 4.24H92.7291C92.7611 4.368 92.7771 4.528 92.7771 4.72C92.7771 4.904 92.7611 5.064 92.7291 5.2C92.7611 5.328 92.7771 5.488 92.7771 5.68C92.7771 5.864 92.7611 6.024 92.7291 6.16H94.4091ZM99.9338 9.04C99.9658 9.168 99.9818 9.328 99.9818 9.52C99.9818 9.704 99.9658 9.864 99.9338 10H97.0538C97.0218 9.864 97.0058 9.704 97.0058 9.52C97.0058 9.328 97.0218 9.168 97.0538 9.04H98.0138C97.9818 8.904 97.9658 8.744 97.9658 8.56C97.9658 8.368 97.9818 8.208 98.0138 8.08C97.9818 7.944 97.9658 7.784 97.9658 7.6C97.9658 7.408 97.9818 7.248 98.0138 7.12C97.9818 6.984 97.9658 6.824 97.9658 6.64C97.9658 6.448 97.9818 6.288 98.0138 6.16C97.9818 6.024 97.9658 5.864 97.9658 5.68C97.9658 5.488 97.9818 5.328 98.0138 5.2H97.2938C97.2618 5.064 97.2458 4.904 97.2458 4.72C97.2458 4.528 97.2618 4.368 97.2938 4.24H98.0138C97.9818 4.104 97.9658 3.944 97.9658 3.76C97.9658 3.568 97.9818 3.408 98.0138 3.28H98.9738C99.0058 3.408 99.0218 3.568 99.0218 3.76C99.0218 3.944 99.0058 4.104 98.9738 4.24C99.0058 4.368 99.0218 4.528 99.0218 4.72C99.0218 4.904 99.0058 5.064 98.9738 5.2C99.0058 5.328 99.0218 5.488 99.0218 5.68C99.0218 5.864 99.0058 6.024 98.9738 6.16C99.0058 6.288 99.0218 6.448 99.0218 6.64C99.0218 6.824 99.0058 6.984 98.9738 7.12C99.0058 7.248 99.0218 7.408 99.0218 7.6C99.0218 7.784 99.0058 7.944 98.9738 8.08C99.0058 8.208 99.0218 8.368 99.0218 8.56C99.0218 8.744 99.0058 8.904 98.9738 9.04H99.9338ZM104.738 9.04C104.77 9.168 104.786 9.328 104.786 9.52C104.786 9.704 104.77 9.864 104.738 10H102.818C102.786 9.864 102.77 9.704 102.77 9.52C102.77 9.328 102.786 9.168 102.818 9.04H102.338C102.306 8.904 102.29 8.744 102.29 8.56C102.29 8.368 102.306 8.208 102.338 8.08C102.306 7.944 102.29 7.784 102.29 7.6C102.29 7.408 102.306 7.248 102.338 7.12C102.306 6.984 102.29 6.824 102.29 6.64C102.29 6.448 102.306 6.288 102.338 6.16H101.378C101.346 6.024 101.33 5.864 101.33 5.68C101.33 5.488 101.346 5.328 101.378 5.2H102.338C102.306 5.064 102.29 4.904 102.29 4.72C102.29 4.528 102.306 4.368 102.338 4.24C102.306 4.104 102.29 3.944 102.29 3.76C102.29 3.568 102.306 3.408 102.338 3.28H103.298C103.33 3.408 103.346 3.568 103.346 3.76C103.346 3.944 103.33 4.104 103.298 4.24C103.33 4.368 103.346 4.528 103.346 4.72C103.346 4.904 103.33 5.064 103.298 5.2H104.738C104.77 5.328 104.786 5.488 104.786 5.68C104.786 5.864 104.77 6.024 104.738 6.16H103.298C103.33 6.288 103.346 6.448 103.346 6.64C103.346 6.824 103.33 6.984 103.298 7.12C103.33 7.248 103.346 7.408 103.346 7.6C103.346 7.784 103.33 7.944 103.298 8.08C103.33 8.208 103.346 8.368 103.346 8.56C103.346 8.744 103.33 8.904 103.298 9.04H104.738ZM109.831 3.76C109.831 3.944 109.815 4.104 109.783 4.24C109.815 4.368 109.831 4.528 109.831 4.72C109.831 4.904 109.815 5.064 109.783 5.2H109.423C109.455 5.328 109.471 5.488 109.471 5.68C109.471 5.864 109.455 6.024 109.423 6.16H109.063C109.095 6.288 109.111 6.448 109.111 6.64C109.111 6.824 109.095 6.984 109.063 7.12H108.703C108.735 7.248 108.751 7.408 108.751 7.6C108.751 7.784 108.735 7.944 108.703 8.08H108.343C108.375 8.208 108.391 8.368 108.391 8.56C108.391 8.744 108.375 8.904 108.343 9.04H107.983C108.015 9.168 108.031 9.328 108.031 9.52C108.031 9.704 108.015 9.864 107.983 10H107.023C106.991 9.864 106.975 9.704 106.975 9.52C106.975 9.328 106.991 9.168 107.023 9.04H107.383C107.351 8.904 107.335 8.744 107.335 8.56C107.335 8.368 107.351 8.208 107.383 8.08H107.743C107.711 7.944 107.695 7.784 107.695 7.6C107.695 7.408 107.711 7.248 107.743 7.12H108.103C108.071 6.984 108.055 6.824 108.055 6.64C108.055 6.448 108.071 6.288 108.103 6.16H108.463C108.431 6.024 108.415 5.864 108.415 5.68C108.415 5.488 108.431 5.328 108.463 5.2H108.823C108.791 5.064 108.775 4.904 108.775 4.72C108.775 4.528 108.791 4.368 108.823 4.24H106.423C106.391 4.104 106.375 3.944 106.375 3.76C106.375 3.568 106.391 3.408 106.423 3.28H109.783C109.815 3.408 109.831 3.568 109.831 3.76ZM114.516 5.68C114.516 5.864 114.5 6.024 114.468 6.16H113.868C113.9 6.288 113.916 6.448 113.916 6.64C113.916 6.824 113.9 6.984 113.868 7.12H114.468C114.5 7.248 114.516 7.408 114.516 7.6C114.516 7.784 114.5 7.944 114.468 8.08C114.5 8.208 114.516 8.368 114.516 8.56C114.516 8.744 114.5 8.904 114.468 9.04H113.868C113.9 9.168 113.916 9.328 113.916 9.52C113.916 9.704 113.9 9.864 113.868 10H111.948C111.916 9.864 111.9 9.704 111.9 9.52C111.9 9.328 111.916 9.168 111.948 9.04H111.348C111.316 8.904 111.3 8.744 111.3 8.56C111.3 8.368 111.316 8.208 111.348 8.08C111.316 7.944 111.3 7.784 111.3 7.6C111.3 7.408 111.316 7.248 111.348 7.12H111.948C111.916 6.984 111.9 6.824 111.9 6.64C111.9 6.448 111.916 6.288 111.948 6.16H111.348C111.316 6.024 111.3 5.864 111.3 5.68C111.3 5.488 111.316 5.328 111.348 5.2C111.316 5.064 111.3 4.904 111.3 4.72C111.3 4.528 111.316 4.368 111.348 4.24H111.948C111.916 4.104 111.9 3.944 111.9 3.76C111.9 3.568 111.916 3.408 111.948 3.28H113.868C113.9 3.408 113.916 3.568 113.916 3.76C113.916 3.944 113.9 4.104 113.868 4.24H114.468C114.5 4.368 114.516 4.528 114.516 4.72C114.516 4.904 114.5 5.064 114.468 5.2C114.5 5.328 114.516 5.488 114.516 5.68ZM113.508 6.16C113.476 6.024 113.46 5.864 113.46 5.68C113.46 5.488 113.476 5.328 113.508 5.2C113.476 5.064 113.46 4.904 113.46 4.72C113.46 4.528 113.476 4.368 113.508 4.24H112.308C112.34 4.368 112.356 4.528 112.356 4.72C112.356 4.904 112.34 5.064 112.308 5.2C112.34 5.328 112.356 5.488 112.356 5.68C112.356 5.864 112.34 6.024 112.308 6.16H113.508ZM113.508 8.08C113.476 7.944 113.46 7.784 113.46 7.6C113.46 7.408 113.476 7.248 113.508 7.12H112.308C112.34 7.248 112.356 7.408 112.356 7.6C112.356 7.784 112.34 7.944 112.308 8.08C112.34 8.208 112.356 8.368 112.356 8.56C112.356 8.744 112.34 8.904 112.308 9.04H113.508C113.476 8.904 113.46 8.744 113.46 8.56C113.46 8.368 113.476 8.208 113.508 8.08ZM116.441 5.68C116.441 5.864 116.425 6.024 116.393 6.16H116.753C116.785 6.288 116.801 6.448 116.801 6.64C116.801 6.824 116.785 6.984 116.753 7.12C116.785 7.248 116.801 7.408 116.801 7.6C116.801 7.784 116.785 7.944 116.753 8.08C116.785 8.208 116.801 8.368 116.801 8.56C116.801 8.744 116.785 8.904 116.753 9.04C116.785 9.168 116.801 9.328 116.801 9.52C116.801 9.704 116.785 9.864 116.753 10H115.793C115.761 9.864 115.745 9.704 115.745 9.52C115.745 9.328 115.761 9.168 115.793 9.04C115.761 8.904 115.745 8.744 115.745 8.56C115.745 8.368 115.761 8.208 115.793 8.08C115.761 7.944 115.745 7.784 115.745 7.6C115.745 7.408 115.761 7.248 115.793 7.12C115.761 6.984 115.745 6.824 115.745 6.64C115.745 6.448 115.761 6.288 115.793 6.16C115.761 6.024 115.745 5.864 115.745 5.68C115.745 5.488 115.761 5.328 115.793 5.2H116.393C116.425 5.328 116.441 5.488 116.441 5.68ZM117.761 5.68C117.761 5.864 117.745 6.024 117.713 6.16H118.073C118.105 6.288 118.121 6.448 118.121 6.64C118.121 6.824 118.105 6.984 118.073 7.12C118.105 7.248 118.121 7.408 118.121 7.6C118.121 7.784 118.105 7.944 118.073 8.08C118.105 8.208 118.121 8.368 118.121 8.56C118.121 8.744 118.105 8.904 118.073 9.04C118.105 9.168 118.121 9.328 118.121 9.52C118.121 9.704 118.105 9.864 118.073 10H117.353C117.321 9.864 117.305 9.704 117.305 9.52C117.305 9.328 117.321 9.168 117.353 9.04C117.321 8.904 117.305 8.744 117.305 8.56C117.305 8.368 117.321 8.208 117.353 8.08C117.321 7.944 117.305 7.784 117.305 7.6C117.305 7.408 117.321 7.248 117.353 7.12C117.321 6.984 117.305 6.824 117.305 6.64C117.305 6.448 117.321 6.288 117.353 6.16H116.753C116.721 6.024 116.705 5.864 116.705 5.68C116.705 5.488 116.721 5.328 116.753 5.2H117.713C117.745 5.328 117.761 5.488 117.761 5.68ZM119.633 7.12C119.665 7.248 119.681 7.408 119.681 7.6C119.681 7.784 119.665 7.944 119.633 8.08C119.665 8.208 119.681 8.368 119.681 8.56C119.681 8.744 119.665 8.904 119.633 9.04C119.665 9.168 119.681 9.328 119.681 9.52C119.681 9.704 119.665 9.864 119.633 10H118.673C118.641 9.864 118.625 9.704 118.625 9.52C118.625 9.328 118.641 9.168 118.673 9.04C118.641 8.904 118.625 8.744 118.625 8.56C118.625 8.368 118.641 8.208 118.673 8.08C118.641 7.944 118.625 7.784 118.625 7.6C118.625 7.408 118.641 7.248 118.673 7.12C118.641 6.984 118.625 6.824 118.625 6.64C118.625 6.448 118.641 6.288 118.673 6.16H118.073C118.041 6.024 118.025 5.864 118.025 5.68C118.025 5.488 118.041 5.328 118.073 5.2H119.153C119.185 5.328 119.201 5.488 119.201 5.68C119.201 5.864 119.185 6.024 119.153 6.16H119.633C119.665 6.288 119.681 6.448 119.681 6.64C119.681 6.824 119.665 6.984 119.633 7.12ZM124.437 6.16C124.469 6.288 124.485 6.448 124.485 6.64C124.485 6.824 124.469 6.984 124.437 7.12C124.469 7.248 124.485 7.408 124.485 7.6C124.485 7.784 124.469 7.944 124.437 8.08C124.469 8.208 124.485 8.368 124.485 8.56C124.485 8.744 124.469 8.904 124.437 9.04H123.957C123.989 9.168 124.005 9.328 124.005 9.52C124.005 9.704 123.989 9.864 123.957 10H121.557C121.525 9.864 121.509 9.704 121.509 9.52C121.509 9.328 121.525 9.168 121.557 9.04H121.077C121.045 8.904 121.029 8.744 121.029 8.56C121.029 8.368 121.045 8.208 121.077 8.08H120.597C120.565 7.944 120.549 7.784 120.549 7.6C120.549 7.408 120.565 7.248 120.597 7.12C120.565 6.984 120.549 6.824 120.549 6.64C120.549 6.448 120.565 6.288 120.597 6.16C120.565 6.024 120.549 5.864 120.549 5.68C120.549 5.488 120.565 5.328 120.597 5.2H121.077C121.045 5.064 121.029 4.904 121.029 4.72C121.029 4.528 121.045 4.368 121.077 4.24H121.557C121.525 4.104 121.509 3.944 121.509 3.76C121.509 3.568 121.525 3.408 121.557 3.28H123.957C123.989 3.408 124.005 3.568 124.005 3.76C124.005 3.944 123.989 4.104 123.957 4.24H124.437C124.469 4.368 124.485 4.528 124.485 4.72C124.485 4.904 124.469 5.064 124.437 5.2H123.477C123.445 5.064 123.429 4.904 123.429 4.72C123.429 4.528 123.445 4.368 123.477 4.24H122.037C122.069 4.368 122.085 4.528 122.085 4.72C122.085 4.904 122.069 5.064 122.037 5.2H121.557C121.589 5.328 121.605 5.488 121.605 5.68C121.605 5.864 121.589 6.024 121.557 6.16C121.589 6.288 121.605 6.448 121.605 6.64C121.605 6.824 121.589 6.984 121.557 7.12C121.589 7.248 121.605 7.408 121.605 7.6C121.605 7.784 121.589 7.944 121.557 8.08H122.037C122.069 8.208 122.085 8.368 122.085 8.56C122.085 8.744 122.069 8.904 122.037 9.04H123.477C123.445 8.904 123.429 8.744 123.429 8.56C123.429 8.368 123.445 8.208 123.477 8.08C123.445 7.944 123.429 7.784 123.429 7.6C123.429 7.408 123.445 7.248 123.477 7.12H122.757C122.725 6.984 122.709 6.824 122.709 6.64C122.709 6.448 122.725 6.288 122.757 6.16H124.437ZM129.242 7.12C129.274 7.248 129.29 7.408 129.29 7.6C129.29 7.784 129.274 7.944 129.242 8.08C129.274 8.208 129.29 8.368 129.29 8.56C129.29 8.744 129.274 8.904 129.242 9.04H128.762C128.794 9.168 128.81 9.328 128.81 9.52C128.81 9.704 128.794 9.864 128.762 10H125.882C125.85 9.864 125.834 9.704 125.834 9.52C125.834 9.328 125.85 9.168 125.882 9.04H125.402C125.37 8.904 125.354 8.744 125.354 8.56C125.354 8.368 125.37 8.208 125.402 8.08H126.362C126.394 8.208 126.41 8.368 126.41 8.56C126.41 8.744 126.394 8.904 126.362 9.04H128.282C128.25 8.904 128.234 8.744 128.234 8.56C128.234 8.368 128.25 8.208 128.282 8.08C128.25 7.944 128.234 7.784 128.234 7.6C128.234 7.408 128.25 7.248 128.282 7.12H125.882C125.85 6.984 125.834 6.824 125.834 6.64C125.834 6.448 125.85 6.288 125.882 6.16H125.402C125.37 6.024 125.354 5.864 125.354 5.68C125.354 5.488 125.37 5.328 125.402 5.2C125.37 5.064 125.354 4.904 125.354 4.72C125.354 4.528 125.37 4.368 125.402 4.24H125.882C125.85 4.104 125.834 3.944 125.834 3.76C125.834 3.568 125.85 3.408 125.882 3.28H128.762C128.794 3.408 128.81 3.568 128.81 3.76C128.81 3.944 128.794 4.104 128.762 4.24H129.242C129.274 4.368 129.29 4.528 129.29 4.72C129.29 4.904 129.274 5.064 129.242 5.2H128.282C128.25 5.064 128.234 4.904 128.234 4.72C128.234 4.528 128.25 4.368 128.282 4.24H126.362C126.394 4.368 126.41 4.528 126.41 4.72C126.41 4.904 126.394 5.064 126.362 5.2C126.394 5.328 126.41 5.488 126.41 5.68C126.41 5.864 126.394 6.024 126.362 6.16H128.762C128.794 6.288 128.81 6.448 128.81 6.64C128.81 6.824 128.794 6.984 128.762 7.12H129.242ZM134.047 4.24C134.079 4.368 134.095 4.528 134.095 4.72C134.095 4.904 134.079 5.064 134.047 5.2C134.079 5.328 134.095 5.488 134.095 5.68C134.095 5.864 134.079 6.024 134.047 6.16C134.079 6.288 134.095 6.448 134.095 6.64C134.095 6.824 134.079 6.984 134.047 7.12C134.079 7.248 134.095 7.408 134.095 7.6C134.095 7.784 134.079 7.944 134.047 8.08C134.079 8.208 134.095 8.368 134.095 8.56C134.095 8.744 134.079 8.904 134.047 9.04C134.079 9.168 134.095 9.328 134.095 9.52C134.095 9.704 134.079 9.864 134.047 10H133.087C133.055 9.864 133.039 9.704 133.039 9.52C133.039 9.328 133.055 9.168 133.087 9.04H132.727C132.695 8.904 132.679 8.744 132.679 8.56C132.679 8.368 132.695 8.208 132.727 8.08H133.087C133.055 7.944 133.039 7.784 133.039 7.6C133.039 7.408 133.055 7.248 133.087 7.12H132.727C132.695 6.984 132.679 6.824 132.679 6.64C132.679 6.448 132.695 6.288 132.727 6.16H133.087C133.055 6.024 133.039 5.864 133.039 5.68C133.039 5.488 133.055 5.328 133.087 5.2C133.055 5.064 133.039 4.904 133.039 4.72C133.039 4.528 133.055 4.368 133.087 4.24C133.055 4.104 133.039 3.944 133.039 3.76C133.039 3.568 133.055 3.408 133.087 3.28H134.047C134.079 3.408 134.095 3.568 134.095 3.76C134.095 3.944 134.079 4.104 134.047 4.24ZM132.535 5.68C132.535 5.864 132.519 6.024 132.487 6.16H131.287C131.319 6.288 131.335 6.448 131.335 6.64C131.335 6.824 131.319 6.984 131.287 7.12H130.927C130.959 7.248 130.975 7.408 130.975 7.6C130.975 7.784 130.959 7.944 130.927 8.08H131.287C131.319 8.208 131.335 8.368 131.335 8.56C131.335 8.744 131.319 8.904 131.287 9.04H132.487C132.519 9.168 132.535 9.328 132.535 9.52C132.535 9.704 132.519 9.864 132.487 10H131.167C131.135 9.864 131.119 9.704 131.119 9.52C131.119 9.328 131.135 9.168 131.167 9.04H130.567C130.535 8.904 130.519 8.744 130.519 8.56C130.519 8.368 130.535 8.208 130.567 8.08H130.207C130.175 7.944 130.159 7.784 130.159 7.6C130.159 7.408 130.175 7.248 130.207 7.12H130.567C130.535 6.984 130.519 6.824 130.519 6.64C130.519 6.448 130.535 6.288 130.567 6.16H131.167C131.135 6.024 131.119 5.864 131.119 5.68C131.119 5.488 131.135 5.328 131.167 5.2H132.487C132.519 5.328 132.535 5.488 132.535 5.68ZM138.179 6.64C138.179 6.824 138.163 6.984 138.131 7.12H137.171C137.139 6.984 137.123 6.824 137.123 6.64C137.123 6.448 137.139 6.288 137.171 6.16H135.251C135.219 6.024 135.203 5.864 135.203 5.68C135.203 5.488 135.219 5.328 135.251 5.2H138.611C138.643 5.328 138.659 5.488 138.659 5.68C138.659 5.864 138.643 6.024 138.611 6.16H138.131C138.163 6.288 138.179 6.448 138.179 6.64ZM137.219 7.6C137.219 7.784 137.203 7.944 137.171 8.08H136.211C136.179 7.944 136.163 7.784 136.163 7.6C136.163 7.408 136.179 7.248 136.211 7.12H137.171C137.203 7.248 137.219 7.408 137.219 7.6ZM138.611 9.04C138.643 9.168 138.659 9.328 138.659 9.52C138.659 9.704 138.643 9.864 138.611 10H135.251C135.219 9.864 135.203 9.704 135.203 9.52C135.203 9.328 135.219 9.168 135.251 9.04C135.219 8.904 135.203 8.744 135.203 8.56C135.203 8.368 135.219 8.208 135.251 8.08H136.211C136.243 8.208 136.259 8.368 136.259 8.56C136.259 8.744 136.243 8.904 136.211 9.04H138.611ZM143.656 9.04C143.688 9.168 143.704 9.328 143.704 9.52C143.704 9.704 143.688 9.864 143.656 10H142.696C142.664 9.864 142.648 9.704 142.648 9.52C142.648 9.328 142.664 9.168 142.696 9.04H142.216C142.184 8.904 142.168 8.744 142.168 8.56C142.168 8.368 142.184 8.208 142.216 8.08H140.776C140.808 8.208 140.824 8.368 140.824 8.56C140.824 8.744 140.808 8.904 140.776 9.04H142.216C142.248 9.168 142.264 9.328 142.264 9.52C142.264 9.704 142.248 9.864 142.216 10H140.296C140.264 9.864 140.248 9.704 140.248 9.52C140.248 9.328 140.264 9.168 140.296 9.04H139.816C139.784 8.904 139.768 8.744 139.768 8.56C139.768 8.368 139.784 8.208 139.816 8.08H140.296C140.264 7.944 140.248 7.784 140.248 7.6C140.248 7.408 140.264 7.248 140.296 7.12H142.216C142.184 6.984 142.168 6.824 142.168 6.64C142.168 6.448 142.184 6.288 142.216 6.16H140.536C140.504 6.024 140.488 5.864 140.488 5.68C140.488 5.488 140.504 5.328 140.536 5.2H142.696C142.728 5.328 142.744 5.488 142.744 5.68C142.744 5.864 142.728 6.024 142.696 6.16H143.176C143.208 6.288 143.224 6.448 143.224 6.64C143.224 6.824 143.208 6.984 143.176 7.12C143.208 7.248 143.224 7.408 143.224 7.6C143.224 7.784 143.208 7.944 143.176 8.08C143.208 8.208 143.224 8.368 143.224 8.56C143.224 8.744 143.208 8.904 143.176 9.04H143.656ZM148.509 8.56C148.509 8.744 148.493 8.904 148.461 9.04C148.493 9.168 148.509 9.328 148.509 9.52C148.509 9.704 148.493 9.864 148.461 10H147.501C147.469 9.864 147.453 9.704 147.453 9.52C147.453 9.328 147.469 9.168 147.501 9.04C147.469 8.904 147.453 8.744 147.453 8.56C147.453 8.368 147.469 8.208 147.501 8.08H145.581C145.613 8.208 145.629 8.368 145.629 8.56C145.629 8.744 145.613 8.904 145.581 9.04C145.613 9.168 145.629 9.328 145.629 9.52C145.629 9.704 145.613 9.864 145.581 10H144.621C144.589 9.864 144.573 9.704 144.573 9.52C144.573 9.328 144.589 9.168 144.621 9.04C144.589 8.904 144.573 8.744 144.573 8.56C144.573 8.368 144.589 8.208 144.621 8.08H144.981C144.949 7.944 144.933 7.784 144.933 7.6C144.933 7.408 144.949 7.248 144.981 7.12C144.949 6.984 144.933 6.824 144.933 6.64C144.933 6.448 144.949 6.288 144.981 6.16H145.221C145.189 6.024 145.173 5.864 145.173 5.68C145.173 5.488 145.189 5.328 145.221 5.2H145.581C145.549 5.064 145.533 4.904 145.533 4.72C145.533 4.528 145.549 4.368 145.581 4.24H145.821C145.789 4.104 145.773 3.944 145.773 3.76C145.773 3.568 145.789 3.408 145.821 3.28H147.261C147.293 3.408 147.309 3.568 147.309 3.76C147.309 3.944 147.293 4.104 147.261 4.24H147.501C147.533 4.368 147.549 4.528 147.549 4.72C147.549 4.904 147.533 5.064 147.501 5.2H147.861C147.893 5.328 147.909 5.488 147.909 5.68C147.909 5.864 147.893 6.024 147.861 6.16H148.101C148.133 6.288 148.149 6.448 148.149 6.64C148.149 6.824 148.133 6.984 148.101 7.12C148.133 7.248 148.149 7.408 148.149 7.6C148.149 7.784 148.133 7.944 148.101 8.08H148.461C148.493 8.208 148.509 8.368 148.509 8.56ZM147.141 7.12C147.109 6.984 147.093 6.824 147.093 6.64C147.093 6.448 147.109 6.288 147.141 6.16H146.901C146.869 6.024 146.853 5.864 146.853 5.68C146.853 5.488 146.869 5.328 146.901 5.2H146.181C146.213 5.328 146.229 5.488 146.229 5.68C146.229 5.864 146.213 6.024 146.181 6.16H145.941C145.973 6.288 145.989 6.448 145.989 6.64C145.989 6.824 145.973 6.984 145.941 7.12H147.141ZM152.785 9.04C152.817 9.168 152.833 9.328 152.833 9.52C152.833 9.704 152.817 9.864 152.785 10H150.865C150.833 9.864 150.817 9.704 150.817 9.52C150.817 9.328 150.833 9.168 150.865 9.04H150.385C150.353 8.904 150.337 8.744 150.337 8.56C150.337 8.368 150.353 8.208 150.385 8.08C150.353 7.944 150.337 7.784 150.337 7.6C150.337 7.408 150.353 7.248 150.385 7.12C150.353 6.984 150.337 6.824 150.337 6.64C150.337 6.448 150.353 6.288 150.385 6.16H149.425C149.393 6.024 149.377 5.864 149.377 5.68C149.377 5.488 149.393 5.328 149.425 5.2H150.385C150.353 5.064 150.337 4.904 150.337 4.72C150.337 4.528 150.353 4.368 150.385 4.24C150.353 4.104 150.337 3.944 150.337 3.76C150.337 3.568 150.353 3.408 150.385 3.28H151.345C151.377 3.408 151.393 3.568 151.393 3.76C151.393 3.944 151.377 4.104 151.345 4.24C151.377 4.368 151.393 4.528 151.393 4.72C151.393 4.904 151.377 5.064 151.345 5.2H152.785C152.817 5.328 152.833 5.488 152.833 5.68C152.833 5.864 152.817 6.024 152.785 6.16H151.345C151.377 6.288 151.393 6.448 151.393 6.64C151.393 6.824 151.377 6.984 151.345 7.12C151.377 7.248 151.393 7.408 151.393 7.6C151.393 7.784 151.377 7.944 151.345 8.08C151.377 8.208 151.393 8.368 151.393 8.56C151.393 8.744 151.377 8.904 151.345 9.04H152.785ZM158.07 4.24C158.102 4.368 158.118 4.528 158.118 4.72C158.118 4.904 158.102 5.064 158.07 5.2C158.102 5.328 158.118 5.488 158.118 5.68C158.118 5.864 158.102 6.024 158.07 6.16C158.102 6.288 158.118 6.448 158.118 6.64C158.118 6.824 158.102 6.984 158.07 7.12C158.102 7.248 158.118 7.408 158.118 7.6C158.118 7.784 158.102 7.944 158.07 8.08C158.102 8.208 158.118 8.368 158.118 8.56C158.118 8.744 158.102 8.904 158.07 9.04C158.102 9.168 158.118 9.328 158.118 9.52C158.118 9.704 158.102 9.864 158.07 10H157.11C157.078 9.864 157.062 9.704 157.062 9.52C157.062 9.328 157.078 9.168 157.11 9.04H156.51C156.478 8.904 156.462 8.744 156.462 8.56C156.462 8.368 156.478 8.208 156.51 8.08H156.15C156.118 7.944 156.102 7.784 156.102 7.6C156.102 7.408 156.118 7.248 156.15 7.12H155.67C155.638 6.984 155.622 6.824 155.622 6.64C155.622 6.448 155.638 6.288 155.67 6.16H155.19C155.222 6.288 155.238 6.448 155.238 6.64C155.238 6.824 155.222 6.984 155.19 7.12C155.222 7.248 155.238 7.408 155.238 7.6C155.238 7.784 155.222 7.944 155.19 8.08C155.222 8.208 155.238 8.368 155.238 8.56C155.238 8.744 155.222 8.904 155.19 9.04C155.222 9.168 155.238 9.328 155.238 9.52C155.238 9.704 155.222 9.864 155.19 10H154.23C154.198 9.864 154.182 9.704 154.182 9.52C154.182 9.328 154.198 9.168 154.23 9.04C154.198 8.904 154.182 8.744 154.182 8.56C154.182 8.368 154.198 8.208 154.23 8.08C154.198 7.944 154.182 7.784 154.182 7.6C154.182 7.408 154.198 7.248 154.23 7.12C154.198 6.984 154.182 6.824 154.182 6.64C154.182 6.448 154.198 6.288 154.23 6.16C154.198 6.024 154.182 5.864 154.182 5.68C154.182 5.488 154.198 5.328 154.23 5.2C154.198 5.064 154.182 4.904 154.182 4.72C154.182 4.528 154.198 4.368 154.23 4.24C154.198 4.104 154.182 3.944 154.182 3.76C154.182 3.568 154.198 3.408 154.23 3.28H155.43C155.462 3.408 155.478 3.568 155.478 3.76C155.478 3.944 155.462 4.104 155.43 4.24H155.79C155.822 4.368 155.838 4.528 155.838 4.72C155.838 4.904 155.822 5.064 155.79 5.2H156.15C156.182 5.328 156.198 5.488 156.198 5.68C156.198 5.864 156.182 6.024 156.15 6.16H156.63C156.662 6.288 156.678 6.448 156.678 6.64C156.678 6.824 156.662 6.984 156.63 7.12H157.11C157.078 6.984 157.062 6.824 157.062 6.64C157.062 6.448 157.078 6.288 157.11 6.16C157.078 6.024 157.062 5.864 157.062 5.68C157.062 5.488 157.078 5.328 157.11 5.2C157.078 5.064 157.062 4.904 157.062 4.72C157.062 4.528 157.078 4.368 157.11 4.24C157.078 4.104 157.062 3.944 157.062 3.76C157.062 3.568 157.078 3.408 157.11 3.28H158.07C158.102 3.408 158.118 3.568 158.118 3.76C158.118 3.944 158.102 4.104 158.07 4.24ZM159.995 8.08C160.027 8.208 160.043 8.368 160.043 8.56C160.043 8.744 160.027 8.904 159.995 9.04H159.515C159.547 9.168 159.563 9.328 159.563 9.52C159.563 9.704 159.547 9.864 159.515 10H159.035C159.003 9.864 158.987 9.704 158.987 9.52C158.987 9.328 159.003 9.168 159.035 9.04C159.003 8.904 158.987 8.744 158.987 8.56C158.987 8.368 159.003 8.208 159.035 8.08C159.003 7.944 158.987 7.784 158.987 7.6C158.987 7.408 159.003 7.248 159.035 7.12C159.003 6.984 158.987 6.824 158.987 6.64C158.987 6.448 159.003 6.288 159.035 6.16C159.003 6.024 158.987 5.864 158.987 5.68C158.987 5.488 159.003 5.328 159.035 5.2C159.003 5.064 158.987 4.904 158.987 4.72C158.987 4.528 159.003 4.368 159.035 4.24C159.003 4.104 158.987 3.944 158.987 3.76C158.987 3.568 159.003 3.408 159.035 3.28H159.995C160.027 3.408 160.043 3.568 160.043 3.76C160.043 3.944 160.027 4.104 159.995 4.24C160.027 4.368 160.043 4.528 160.043 4.72C160.043 4.904 160.027 5.064 159.995 5.2C160.027 5.328 160.043 5.488 160.043 5.68C160.043 5.864 160.027 6.024 159.995 6.16H160.475C160.507 6.288 160.523 6.448 160.523 6.64C160.523 6.824 160.507 6.984 160.475 7.12H159.995C160.027 7.248 160.043 7.408 160.043 7.6C160.043 7.784 160.027 7.944 159.995 8.08ZM162.923 7.6C162.923 7.784 162.907 7.944 162.875 8.08H162.395C162.427 8.208 162.443 8.368 162.443 8.56C162.443 8.744 162.427 8.904 162.395 9.04H161.435C161.403 8.904 161.387 8.744 161.387 8.56C161.387 8.368 161.403 8.208 161.435 8.08H161.915C161.883 7.944 161.867 7.784 161.867 7.6C161.867 7.408 161.883 7.248 161.915 7.12H161.435C161.403 6.984 161.387 6.824 161.387 6.64C161.387 6.448 161.403 6.288 161.435 6.16H160.475C160.443 6.024 160.427 5.864 160.427 5.68C160.427 5.488 160.443 5.328 160.475 5.2H161.915C161.947 5.328 161.963 5.488 161.963 5.68C161.963 5.864 161.947 6.024 161.915 6.16H162.395C162.427 6.288 162.443 6.448 162.443 6.64C162.443 6.824 162.427 6.984 162.395 7.12H162.875C162.907 7.248 162.923 7.408 162.923 7.6ZM159.947 9.52C159.947 9.328 159.963 9.168 159.995 9.04H161.435C161.467 9.168 161.483 9.328 161.483 9.52C161.483 9.704 161.467 9.864 161.435 10H159.995C159.963 9.864 159.947 9.704 159.947 9.52ZM167.727 5.68C167.727 5.864 167.711 6.024 167.679 6.16H167.199C167.231 6.288 167.247 6.448 167.247 6.64C167.247 6.824 167.231 6.984 167.199 7.12H167.679C167.711 7.248 167.727 7.408 167.727 7.6C167.727 7.784 167.711 7.944 167.679 8.08C167.711 8.208 167.727 8.368 167.727 8.56C167.727 8.744 167.711 8.904 167.679 9.04H167.199C167.231 9.168 167.247 9.328 167.247 9.52C167.247 9.704 167.231 9.864 167.199 10H163.839C163.807 9.864 163.791 9.704 163.791 9.52C163.791 9.328 163.807 9.168 163.839 9.04C163.807 8.904 163.791 8.744 163.791 8.56C163.791 8.368 163.807 8.208 163.839 8.08C163.807 7.944 163.791 7.784 163.791 7.6C163.791 7.408 163.807 7.248 163.839 7.12C163.807 6.984 163.791 6.824 163.791 6.64C163.791 6.448 163.807 6.288 163.839 6.16C163.807 6.024 163.791 5.864 163.791 5.68C163.791 5.488 163.807 5.328 163.839 5.2C163.807 5.064 163.791 4.904 163.791 4.72C163.791 4.528 163.807 4.368 163.839 4.24C163.807 4.104 163.791 3.944 163.791 3.76C163.791 3.568 163.807 3.408 163.839 3.28H167.199C167.231 3.408 167.247 3.568 167.247 3.76C167.247 3.944 167.231 4.104 167.199 4.24H167.679C167.711 4.368 167.727 4.528 167.727 4.72C167.727 4.904 167.711 5.064 167.679 5.2C167.711 5.328 167.727 5.488 167.727 5.68ZM166.719 6.16C166.687 6.024 166.671 5.864 166.671 5.68C166.671 5.488 166.687 5.328 166.719 5.2C166.687 5.064 166.671 4.904 166.671 4.72C166.671 4.528 166.687 4.368 166.719 4.24H164.799C164.831 4.368 164.847 4.528 164.847 4.72C164.847 4.904 164.831 5.064 164.799 5.2C164.831 5.328 164.847 5.488 164.847 5.68C164.847 5.864 164.831 6.024 164.799 6.16H166.719ZM166.719 8.08C166.687 7.944 166.671 7.784 166.671 7.6C166.671 7.408 166.687 7.248 166.719 7.12H164.799C164.831 7.248 164.847 7.408 164.847 7.6C164.847 7.784 164.831 7.944 164.799 8.08C164.831 8.208 164.847 8.368 164.847 8.56C164.847 8.744 164.831 8.904 164.799 9.04H166.719C166.687 8.904 166.671 8.744 166.671 8.56C166.671 8.368 166.687 8.208 166.719 8.08ZM172.484 4.24C172.516 4.368 172.532 4.528 172.532 4.72C172.532 4.904 172.516 5.064 172.484 5.2C172.516 5.328 172.532 5.488 172.532 5.68C172.532 5.864 172.516 6.024 172.484 6.16C172.516 6.288 172.532 6.448 172.532 6.64C172.532 6.824 172.516 6.984 172.484 7.12H172.124C172.156 7.248 172.172 7.408 172.172 7.6C172.172 7.784 172.156 7.944 172.124 8.08C172.156 8.208 172.172 8.368 172.172 8.56C172.172 8.744 172.156 8.904 172.124 9.04H171.884C171.916 9.168 171.932 9.328 171.932 9.52C171.932 9.704 171.916 9.864 171.884 10H171.164C171.132 9.864 171.116 9.704 171.116 9.52C171.116 9.328 171.132 9.168 171.164 9.04H170.924C170.892 8.904 170.876 8.744 170.876 8.56C170.876 8.368 170.892 8.208 170.924 8.08H170.204C170.236 8.208 170.252 8.368 170.252 8.56C170.252 8.744 170.236 8.904 170.204 9.04H169.964C169.996 9.168 170.012 9.328 170.012 9.52C170.012 9.704 169.996 9.864 169.964 10H169.244C169.212 9.864 169.196 9.704 169.196 9.52C169.196 9.328 169.212 9.168 169.244 9.04H169.004C168.972 8.904 168.956 8.744 168.956 8.56C168.956 8.368 168.972 8.208 169.004 8.08C168.972 7.944 168.956 7.784 168.956 7.6C168.956 7.408 168.972 7.248 169.004 7.12H168.644C168.612 6.984 168.596 6.824 168.596 6.64C168.596 6.448 168.612 6.288 168.644 6.16C168.612 6.024 168.596 5.864 168.596 5.68C168.596 5.488 168.612 5.328 168.644 5.2C168.612 5.064 168.596 4.904 168.596 4.72C168.596 4.528 168.612 4.368 168.644 4.24C168.612 4.104 168.596 3.944 168.596 3.76C168.596 3.568 168.612 3.408 168.644 3.28H169.604C169.636 3.408 169.652 3.568 169.652 3.76C169.652 3.944 169.636 4.104 169.604 4.24C169.636 4.368 169.652 4.528 169.652 4.72C169.652 4.904 169.636 5.064 169.604 5.2C169.636 5.328 169.652 5.488 169.652 5.68C169.652 5.864 169.636 6.024 169.604 6.16C169.636 6.288 169.652 6.448 169.652 6.64C169.652 6.824 169.636 6.984 169.604 7.12C169.636 7.248 169.652 7.408 169.652 7.6C169.652 7.784 169.636 7.944 169.604 8.08H169.964C169.932 7.944 169.916 7.784 169.916 7.6C169.916 7.408 169.932 7.248 169.964 7.12H170.204C170.172 6.984 170.156 6.824 170.156 6.64C170.156 6.448 170.172 6.288 170.204 6.16C170.172 6.024 170.156 5.864 170.156 5.68C170.156 5.488 170.172 5.328 170.204 5.2C170.172 5.064 170.156 4.904 170.156 4.72C170.156 4.528 170.172 4.368 170.204 4.24C170.172 4.104 170.156 3.944 170.156 3.76C170.156 3.568 170.172 3.408 170.204 3.28H170.924C170.956 3.408 170.972 3.568 170.972 3.76C170.972 3.944 170.956 4.104 170.924 4.24C170.956 4.368 170.972 4.528 170.972 4.72C170.972 4.904 170.956 5.064 170.924 5.2C170.956 5.328 170.972 5.488 170.972 5.68C170.972 5.864 170.956 6.024 170.924 6.16C170.956 6.288 170.972 6.448 170.972 6.64C170.972 6.824 170.956 6.984 170.924 7.12H171.164C171.196 7.248 171.212 7.408 171.212 7.6C171.212 7.784 171.196 7.944 171.164 8.08H171.524C171.492 7.944 171.476 7.784 171.476 7.6C171.476 7.408 171.492 7.248 171.524 7.12C171.492 6.984 171.476 6.824 171.476 6.64C171.476 6.448 171.492 6.288 171.524 6.16C171.492 6.024 171.476 5.864 171.476 5.68C171.476 5.488 171.492 5.328 171.524 5.2C171.492 5.064 171.476 4.904 171.476 4.72C171.476 4.528 171.492 4.368 171.524 4.24C171.492 4.104 171.476 3.944 171.476 3.76C171.476 3.568 171.492 3.408 171.524 3.28H172.484C172.516 3.408 172.532 3.568 172.532 3.76C172.532 3.944 172.516 4.104 172.484 4.24ZM177.289 9.04C177.321 9.168 177.337 9.328 177.337 9.52C177.337 9.704 177.321 9.864 177.289 10H176.329C176.297 9.864 176.281 9.704 176.281 9.52C176.281 9.328 176.297 9.168 176.329 9.04H175.969C175.937 8.904 175.921 8.744 175.921 8.56C175.921 8.368 175.937 8.208 175.969 8.08H175.729C175.697 7.944 175.681 7.784 175.681 7.6C175.681 7.408 175.697 7.248 175.729 7.12H175.009C175.041 7.248 175.057 7.408 175.057 7.6C175.057 7.784 175.041 7.944 175.009 8.08H174.769C174.801 8.208 174.817 8.368 174.817 8.56C174.817 8.744 174.801 8.904 174.769 9.04H174.409C174.441 9.168 174.457 9.328 174.457 9.52C174.457 9.704 174.441 9.864 174.409 10H173.449C173.417 9.864 173.401 9.704 173.401 9.52C173.401 9.328 173.417 9.168 173.449 9.04H173.809C173.777 8.904 173.761 8.744 173.761 8.56C173.761 8.368 173.777 8.208 173.809 8.08H174.289C174.257 7.944 174.241 7.784 174.241 7.6C174.241 7.408 174.257 7.248 174.289 7.12H174.649C174.617 6.984 174.601 6.824 174.601 6.64C174.601 6.448 174.617 6.288 174.649 6.16H174.289C174.257 6.024 174.241 5.864 174.241 5.68C174.241 5.488 174.257 5.328 174.289 5.2H173.809C173.777 5.064 173.761 4.904 173.761 4.72C173.761 4.528 173.777 4.368 173.809 4.24H173.449C173.417 4.104 173.401 3.944 173.401 3.76C173.401 3.568 173.417 3.408 173.449 3.28H174.409C174.441 3.408 174.457 3.568 174.457 3.76C174.457 3.944 174.441 4.104 174.409 4.24H174.769C174.801 4.368 174.817 4.528 174.817 4.72C174.817 4.904 174.801 5.064 174.769 5.2H175.009C175.041 5.328 175.057 5.488 175.057 5.68C175.057 5.864 175.041 6.024 175.009 6.16H175.729C175.697 6.024 175.681 5.864 175.681 5.68C175.681 5.488 175.697 5.328 175.729 5.2H175.969C175.937 5.064 175.921 4.904 175.921 4.72C175.921 4.528 175.937 4.368 175.969 4.24H176.329C176.297 4.104 176.281 3.944 176.281 3.76C176.281 3.568 176.297 3.408 176.329 3.28H177.289C177.321 3.408 177.337 3.568 177.337 3.76C177.337 3.944 177.321 4.104 177.289 4.24H176.929C176.961 4.368 176.977 4.528 176.977 4.72C176.977 4.904 176.961 5.064 176.929 5.2H176.449C176.481 5.328 176.497 5.488 176.497 5.68C176.497 5.864 176.481 6.024 176.449 6.16H176.089C176.121 6.288 176.137 6.448 176.137 6.64C176.137 6.824 176.121 6.984 176.089 7.12H176.449C176.481 7.248 176.497 7.408 176.497 7.6C176.497 7.784 176.481 7.944 176.449 8.08H176.929C176.961 8.208 176.977 8.368 176.977 8.56C176.977 8.744 176.961 8.904 176.929 9.04H177.289Z" fill="#FF5555"/>
</g>
<defs>
<clipPath id="clip0_324_66">
<rect width="366" height="12" fill="white"/>
</clipPath>
</defs>
</svg>
