<svg width="366" height="24" viewBox="0 0 366 24" fill="none" xmlns="http://www.w3.org/2000/svg">
<g clip-path="url(#clip0_324_66)">
<path d="M3.6 9.04C3.632 9.168 3.648 9.328 3.648 9.52C3.648 9.704 3.632 9.864 3.6 10H1.2C1.168 9.864 1.152 9.704 1.152 9.52C1.152 9.328 1.168 9.168 1.2 9.04H1.92C1.888 8.904 1.872 8.744 1.872 8.56C1.872 8.368 1.888 8.208 1.92 8.08C1.888 7.944 1.872 7.784 1.872 7.6C1.872 7.408 1.888 7.248 1.92 7.12C1.888 6.984 1.872 6.824 1.872 6.64C1.872 6.448 1.888 6.288 1.92 6.16C1.888 6.024 1.872 5.864 1.872 5.68C1.872 5.488 1.888 5.328 1.92 5.2C1.888 5.064 1.872 4.904 1.872 4.72C1.872 4.528 1.888 4.368 1.92 4.24H1.2C1.168 4.104 1.152 3.944 1.152 3.76C1.152 3.568 1.168 3.408 1.2 3.28H3.6C3.632 3.408 3.648 3.568 3.648 3.76C3.648 3.944 3.632 4.104 3.6 4.24H2.88C2.912 4.368 2.928 4.528 2.928 4.72C2.928 4.904 2.912 5.064 2.88 5.2C2.912 5.328 2.928 5.488 2.928 5.68C2.928 5.864 2.912 6.024 2.88 6.16C2.912 6.288 2.928 6.448 2.928 6.64C2.928 6.824 2.912 6.984 2.88 7.12C2.912 7.248 2.928 7.408 2.928 7.6C2.928 7.784 2.912 7.944 2.88 8.08C2.912 8.208 2.928 8.368 2.928 8.56C2.928 8.744 2.912 8.904 2.88 9.04H3.6ZM8.64469 5.2C8.67669 5.328 8.69269 5.488 8.69269 5.68C8.69269 5.864 8.67669 6.024 8.64469 6.16H7.20469C7.23669 6.288 7.25269 6.448 7.25269 6.64C7.25269 6.824 7.23669 6.984 7.20469 7.12C7.23669 7.248 7.25269 7.408 7.25269 7.6C7.25269 7.784 7.23669 7.944 7.20469 8.08C7.23669 8.208 7.25269 8.368 7.25269 8.56C7.25269 8.744 7.23669 8.904 7.20469 9.04H8.16469C8.19669 9.168 8.21269 9.328 8.21269 9.52C8.21269 9.704 8.19669 9.864 8.16469 10H5.76469C5.73269 9.864 5.71669 9.704 5.71669 9.52C5.71669 9.328 5.73269 9.168 5.76469 9.04H6.24469C6.21269 8.904 6.19669 8.744 6.19669 8.56C6.19669 8.368 6.21269 8.208 6.24469 8.08C6.21269 7.944 6.19669 7.784 6.19669 7.6C6.19669 7.408 6.21269 7.248 6.24469 7.12C6.21269 6.984 6.19669 6.824 6.19669 6.64C6.19669 6.448 6.21269 6.288 6.24469 6.16H5.76469C5.73269 6.024 5.71669 5.864 5.71669 5.68C5.71669 5.488 5.73269 5.328 5.76469 5.2H6.24469C6.21269 5.064 6.19669 4.904 6.19669 4.72C6.19669 4.528 6.21269 4.368 6.24469 4.24H6.72469C6.69269 4.104 6.67669 3.944 6.67669 3.76C6.67669 3.568 6.69269 3.408 6.72469 3.28H8.64469C8.67669 3.408 8.69269 3.568 8.69269 3.76C8.69269 3.944 8.67669 4.104 8.64469 4.24H7.20469C7.23669 4.368 7.25269 4.528 7.25269 4.72C7.25269 4.904 7.23669 5.064 7.20469 5.2H8.64469ZM18.7821 5.68C18.7821 5.864 18.7661 6.024 18.7341 6.16H18.3741C18.4061 6.288 18.4221 6.448 18.4221 6.64C18.4221 6.824 18.4061 6.984 18.3741 7.12H18.0141C18.0461 7.248 18.0621 7.408 18.0621 7.6C18.0621 7.784 18.0461 7.944 18.0141 8.08H17.7741C17.8061 8.208 17.8221 8.368 17.8221 8.56C17.8221 8.744 17.8061 8.904 17.7741 9.04H17.4141C17.4461 9.168 17.4621 9.328 17.4621 9.52C17.4621 9.704 17.4461 9.864 17.4141 10H17.1741C17.2061 10.128 17.2221 10.288 17.2221 10.48C17.2221 10.664 17.2061 10.824 17.1741 10.96H16.6941C16.7261 11.088 16.7421 11.248 16.7421 11.44C16.7421 11.624 16.7261 11.784 16.6941 11.92H15.2541C15.2221 11.784 15.2061 11.624 15.2061 11.44C15.2061 11.248 15.2221 11.088 15.2541 10.96H16.2141C16.1821 10.824 16.1661 10.664 16.1661 10.48C16.1661 10.288 16.1821 10.128 16.2141 10C16.1821 9.864 16.1661 9.704 16.1661 9.52C16.1661 9.328 16.1821 9.168 16.2141 9.04H15.7341C15.7021 8.904 15.6861 8.744 15.6861 8.56C15.6861 8.368 15.7021 8.208 15.7341 8.08H15.4941C15.4621 7.944 15.4461 7.784 15.4461 7.6C15.4461 7.408 15.4621 7.248 15.4941 7.12H15.1341C15.1021 6.984 15.0861 6.824 15.0861 6.64C15.0861 6.448 15.1021 6.288 15.1341 6.16H14.7741C14.7421 6.024 14.7261 5.864 14.7261 5.68C14.7261 5.488 14.7421 5.328 14.7741 5.2H15.7341C15.7661 5.328 15.7821 5.488 15.7821 5.68C15.7821 5.864 15.7661 6.024 15.7341 6.16H16.0941C16.1261 6.288 16.1421 6.448 16.1421 6.64C16.1421 6.824 16.1261 6.984 16.0941 7.12H16.4541C16.4861 7.248 16.5021 7.408 16.5021 7.6C16.5021 7.784 16.4861 7.944 16.4541 8.08C16.4861 8.208 16.5021 8.368 16.5021 8.56C16.5021 8.744 16.4861 8.904 16.4541 9.04H16.8141C16.7821 8.904 16.7661 8.744 16.7661 8.56C16.7661 8.368 16.7821 8.208 16.8141 8.08H17.0541C17.0221 7.944 17.0061 7.784 17.0061 7.6C17.0061 7.408 17.0221 7.248 17.0541 7.12H17.4141C17.3821 6.984 17.3661 6.824 17.3661 6.64C17.3661 6.448 17.3821 6.288 17.4141 6.16H17.7741C17.7421 6.024 17.7261 5.864 17.7261 5.68C17.7261 5.488 17.7421 5.328 17.7741 5.2H18.7341C18.7661 5.328 18.7821 5.488 18.7821 5.68ZM23.5868 7.6C23.5868 7.784 23.5708 7.944 23.5388 8.08H23.1788C23.2108 8.208 23.2268 8.368 23.2268 8.56C23.2268 8.744 23.2108 8.904 23.1788 9.04H22.5788C22.6108 9.168 22.6268 9.328 22.6268 9.52C22.6268 9.704 22.6108 9.864 22.5788 10H20.6588C20.6268 9.864 20.6108 9.704 20.6108 9.52C20.6108 9.328 20.6268 9.168 20.6588 9.04H20.0588C20.0267 8.904 20.0107 8.744 20.0107 8.56C20.0107 8.368 20.0267 8.208 20.0588 8.08H19.6988C19.6668 7.944 19.6508 7.784 19.6508 7.6C19.6508 7.408 19.6668 7.248 19.6988 7.12H20.0588C20.0267 6.984 20.0107 6.824 20.0107 6.64C20.0107 6.448 20.0267 6.288 20.0588 6.16H20.6588C20.6268 6.024 20.6108 5.864 20.6108 5.68C20.6108 5.488 20.6268 5.328 20.6588 5.2H22.5788C22.6108 5.328 22.6268 5.488 22.6268 5.68C22.6268 5.864 22.6108 6.024 22.5788 6.16H23.1788C23.2108 6.288 23.2268 6.448 23.2268 6.64C23.2268 6.824 23.2108 6.984 23.1788 7.12H23.5388C23.5708 7.248 23.5868 7.408 23.5868 7.6ZM22.5788 8.08C22.5468 7.944 22.5308 7.784 22.5308 7.6C22.5308 7.408 22.5468 7.248 22.5788 7.12H22.2188C22.1868 6.984 22.1708 6.824 22.1708 6.64C22.1708 6.448 22.1868 6.288 22.2188 6.16H21.0188C21.0508 6.288 21.0668 6.448 21.0668 6.64C21.0668 6.824 21.0508 6.984 21.0188 7.12H20.6588C20.6908 7.248 20.7068 7.408 20.7068 7.6C20.7068 7.784 20.6908 7.944 20.6588 8.08H21.0188C21.0508 8.208 21.0668 8.368 21.0668 8.56C21.0668 8.744 21.0508 8.904 21.0188 9.04H22.2188C22.1868 8.904 22.1708 8.744 22.1708 8.56C22.1708 8.368 22.1868 8.208 22.2188 8.08H22.5788ZM25.8714 8.56C25.8714 8.744 25.8554 8.904 25.8234 9.04H27.0234C27.0554 9.168 27.0714 9.328 27.0714 9.52C27.0714 9.704 27.0554 9.864 27.0234 10H25.1034C25.0714 9.864 25.0554 9.704 25.0554 9.52C25.0554 9.328 25.0714 9.168 25.1034 9.04H24.5034C24.4714 8.904 24.4554 8.744 24.4554 8.56C24.4554 8.368 24.4714 8.208 24.5034 8.08C24.4714 7.944 24.4554 7.784 24.4554 7.6C24.4554 7.408 24.4714 7.248 24.5034 7.12C24.4714 6.984 24.4554 6.824 24.4554 6.64C24.4554 6.448 24.4714 6.288 24.5034 6.16C24.4714 6.024 24.4554 5.864 24.4554 5.68C24.4554 5.488 24.4714 5.328 24.5034 5.2H25.4634C25.4954 5.328 25.5114 5.488 25.5114 5.68C25.5114 5.864 25.4954 6.024 25.4634 6.16C25.4954 6.288 25.5114 6.448 25.5114 6.64C25.5114 6.824 25.4954 6.984 25.4634 7.12C25.4954 7.248 25.5114 7.408 25.5114 7.6C25.5114 7.784 25.4954 7.944 25.4634 8.08H25.8234C25.8554 8.208 25.8714 8.368 25.8714 8.56ZM28.3434 6.16C28.3754 6.288 28.3914 6.448 28.3914 6.64C28.3914 6.824 28.3754 6.984 28.3434 7.12C28.3754 7.248 28.3914 7.408 28.3914 7.6C28.3914 7.784 28.3754 7.944 28.3434 8.08C28.3754 8.208 28.3914 8.368 28.3914 8.56C28.3914 8.744 28.3754 8.904 28.3434 9.04C28.3754 9.168 28.3914 9.328 28.3914 9.52C28.3914 9.704 28.3754 9.864 28.3434 10H27.3834C27.3514 9.864 27.3354 9.704 27.3354 9.52C27.3354 9.328 27.3514 9.168 27.3834 9.04H27.0234C26.9914 8.904 26.9754 8.744 26.9754 8.56C26.9754 8.368 26.9914 8.208 27.0234 8.08H27.3834C27.3514 7.944 27.3354 7.784 27.3354 7.6C27.3354 7.408 27.3514 7.248 27.3834 7.12C27.3514 6.984 27.3354 6.824 27.3354 6.64C27.3354 6.448 27.3514 6.288 27.3834 6.16C27.3514 6.024 27.3354 5.864 27.3354 5.68C27.3354 5.488 27.3514 5.328 27.3834 5.2H28.3434C28.3754 5.328 28.3914 5.488 28.3914 5.68C28.3914 5.864 28.3754 6.024 28.3434 6.16ZM37.9528 9.04C37.9848 9.168 38.0008 9.328 38.0008 9.52C38.0008 9.704 37.9848 9.864 37.9528 10H36.9928C36.9608 9.864 36.9448 9.704 36.9448 9.52C36.9448 9.328 36.9608 9.168 36.9928 9.04H36.5128C36.4808 8.904 36.4648 8.744 36.4648 8.56C36.4648 8.368 36.4808 8.208 36.5128 8.08H35.0728C35.1048 8.208 35.1208 8.368 35.1208 8.56C35.1208 8.744 35.1048 8.904 35.0728 9.04H36.5128C36.5448 9.168 36.5608 9.328 36.5608 9.52C36.5608 9.704 36.5448 9.864 36.5128 10H34.5928C34.5608 9.864 34.5448 9.704 34.5448 9.52C34.5448 9.328 34.5608 9.168 34.5928 9.04H34.1128C34.0808 8.904 34.0648 8.744 34.0648 8.56C34.0648 8.368 34.0808 8.208 34.1128 8.08H34.5928C34.5608 7.944 34.5448 7.784 34.5448 7.6C34.5448 7.408 34.5608 7.248 34.5928 7.12H36.5128C36.4808 6.984 36.4648 6.824 36.4648 6.64C36.4648 6.448 36.4808 6.288 36.5128 6.16H34.8328C34.8008 6.024 34.7848 5.864 34.7848 5.68C34.7848 5.488 34.8008 5.328 34.8328 5.2H36.9928C37.0248 5.328 37.0408 5.488 37.0408 5.68C37.0408 5.864 37.0248 6.024 36.9928 6.16H37.4728C37.5048 6.288 37.5208 6.448 37.5208 6.64C37.5208 6.824 37.5048 6.984 37.4728 7.12C37.5048 7.248 37.5208 7.408 37.5208 7.6C37.5208 7.784 37.5048 7.944 37.4728 8.08C37.5048 8.208 37.5208 8.368 37.5208 8.56C37.5208 8.744 37.5048 8.904 37.4728 9.04H37.9528ZM42.2775 9.04C42.3095 9.168 42.3255 9.328 42.3255 9.52C42.3255 9.704 42.3095 9.864 42.2775 10H39.3975C39.3655 9.864 39.3495 9.704 39.3495 9.52C39.3495 9.328 39.3655 9.168 39.3975 9.04H40.3575C40.3255 8.904 40.3095 8.744 40.3095 8.56C40.3095 8.368 40.3255 8.208 40.3575 8.08C40.3255 7.944 40.3095 7.784 40.3095 7.6C40.3095 7.408 40.3255 7.248 40.3575 7.12C40.3255 6.984 40.3095 6.824 40.3095 6.64C40.3095 6.448 40.3255 6.288 40.3575 6.16C40.3255 6.024 40.3095 5.864 40.3095 5.68C40.3095 5.488 40.3255 5.328 40.3575 5.2C40.3255 5.064 40.3095 4.904 40.3095 4.72C40.3095 4.528 40.3255 4.368 40.3575 4.24H39.6375C39.6055 4.104 39.5895 3.944 39.5895 3.76C39.5895 3.568 39.6055 3.408 39.6375 3.28H41.3175C41.3495 3.408 41.3655 3.568 41.3655 3.76C41.3655 3.944 41.3495 4.104 41.3175 4.24C41.3495 4.368 41.3655 4.528 41.3655 4.72C41.3655 4.904 41.3495 5.064 41.3175 5.2C41.3495 5.328 41.3655 5.488 41.3655 5.68C41.3655 5.864 41.3495 6.024 41.3175 6.16C41.3495 6.288 41.3655 6.448 41.3655 6.64C41.3655 6.824 41.3495 6.984 41.3175 7.12C41.3495 7.248 41.3655 7.408 41.3655 7.6C41.3655 7.784 41.3495 7.944 41.3175 8.08C41.3495 8.208 41.3655 8.368 41.3655 8.56C41.3655 8.744 41.3495 8.904 41.3175 9.04H42.2775ZM47.5622 6.16C47.5942 6.288 47.6102 6.448 47.6102 6.64C47.6102 6.824 47.5942 6.984 47.5622 7.12H46.6022C46.5702 6.984 46.5542 6.824 46.5542 6.64C46.5542 6.448 46.5702 6.288 46.6022 6.16H45.7622C45.7942 6.288 45.8102 6.448 45.8102 6.64C45.8102 6.824 45.7942 6.984 45.7622 7.12H45.4022C45.4342 7.248 45.4502 7.408 45.4502 7.6C45.4502 7.784 45.4342 7.944 45.4022 8.08C45.4342 8.208 45.4502 8.368 45.4502 8.56C45.4502 8.744 45.4342 8.904 45.4022 9.04H46.1222C46.1542 9.168 46.1702 9.328 46.1702 9.52C46.1702 9.704 46.1542 9.864 46.1222 10H43.7222C43.6902 9.864 43.6742 9.704 43.6742 9.52C43.6742 9.328 43.6902 9.168 43.7222 9.04H44.4422C44.4102 8.904 44.3942 8.744 44.3942 8.56C44.3942 8.368 44.4102 8.208 44.4422 8.08C44.4102 7.944 44.3942 7.784 44.3942 7.6C44.3942 7.408 44.4102 7.248 44.4422 7.12C44.4102 6.984 44.3942 6.824 44.3942 6.64C44.3942 6.448 44.4102 6.288 44.4422 6.16H43.7222C43.6902 6.024 43.6742 5.864 43.6742 5.68C43.6742 5.488 43.6902 5.328 43.7222 5.2H44.9222C44.9542 5.328 44.9702 5.488 44.9702 5.68C44.9702 5.864 44.9542 6.024 44.9222 6.16H45.4022C45.3702 6.024 45.3542 5.864 45.3542 5.68C45.3542 5.488 45.3702 5.328 45.4022 5.2H47.2022C47.2342 5.328 47.2502 5.488 47.2502 5.68C47.2502 5.864 47.2342 6.024 47.2022 6.16H47.5622ZM52.4149 6.64C52.4149 6.824 52.3989 6.984 52.3669 7.12C52.3989 7.248 52.4149 7.408 52.4149 7.6C52.4149 7.784 52.3989 7.944 52.3669 8.08H49.8469C49.8789 8.208 49.8949 8.368 49.8949 8.56C49.8949 8.744 49.8789 8.904 49.8469 9.04H51.8869C51.9189 9.168 51.9349 9.328 51.9349 9.52C51.9349 9.704 51.9189 9.864 51.8869 10H49.4869C49.4549 9.864 49.4389 9.704 49.4389 9.52C49.4389 9.328 49.4549 9.168 49.4869 9.04H48.8869C48.8549 8.904 48.8389 8.744 48.8389 8.56C48.8389 8.368 48.8549 8.208 48.8869 8.08H48.5269C48.4949 7.944 48.4789 7.784 48.4789 7.6C48.4789 7.408 48.4949 7.248 48.5269 7.12H48.8869C48.8549 6.984 48.8389 6.824 48.8389 6.64C48.8389 6.448 48.8549 6.288 48.8869 6.16H49.4869C49.4549 6.024 49.4389 5.864 49.4389 5.68C49.4389 5.488 49.4549 5.328 49.4869 5.2H51.8869C51.9189 5.328 51.9349 5.488 51.9349 5.68C51.9349 5.864 51.9189 6.024 51.8869 6.16H52.3669C52.3989 6.288 52.4149 6.448 52.4149 6.64ZM51.4069 7.12C51.3749 6.984 51.3589 6.824 51.3589 6.64C51.3589 6.448 51.3749 6.288 51.4069 6.16H49.8469C49.8789 6.288 49.8949 6.448 49.8949 6.64C49.8949 6.824 49.8789 6.984 49.8469 7.12H51.4069ZM57.1716 9.04C57.2036 9.168 57.2196 9.328 57.2196 9.52C57.2196 9.704 57.2036 9.864 57.1716 10H56.2116C56.1796 9.864 56.1636 9.704 56.1636 9.52C56.1636 9.328 56.1796 9.168 56.2116 9.04H55.7316C55.6996 8.904 55.6836 8.744 55.6836 8.56C55.6836 8.368 55.6996 8.208 55.7316 8.08H54.2916C54.3236 8.208 54.3396 8.368 54.3396 8.56C54.3396 8.744 54.3236 8.904 54.2916 9.04H55.7316C55.7636 9.168 55.7796 9.328 55.7796 9.52C55.7796 9.704 55.7636 9.864 55.7316 10H53.8116C53.7796 9.864 53.7636 9.704 53.7636 9.52C53.7636 9.328 53.7796 9.168 53.8116 9.04H53.3316C53.2996 8.904 53.2836 8.744 53.2836 8.56C53.2836 8.368 53.2996 8.208 53.3316 8.08H53.8116C53.7796 7.944 53.7636 7.784 53.7636 7.6C53.7636 7.408 53.7796 7.248 53.8116 7.12H55.7316C55.6996 6.984 55.6836 6.824 55.6836 6.64C55.6836 6.448 55.6996 6.288 55.7316 6.16H54.0516C54.0196 6.024 54.0036 5.864 54.0036 5.68C54.0036 5.488 54.0196 5.328 54.0516 5.2H56.2116C56.2436 5.328 56.2596 5.488 56.2596 5.68C56.2596 5.864 56.2436 6.024 56.2116 6.16H56.6916C56.7236 6.288 56.7396 6.448 56.7396 6.64C56.7396 6.824 56.7236 6.984 56.6916 7.12C56.7236 7.248 56.7396 7.408 56.7396 7.6C56.7396 7.784 56.7236 7.944 56.6916 8.08C56.7236 8.208 56.7396 8.368 56.7396 8.56C56.7396 8.744 56.7236 8.904 56.6916 9.04H57.1716ZM61.9763 4.24C62.0083 4.368 62.0243 4.528 62.0243 4.72C62.0243 4.904 62.0083 5.064 61.9763 5.2C62.0083 5.328 62.0243 5.488 62.0243 5.68C62.0243 5.864 62.0083 6.024 61.9763 6.16C62.0083 6.288 62.0243 6.448 62.0243 6.64C62.0243 6.824 62.0083 6.984 61.9763 7.12C62.0083 7.248 62.0243 7.408 62.0243 7.6C62.0243 7.784 62.0083 7.944 61.9763 8.08C62.0083 8.208 62.0243 8.368 62.0243 8.56C62.0243 8.744 62.0083 8.904 61.9763 9.04C62.0083 9.168 62.0243 9.328 62.0243 9.52C62.0243 9.704 62.0083 9.864 61.9763 10H61.0163C60.9843 9.864 60.9683 9.704 60.9683 9.52C60.9683 9.328 60.9843 9.168 61.0163 9.04H60.6562C60.6243 8.904 60.6083 8.744 60.6083 8.56C60.6083 8.368 60.6243 8.208 60.6562 8.08H61.0163C60.9843 7.944 60.9683 7.784 60.9683 7.6C60.9683 7.408 60.9843 7.248 61.0163 7.12H60.6562C60.6243 6.984 60.6083 6.824 60.6083 6.64C60.6083 6.448 60.6243 6.288 60.6562 6.16H61.0163C60.9843 6.024 60.9683 5.864 60.9683 5.68C60.9683 5.488 60.9843 5.328 61.0163 5.2C60.9843 5.064 60.9683 4.904 60.9683 4.72C60.9683 4.528 60.9843 4.368 61.0163 4.24C60.9843 4.104 60.9683 3.944 60.9683 3.76C60.9683 3.568 60.9843 3.408 61.0163 3.28H61.9763C62.0083 3.408 62.0243 3.568 62.0243 3.76C62.0243 3.944 62.0083 4.104 61.9763 4.24ZM60.4643 5.68C60.4643 5.864 60.4483 6.024 60.4163 6.16H59.2163C59.2483 6.288 59.2643 6.448 59.2643 6.64C59.2643 6.824 59.2483 6.984 59.2163 7.12H58.8563C58.8883 7.248 58.9043 7.408 58.9043 7.6C58.9043 7.784 58.8883 7.944 58.8563 8.08H59.2163C59.2483 8.208 59.2643 8.368 59.2643 8.56C59.2643 8.744 59.2483 8.904 59.2163 9.04H60.4163C60.4483 9.168 60.4643 9.328 60.4643 9.52C60.4643 9.704 60.4483 9.864 60.4163 10H59.0963C59.0643 9.864 59.0483 9.704 59.0483 9.52C59.0483 9.328 59.0643 9.168 59.0963 9.04H58.4963C58.4642 8.904 58.4482 8.744 58.4482 8.56C58.4482 8.368 58.4642 8.208 58.4963 8.08H58.1363C58.1043 7.944 58.0883 7.784 58.0883 7.6C58.0883 7.408 58.1043 7.248 58.1363 7.12H58.4963C58.4642 6.984 58.4482 6.824 58.4482 6.64C58.4482 6.448 58.4642 6.288 58.4963 6.16H59.0963C59.0643 6.024 59.0483 5.864 59.0483 5.68C59.0483 5.488 59.0643 5.328 59.0963 5.2H60.4163C60.4483 5.328 60.4643 5.488 60.4643 5.68ZM66.8289 5.68C66.8289 5.864 66.8129 6.024 66.7809 6.16H66.4209C66.4529 6.288 66.4689 6.448 66.4689 6.64C66.4689 6.824 66.4529 6.984 66.4209 7.12H66.0609C66.0929 7.248 66.1089 7.408 66.1089 7.6C66.1089 7.784 66.0929 7.944 66.0609 8.08H65.8209C65.8529 8.208 65.8689 8.368 65.8689 8.56C65.8689 8.744 65.8529 8.904 65.8209 9.04H65.4609C65.4929 9.168 65.5089 9.328 65.5089 9.52C65.5089 9.704 65.4929 9.864 65.4609 10H65.2209C65.2529 10.128 65.2689 10.288 65.2689 10.48C65.2689 10.664 65.2529 10.824 65.2209 10.96H64.7409C64.7729 11.088 64.7889 11.248 64.7889 11.44C64.7889 11.624 64.7729 11.784 64.7409 11.92H63.3009C63.2689 11.784 63.2529 11.624 63.2529 11.44C63.2529 11.248 63.2689 11.088 63.3009 10.96H64.2609C64.2289 10.824 64.2129 10.664 64.2129 10.48C64.2129 10.288 64.2289 10.128 64.2609 10C64.2289 9.864 64.2129 9.704 64.2129 9.52C64.2129 9.328 64.2289 9.168 64.2609 9.04H63.7809C63.7489 8.904 63.7329 8.744 63.7329 8.56C63.7329 8.368 63.7489 8.208 63.7809 8.08H63.5409C63.5089 7.944 63.4929 7.784 63.4929 7.6C63.4929 7.408 63.5089 7.248 63.5409 7.12H63.1809C63.1489 6.984 63.1329 6.824 63.1329 6.64C63.1329 6.448 63.1489 6.288 63.1809 6.16H62.8209C62.7889 6.024 62.7729 5.864 62.7729 5.68C62.7729 5.488 62.7889 5.328 62.8209 5.2H63.7809C63.8129 5.328 63.8289 5.488 63.8289 5.68C63.8289 5.864 63.8129 6.024 63.7809 6.16H64.1409C64.1729 6.288 64.1889 6.448 64.1889 6.64C64.1889 6.824 64.1729 6.984 64.1409 7.12H64.5009C64.5329 7.248 64.5489 7.408 64.5489 7.6C64.5489 7.784 64.5329 7.944 64.5009 8.08C64.5329 8.208 64.5489 8.368 64.5489 8.56C64.5489 8.744 64.5329 8.904 64.5009 9.04H64.8609C64.8289 8.904 64.8129 8.744 64.8129 8.56C64.8129 8.368 64.8289 8.208 64.8609 8.08H65.1009C65.0689 7.944 65.0529 7.784 65.0529 7.6C65.0529 7.408 65.0689 7.248 65.1009 7.12H65.4609C65.4289 6.984 65.4129 6.824 65.4129 6.64C65.4129 6.448 65.4289 6.288 65.4609 6.16H65.8209C65.7889 6.024 65.7729 5.864 65.7729 5.68C65.7729 5.488 65.7889 5.328 65.8209 5.2H66.7809C66.8129 5.328 66.8289 5.488 66.8289 5.68ZM76.4383 7.6C76.4383 7.784 76.4223 7.944 76.3903 8.08H75.9103C75.9423 8.208 75.9583 8.368 75.9583 8.56C75.9583 8.744 75.9423 8.904 75.9103 9.04H75.4303C75.4623 9.168 75.4783 9.328 75.4783 9.52C75.4783 9.704 75.4623 9.864 75.4303 10H73.5103C73.5423 10.128 73.5583 10.288 73.5583 10.48C73.5583 10.664 73.5423 10.824 73.5103 10.96C73.5423 11.088 73.5583 11.248 73.5583 11.44C73.5583 11.624 73.5423 11.784 73.5103 11.92H72.5503C72.5183 11.784 72.5023 11.624 72.5023 11.44C72.5023 11.248 72.5183 11.088 72.5503 10.96C72.5183 10.824 72.5023 10.664 72.5023 10.48C72.5023 10.288 72.5183 10.128 72.5503 10C72.5183 9.864 72.5023 9.704 72.5023 9.52C72.5023 9.328 72.5183 9.168 72.5503 9.04C72.5183 8.904 72.5023 8.744 72.5023 8.56C72.5023 8.368 72.5183 8.208 72.5503 8.08C72.5183 7.944 72.5023 7.784 72.5023 7.6C72.5023 7.408 72.5183 7.248 72.5503 7.12C72.5183 6.984 72.5023 6.824 72.5023 6.64C72.5023 6.448 72.5183 6.288 72.5503 6.16C72.5183 6.024 72.5023 5.864 72.5023 5.68C72.5023 5.488 72.5183 5.328 72.5503 5.2H73.5103C73.5423 5.328 73.5583 5.488 73.5583 5.68C73.5583 5.864 73.5423 6.024 73.5103 6.16H73.9903C74.0223 6.288 74.0383 6.448 74.0383 6.64C74.0383 6.824 74.0223 6.984 73.9903 7.12H73.5103C73.5423 7.248 73.5583 7.408 73.5583 7.6C73.5583 7.784 73.5423 7.944 73.5103 8.08C73.5423 8.208 73.5583 8.368 73.5583 8.56C73.5583 8.744 73.5423 8.904 73.5103 9.04H74.9503C74.9183 8.904 74.9023 8.744 74.9023 8.56C74.9023 8.368 74.9183 8.208 74.9503 8.08H75.4303C75.3983 7.944 75.3823 7.784 75.3823 7.6C75.3823 7.408 75.3983 7.248 75.4303 7.12H74.9503C74.9183 6.984 74.9023 6.824 74.9023 6.64C74.9023 6.448 74.9183 6.288 74.9503 6.16H73.9903C73.9583 6.024 73.9423 5.864 73.9423 5.68C73.9423 5.488 73.9583 5.328 73.9903 5.2H75.4303C75.4623 5.328 75.4783 5.488 75.4783 5.68C75.4783 5.864 75.4623 6.024 75.4303 6.16H75.9103C75.9423 6.288 75.9583 6.448 75.9583 6.64C75.9583 6.824 75.9423 6.984 75.9103 7.12H76.3903C76.4223 7.248 76.4383 7.408 76.4383 7.6ZM78.723 8.56C78.723 8.744 78.707 8.904 78.675 9.04H79.875C79.907 9.168 79.923 9.328 79.923 9.52C79.923 9.704 79.907 9.864 79.875 10H77.955C77.923 9.864 77.907 9.704 77.907 9.52C77.907 9.328 77.923 9.168 77.955 9.04H77.355C77.323 8.904 77.307 8.744 77.307 8.56C77.307 8.368 77.323 8.208 77.355 8.08C77.323 7.944 77.307 7.784 77.307 7.6C77.307 7.408 77.323 7.248 77.355 7.12C77.323 6.984 77.307 6.824 77.307 6.64C77.307 6.448 77.323 6.288 77.355 6.16C77.323 6.024 77.307 5.864 77.307 5.68C77.307 5.488 77.323 5.328 77.355 5.2H78.315C78.347 5.328 78.363 5.488 78.363 5.68C78.363 5.864 78.347 6.024 78.315 6.16C78.347 6.288 78.363 6.448 78.363 6.64C78.363 6.824 78.347 6.984 78.315 7.12C78.347 7.248 78.363 7.408 78.363 7.6C78.363 7.784 78.347 7.944 78.315 8.08H78.675C78.707 8.208 78.723 8.368 78.723 8.56ZM81.195 6.16C81.227 6.288 81.243 6.448 81.243 6.64C81.243 6.824 81.227 6.984 81.195 7.12C81.227 7.248 81.243 7.408 81.243 7.6C81.243 7.784 81.227 7.944 81.195 8.08C81.227 8.208 81.243 8.368 81.243 8.56C81.243 8.744 81.227 8.904 81.195 9.04C81.227 9.168 81.243 9.328 81.243 9.52C81.243 9.704 81.227 9.864 81.195 10H80.235C80.203 9.864 80.187 9.704 80.187 9.52C80.187 9.328 80.203 9.168 80.235 9.04H79.875C79.843 8.904 79.827 8.744 79.827 8.56C79.827 8.368 79.843 8.208 79.875 8.08H80.235C80.203 7.944 80.187 7.784 80.187 7.6C80.187 7.408 80.203 7.248 80.235 7.12C80.203 6.984 80.187 6.824 80.187 6.64C80.187 6.448 80.203 6.288 80.235 6.16C80.203 6.024 80.187 5.864 80.187 5.68C80.187 5.488 80.203 5.328 80.235 5.2H81.195C81.227 5.328 81.243 5.488 81.243 5.68C81.243 5.864 81.227 6.024 81.195 6.16ZM85.9997 6.16C86.0317 6.288 86.0477 6.448 86.0477 6.64C86.0477 6.824 86.0317 6.984 85.9997 7.12H85.0397C85.0077 6.984 84.9917 6.824 84.9917 6.64C84.9917 6.448 85.0077 6.288 85.0397 6.16H84.1997C84.2317 6.288 84.2477 6.448 84.2477 6.64C84.2477 6.824 84.2317 6.984 84.1997 7.12H83.8397C83.8717 7.248 83.8877 7.408 83.8877 7.6C83.8877 7.784 83.8717 7.944 83.8397 8.08C83.8717 8.208 83.8877 8.368 83.8877 8.56C83.8877 8.744 83.8717 8.904 83.8397 9.04H84.5597C84.5917 9.168 84.6077 9.328 84.6077 9.52C84.6077 9.704 84.5917 9.864 84.5597 10H82.1597C82.1277 9.864 82.1117 9.704 82.1117 9.52C82.1117 9.328 82.1277 9.168 82.1597 9.04H82.8797C82.8477 8.904 82.8317 8.744 82.8317 8.56C82.8317 8.368 82.8477 8.208 82.8797 8.08C82.8477 7.944 82.8317 7.784 82.8317 7.6C82.8317 7.408 82.8477 7.248 82.8797 7.12C82.8477 6.984 82.8317 6.824 82.8317 6.64C82.8317 6.448 82.8477 6.288 82.8797 6.16H82.1597C82.1277 6.024 82.1117 5.864 82.1117 5.68C82.1117 5.488 82.1277 5.328 82.1597 5.2H83.3597C83.3917 5.328 83.4077 5.488 83.4077 5.68C83.4077 5.864 83.3917 6.024 83.3597 6.16H83.8397C83.8077 6.024 83.7917 5.864 83.7917 5.68C83.7917 5.488 83.8077 5.328 83.8397 5.2H85.6397C85.6717 5.328 85.6877 5.488 85.6877 5.68C85.6877 5.864 85.6717 6.024 85.6397 6.16H85.9997ZM90.8044 8.08C90.8364 8.208 90.8524 8.368 90.8524 8.56C90.8524 8.744 90.8364 8.904 90.8044 9.04H90.3244C90.3564 9.168 90.3724 9.328 90.3724 9.52C90.3724 9.704 90.3564 9.864 90.3244 10H87.9244C87.8924 9.864 87.8764 9.704 87.8764 9.52C87.8764 9.328 87.8924 9.168 87.9244 9.04H87.4444C87.4124 8.904 87.3964 8.744 87.3964 8.56C87.3964 8.368 87.4124 8.208 87.4444 8.08H86.9644C86.9324 7.944 86.9164 7.784 86.9164 7.6C86.9164 7.408 86.9324 7.248 86.9644 7.12H87.4444C87.4124 6.984 87.3964 6.824 87.3964 6.64C87.3964 6.448 87.4124 6.288 87.4444 6.16H87.9244C87.8924 6.024 87.8764 5.864 87.8764 5.68C87.8764 5.488 87.8924 5.328 87.9244 5.2H90.3244C90.3564 5.328 90.3724 5.488 90.3724 5.68C90.3724 5.864 90.3564 6.024 90.3244 6.16H90.8044C90.8364 6.288 90.8524 6.448 90.8524 6.64C90.8524 6.824 90.8364 6.984 90.8044 7.12H89.8444C89.8124 6.984 89.7964 6.824 89.7964 6.64C89.7964 6.448 89.8124 6.288 89.8444 6.16H88.4044C88.4364 6.288 88.4524 6.448 88.4524 6.64C88.4524 6.824 88.4364 6.984 88.4044 7.12H87.9244C87.9564 7.248 87.9724 7.408 87.9724 7.6C87.9724 7.784 87.9564 7.944 87.9244 8.08H88.4044C88.4364 8.208 88.4524 8.368 88.4524 8.56C88.4524 8.744 88.4364 8.904 88.4044 9.04H89.8444C89.8124 8.904 89.7964 8.744 89.7964 8.56C89.7964 8.368 89.8124 8.208 89.8444 8.08H90.8044ZM92.7771 5.68C92.7771 5.864 92.7611 6.024 92.7291 6.16H93.0891C93.1211 6.288 93.1371 6.448 93.1371 6.64C93.1371 6.824 93.1211 6.984 93.0891 7.12H92.7291C92.7611 7.248 92.7771 7.408 92.7771 7.6C92.7771 7.784 92.7611 7.944 92.7291 8.08C92.7611 8.208 92.7771 8.368 92.7771 8.56C92.7771 8.744 92.7611 8.904 92.7291 9.04C92.7611 9.168 92.7771 9.328 92.7771 9.52C92.7771 9.704 92.7611 9.864 92.7291 10H91.7691C91.7371 9.864 91.7211 9.704 91.7211 9.52C91.7211 9.328 91.7371 9.168 91.7691 9.04C91.7371 8.904 91.7211 8.744 91.7211 8.56C91.7211 8.368 91.7371 8.208 91.7691 8.08C91.7371 7.944 91.7211 7.784 91.7211 7.6C91.7211 7.408 91.7371 7.248 91.7691 7.12C91.7371 6.984 91.7211 6.824 91.7211 6.64C91.7211 6.448 91.7371 6.288 91.7691 6.16C91.7371 6.024 91.7211 5.864 91.7211 5.68C91.7211 5.488 91.7371 5.328 91.7691 5.2C91.7371 5.064 91.7211 4.904 91.7211 4.72C91.7211 4.528 91.7371 4.368 91.7691 4.24C91.7371 4.104 91.7211 3.944 91.7211 3.76C91.7211 3.568 91.7371 3.408 91.7691 3.28H92.7291C92.7611 3.408 92.7771 3.568 92.7771 3.76C92.7771 3.944 92.7611 4.104 92.7291 4.24C92.7611 4.368 92.7771 4.528 92.7771 4.72C92.7771 4.904 92.7611 5.064 92.7291 5.2C92.7611 5.328 92.7771 5.488 92.7771 5.68ZM95.6091 7.12C95.6411 7.248 95.6571 7.408 95.6571 7.6C95.6571 7.784 95.6411 7.944 95.6091 8.08C95.6411 8.208 95.6571 8.368 95.6571 8.56C95.6571 8.744 95.6411 8.904 95.6091 9.04C95.6411 9.168 95.6571 9.328 95.6571 9.52C95.6571 9.704 95.6411 9.864 95.6091 10H94.6491C94.6171 9.864 94.6011 9.704 94.6011 9.52C94.6011 9.328 94.6171 9.168 94.6491 9.04C94.6171 8.904 94.6011 8.744 94.6011 8.56C94.6011 8.368 94.6171 8.208 94.6491 8.08C94.6171 7.944 94.6011 7.784 94.6011 7.6C94.6011 7.408 94.6171 7.248 94.6491 7.12C94.6171 6.984 94.6011 6.824 94.6011 6.64C94.6011 6.448 94.6171 6.288 94.6491 6.16H93.0891C93.0571 6.024 93.0411 5.864 93.0411 5.68C93.0411 5.488 93.0571 5.328 93.0891 5.2H95.0091C95.0411 5.328 95.0571 5.488 95.0571 5.68C95.0571 5.864 95.0411 6.024 95.0091 6.16H95.6091C95.6411 6.288 95.6571 6.448 95.6571 6.64C95.6571 6.824 95.6411 6.984 95.6091 7.12ZM100.414 9.04C100.446 9.168 100.462 9.328 100.462 9.52C100.462 9.704 100.446 9.864 100.414 10H99.4538C99.4218 9.864 99.4058 9.704 99.4058 9.52C99.4058 9.328 99.4218 9.168 99.4538 9.04H98.9738C98.9418 8.904 98.9258 8.744 98.9258 8.56C98.9258 8.368 98.9418 8.208 98.9738 8.08H97.5338C97.5658 8.208 97.5818 8.368 97.5818 8.56C97.5818 8.744 97.5658 8.904 97.5338 9.04H98.9738C99.0058 9.168 99.0218 9.328 99.0218 9.52C99.0218 9.704 99.0058 9.864 98.9738 10H97.0538C97.0218 9.864 97.0058 9.704 97.0058 9.52C97.0058 9.328 97.0218 9.168 97.0538 9.04H96.5738C96.5418 8.904 96.5258 8.744 96.5258 8.56C96.5258 8.368 96.5418 8.208 96.5738 8.08H97.0538C97.0218 7.944 97.0058 7.784 97.0058 7.6C97.0058 7.408 97.0218 7.248 97.0538 7.12H98.9738C98.9418 6.984 98.9258 6.824 98.9258 6.64C98.9258 6.448 98.9418 6.288 98.9738 6.16H97.2938C97.2618 6.024 97.2458 5.864 97.2458 5.68C97.2458 5.488 97.2618 5.328 97.2938 5.2H99.4538C99.4858 5.328 99.5018 5.488 99.5018 5.68C99.5018 5.864 99.4858 6.024 99.4538 6.16H99.9338C99.9658 6.288 99.9818 6.448 99.9818 6.64C99.9818 6.824 99.9658 6.984 99.9338 7.12C99.9658 7.248 99.9818 7.408 99.9818 7.6C99.9818 7.784 99.9658 7.944 99.9338 8.08C99.9658 8.208 99.9818 8.368 99.9818 8.56C99.9818 8.744 99.9658 8.904 99.9338 9.04H100.414ZM105.026 8.56C105.026 8.744 105.01 8.904 104.978 9.04H104.498C104.53 9.168 104.546 9.328 104.546 9.52C104.546 9.704 104.53 9.864 104.498 10H101.858C101.826 9.864 101.81 9.704 101.81 9.52C101.81 9.328 101.826 9.168 101.858 9.04H104.018C103.986 8.904 103.97 8.744 103.97 8.56C103.97 8.368 103.986 8.208 104.018 8.08H102.098C102.066 7.944 102.05 7.784 102.05 7.6C102.05 7.408 102.066 7.248 102.098 7.12H101.618C101.586 6.984 101.57 6.824 101.57 6.64C101.57 6.448 101.586 6.288 101.618 6.16H102.098C102.066 6.024 102.05 5.864 102.05 5.68C102.05 5.488 102.066 5.328 102.098 5.2H104.738C104.77 5.328 104.786 5.488 104.786 5.68C104.786 5.864 104.77 6.024 104.738 6.16H102.578C102.61 6.288 102.626 6.448 102.626 6.64C102.626 6.824 102.61 6.984 102.578 7.12H104.498C104.53 7.248 104.546 7.408 104.546 7.6C104.546 7.784 104.53 7.944 104.498 8.08H104.978C105.01 8.208 105.026 8.368 105.026 8.56ZM110.071 6.64C110.071 6.824 110.055 6.984 110.023 7.12C110.055 7.248 110.071 7.408 110.071 7.6C110.071 7.784 110.055 7.944 110.023 8.08H107.503C107.535 8.208 107.551 8.368 107.551 8.56C107.551 8.744 107.535 8.904 107.503 9.04H109.543C109.575 9.168 109.591 9.328 109.591 9.52C109.591 9.704 109.575 9.864 109.543 10H107.143C107.111 9.864 107.095 9.704 107.095 9.52C107.095 9.328 107.111 9.168 107.143 9.04H106.543C106.511 8.904 106.495 8.744 106.495 8.56C106.495 8.368 106.511 8.208 106.543 8.08H106.183C106.151 7.944 106.135 7.784 106.135 7.6C106.135 7.408 106.151 7.248 106.183 7.12H106.543C106.511 6.984 106.495 6.824 106.495 6.64C106.495 6.448 106.511 6.288 106.543 6.16H107.143C107.111 6.024 107.095 5.864 107.095 5.68C107.095 5.488 107.111 5.328 107.143 5.2H109.543C109.575 5.328 109.591 5.488 109.591 5.68C109.591 5.864 109.575 6.024 109.543 6.16H110.023C110.055 6.288 110.071 6.448 110.071 6.64ZM109.063 7.12C109.031 6.984 109.015 6.824 109.015 6.64C109.015 6.448 109.031 6.288 109.063 6.16H107.503C107.535 6.288 107.551 6.448 107.551 6.64C107.551 6.824 107.535 6.984 107.503 7.12H109.063ZM114.828 4.24C114.86 4.368 114.876 4.528 114.876 4.72C114.876 4.904 114.86 5.064 114.828 5.2C114.86 5.328 114.876 5.488 114.876 5.68C114.876 5.864 114.86 6.024 114.828 6.16C114.86 6.288 114.876 6.448 114.876 6.64C114.876 6.824 114.86 6.984 114.828 7.12C114.86 7.248 114.876 7.408 114.876 7.6C114.876 7.784 114.86 7.944 114.828 8.08C114.86 8.208 114.876 8.368 114.876 8.56C114.876 8.744 114.86 8.904 114.828 9.04C114.86 9.168 114.876 9.328 114.876 9.52C114.876 9.704 114.86 9.864 114.828 10H113.868C113.836 9.864 113.82 9.704 113.82 9.52C113.82 9.328 113.836 9.168 113.868 9.04H113.508C113.476 8.904 113.46 8.744 113.46 8.56C113.46 8.368 113.476 8.208 113.508 8.08H113.868C113.836 7.944 113.82 7.784 113.82 7.6C113.82 7.408 113.836 7.248 113.868 7.12H113.508C113.476 6.984 113.46 6.824 113.46 6.64C113.46 6.448 113.476 6.288 113.508 6.16H113.868C113.836 6.024 113.82 5.864 113.82 5.68C113.82 5.488 113.836 5.328 113.868 5.2C113.836 5.064 113.82 4.904 113.82 4.72C113.82 4.528 113.836 4.368 113.868 4.24C113.836 4.104 113.82 3.944 113.82 3.76C113.82 3.568 113.836 3.408 113.868 3.28H114.828C114.86 3.408 114.876 3.568 114.876 3.76C114.876 3.944 114.86 4.104 114.828 4.24ZM113.316 5.68C113.316 5.864 113.3 6.024 113.268 6.16H112.068C112.1 6.288 112.116 6.448 112.116 6.64C112.116 6.824 112.1 6.984 112.068 7.12H111.708C111.74 7.248 111.756 7.408 111.756 7.6C111.756 7.784 111.74 7.944 111.708 8.08H112.068C112.1 8.208 112.116 8.368 112.116 8.56C112.116 8.744 112.1 8.904 112.068 9.04H113.268C113.3 9.168 113.316 9.328 113.316 9.52C113.316 9.704 113.3 9.864 113.268 10H111.948C111.916 9.864 111.9 9.704 111.9 9.52C111.9 9.328 111.916 9.168 111.948 9.04H111.348C111.316 8.904 111.3 8.744 111.3 8.56C111.3 8.368 111.316 8.208 111.348 8.08H110.988C110.956 7.944 110.94 7.784 110.94 7.6C110.94 7.408 110.956 7.248 110.988 7.12H111.348C111.316 6.984 111.3 6.824 111.3 6.64C111.3 6.448 111.316 6.288 111.348 6.16H111.948C111.916 6.024 111.9 5.864 111.9 5.68C111.9 5.488 111.916 5.328 111.948 5.2H113.268C113.3 5.328 113.316 5.488 113.316 5.68ZM124.485 5.68C124.485 5.864 124.469 6.024 124.437 6.16H124.077C124.109 6.288 124.125 6.448 124.125 6.64C124.125 6.824 124.109 6.984 124.077 7.12H123.717C123.749 7.248 123.765 7.408 123.765 7.6C123.765 7.784 123.749 7.944 123.717 8.08H123.477C123.509 8.208 123.525 8.368 123.525 8.56C123.525 8.744 123.509 8.904 123.477 9.04H123.117C123.149 9.168 123.165 9.328 123.165 9.52C123.165 9.704 123.149 9.864 123.117 10H122.877C122.909 10.128 122.925 10.288 122.925 10.48C122.925 10.664 122.909 10.824 122.877 10.96H122.397C122.429 11.088 122.445 11.248 122.445 11.44C122.445 11.624 122.429 11.784 122.397 11.92H120.957C120.925 11.784 120.909 11.624 120.909 11.44C120.909 11.248 120.925 11.088 120.957 10.96H121.917C121.885 10.824 121.869 10.664 121.869 10.48C121.869 10.288 121.885 10.128 121.917 10C121.885 9.864 121.869 9.704 121.869 9.52C121.869 9.328 121.885 9.168 121.917 9.04H121.437C121.405 8.904 121.389 8.744 121.389 8.56C121.389 8.368 121.405 8.208 121.437 8.08H121.197C121.165 7.944 121.149 7.784 121.149 7.6C121.149 7.408 121.165 7.248 121.197 7.12H120.837C120.805 6.984 120.789 6.824 120.789 6.64C120.789 6.448 120.805 6.288 120.837 6.16H120.477C120.445 6.024 120.429 5.864 120.429 5.68C120.429 5.488 120.445 5.328 120.477 5.2H121.437C121.469 5.328 121.485 5.488 121.485 5.68C121.485 5.864 121.469 6.024 121.437 6.16H121.797C121.829 6.288 121.845 6.448 121.845 6.64C121.845 6.824 121.829 6.984 121.797 7.12H122.157C122.189 7.248 122.205 7.408 122.205 7.6C122.205 7.784 122.189 7.944 122.157 8.08C122.189 8.208 122.205 8.368 122.205 8.56C122.205 8.744 122.189 8.904 122.157 9.04H122.517C122.485 8.904 122.469 8.744 122.469 8.56C122.469 8.368 122.485 8.208 122.517 8.08H122.757C122.725 7.944 122.709 7.784 122.709 7.6C122.709 7.408 122.725 7.248 122.757 7.12H123.117C123.085 6.984 123.069 6.824 123.069 6.64C123.069 6.448 123.085 6.288 123.117 6.16H123.477C123.445 6.024 123.429 5.864 123.429 5.68C123.429 5.488 123.445 5.328 123.477 5.2H124.437C124.469 5.328 124.485 5.488 124.485 5.68ZM129.29 7.6C129.29 7.784 129.274 7.944 129.242 8.08H128.882C128.914 8.208 128.93 8.368 128.93 8.56C128.93 8.744 128.914 8.904 128.882 9.04H128.282C128.314 9.168 128.33 9.328 128.33 9.52C128.33 9.704 128.314 9.864 128.282 10H126.362C126.33 9.864 126.314 9.704 126.314 9.52C126.314 9.328 126.33 9.168 126.362 9.04H125.762C125.73 8.904 125.714 8.744 125.714 8.56C125.714 8.368 125.73 8.208 125.762 8.08H125.402C125.37 7.944 125.354 7.784 125.354 7.6C125.354 7.408 125.37 7.248 125.402 7.12H125.762C125.73 6.984 125.714 6.824 125.714 6.64C125.714 6.448 125.73 6.288 125.762 6.16H126.362C126.33 6.024 126.314 5.864 126.314 5.68C126.314 5.488 126.33 5.328 126.362 5.2H128.282C128.314 5.328 128.33 5.488 128.33 5.68C128.33 5.864 128.314 6.024 128.282 6.16H128.882C128.914 6.288 128.93 6.448 128.93 6.64C128.93 6.824 128.914 6.984 128.882 7.12H129.242C129.274 7.248 129.29 7.408 129.29 7.6ZM128.282 8.08C128.25 7.944 128.234 7.784 128.234 7.6C128.234 7.408 128.25 7.248 128.282 7.12H127.922C127.89 6.984 127.874 6.824 127.874 6.64C127.874 6.448 127.89 6.288 127.922 6.16H126.722C126.754 6.288 126.77 6.448 126.77 6.64C126.77 6.824 126.754 6.984 126.722 7.12H126.362C126.394 7.248 126.41 7.408 126.41 7.6C126.41 7.784 126.394 7.944 126.362 8.08H126.722C126.754 8.208 126.77 8.368 126.77 8.56C126.77 8.744 126.754 8.904 126.722 9.04H127.922C127.89 8.904 127.874 8.744 127.874 8.56C127.874 8.368 127.89 8.208 127.922 8.08H128.282ZM131.575 8.56C131.575 8.744 131.559 8.904 131.527 9.04H132.727C132.759 9.168 132.775 9.328 132.775 9.52C132.775 9.704 132.759 9.864 132.727 10H130.807C130.775 9.864 130.759 9.704 130.759 9.52C130.759 9.328 130.775 9.168 130.807 9.04H130.207C130.175 8.904 130.159 8.744 130.159 8.56C130.159 8.368 130.175 8.208 130.207 8.08C130.175 7.944 130.159 7.784 130.159 7.6C130.159 7.408 130.175 7.248 130.207 7.12C130.175 6.984 130.159 6.824 130.159 6.64C130.159 6.448 130.175 6.288 130.207 6.16C130.175 6.024 130.159 5.864 130.159 5.68C130.159 5.488 130.175 5.328 130.207 5.2H131.167C131.199 5.328 131.215 5.488 131.215 5.68C131.215 5.864 131.199 6.024 131.167 6.16C131.199 6.288 131.215 6.448 131.215 6.64C131.215 6.824 131.199 6.984 131.167 7.12C131.199 7.248 131.215 7.408 131.215 7.6C131.215 7.784 131.199 7.944 131.167 8.08H131.527C131.559 8.208 131.575 8.368 131.575 8.56ZM134.047 6.16C134.079 6.288 134.095 6.448 134.095 6.64C134.095 6.824 134.079 6.984 134.047 7.12C134.079 7.248 134.095 7.408 134.095 7.6C134.095 7.784 134.079 7.944 134.047 8.08C134.079 8.208 134.095 8.368 134.095 8.56C134.095 8.744 134.079 8.904 134.047 9.04C134.079 9.168 134.095 9.328 134.095 9.52C134.095 9.704 134.079 9.864 134.047 10H133.087C133.055 9.864 133.039 9.704 133.039 9.52C133.039 9.328 133.055 9.168 133.087 9.04H132.727C132.695 8.904 132.679 8.744 132.679 8.56C132.679 8.368 132.695 8.208 132.727 8.08H133.087C133.055 7.944 133.039 7.784 133.039 7.6C133.039 7.408 133.055 7.248 133.087 7.12C133.055 6.984 133.039 6.824 133.039 6.64C133.039 6.448 133.055 6.288 133.087 6.16C133.055 6.024 133.039 5.864 133.039 5.68C133.039 5.488 133.055 5.328 133.087 5.2H134.047C134.079 5.328 134.095 5.488 134.095 5.68C134.095 5.864 134.079 6.024 134.047 6.16ZM138.851 6.16C138.883 6.288 138.899 6.448 138.899 6.64C138.899 6.824 138.883 6.984 138.851 7.12H137.891C137.859 6.984 137.843 6.824 137.843 6.64C137.843 6.448 137.859 6.288 137.891 6.16H137.051C137.083 6.288 137.099 6.448 137.099 6.64C137.099 6.824 137.083 6.984 137.051 7.12H136.691C136.723 7.248 136.739 7.408 136.739 7.6C136.739 7.784 136.723 7.944 136.691 8.08C136.723 8.208 136.739 8.368 136.739 8.56C136.739 8.744 136.723 8.904 136.691 9.04H137.411C137.443 9.168 137.459 9.328 137.459 9.52C137.459 9.704 137.443 9.864 137.411 10H135.011C134.979 9.864 134.963 9.704 134.963 9.52C134.963 9.328 134.979 9.168 135.011 9.04H135.731C135.699 8.904 135.683 8.744 135.683 8.56C135.683 8.368 135.699 8.208 135.731 8.08C135.699 7.944 135.683 7.784 135.683 7.6C135.683 7.408 135.699 7.248 135.731 7.12C135.699 6.984 135.683 6.824 135.683 6.64C135.683 6.448 135.699 6.288 135.731 6.16H135.011C134.979 6.024 134.963 5.864 134.963 5.68C134.963 5.488 134.979 5.328 135.011 5.2H136.211C136.243 5.328 136.259 5.488 136.259 5.68C136.259 5.864 136.243 6.024 136.211 6.16H136.691C136.659 6.024 136.643 5.864 136.643 5.68C136.643 5.488 136.659 5.328 136.691 5.2H138.491C138.523 5.328 138.539 5.488 138.539 5.68C138.539 5.864 138.523 6.024 138.491 6.16H138.851ZM148.461 9.04C148.493 9.168 148.509 9.328 148.509 9.52C148.509 9.704 148.493 9.864 148.461 10H146.781C146.749 9.864 146.733 9.704 146.733 9.52C146.733 9.328 146.749 9.168 146.781 9.04H146.301C146.269 8.904 146.253 8.744 146.253 8.56C146.253 8.368 146.269 8.208 146.301 8.08H145.581C145.613 8.208 145.629 8.368 145.629 8.56C145.629 8.744 145.613 8.904 145.581 9.04C145.613 9.168 145.629 9.328 145.629 9.52C145.629 9.704 145.613 9.864 145.581 10H144.621C144.589 9.864 144.573 9.704 144.573 9.52C144.573 9.328 144.589 9.168 144.621 9.04C144.589 8.904 144.573 8.744 144.573 8.56C144.573 8.368 144.589 8.208 144.621 8.08C144.589 7.944 144.573 7.784 144.573 7.6C144.573 7.408 144.589 7.248 144.621 7.12C144.589 6.984 144.573 6.824 144.573 6.64C144.573 6.448 144.589 6.288 144.621 6.16C144.589 6.024 144.573 5.864 144.573 5.68C144.573 5.488 144.589 5.328 144.621 5.2C144.589 5.064 144.573 4.904 144.573 4.72C144.573 4.528 144.589 4.368 144.621 4.24C144.589 4.104 144.573 3.944 144.573 3.76C144.573 3.568 144.589 3.408 144.621 3.28H145.581C145.613 3.408 145.629 3.568 145.629 3.76C145.629 3.944 145.613 4.104 145.581 4.24C145.613 4.368 145.629 4.528 145.629 4.72C145.629 4.904 145.613 5.064 145.581 5.2C145.613 5.328 145.629 5.488 145.629 5.68C145.629 5.864 145.613 6.024 145.581 6.16C145.613 6.288 145.629 6.448 145.629 6.64C145.629 6.824 145.613 6.984 145.581 7.12H146.301C146.269 6.984 146.253 6.824 146.253 6.64C146.253 6.448 146.269 6.288 146.301 6.16H146.781C146.749 6.024 146.733 5.864 146.733 5.68C146.733 5.488 146.749 5.328 146.781 5.2H148.221C148.253 5.328 148.269 5.488 148.269 5.68C148.269 5.864 148.253 6.024 148.221 6.16H147.261C147.293 6.288 147.309 6.448 147.309 6.64C147.309 6.824 147.293 6.984 147.261 7.12H146.781C146.813 7.248 146.829 7.408 146.829 7.6C146.829 7.784 146.813 7.944 146.781 8.08H147.261C147.293 8.208 147.309 8.368 147.309 8.56C147.309 8.744 147.293 8.904 147.261 9.04H148.461ZM153.313 6.64C153.313 6.824 153.297 6.984 153.265 7.12C153.297 7.248 153.313 7.408 153.313 7.6C153.313 7.784 153.297 7.944 153.265 8.08H150.745C150.777 8.208 150.793 8.368 150.793 8.56C150.793 8.744 150.777 8.904 150.745 9.04H152.785C152.817 9.168 152.833 9.328 152.833 9.52C152.833 9.704 152.817 9.864 152.785 10H150.385C150.353 9.864 150.337 9.704 150.337 9.52C150.337 9.328 150.353 9.168 150.385 9.04H149.785C149.753 8.904 149.737 8.744 149.737 8.56C149.737 8.368 149.753 8.208 149.785 8.08H149.425C149.393 7.944 149.377 7.784 149.377 7.6C149.377 7.408 149.393 7.248 149.425 7.12H149.785C149.753 6.984 149.737 6.824 149.737 6.64C149.737 6.448 149.753 6.288 149.785 6.16H150.385C150.353 6.024 150.337 5.864 150.337 5.68C150.337 5.488 150.353 5.328 150.385 5.2H152.785C152.817 5.328 152.833 5.488 152.833 5.68C152.833 5.864 152.817 6.024 152.785 6.16H153.265C153.297 6.288 153.313 6.448 153.313 6.64ZM152.305 7.12C152.273 6.984 152.257 6.824 152.257 6.64C152.257 6.448 152.273 6.288 152.305 6.16H150.745C150.777 6.288 150.793 6.448 150.793 6.64C150.793 6.824 150.777 6.984 150.745 7.12H152.305ZM158.118 5.68C158.118 5.864 158.102 6.024 158.07 6.16H157.71C157.742 6.288 157.758 6.448 157.758 6.64C157.758 6.824 157.742 6.984 157.71 7.12H157.35C157.382 7.248 157.398 7.408 157.398 7.6C157.398 7.784 157.382 7.944 157.35 8.08H157.11C157.142 8.208 157.158 8.368 157.158 8.56C157.158 8.744 157.142 8.904 157.11 9.04H156.75C156.782 9.168 156.798 9.328 156.798 9.52C156.798 9.704 156.782 9.864 156.75 10H156.51C156.542 10.128 156.558 10.288 156.558 10.48C156.558 10.664 156.542 10.824 156.51 10.96H156.03C156.062 11.088 156.078 11.248 156.078 11.44C156.078 11.624 156.062 11.784 156.03 11.92H154.59C154.558 11.784 154.542 11.624 154.542 11.44C154.542 11.248 154.558 11.088 154.59 10.96H155.55C155.518 10.824 155.502 10.664 155.502 10.48C155.502 10.288 155.518 10.128 155.55 10C155.518 9.864 155.502 9.704 155.502 9.52C155.502 9.328 155.518 9.168 155.55 9.04H155.07C155.038 8.904 155.022 8.744 155.022 8.56C155.022 8.368 155.038 8.208 155.07 8.08H154.83C154.798 7.944 154.782 7.784 154.782 7.6C154.782 7.408 154.798 7.248 154.83 7.12H154.47C154.438 6.984 154.422 6.824 154.422 6.64C154.422 6.448 154.438 6.288 154.47 6.16H154.11C154.078 6.024 154.062 5.864 154.062 5.68C154.062 5.488 154.078 5.328 154.11 5.2H155.07C155.102 5.328 155.118 5.488 155.118 5.68C155.118 5.864 155.102 6.024 155.07 6.16H155.43C155.462 6.288 155.478 6.448 155.478 6.64C155.478 6.824 155.462 6.984 155.43 7.12H155.79C155.822 7.248 155.838 7.408 155.838 7.6C155.838 7.784 155.822 7.944 155.79 8.08C155.822 8.208 155.838 8.368 155.838 8.56C155.838 8.744 155.822 8.904 155.79 9.04H156.15C156.118 8.904 156.102 8.744 156.102 8.56C156.102 8.368 156.118 8.208 156.15 8.08H156.39C156.358 7.944 156.342 7.784 156.342 7.6C156.342 7.408 156.358 7.248 156.39 7.12H156.75C156.718 6.984 156.702 6.824 156.702 6.64C156.702 6.448 156.718 6.288 156.75 6.16H157.11C157.078 6.024 157.062 5.864 157.062 5.68C157.062 5.488 157.078 5.328 157.11 5.2H158.07C158.102 5.328 158.118 5.488 158.118 5.68ZM161.555 9.04C161.587 9.168 161.603 9.328 161.603 9.52C161.603 9.704 161.587 9.864 161.555 10C161.587 10.128 161.603 10.288 161.603 10.48C161.603 10.664 161.587 10.824 161.555 10.96H161.075C161.107 11.088 161.123 11.248 161.123 11.44C161.123 11.624 161.107 11.784 161.075 11.92H160.355C160.323 11.784 160.307 11.624 160.307 11.44C160.307 11.248 160.323 11.088 160.355 10.96H160.835C160.803 10.824 160.787 10.664 160.787 10.48C160.787 10.288 160.803 10.128 160.835 10H160.355C160.323 9.864 160.307 9.704 160.307 9.52C160.307 9.328 160.323 9.168 160.355 9.04C160.323 8.904 160.307 8.744 160.307 8.56C160.307 8.368 160.323 8.208 160.355 8.08H161.555C161.587 8.208 161.603 8.368 161.603 8.56C161.603 8.744 161.587 8.904 161.555 9.04ZM172.532 7.6C172.532 7.784 172.516 7.944 172.484 8.08H172.004C172.036 8.208 172.052 8.368 172.052 8.56C172.052 8.744 172.036 8.904 172.004 9.04H171.524C171.556 9.168 171.572 9.328 171.572 9.52C171.572 9.704 171.556 9.864 171.524 10H169.604C169.636 10.128 169.652 10.288 169.652 10.48C169.652 10.664 169.636 10.824 169.604 10.96C169.636 11.088 169.652 11.248 169.652 11.44C169.652 11.624 169.636 11.784 169.604 11.92H168.644C168.612 11.784 168.596 11.624 168.596 11.44C168.596 11.248 168.612 11.088 168.644 10.96C168.612 10.824 168.596 10.664 168.596 10.48C168.596 10.288 168.612 10.128 168.644 10C168.612 9.864 168.596 9.704 168.596 9.52C168.596 9.328 168.612 9.168 168.644 9.04C168.612 8.904 168.596 8.744 168.596 8.56C168.596 8.368 168.612 8.208 168.644 8.08C168.612 7.944 168.596 7.784 168.596 7.6C168.596 7.408 168.612 7.248 168.644 7.12C168.612 6.984 168.596 6.824 168.596 6.64C168.596 6.448 168.612 6.288 168.644 6.16C168.612 6.024 168.596 5.864 168.596 5.68C168.596 5.488 168.612 5.328 168.644 5.2H169.604C169.636 5.328 169.652 5.488 169.652 5.68C169.652 5.864 169.636 6.024 169.604 6.16H170.084C170.116 6.288 170.132 6.448 170.132 6.64C170.132 6.824 170.116 6.984 170.084 7.12H169.604C169.636 7.248 169.652 7.408 169.652 7.6C169.652 7.784 169.636 7.944 169.604 8.08C169.636 8.208 169.652 8.368 169.652 8.56C169.652 8.744 169.636 8.904 169.604 9.04H171.044C171.012 8.904 170.996 8.744 170.996 8.56C170.996 8.368 171.012 8.208 171.044 8.08H171.524C171.492 7.944 171.476 7.784 171.476 7.6C171.476 7.408 171.492 7.248 171.524 7.12H171.044C171.012 6.984 170.996 6.824 170.996 6.64C170.996 6.448 171.012 6.288 171.044 6.16H170.084C170.052 6.024 170.036 5.864 170.036 5.68C170.036 5.488 170.052 5.328 170.084 5.2H171.524C171.556 5.328 171.572 5.488 171.572 5.68C171.572 5.864 171.556 6.024 171.524 6.16H172.004C172.036 6.288 172.052 6.448 172.052 6.64C172.052 6.824 172.036 6.984 172.004 7.12H172.484C172.516 7.248 172.532 7.408 172.532 7.6ZM176.809 9.04C176.841 9.168 176.857 9.328 176.857 9.52C176.857 9.704 176.841 9.864 176.809 10H173.929C173.897 9.864 173.881 9.704 173.881 9.52C173.881 9.328 173.897 9.168 173.929 9.04H174.889C174.857 8.904 174.841 8.744 174.841 8.56C174.841 8.368 174.857 8.208 174.889 8.08C174.857 7.944 174.841 7.784 174.841 7.6C174.841 7.408 174.857 7.248 174.889 7.12C174.857 6.984 174.841 6.824 174.841 6.64C174.841 6.448 174.857 6.288 174.889 6.16C174.857 6.024 174.841 5.864 174.841 5.68C174.841 5.488 174.857 5.328 174.889 5.2C174.857 5.064 174.841 4.904 174.841 4.72C174.841 4.528 174.857 4.368 174.889 4.24H174.169C174.137 4.104 174.121 3.944 174.121 3.76C174.121 3.568 174.137 3.408 174.169 3.28H175.849C175.881 3.408 175.897 3.568 175.897 3.76C175.897 3.944 175.881 4.104 175.849 4.24C175.881 4.368 175.897 4.528 175.897 4.72C175.897 4.904 175.881 5.064 175.849 5.2C175.881 5.328 175.897 5.488 175.897 5.68C175.897 5.864 175.881 6.024 175.849 6.16C175.881 6.288 175.897 6.448 175.897 6.64C175.897 6.824 175.881 6.984 175.849 7.12C175.881 7.248 175.897 7.408 175.897 7.6C175.897 7.784 175.881 7.944 175.849 8.08C175.881 8.208 175.897 8.368 175.897 8.56C175.897 8.744 175.881 8.904 175.849 9.04H176.809ZM182.141 6.64C182.141 6.824 182.125 6.984 182.093 7.12C182.125 7.248 182.141 7.408 182.141 7.6C182.141 7.784 182.125 7.944 182.093 8.08H179.573C179.605 8.208 179.621 8.368 179.621 8.56C179.621 8.744 179.605 8.904 179.573 9.04H181.613C181.645 9.168 181.661 9.328 181.661 9.52C181.661 9.704 181.645 9.864 181.613 10H179.213C179.181 9.864 179.165 9.704 179.165 9.52C179.165 9.328 179.181 9.168 179.213 9.04H178.613C178.581 8.904 178.565 8.744 178.565 8.56C178.565 8.368 178.581 8.208 178.613 8.08H178.253C178.221 7.944 178.205 7.784 178.205 7.6C178.205 7.408 178.221 7.248 178.253 7.12H178.613C178.581 6.984 178.565 6.824 178.565 6.64C178.565 6.448 178.581 6.288 178.613 6.16H179.213C179.181 6.024 179.165 5.864 179.165 5.68C179.165 5.488 179.181 5.328 179.213 5.2H181.613C181.645 5.328 181.661 5.488 181.661 5.68C181.661 5.864 181.645 6.024 181.613 6.16H182.093C182.125 6.288 182.141 6.448 182.141 6.64ZM181.133 7.12C181.101 6.984 181.085 6.824 181.085 6.64C181.085 6.448 181.101 6.288 181.133 6.16H179.573C179.605 6.288 179.621 6.448 179.621 6.64C179.621 6.824 179.605 6.984 179.573 7.12H181.133ZM186.898 9.04C186.93 9.168 186.946 9.328 186.946 9.52C186.946 9.704 186.93 9.864 186.898 10H185.938C185.906 9.864 185.89 9.704 185.89 9.52C185.89 9.328 185.906 9.168 185.938 9.04H185.458C185.426 8.904 185.41 8.744 185.41 8.56C185.41 8.368 185.426 8.208 185.458 8.08H184.018C184.05 8.208 184.066 8.368 184.066 8.56C184.066 8.744 184.05 8.904 184.018 9.04H185.458C185.49 9.168 185.506 9.328 185.506 9.52C185.506 9.704 185.49 9.864 185.458 10H183.538C183.506 9.864 183.49 9.704 183.49 9.52C183.49 9.328 183.506 9.168 183.538 9.04H183.058C183.026 8.904 183.01 8.744 183.01 8.56C183.01 8.368 183.026 8.208 183.058 8.08H183.538C183.506 7.944 183.49 7.784 183.49 7.6C183.49 7.408 183.506 7.248 183.538 7.12H185.458C185.426 6.984 185.41 6.824 185.41 6.64C185.41 6.448 185.426 6.288 185.458 6.16H183.778C183.746 6.024 183.73 5.864 183.73 5.68C183.73 5.488 183.746 5.328 183.778 5.2H185.938C185.97 5.328 185.986 5.488 185.986 5.68C185.986 5.864 185.97 6.024 185.938 6.16H186.418C186.45 6.288 186.466 6.448 186.466 6.64C186.466 6.824 186.45 6.984 186.418 7.12C186.45 7.248 186.466 7.408 186.466 7.6C186.466 7.784 186.45 7.944 186.418 8.08C186.45 8.208 186.466 8.368 186.466 8.56C186.466 8.744 186.45 8.904 186.418 9.04H186.898ZM191.511 8.56C191.511 8.744 191.495 8.904 191.463 9.04H190.983C191.015 9.168 191.031 9.328 191.031 9.52C191.031 9.704 191.015 9.864 190.983 10H188.343C188.311 9.864 188.295 9.704 188.295 9.52C188.295 9.328 188.311 9.168 188.343 9.04H190.503C190.471 8.904 190.455 8.744 190.455 8.56C190.455 8.368 190.471 8.208 190.503 8.08H188.583C188.551 7.944 188.535 7.784 188.535 7.6C188.535 7.408 188.551 7.248 188.583 7.12H188.103C188.071 6.984 188.055 6.824 188.055 6.64C188.055 6.448 188.071 6.288 188.103 6.16H188.583C188.551 6.024 188.535 5.864 188.535 5.68C188.535 5.488 188.551 5.328 188.583 5.2H191.223C191.255 5.328 191.271 5.488 191.271 5.68C191.271 5.864 191.255 6.024 191.223 6.16H189.063C189.095 6.288 189.111 6.448 189.111 6.64C189.111 6.824 189.095 6.984 189.063 7.12H190.983C191.015 7.248 191.031 7.408 191.031 7.6C191.031 7.784 191.015 7.944 190.983 8.08H191.463C191.495 8.208 191.511 8.368 191.511 8.56ZM196.556 6.64C196.556 6.824 196.54 6.984 196.508 7.12C196.54 7.248 196.556 7.408 196.556 7.6C196.556 7.784 196.54 7.944 196.508 8.08H193.988C194.02 8.208 194.036 8.368 194.036 8.56C194.036 8.744 194.02 8.904 193.988 9.04H196.028C196.06 9.168 196.076 9.328 196.076 9.52C196.076 9.704 196.06 9.864 196.028 10H193.628C193.596 9.864 193.58 9.704 193.58 9.52C193.58 9.328 193.596 9.168 193.628 9.04H193.028C192.995 8.904 192.979 8.744 192.979 8.56C192.979 8.368 192.995 8.208 193.028 8.08H192.668C192.636 7.944 192.62 7.784 192.62 7.6C192.62 7.408 192.636 7.248 192.668 7.12H193.028C192.995 6.984 192.979 6.824 192.979 6.64C192.979 6.448 192.995 6.288 193.028 6.16H193.628C193.596 6.024 193.58 5.864 193.58 5.68C193.58 5.488 193.596 5.328 193.628 5.2H196.028C196.06 5.328 196.076 5.488 196.076 5.68C196.076 5.864 196.06 6.024 196.028 6.16H196.508C196.54 6.288 196.556 6.448 196.556 6.64ZM195.548 7.12C195.516 6.984 195.5 6.824 195.5 6.64C195.5 6.448 195.516 6.288 195.548 6.16H193.988C194.02 6.288 194.036 6.448 194.036 6.64C194.036 6.824 194.02 6.984 193.988 7.12H195.548ZM206.165 6.64C206.165 6.824 206.149 6.984 206.117 7.12C206.149 7.248 206.165 7.408 206.165 7.6C206.165 7.784 206.149 7.944 206.117 8.08H203.597C203.629 8.208 203.645 8.368 203.645 8.56C203.645 8.744 203.629 8.904 203.597 9.04H205.637C205.669 9.168 205.685 9.328 205.685 9.52C205.685 9.704 205.669 9.864 205.637 10H203.237C203.205 9.864 203.189 9.704 203.189 9.52C203.189 9.328 203.205 9.168 203.237 9.04H202.637C202.605 8.904 202.589 8.744 202.589 8.56C202.589 8.368 202.605 8.208 202.637 8.08H202.277C202.245 7.944 202.229 7.784 202.229 7.6C202.229 7.408 202.245 7.248 202.277 7.12H202.637C202.605 6.984 202.589 6.824 202.589 6.64C202.589 6.448 202.605 6.288 202.637 6.16H203.237C203.205 6.024 203.189 5.864 203.189 5.68C203.189 5.488 203.205 5.328 203.237 5.2H205.637C205.669 5.328 205.685 5.488 205.685 5.68C205.685 5.864 205.669 6.024 205.637 6.16H206.117C206.149 6.288 206.165 6.448 206.165 6.64ZM205.157 7.12C205.125 6.984 205.109 6.824 205.109 6.64C205.109 6.448 205.125 6.288 205.157 6.16H203.597C203.629 6.288 203.645 6.448 203.645 6.64C203.645 6.824 203.629 6.984 203.597 7.12H205.157ZM207.97 5.68C207.97 5.864 207.954 6.024 207.922 6.16H208.402C208.434 6.288 208.45 6.448 208.45 6.64C208.45 6.824 208.434 6.984 208.402 7.12H208.042C208.074 7.248 208.09 7.408 208.09 7.6C208.09 7.784 208.074 7.944 208.042 8.08C208.074 8.208 208.09 8.368 208.09 8.56C208.09 8.744 208.074 8.904 208.042 9.04C208.074 9.168 208.09 9.328 208.09 9.52C208.09 9.704 208.074 9.864 208.042 10H207.082C207.05 9.864 207.034 9.704 207.034 9.52C207.034 9.328 207.05 9.168 207.082 9.04C207.05 8.904 207.034 8.744 207.034 8.56C207.034 8.368 207.05 8.208 207.082 8.08C207.05 7.944 207.034 7.784 207.034 7.6C207.034 7.408 207.05 7.248 207.082 7.12C207.05 6.984 207.034 6.824 207.034 6.64C207.034 6.448 207.05 6.288 207.082 6.16C207.05 6.024 207.034 5.864 207.034 5.68C207.034 5.488 207.05 5.328 207.082 5.2H207.922C207.954 5.328 207.97 5.488 207.97 5.68ZM210.922 7.12C210.954 7.248 210.97 7.408 210.97 7.6C210.97 7.784 210.954 7.944 210.922 8.08C210.954 8.208 210.97 8.368 210.97 8.56C210.97 8.744 210.954 8.904 210.922 9.04C210.954 9.168 210.97 9.328 210.97 9.52C210.97 9.704 210.954 9.864 210.922 10H209.962C209.93 9.864 209.914 9.704 209.914 9.52C209.914 9.328 209.93 9.168 209.962 9.04C209.93 8.904 209.914 8.744 209.914 8.56C209.914 8.368 209.93 8.208 209.962 8.08C209.93 7.944 209.914 7.784 209.914 7.6C209.914 7.408 209.93 7.248 209.962 7.12C209.93 6.984 209.914 6.824 209.914 6.64C209.914 6.448 209.93 6.288 209.962 6.16H208.402C208.37 6.024 208.354 5.864 208.354 5.68C208.354 5.488 208.37 5.328 208.402 5.2H210.322C210.354 5.328 210.37 5.488 210.37 5.68C210.37 5.864 210.354 6.024 210.322 6.16H210.922C210.954 6.288 210.97 6.448 210.97 6.64C210.97 6.824 210.954 6.984 210.922 7.12ZM215.246 9.04C215.278 9.168 215.294 9.328 215.294 9.52C215.294 9.704 215.278 9.864 215.246 10H213.326C213.294 9.864 213.278 9.704 213.278 9.52C213.278 9.328 213.294 9.168 213.326 9.04H212.846C212.814 8.904 212.798 8.744 212.798 8.56C212.798 8.368 212.814 8.208 212.846 8.08C212.814 7.944 212.798 7.784 212.798 7.6C212.798 7.408 212.814 7.248 212.846 7.12C212.814 6.984 212.798 6.824 212.798 6.64C212.798 6.448 212.814 6.288 212.846 6.16H211.886C211.854 6.024 211.838 5.864 211.838 5.68C211.838 5.488 211.854 5.328 211.886 5.2H212.846C212.814 5.064 212.798 4.904 212.798 4.72C212.798 4.528 212.814 4.368 212.846 4.24C212.814 4.104 212.798 3.944 212.798 3.76C212.798 3.568 212.814 3.408 212.846 3.28H213.806C213.838 3.408 213.854 3.568 213.854 3.76C213.854 3.944 213.838 4.104 213.806 4.24C213.838 4.368 213.854 4.528 213.854 4.72C213.854 4.904 213.838 5.064 213.806 5.2H215.246C215.278 5.328 215.294 5.488 215.294 5.68C215.294 5.864 215.278 6.024 215.246 6.16H213.806C213.838 6.288 213.854 6.448 213.854 6.64C213.854 6.824 213.838 6.984 213.806 7.12C213.838 7.248 213.854 7.408 213.854 7.6C213.854 7.784 213.838 7.944 213.806 8.08C213.838 8.208 213.854 8.368 213.854 8.56C213.854 8.744 213.838 8.904 213.806 9.04H215.246ZM220.579 6.64C220.579 6.824 220.563 6.984 220.531 7.12C220.563 7.248 220.579 7.408 220.579 7.6C220.579 7.784 220.563 7.944 220.531 8.08H218.011C218.043 8.208 218.059 8.368 218.059 8.56C218.059 8.744 218.043 8.904 218.011 9.04H220.051C220.083 9.168 220.099 9.328 220.099 9.52C220.099 9.704 220.083 9.864 220.051 10H217.651C217.619 9.864 217.603 9.704 217.603 9.52C217.603 9.328 217.619 9.168 217.651 9.04H217.051C217.019 8.904 217.003 8.744 217.003 8.56C217.003 8.368 217.019 8.208 217.051 8.08H216.691C216.659 7.944 216.643 7.784 216.643 7.6C216.643 7.408 216.659 7.248 216.691 7.12H217.051C217.019 6.984 217.003 6.824 217.003 6.64C217.003 6.448 217.019 6.288 217.051 6.16H217.651C217.619 6.024 217.603 5.864 217.603 5.68C217.603 5.488 217.619 5.328 217.651 5.2H220.051C220.083 5.328 220.099 5.488 220.099 5.68C220.099 5.864 220.083 6.024 220.051 6.16H220.531C220.563 6.288 220.579 6.448 220.579 6.64ZM219.571 7.12C219.539 6.984 219.523 6.824 219.523 6.64C219.523 6.448 219.539 6.288 219.571 6.16H218.011C218.043 6.288 218.059 6.448 218.059 6.64C218.059 6.824 218.043 6.984 218.011 7.12H219.571ZM225.336 6.16C225.368 6.288 225.384 6.448 225.384 6.64C225.384 6.824 225.368 6.984 225.336 7.12H224.376C224.344 6.984 224.328 6.824 224.328 6.64C224.328 6.448 224.344 6.288 224.376 6.16H223.536C223.568 6.288 223.584 6.448 223.584 6.64C223.584 6.824 223.568 6.984 223.536 7.12H223.176C223.208 7.248 223.224 7.408 223.224 7.6C223.224 7.784 223.208 7.944 223.176 8.08C223.208 8.208 223.224 8.368 223.224 8.56C223.224 8.744 223.208 8.904 223.176 9.04H223.896C223.928 9.168 223.944 9.328 223.944 9.52C223.944 9.704 223.928 9.864 223.896 10H221.496C221.464 9.864 221.448 9.704 221.448 9.52C221.448 9.328 221.464 9.168 221.496 9.04H222.216C222.184 8.904 222.168 8.744 222.168 8.56C222.168 8.368 222.184 8.208 222.216 8.08C222.184 7.944 222.168 7.784 222.168 7.6C222.168 7.408 222.184 7.248 222.216 7.12C222.184 6.984 222.168 6.824 222.168 6.64C222.168 6.448 222.184 6.288 222.216 6.16H221.496C221.464 6.024 221.448 5.864 221.448 5.68C221.448 5.488 221.464 5.328 221.496 5.2H222.696C222.728 5.328 222.744 5.488 222.744 5.68C222.744 5.864 222.728 6.024 222.696 6.16H223.176C223.144 6.024 223.128 5.864 223.128 5.68C223.128 5.488 223.144 5.328 223.176 5.2H224.976C225.008 5.328 225.024 5.488 225.024 5.68C225.024 5.864 225.008 6.024 224.976 6.16H225.336ZM232.545 4.24C232.513 4.104 232.497 3.944 232.497 3.76C232.497 3.568 232.513 3.408 232.545 3.28H233.505C233.537 3.408 233.553 3.568 233.553 3.76C233.553 3.944 233.537 4.104 233.505 4.24H232.545ZM234.465 9.04C234.497 9.168 234.513 9.328 234.513 9.52C234.513 9.704 234.497 9.864 234.465 10H231.585C231.553 9.864 231.537 9.704 231.537 9.52C231.537 9.328 231.553 9.168 231.585 9.04H232.545C232.513 8.904 232.497 8.744 232.497 8.56C232.497 8.368 232.513 8.208 232.545 8.08C232.513 7.944 232.497 7.784 232.497 7.6C232.497 7.408 232.513 7.248 232.545 7.12C232.513 6.984 232.497 6.824 232.497 6.64C232.497 6.448 232.513 6.288 232.545 6.16H231.825C231.793 6.024 231.777 5.864 231.777 5.68C231.777 5.488 231.793 5.328 231.825 5.2H233.505C233.537 5.328 233.553 5.488 233.553 5.68C233.553 5.864 233.537 6.024 233.505 6.16C233.537 6.288 233.553 6.448 233.553 6.64C233.553 6.824 233.537 6.984 233.505 7.12C233.537 7.248 233.553 7.408 233.553 7.6C233.553 7.784 233.537 7.944 233.505 8.08C233.537 8.208 233.553 8.368 233.553 8.56C233.553 8.744 233.537 8.904 233.505 9.04H234.465ZM239.27 9.04C239.302 9.168 239.318 9.328 239.318 9.52C239.318 9.704 239.302 9.864 239.27 10H237.35C237.318 9.864 237.302 9.704 237.302 9.52C237.302 9.328 237.318 9.168 237.35 9.04H236.87C236.838 8.904 236.822 8.744 236.822 8.56C236.822 8.368 236.838 8.208 236.87 8.08C236.838 7.944 236.822 7.784 236.822 7.6C236.822 7.408 236.838 7.248 236.87 7.12C236.838 6.984 236.822 6.824 236.822 6.64C236.822 6.448 236.838 6.288 236.87 6.16H235.91C235.878 6.024 235.862 5.864 235.862 5.68C235.862 5.488 235.878 5.328 235.91 5.2H236.87C236.838 5.064 236.822 4.904 236.822 4.72C236.822 4.528 236.838 4.368 236.87 4.24C236.838 4.104 236.822 3.944 236.822 3.76C236.822 3.568 236.838 3.408 236.87 3.28H237.83C237.862 3.408 237.878 3.568 237.878 3.76C237.878 3.944 237.862 4.104 237.83 4.24C237.862 4.368 237.878 4.528 237.878 4.72C237.878 4.904 237.862 5.064 237.83 5.2H239.27C239.302 5.328 239.318 5.488 239.318 5.68C239.318 5.864 239.302 6.024 239.27 6.16H237.83C237.862 6.288 237.878 6.448 237.878 6.64C237.878 6.824 237.862 6.984 237.83 7.12C237.862 7.248 237.878 7.408 237.878 7.6C237.878 7.784 237.862 7.944 237.83 8.08C237.862 8.208 237.878 8.368 237.878 8.56C237.878 8.744 237.862 8.904 237.83 9.04H239.27ZM246.479 8.08C246.511 8.208 246.527 8.368 246.527 8.56C246.527 8.744 246.511 8.904 246.479 9.04H245.999C246.031 9.168 246.047 9.328 246.047 9.52C246.047 9.704 246.031 9.864 245.999 10H245.519C245.487 9.864 245.471 9.704 245.471 9.52C245.471 9.328 245.487 9.168 245.519 9.04C245.487 8.904 245.471 8.744 245.471 8.56C245.471 8.368 245.487 8.208 245.519 8.08C245.487 7.944 245.471 7.784 245.471 7.6C245.471 7.408 245.487 7.248 245.519 7.12C245.487 6.984 245.471 6.824 245.471 6.64C245.471 6.448 245.487 6.288 245.519 6.16C245.487 6.024 245.471 5.864 245.471 5.68C245.471 5.488 245.487 5.328 245.519 5.2C245.487 5.064 245.471 4.904 245.471 4.72C245.471 4.528 245.487 4.368 245.519 4.24C245.487 4.104 245.471 3.944 245.471 3.76C245.471 3.568 245.487 3.408 245.519 3.28H246.479C246.511 3.408 246.527 3.568 246.527 3.76C246.527 3.944 246.511 4.104 246.479 4.24C246.511 4.368 246.527 4.528 246.527 4.72C246.527 4.904 246.511 5.064 246.479 5.2C246.511 5.328 246.527 5.488 246.527 5.68C246.527 5.864 246.511 6.024 246.479 6.16H246.959C246.991 6.288 247.007 6.448 247.007 6.64C247.007 6.824 246.991 6.984 246.959 7.12H246.479C246.511 7.248 246.527 7.408 246.527 7.6C246.527 7.784 246.511 7.944 246.479 8.08ZM249.407 7.6C249.407 7.784 249.391 7.944 249.359 8.08H248.879C248.911 8.208 248.927 8.368 248.927 8.56C248.927 8.744 248.911 8.904 248.879 9.04H247.919C247.887 8.904 247.871 8.744 247.871 8.56C247.871 8.368 247.887 8.208 247.919 8.08H248.399C248.367 7.944 248.351 7.784 248.351 7.6C248.351 7.408 248.367 7.248 248.399 7.12H247.919C247.887 6.984 247.871 6.824 247.871 6.64C247.871 6.448 247.887 6.288 247.919 6.16H246.959C246.927 6.024 246.911 5.864 246.911 5.68C246.911 5.488 246.927 5.328 246.959 5.2H248.399C248.431 5.328 248.447 5.488 248.447 5.68C248.447 5.864 248.431 6.024 248.399 6.16H248.879C248.911 6.288 248.927 6.448 248.927 6.64C248.927 6.824 248.911 6.984 248.879 7.12H249.359C249.391 7.248 249.407 7.408 249.407 7.6ZM246.431 9.52C246.431 9.328 246.447 9.168 246.479 9.04H247.919C247.951 9.168 247.967 9.328 247.967 9.52C247.967 9.704 247.951 9.864 247.919 10H246.479C246.447 9.864 246.431 9.704 246.431 9.52ZM254.212 6.64C254.212 6.824 254.196 6.984 254.164 7.12C254.196 7.248 254.212 7.408 254.212 7.6C254.212 7.784 254.196 7.944 254.164 8.08H251.644C251.676 8.208 251.692 8.368 251.692 8.56C251.692 8.744 251.676 8.904 251.644 9.04H253.684C253.716 9.168 253.732 9.328 253.732 9.52C253.732 9.704 253.716 9.864 253.684 10H251.284C251.252 9.864 251.236 9.704 251.236 9.52C251.236 9.328 251.252 9.168 251.284 9.04H250.684C250.652 8.904 250.636 8.744 250.636 8.56C250.636 8.368 250.652 8.208 250.684 8.08H250.324C250.292 7.944 250.276 7.784 250.276 7.6C250.276 7.408 250.292 7.248 250.324 7.12H250.684C250.652 6.984 250.636 6.824 250.636 6.64C250.636 6.448 250.652 6.288 250.684 6.16H251.284C251.252 6.024 251.236 5.864 251.236 5.68C251.236 5.488 251.252 5.328 251.284 5.2H253.684C253.716 5.328 253.732 5.488 253.732 5.68C253.732 5.864 253.716 6.024 253.684 6.16H254.164C254.196 6.288 254.212 6.448 254.212 6.64ZM253.204 7.12C253.172 6.984 253.156 6.824 253.156 6.64C253.156 6.448 253.172 6.288 253.204 6.16H251.644C251.676 6.288 251.692 6.448 251.692 6.64C251.692 6.824 251.676 6.984 251.644 7.12H253.204ZM258.488 9.04C258.52 9.168 258.536 9.328 258.536 9.52C258.536 9.704 258.52 9.864 258.488 10H255.608C255.576 9.864 255.56 9.704 255.56 9.52C255.56 9.328 255.576 9.168 255.608 9.04H256.568C256.536 8.904 256.52 8.744 256.52 8.56C256.52 8.368 256.536 8.208 256.568 8.08C256.536 7.944 256.52 7.784 256.52 7.6C256.52 7.408 256.536 7.248 256.568 7.12C256.536 6.984 256.52 6.824 256.52 6.64C256.52 6.448 256.536 6.288 256.568 6.16C256.536 6.024 256.52 5.864 256.52 5.68C256.52 5.488 256.536 5.328 256.568 5.2C256.536 5.064 256.52 4.904 256.52 4.72C256.52 4.528 256.536 4.368 256.568 4.24H255.848C255.816 4.104 255.8 3.944 255.8 3.76C255.8 3.568 255.816 3.408 255.848 3.28H257.528C257.56 3.408 257.576 3.568 257.576 3.76C257.576 3.944 257.56 4.104 257.528 4.24C257.56 4.368 257.576 4.528 257.576 4.72C257.576 4.904 257.56 5.064 257.528 5.2C257.56 5.328 257.576 5.488 257.576 5.68C257.576 5.864 257.56 6.024 257.528 6.16C257.56 6.288 257.576 6.448 257.576 6.64C257.576 6.824 257.56 6.984 257.528 7.12C257.56 7.248 257.576 7.408 257.576 7.6C257.576 7.784 257.56 7.944 257.528 8.08C257.56 8.208 257.576 8.368 257.576 8.56C257.576 8.744 257.56 8.904 257.528 9.04H258.488ZM263.821 7.6C263.821 7.784 263.805 7.944 263.773 8.08H263.413C263.445 8.208 263.461 8.368 263.461 8.56C263.461 8.744 263.445 8.904 263.413 9.04H262.813C262.845 9.168 262.861 9.328 262.861 9.52C262.861 9.704 262.845 9.864 262.813 10H260.893C260.861 9.864 260.845 9.704 260.845 9.52C260.845 9.328 260.861 9.168 260.893 9.04H260.293C260.261 8.904 260.245 8.744 260.245 8.56C260.245 8.368 260.261 8.208 260.293 8.08H259.933C259.901 7.944 259.885 7.784 259.885 7.6C259.885 7.408 259.901 7.248 259.933 7.12H260.293C260.261 6.984 260.245 6.824 260.245 6.64C260.245 6.448 260.261 6.288 260.293 6.16H260.893C260.861 6.024 260.845 5.864 260.845 5.68C260.845 5.488 260.861 5.328 260.893 5.2H262.813C262.845 5.328 262.861 5.488 262.861 5.68C262.861 5.864 262.845 6.024 262.813 6.16H263.413C263.445 6.288 263.461 6.448 263.461 6.64C263.461 6.824 263.445 6.984 263.413 7.12H263.773C263.805 7.248 263.821 7.408 263.821 7.6ZM262.813 8.08C262.781 7.944 262.765 7.784 262.765 7.6C262.765 7.408 262.781 7.248 262.813 7.12H262.453C262.421 6.984 262.405 6.824 262.405 6.64C262.405 6.448 262.421 6.288 262.453 6.16H261.253C261.285 6.288 261.301 6.448 261.301 6.64C261.301 6.824 261.285 6.984 261.253 7.12H260.893C260.925 7.248 260.941 7.408 260.941 7.6C260.941 7.784 260.925 7.944 260.893 8.08H261.253C261.285 8.208 261.301 8.368 261.301 8.56C261.301 8.744 261.285 8.904 261.253 9.04H262.453C262.421 8.904 262.405 8.744 262.405 8.56C262.405 8.368 262.421 8.208 262.453 8.08H262.813ZM268.626 5.68C268.626 5.864 268.61 6.024 268.578 6.16C268.61 6.288 268.626 6.448 268.626 6.64C268.626 6.824 268.61 6.984 268.578 7.12H268.218C268.25 7.248 268.266 7.408 268.266 7.6C268.266 7.784 268.25 7.944 268.218 8.08C268.25 8.208 268.266 8.368 268.266 8.56C268.266 8.744 268.25 8.904 268.218 9.04H267.978C268.01 9.168 268.026 9.328 268.026 9.52C268.026 9.704 268.01 9.864 267.978 10H267.258C267.226 9.864 267.21 9.704 267.21 9.52C267.21 9.328 267.226 9.168 267.258 9.04H267.018C266.986 8.904 266.97 8.744 266.97 8.56C266.97 8.368 266.986 8.208 267.018 8.08H266.298C266.33 8.208 266.346 8.368 266.346 8.56C266.346 8.744 266.33 8.904 266.298 9.04H266.058C266.09 9.168 266.106 9.328 266.106 9.52C266.106 9.704 266.09 9.864 266.058 10H265.338C265.306 9.864 265.29 9.704 265.29 9.52C265.29 9.328 265.306 9.168 265.338 9.04H265.098C265.066 8.904 265.05 8.744 265.05 8.56C265.05 8.368 265.066 8.208 265.098 8.08C265.066 7.944 265.05 7.784 265.05 7.6C265.05 7.408 265.066 7.248 265.098 7.12H264.738C264.706 6.984 264.69 6.824 264.69 6.64C264.69 6.448 264.706 6.288 264.738 6.16C264.706 6.024 264.69 5.864 264.69 5.68C264.69 5.488 264.706 5.328 264.738 5.2H265.698C265.73 5.328 265.746 5.488 265.746 5.68C265.746 5.864 265.73 6.024 265.698 6.16C265.73 6.288 265.746 6.448 265.746 6.64C265.746 6.824 265.73 6.984 265.698 7.12C265.73 7.248 265.746 7.408 265.746 7.6C265.746 7.784 265.73 7.944 265.698 8.08H266.058C266.026 7.944 266.01 7.784 266.01 7.6C266.01 7.408 266.026 7.248 266.058 7.12H266.298C266.266 6.984 266.25 6.824 266.25 6.64C266.25 6.448 266.266 6.288 266.298 6.16C266.266 6.024 266.25 5.864 266.25 5.68C266.25 5.488 266.266 5.328 266.298 5.2H267.018C267.05 5.328 267.066 5.488 267.066 5.68C267.066 5.864 267.05 6.024 267.018 6.16C267.05 6.288 267.066 6.448 267.066 6.64C267.066 6.824 267.05 6.984 267.018 7.12H267.258C267.29 7.248 267.306 7.408 267.306 7.6C267.306 7.784 267.29 7.944 267.258 8.08H267.618C267.586 7.944 267.57 7.784 267.57 7.6C267.57 7.408 267.586 7.248 267.618 7.12C267.586 6.984 267.57 6.824 267.57 6.64C267.57 6.448 267.586 6.288 267.618 6.16C267.586 6.024 267.57 5.864 267.57 5.68C267.57 5.488 267.586 5.328 267.618 5.2H268.578C268.61 5.328 268.626 5.488 268.626 5.68ZM272.111 8.56C272.111 8.744 272.095 8.904 272.062 9.04C272.095 9.168 272.111 9.328 272.111 9.52C272.111 9.704 272.095 9.864 272.062 10H270.863C270.831 9.864 270.815 9.704 270.815 9.52C270.815 9.328 270.831 9.168 270.863 9.04C270.831 8.904 270.815 8.744 270.815 8.56C270.815 8.368 270.831 8.208 270.863 8.08H272.062C272.095 8.208 272.111 8.368 272.111 8.56ZM4.32 21.04C4.352 21.168 4.368 21.328 4.368 21.52C4.368 21.704 4.352 21.864 4.32 22H3.36C3.328 21.864 3.312 21.704 3.312 21.52C3.312 21.328 3.328 21.168 3.36 21.04H3C2.968 20.904 2.952 20.744 2.952 20.56C2.952 20.368 2.968 20.208 3 20.08H2.28C2.248 19.944 2.232 19.784 2.232 19.6C2.232 19.408 2.248 19.248 2.28 19.12H1.44C1.472 19.248 1.488 19.408 1.488 19.6C1.488 19.784 1.472 19.944 1.44 20.08C1.472 20.208 1.488 20.368 1.488 20.56C1.488 20.744 1.472 20.904 1.44 21.04C1.472 21.168 1.488 21.328 1.488 21.52C1.488 21.704 1.472 21.864 1.44 22H0.48C0.448 21.864 0.432 21.704 0.432 21.52C0.432 21.328 0.448 21.168 0.48 21.04C0.448 20.904 0.432 20.744 0.432 20.56C0.432 20.368 0.448 20.208 0.48 20.08C0.448 19.944 0.432 19.784 0.432 19.6C0.432 19.408 0.448 19.248 0.48 19.12C0.448 18.984 0.432 18.824 0.432 18.64C0.432 18.448 0.448 18.288 0.48 18.16C0.448 18.024 0.432 17.864 0.432 17.68C0.432 17.488 0.448 17.328 0.48 17.2C0.448 17.064 0.432 16.904 0.432 16.72C0.432 16.528 0.448 16.368 0.48 16.24C0.448 16.104 0.432 15.944 0.432 15.76C0.432 15.568 0.448 15.408 0.48 15.28H1.44C1.472 15.408 1.488 15.568 1.488 15.76C1.488 15.944 1.472 16.104 1.44 16.24C1.472 16.368 1.488 16.528 1.488 16.72C1.488 16.904 1.472 17.064 1.44 17.2C1.472 17.328 1.488 17.488 1.488 17.68C1.488 17.864 1.472 18.024 1.44 18.16H2.28C2.248 18.024 2.232 17.864 2.232 17.68C2.232 17.488 2.248 17.328 2.28 17.2H3C2.968 17.064 2.952 16.904 2.952 16.72C2.952 16.528 2.968 16.368 3 16.24H3.36C3.328 16.104 3.312 15.944 3.312 15.76C3.312 15.568 3.328 15.408 3.36 15.28H4.32C4.352 15.408 4.368 15.568 4.368 15.76C4.368 15.944 4.352 16.104 4.32 16.24H3.96C3.992 16.368 4.008 16.528 4.008 16.72C4.008 16.904 3.992 17.064 3.96 17.2H3.24C3.272 17.328 3.288 17.488 3.288 17.68C3.288 17.864 3.272 18.024 3.24 18.16H2.64C2.672 18.288 2.688 18.448 2.688 18.64C2.688 18.824 2.672 18.984 2.64 19.12H3.24C3.272 19.248 3.288 19.408 3.288 19.6C3.288 19.784 3.272 19.944 3.24 20.08H3.96C3.992 20.208 4.008 20.368 4.008 20.56C4.008 20.744 3.992 20.904 3.96 21.04H4.32ZM9.17269 18.64C9.17269 18.824 9.15669 18.984 9.12469 19.12C9.15669 19.248 9.17269 19.408 9.17269 19.6C9.17269 19.784 9.15669 19.944 9.12469 20.08H6.60469C6.63669 20.208 6.65269 20.368 6.65269 20.56C6.65269 20.744 6.63669 20.904 6.60469 21.04H8.64469C8.67669 21.168 8.69269 21.328 8.69269 21.52C8.69269 21.704 8.67669 21.864 8.64469 22H6.24469C6.21269 21.864 6.19669 21.704 6.19669 21.52C6.19669 21.328 6.21269 21.168 6.24469 21.04H5.64469C5.61269 20.904 5.59669 20.744 5.59669 20.56C5.59669 20.368 5.61269 20.208 5.64469 20.08H5.28469C5.25269 19.944 5.23669 19.784 5.23669 19.6C5.23669 19.408 5.25269 19.248 5.28469 19.12H5.64469C5.61269 18.984 5.59669 18.824 5.59669 18.64C5.59669 18.448 5.61269 18.288 5.64469 18.16H6.24469C6.21269 18.024 6.19669 17.864 6.19669 17.68C6.19669 17.488 6.21269 17.328 6.24469 17.2H8.64469C8.67669 17.328 8.69269 17.488 8.69269 17.68C8.69269 17.864 8.67669 18.024 8.64469 18.16H9.12469C9.15669 18.288 9.17269 18.448 9.17269 18.64ZM8.16469 19.12C8.13269 18.984 8.11669 18.824 8.11669 18.64C8.11669 18.448 8.13269 18.288 8.16469 18.16H6.60469C6.63669 18.288 6.65269 18.448 6.65269 18.64C6.65269 18.824 6.63669 18.984 6.60469 19.12H8.16469ZM13.9774 17.68C13.9774 17.864 13.9614 18.024 13.9294 18.16H13.5694C13.6014 18.288 13.6174 18.448 13.6174 18.64C13.6174 18.824 13.6014 18.984 13.5694 19.12H13.2094C13.2414 19.248 13.2574 19.408 13.2574 19.6C13.2574 19.784 13.2414 19.944 13.2094 20.08H12.9694C13.0014 20.208 13.0174 20.368 13.0174 20.56C13.0174 20.744 13.0014 20.904 12.9694 21.04H12.6094C12.6414 21.168 12.6574 21.328 12.6574 21.52C12.6574 21.704 12.6414 21.864 12.6094 22H12.3694C12.4014 22.128 12.4174 22.288 12.4174 22.48C12.4174 22.664 12.4014 22.824 12.3694 22.96H11.8894C11.9214 23.088 11.9374 23.248 11.9374 23.44C11.9374 23.624 11.9214 23.784 11.8894 23.92H10.4494C10.4174 23.784 10.4014 23.624 10.4014 23.44C10.4014 23.248 10.4174 23.088 10.4494 22.96H11.4094C11.3774 22.824 11.3614 22.664 11.3614 22.48C11.3614 22.288 11.3774 22.128 11.4094 22C11.3774 21.864 11.3614 21.704 11.3614 21.52C11.3614 21.328 11.3774 21.168 11.4094 21.04H10.9294C10.8974 20.904 10.8814 20.744 10.8814 20.56C10.8814 20.368 10.8974 20.208 10.9294 20.08H10.6894C10.6574 19.944 10.6414 19.784 10.6414 19.6C10.6414 19.408 10.6574 19.248 10.6894 19.12H10.3294C10.2974 18.984 10.2814 18.824 10.2814 18.64C10.2814 18.448 10.2974 18.288 10.3294 18.16H9.96938C9.93738 18.024 9.92138 17.864 9.92138 17.68C9.92138 17.488 9.93738 17.328 9.96938 17.2H10.9294C10.9614 17.328 10.9774 17.488 10.9774 17.68C10.9774 17.864 10.9614 18.024 10.9294 18.16H11.2894C11.3214 18.288 11.3374 18.448 11.3374 18.64C11.3374 18.824 11.3214 18.984 11.2894 19.12H11.6494C11.6814 19.248 11.6974 19.408 11.6974 19.6C11.6974 19.784 11.6814 19.944 11.6494 20.08C11.6814 20.208 11.6974 20.368 11.6974 20.56C11.6974 20.744 11.6814 20.904 11.6494 21.04H12.0094C11.9774 20.904 11.9614 20.744 11.9614 20.56C11.9614 20.368 11.9774 20.208 12.0094 20.08H12.2494C12.2174 19.944 12.2014 19.784 12.2014 19.6C12.2014 19.408 12.2174 19.248 12.2494 19.12H12.6094C12.5774 18.984 12.5614 18.824 12.5614 18.64C12.5614 18.448 12.5774 18.288 12.6094 18.16H12.9694C12.9374 18.024 12.9214 17.864 12.9214 17.68C12.9214 17.488 12.9374 17.328 12.9694 17.2H13.9294C13.9614 17.328 13.9774 17.488 13.9774 17.68ZM17.4621 16.72C17.4621 16.904 17.4461 17.064 17.4141 17.2C17.4461 17.328 17.4621 17.488 17.4621 17.68C17.4621 17.864 17.4461 18.024 17.4141 18.16H16.2141C16.1821 18.024 16.1661 17.864 16.1661 17.68C16.1661 17.488 16.1821 17.328 16.2141 17.2C16.1821 17.064 16.1661 16.904 16.1661 16.72C16.1661 16.528 16.1821 16.368 16.2141 16.24H17.4141C17.4461 16.368 17.4621 16.528 17.4621 16.72ZM17.4141 20.08C17.4461 20.208 17.4621 20.368 17.4621 20.56C17.4621 20.744 17.4461 20.904 17.4141 21.04C17.4461 21.168 17.4621 21.328 17.4621 21.52C17.4621 21.704 17.4461 21.864 17.4141 22H16.2141C16.1821 21.864 16.1661 21.704 16.1661 21.52C16.1661 21.328 16.1821 21.168 16.2141 21.04C16.1821 20.904 16.1661 20.744 16.1661 20.56C16.1661 20.368 16.1821 20.208 16.2141 20.08H17.4141ZM28.3434 21.04C28.3754 21.168 28.3914 21.328 28.3914 21.52C28.3914 21.704 28.3754 21.864 28.3434 22H24.5034C24.4714 21.864 24.4554 21.704 24.4554 21.52C24.4554 21.328 24.4714 21.168 24.5034 21.04H28.3434Z" fill="#FF5555"/>
</g>
<defs>
<clipPath id="clip0_324_66">
<rect width="366" height="24" fill="white"/>
</clipPath>
</defs>
</svg>
