<svg width="366" height="12" viewBox="0 0 366 12" fill="none" xmlns="http://www.w3.org/2000/svg">
<g clip-path="url(#clip0_324_66)">
<path d="M4.368 4.72C4.368 4.904 4.352 5.064 4.32 5.2C4.352 5.328 4.368 5.488 4.368 5.68C4.368 5.864 4.352 6.024 4.32 6.16H3.84C3.872 6.288 3.888 6.448 3.888 6.64C3.888 6.824 3.872 6.984 3.84 7.12H1.44C1.472 7.248 1.488 7.408 1.488 7.6C1.488 7.784 1.472 7.944 1.44 8.08C1.472 8.208 1.488 8.368 1.488 8.56C1.488 8.744 1.472 8.904 1.44 9.04C1.472 9.168 1.488 9.328 1.488 9.52C1.488 9.704 1.472 9.864 1.44 10H0.48C0.448 9.864 0.432 9.704 0.432 9.52C0.432 9.328 0.448 9.168 0.48 9.04C0.448 8.904 0.432 8.744 0.432 8.56C0.432 8.368 0.448 8.208 0.48 8.08C0.448 7.944 0.432 7.784 0.432 7.6C0.432 7.408 0.448 7.248 0.48 7.12C0.448 6.984 0.432 6.824 0.432 6.64C0.432 6.448 0.448 6.288 0.48 6.16C0.448 6.024 0.432 5.864 0.432 5.68C0.432 5.488 0.448 5.328 0.48 5.2C0.448 5.064 0.432 4.904 0.432 4.72C0.432 4.528 0.448 4.368 0.48 4.24C0.448 4.104 0.432 3.944 0.432 3.76C0.432 3.568 0.448 3.408 0.48 3.28H3.84C3.872 3.408 3.888 3.568 3.888 3.76C3.888 3.944 3.872 4.104 3.84 4.24H4.32C4.352 4.368 4.368 4.528 4.368 4.72ZM3.36 6.16C3.328 6.024 3.312 5.864 3.312 5.68C3.312 5.488 3.328 5.328 3.36 5.2C3.328 5.064 3.312 4.904 3.312 4.72C3.312 4.528 3.328 4.368 3.36 4.24H1.44C1.472 4.368 1.488 4.528 1.488 4.72C1.488 4.904 1.472 5.064 1.44 5.2C1.472 5.328 1.488 5.488 1.488 5.68C1.488 5.864 1.472 6.024 1.44 6.16H3.36ZM8.64469 9.04C8.67669 9.168 8.69269 9.328 8.69269 9.52C8.69269 9.704 8.67669 9.864 8.64469 10H5.76469C5.73269 9.864 5.71669 9.704 5.71669 9.52C5.71669 9.328 5.73269 9.168 5.76469 9.04H6.72469C6.69269 8.904 6.67669 8.744 6.67669 8.56C6.67669 8.368 6.69269 8.208 6.72469 8.08C6.69269 7.944 6.67669 7.784 6.67669 7.6C6.67669 7.408 6.69269 7.248 6.72469 7.12C6.69269 6.984 6.67669 6.824 6.67669 6.64C6.67669 6.448 6.69269 6.288 6.72469 6.16C6.69269 6.024 6.67669 5.864 6.67669 5.68C6.67669 5.488 6.69269 5.328 6.72469 5.2C6.69269 5.064 6.67669 4.904 6.67669 4.72C6.67669 4.528 6.69269 4.368 6.72469 4.24H6.00469C5.97269 4.104 5.95669 3.944 5.95669 3.76C5.95669 3.568 5.97269 3.408 6.00469 3.28H7.68469C7.71669 3.408 7.73269 3.568 7.73269 3.76C7.73269 3.944 7.71669 4.104 7.68469 4.24C7.71669 4.368 7.73269 4.528 7.73269 4.72C7.73269 4.904 7.71669 5.064 7.68469 5.2C7.71669 5.328 7.73269 5.488 7.73269 5.68C7.73269 5.864 7.71669 6.024 7.68469 6.16C7.71669 6.288 7.73269 6.448 7.73269 6.64C7.73269 6.824 7.71669 6.984 7.68469 7.12C7.71669 7.248 7.73269 7.408 7.73269 7.6C7.73269 7.784 7.71669 7.944 7.68469 8.08C7.71669 8.208 7.73269 8.368 7.73269 8.56C7.73269 8.744 7.71669 8.904 7.68469 9.04H8.64469ZM13.9774 6.64C13.9774 6.824 13.9614 6.984 13.9294 7.12C13.9614 7.248 13.9774 7.408 13.9774 7.6C13.9774 7.784 13.9614 7.944 13.9294 8.08H11.4094C11.4414 8.208 11.4574 8.368 11.4574 8.56C11.4574 8.744 11.4414 8.904 11.4094 9.04H13.4494C13.4814 9.168 13.4974 9.328 13.4974 9.52C13.4974 9.704 13.4814 9.864 13.4494 10H11.0494C11.0174 9.864 11.0014 9.704 11.0014 9.52C11.0014 9.328 11.0174 9.168 11.0494 9.04H10.4494C10.4174 8.904 10.4014 8.744 10.4014 8.56C10.4014 8.368 10.4174 8.208 10.4494 8.08H10.0894C10.0574 7.944 10.0414 7.784 10.0414 7.6C10.0414 7.408 10.0574 7.248 10.0894 7.12H10.4494C10.4174 6.984 10.4014 6.824 10.4014 6.64C10.4014 6.448 10.4174 6.288 10.4494 6.16H11.0494C11.0174 6.024 11.0014 5.864 11.0014 5.68C11.0014 5.488 11.0174 5.328 11.0494 5.2H13.4494C13.4814 5.328 13.4974 5.488 13.4974 5.68C13.4974 5.864 13.4814 6.024 13.4494 6.16H13.9294C13.9614 6.288 13.9774 6.448 13.9774 6.64ZM12.9694 7.12C12.9374 6.984 12.9214 6.824 12.9214 6.64C12.9214 6.448 12.9374 6.288 12.9694 6.16H11.4094C11.4414 6.288 11.4574 6.448 11.4574 6.64C11.4574 6.824 11.4414 6.984 11.4094 7.12H12.9694ZM18.7341 9.04C18.7661 9.168 18.7821 9.328 18.7821 9.52C18.7821 9.704 18.7661 9.864 18.7341 10H17.7741C17.7421 9.864 17.7261 9.704 17.7261 9.52C17.7261 9.328 17.7421 9.168 17.7741 9.04H17.2941C17.2621 8.904 17.2461 8.744 17.2461 8.56C17.2461 8.368 17.2621 8.208 17.2941 8.08H15.8541C15.8861 8.208 15.9021 8.368 15.9021 8.56C15.9021 8.744 15.8861 8.904 15.8541 9.04H17.2941C17.3261 9.168 17.3421 9.328 17.3421 9.52C17.3421 9.704 17.3261 9.864 17.2941 10H15.3741C15.3421 9.864 15.3261 9.704 15.3261 9.52C15.3261 9.328 15.3421 9.168 15.3741 9.04H14.8941C14.8621 8.904 14.8461 8.744 14.8461 8.56C14.8461 8.368 14.8621 8.208 14.8941 8.08H15.3741C15.3421 7.944 15.3261 7.784 15.3261 7.6C15.3261 7.408 15.3421 7.248 15.3741 7.12H17.2941C17.2621 6.984 17.2461 6.824 17.2461 6.64C17.2461 6.448 17.2621 6.288 17.2941 6.16H15.6141C15.5821 6.024 15.5661 5.864 15.5661 5.68C15.5661 5.488 15.5821 5.328 15.6141 5.2H17.7741C17.8061 5.328 17.8221 5.488 17.8221 5.68C17.8221 5.864 17.8061 6.024 17.7741 6.16H18.2541C18.2861 6.288 18.3021 6.448 18.3021 6.64C18.3021 6.824 18.2861 6.984 18.2541 7.12C18.2861 7.248 18.3021 7.408 18.3021 7.6C18.3021 7.784 18.2861 7.944 18.2541 8.08C18.2861 8.208 18.3021 8.368 18.3021 8.56C18.3021 8.744 18.2861 8.904 18.2541 9.04H18.7341ZM23.3468 8.56C23.3468 8.744 23.3308 8.904 23.2988 9.04H22.8188C22.8508 9.168 22.8668 9.328 22.8668 9.52C22.8668 9.704 22.8508 9.864 22.8188 10H20.1788C20.1468 9.864 20.1308 9.704 20.1308 9.52C20.1308 9.328 20.1468 9.168 20.1788 9.04H22.3388C22.3068 8.904 22.2908 8.744 22.2908 8.56C22.2908 8.368 22.3068 8.208 22.3388 8.08H20.4188C20.3868 7.944 20.3708 7.784 20.3708 7.6C20.3708 7.408 20.3868 7.248 20.4188 7.12H19.9388C19.9068 6.984 19.8908 6.824 19.8908 6.64C19.8908 6.448 19.9068 6.288 19.9388 6.16H20.4188C20.3868 6.024 20.3708 5.864 20.3708 5.68C20.3708 5.488 20.3868 5.328 20.4188 5.2H23.0588C23.0908 5.328 23.1068 5.488 23.1068 5.68C23.1068 5.864 23.0908 6.024 23.0588 6.16H20.8988C20.9308 6.288 20.9468 6.448 20.9468 6.64C20.9468 6.824 20.9308 6.984 20.8988 7.12H22.8188C22.8508 7.248 22.8668 7.408 22.8668 7.6C22.8668 7.784 22.8508 7.944 22.8188 8.08H23.2988C23.3308 8.208 23.3468 8.368 23.3468 8.56ZM28.3914 6.64C28.3914 6.824 28.3754 6.984 28.3434 7.12C28.3754 7.248 28.3914 7.408 28.3914 7.6C28.3914 7.784 28.3754 7.944 28.3434 8.08H25.8234C25.8554 8.208 25.8714 8.368 25.8714 8.56C25.8714 8.744 25.8554 8.904 25.8234 9.04H27.8634C27.8954 9.168 27.9114 9.328 27.9114 9.52C27.9114 9.704 27.8954 9.864 27.8634 10H25.4634C25.4314 9.864 25.4154 9.704 25.4154 9.52C25.4154 9.328 25.4314 9.168 25.4634 9.04H24.8634C24.8314 8.904 24.8154 8.744 24.8154 8.56C24.8154 8.368 24.8314 8.208 24.8634 8.08H24.5034C24.4714 7.944 24.4554 7.784 24.4554 7.6C24.4554 7.408 24.4714 7.248 24.5034 7.12H24.8634C24.8314 6.984 24.8154 6.824 24.8154 6.64C24.8154 6.448 24.8314 6.288 24.8634 6.16H25.4634C25.4314 6.024 25.4154 5.864 25.4154 5.68C25.4154 5.488 25.4314 5.328 25.4634 5.2H27.8634C27.8954 5.328 27.9114 5.488 27.9114 5.68C27.9114 5.864 27.8954 6.024 27.8634 6.16H28.3434C28.3754 6.288 28.3914 6.448 28.3914 6.64ZM27.3834 7.12C27.3514 6.984 27.3354 6.824 27.3354 6.64C27.3354 6.448 27.3514 6.288 27.3834 6.16H25.8234C25.8554 6.288 25.8714 6.448 25.8714 6.64C25.8714 6.824 25.8554 6.984 25.8234 7.12H27.3834ZM37.4728 5.2C37.5048 5.328 37.5208 5.488 37.5208 5.68C37.5208 5.864 37.5048 6.024 37.4728 6.16H36.0328C36.0648 6.288 36.0808 6.448 36.0808 6.64C36.0808 6.824 36.0648 6.984 36.0328 7.12C36.0648 7.248 36.0808 7.408 36.0808 7.6C36.0808 7.784 36.0648 7.944 36.0328 8.08C36.0648 8.208 36.0808 8.368 36.0808 8.56C36.0808 8.744 36.0648 8.904 36.0328 9.04H36.9928C37.0248 9.168 37.0408 9.328 37.0408 9.52C37.0408 9.704 37.0248 9.864 36.9928 10H34.5928C34.5608 9.864 34.5448 9.704 34.5448 9.52C34.5448 9.328 34.5608 9.168 34.5928 9.04H35.0728C35.0408 8.904 35.0248 8.744 35.0248 8.56C35.0248 8.368 35.0408 8.208 35.0728 8.08C35.0408 7.944 35.0248 7.784 35.0248 7.6C35.0248 7.408 35.0408 7.248 35.0728 7.12C35.0408 6.984 35.0248 6.824 35.0248 6.64C35.0248 6.448 35.0408 6.288 35.0728 6.16H34.5928C34.5608 6.024 34.5448 5.864 34.5448 5.68C34.5448 5.488 34.5608 5.328 34.5928 5.2H35.0728C35.0408 5.064 35.0248 4.904 35.0248 4.72C35.0248 4.528 35.0408 4.368 35.0728 4.24H35.5528C35.5208 4.104 35.5048 3.944 35.5048 3.76C35.5048 3.568 35.5208 3.408 35.5528 3.28H37.4728C37.5048 3.408 37.5208 3.568 37.5208 3.76C37.5208 3.944 37.5048 4.104 37.4728 4.24H36.0328C36.0648 4.368 36.0808 4.528 36.0808 4.72C36.0808 4.904 36.0648 5.064 36.0328 5.2H37.4728ZM42.8055 7.6C42.8055 7.784 42.7895 7.944 42.7575 8.08H42.3975C42.4295 8.208 42.4455 8.368 42.4455 8.56C42.4455 8.744 42.4295 8.904 42.3975 9.04H41.7975C41.8295 9.168 41.8455 9.328 41.8455 9.52C41.8455 9.704 41.8295 9.864 41.7975 10H39.8775C39.8455 9.864 39.8295 9.704 39.8295 9.52C39.8295 9.328 39.8455 9.168 39.8775 9.04H39.2775C39.2455 8.904 39.2295 8.744 39.2295 8.56C39.2295 8.368 39.2455 8.208 39.2775 8.08H38.9175C38.8855 7.944 38.8695 7.784 38.8695 7.6C38.8695 7.408 38.8855 7.248 38.9175 7.12H39.2775C39.2455 6.984 39.2295 6.824 39.2295 6.64C39.2295 6.448 39.2455 6.288 39.2775 6.16H39.8775C39.8455 6.024 39.8295 5.864 39.8295 5.68C39.8295 5.488 39.8455 5.328 39.8775 5.2H41.7975C41.8295 5.328 41.8455 5.488 41.8455 5.68C41.8455 5.864 41.8295 6.024 41.7975 6.16H42.3975C42.4295 6.288 42.4455 6.448 42.4455 6.64C42.4455 6.824 42.4295 6.984 42.3975 7.12H42.7575C42.7895 7.248 42.8055 7.408 42.8055 7.6ZM41.7975 8.08C41.7655 7.944 41.7495 7.784 41.7495 7.6C41.7495 7.408 41.7655 7.248 41.7975 7.12H41.4375C41.4055 6.984 41.3895 6.824 41.3895 6.64C41.3895 6.448 41.4055 6.288 41.4375 6.16H40.2375C40.2695 6.288 40.2855 6.448 40.2855 6.64C40.2855 6.824 40.2695 6.984 40.2375 7.12H39.8775C39.9095 7.248 39.9255 7.408 39.9255 7.6C39.9255 7.784 39.9095 7.944 39.8775 8.08H40.2375C40.2695 8.208 40.2855 8.368 40.2855 8.56C40.2855 8.744 40.2695 8.904 40.2375 9.04H41.4375C41.4055 8.904 41.3895 8.744 41.3895 8.56C41.3895 8.368 41.4055 8.208 41.4375 8.08H41.7975ZM47.0822 9.04C47.1142 9.168 47.1302 9.328 47.1302 9.52C47.1302 9.704 47.1142 9.864 47.0822 10H44.2022C44.1702 9.864 44.1542 9.704 44.1542 9.52C44.1542 9.328 44.1702 9.168 44.2022 9.04H45.1622C45.1302 8.904 45.1142 8.744 45.1142 8.56C45.1142 8.368 45.1302 8.208 45.1622 8.08C45.1302 7.944 45.1142 7.784 45.1142 7.6C45.1142 7.408 45.1302 7.248 45.1622 7.12C45.1302 6.984 45.1142 6.824 45.1142 6.64C45.1142 6.448 45.1302 6.288 45.1622 6.16C45.1302 6.024 45.1142 5.864 45.1142 5.68C45.1142 5.488 45.1302 5.328 45.1622 5.2C45.1302 5.064 45.1142 4.904 45.1142 4.72C45.1142 4.528 45.1302 4.368 45.1622 4.24H44.4422C44.4102 4.104 44.3942 3.944 44.3942 3.76C44.3942 3.568 44.4102 3.408 44.4422 3.28H46.1222C46.1542 3.408 46.1702 3.568 46.1702 3.76C46.1702 3.944 46.1542 4.104 46.1222 4.24C46.1542 4.368 46.1702 4.528 46.1702 4.72C46.1702 4.904 46.1542 5.064 46.1222 5.2C46.1542 5.328 46.1702 5.488 46.1702 5.68C46.1702 5.864 46.1542 6.024 46.1222 6.16C46.1542 6.288 46.1702 6.448 46.1702 6.64C46.1702 6.824 46.1542 6.984 46.1222 7.12C46.1542 7.248 46.1702 7.408 46.1702 7.6C46.1702 7.784 46.1542 7.944 46.1222 8.08C46.1542 8.208 46.1702 8.368 46.1702 8.56C46.1702 8.744 46.1542 8.904 46.1222 9.04H47.0822ZM51.8869 9.04C51.9189 9.168 51.9349 9.328 51.9349 9.52C51.9349 9.704 51.9189 9.864 51.8869 10H49.0069C48.9749 9.864 48.9589 9.704 48.9589 9.52C48.9589 9.328 48.9749 9.168 49.0069 9.04H49.9669C49.9349 8.904 49.9189 8.744 49.9189 8.56C49.9189 8.368 49.9349 8.208 49.9669 8.08C49.9349 7.944 49.9189 7.784 49.9189 7.6C49.9189 7.408 49.9349 7.248 49.9669 7.12C49.9349 6.984 49.9189 6.824 49.9189 6.64C49.9189 6.448 49.9349 6.288 49.9669 6.16C49.9349 6.024 49.9189 5.864 49.9189 5.68C49.9189 5.488 49.9349 5.328 49.9669 5.2C49.9349 5.064 49.9189 4.904 49.9189 4.72C49.9189 4.528 49.9349 4.368 49.9669 4.24H49.2469C49.2149 4.104 49.1989 3.944 49.1989 3.76C49.1989 3.568 49.2149 3.408 49.2469 3.28H50.9269C50.9589 3.408 50.9749 3.568 50.9749 3.76C50.9749 3.944 50.9589 4.104 50.9269 4.24C50.9589 4.368 50.9749 4.528 50.9749 4.72C50.9749 4.904 50.9589 5.064 50.9269 5.2C50.9589 5.328 50.9749 5.488 50.9749 5.68C50.9749 5.864 50.9589 6.024 50.9269 6.16C50.9589 6.288 50.9749 6.448 50.9749 6.64C50.9749 6.824 50.9589 6.984 50.9269 7.12C50.9589 7.248 50.9749 7.408 50.9749 7.6C50.9749 7.784 50.9589 7.944 50.9269 8.08C50.9589 8.208 50.9749 8.368 50.9749 8.56C50.9749 8.744 50.9589 8.904 50.9269 9.04H51.8869ZM57.2196 7.6C57.2196 7.784 57.2036 7.944 57.1716 8.08H56.8116C56.8436 8.208 56.8596 8.368 56.8596 8.56C56.8596 8.744 56.8436 8.904 56.8116 9.04H56.2116C56.2436 9.168 56.2596 9.328 56.2596 9.52C56.2596 9.704 56.2436 9.864 56.2116 10H54.2916C54.2596 9.864 54.2436 9.704 54.2436 9.52C54.2436 9.328 54.2596 9.168 54.2916 9.04H53.6916C53.6596 8.904 53.6436 8.744 53.6436 8.56C53.6436 8.368 53.6596 8.208 53.6916 8.08H53.3316C53.2996 7.944 53.2836 7.784 53.2836 7.6C53.2836 7.408 53.2996 7.248 53.3316 7.12H53.6916C53.6596 6.984 53.6436 6.824 53.6436 6.64C53.6436 6.448 53.6596 6.288 53.6916 6.16H54.2916C54.2596 6.024 54.2436 5.864 54.2436 5.68C54.2436 5.488 54.2596 5.328 54.2916 5.2H56.2116C56.2436 5.328 56.2596 5.488 56.2596 5.68C56.2596 5.864 56.2436 6.024 56.2116 6.16H56.8116C56.8436 6.288 56.8596 6.448 56.8596 6.64C56.8596 6.824 56.8436 6.984 56.8116 7.12H57.1716C57.2036 7.248 57.2196 7.408 57.2196 7.6ZM56.2116 8.08C56.1796 7.944 56.1636 7.784 56.1636 7.6C56.1636 7.408 56.1796 7.248 56.2116 7.12H55.8516C55.8196 6.984 55.8036 6.824 55.8036 6.64C55.8036 6.448 55.8196 6.288 55.8516 6.16H54.6516C54.6836 6.288 54.6996 6.448 54.6996 6.64C54.6996 6.824 54.6836 6.984 54.6516 7.12H54.2916C54.3236 7.248 54.3396 7.408 54.3396 7.6C54.3396 7.784 54.3236 7.944 54.2916 8.08H54.6516C54.6836 8.208 54.6996 8.368 54.6996 8.56C54.6996 8.744 54.6836 8.904 54.6516 9.04H55.8516C55.8196 8.904 55.8036 8.744 55.8036 8.56C55.8036 8.368 55.8196 8.208 55.8516 8.08H56.2116ZM62.0243 5.68C62.0243 5.864 62.0083 6.024 61.9763 6.16C62.0083 6.288 62.0243 6.448 62.0243 6.64C62.0243 6.824 62.0083 6.984 61.9763 7.12H61.6163C61.6483 7.248 61.6643 7.408 61.6643 7.6C61.6643 7.784 61.6483 7.944 61.6163 8.08C61.6483 8.208 61.6643 8.368 61.6643 8.56C61.6643 8.744 61.6483 8.904 61.6163 9.04H61.3763C61.4083 9.168 61.4243 9.328 61.4243 9.52C61.4243 9.704 61.4083 9.864 61.3763 10H60.6562C60.6243 9.864 60.6083 9.704 60.6083 9.52C60.6083 9.328 60.6243 9.168 60.6562 9.04H60.4163C60.3843 8.904 60.3683 8.744 60.3683 8.56C60.3683 8.368 60.3843 8.208 60.4163 8.08H59.6963C59.7283 8.208 59.7443 8.368 59.7443 8.56C59.7443 8.744 59.7283 8.904 59.6963 9.04H59.4563C59.4883 9.168 59.5043 9.328 59.5043 9.52C59.5043 9.704 59.4883 9.864 59.4563 10H58.7363C58.7043 9.864 58.6883 9.704 58.6883 9.52C58.6883 9.328 58.7043 9.168 58.7363 9.04H58.4963C58.4642 8.904 58.4482 8.744 58.4482 8.56C58.4482 8.368 58.4642 8.208 58.4963 8.08C58.4642 7.944 58.4482 7.784 58.4482 7.6C58.4482 7.408 58.4642 7.248 58.4963 7.12H58.1363C58.1043 6.984 58.0883 6.824 58.0883 6.64C58.0883 6.448 58.1043 6.288 58.1363 6.16C58.1043 6.024 58.0883 5.864 58.0883 5.68C58.0883 5.488 58.1043 5.328 58.1363 5.2H59.0963C59.1283 5.328 59.1443 5.488 59.1443 5.68C59.1443 5.864 59.1283 6.024 59.0963 6.16C59.1283 6.288 59.1443 6.448 59.1443 6.64C59.1443 6.824 59.1283 6.984 59.0963 7.12C59.1283 7.248 59.1443 7.408 59.1443 7.6C59.1443 7.784 59.1283 7.944 59.0963 8.08H59.4563C59.4243 7.944 59.4083 7.784 59.4083 7.6C59.4083 7.408 59.4243 7.248 59.4563 7.12H59.6963C59.6643 6.984 59.6483 6.824 59.6483 6.64C59.6483 6.448 59.6643 6.288 59.6963 6.16C59.6643 6.024 59.6483 5.864 59.6483 5.68C59.6483 5.488 59.6643 5.328 59.6963 5.2H60.4163C60.4483 5.328 60.4643 5.488 60.4643 5.68C60.4643 5.864 60.4483 6.024 60.4163 6.16C60.4483 6.288 60.4643 6.448 60.4643 6.64C60.4643 6.824 60.4483 6.984 60.4163 7.12H60.6562C60.6883 7.248 60.7043 7.408 60.7043 7.6C60.7043 7.784 60.6883 7.944 60.6562 8.08H61.0163C60.9843 7.944 60.9683 7.784 60.9683 7.6C60.9683 7.408 60.9843 7.248 61.0163 7.12C60.9843 6.984 60.9683 6.824 60.9683 6.64C60.9683 6.448 60.9843 6.288 61.0163 6.16C60.9843 6.024 60.9683 5.864 60.9683 5.68C60.9683 5.488 60.9843 5.328 61.0163 5.2H61.9763C62.0083 5.328 62.0243 5.488 62.0243 5.68ZM71.1056 9.04C71.1376 9.168 71.1536 9.328 71.1536 9.52C71.1536 9.704 71.1376 9.864 71.1056 10H69.1856C69.1536 9.864 69.1376 9.704 69.1376 9.52C69.1376 9.328 69.1536 9.168 69.1856 9.04H68.7056C68.6736 8.904 68.6576 8.744 68.6576 8.56C68.6576 8.368 68.6736 8.208 68.7056 8.08C68.6736 7.944 68.6576 7.784 68.6576 7.6C68.6576 7.408 68.6736 7.248 68.7056 7.12C68.6736 6.984 68.6576 6.824 68.6576 6.64C68.6576 6.448 68.6736 6.288 68.7056 6.16H67.7456C67.7136 6.024 67.6976 5.864 67.6976 5.68C67.6976 5.488 67.7136 5.328 67.7456 5.2H68.7056C68.6736 5.064 68.6576 4.904 68.6576 4.72C68.6576 4.528 68.6736 4.368 68.7056 4.24C68.6736 4.104 68.6576 3.944 68.6576 3.76C68.6576 3.568 68.6736 3.408 68.7056 3.28H69.6656C69.6976 3.408 69.7136 3.568 69.7136 3.76C69.7136 3.944 69.6976 4.104 69.6656 4.24C69.6976 4.368 69.7136 4.528 69.7136 4.72C69.7136 4.904 69.6976 5.064 69.6656 5.2H71.1056C71.1376 5.328 71.1536 5.488 71.1536 5.68C71.1536 5.864 71.1376 6.024 71.1056 6.16H69.6656C69.6976 6.288 69.7136 6.448 69.7136 6.64C69.7136 6.824 69.6976 6.984 69.6656 7.12C69.6976 7.248 69.7136 7.408 69.7136 7.6C69.7136 7.784 69.6976 7.944 69.6656 8.08C69.6976 8.208 69.7136 8.368 69.7136 8.56C69.7136 8.744 69.6976 8.904 69.6656 9.04H71.1056ZM73.5583 5.68C73.5583 5.864 73.5423 6.024 73.5103 6.16H73.8703C73.9023 6.288 73.9183 6.448 73.9183 6.64C73.9183 6.824 73.9023 6.984 73.8703 7.12H73.5103C73.5423 7.248 73.5583 7.408 73.5583 7.6C73.5583 7.784 73.5423 7.944 73.5103 8.08C73.5423 8.208 73.5583 8.368 73.5583 8.56C73.5583 8.744 73.5423 8.904 73.5103 9.04C73.5423 9.168 73.5583 9.328 73.5583 9.52C73.5583 9.704 73.5423 9.864 73.5103 10H72.5503C72.5183 9.864 72.5023 9.704 72.5023 9.52C72.5023 9.328 72.5183 9.168 72.5503 9.04C72.5183 8.904 72.5023 8.744 72.5023 8.56C72.5023 8.368 72.5183 8.208 72.5503 8.08C72.5183 7.944 72.5023 7.784 72.5023 7.6C72.5023 7.408 72.5183 7.248 72.5503 7.12C72.5183 6.984 72.5023 6.824 72.5023 6.64C72.5023 6.448 72.5183 6.288 72.5503 6.16C72.5183 6.024 72.5023 5.864 72.5023 5.68C72.5023 5.488 72.5183 5.328 72.5503 5.2C72.5183 5.064 72.5023 4.904 72.5023 4.72C72.5023 4.528 72.5183 4.368 72.5503 4.24C72.5183 4.104 72.5023 3.944 72.5023 3.76C72.5023 3.568 72.5183 3.408 72.5503 3.28H73.5103C73.5423 3.408 73.5583 3.568 73.5583 3.76C73.5583 3.944 73.5423 4.104 73.5103 4.24C73.5423 4.368 73.5583 4.528 73.5583 4.72C73.5583 4.904 73.5423 5.064 73.5103 5.2C73.5423 5.328 73.5583 5.488 73.5583 5.68ZM76.3903 7.12C76.4223 7.248 76.4383 7.408 76.4383 7.6C76.4383 7.784 76.4223 7.944 76.3903 8.08C76.4223 8.208 76.4383 8.368 76.4383 8.56C76.4383 8.744 76.4223 8.904 76.3903 9.04C76.4223 9.168 76.4383 9.328 76.4383 9.52C76.4383 9.704 76.4223 9.864 76.3903 10H75.4303C75.3983 9.864 75.3823 9.704 75.3823 9.52C75.3823 9.328 75.3983 9.168 75.4303 9.04C75.3983 8.904 75.3823 8.744 75.3823 8.56C75.3823 8.368 75.3983 8.208 75.4303 8.08C75.3983 7.944 75.3823 7.784 75.3823 7.6C75.3823 7.408 75.3983 7.248 75.4303 7.12C75.3983 6.984 75.3823 6.824 75.3823 6.64C75.3823 6.448 75.3983 6.288 75.4303 6.16H73.8703C73.8383 6.024 73.8223 5.864 73.8223 5.68C73.8223 5.488 73.8383 5.328 73.8703 5.2H75.7903C75.8223 5.328 75.8383 5.488 75.8383 5.68C75.8383 5.864 75.8223 6.024 75.7903 6.16H76.3903C76.4223 6.288 76.4383 6.448 76.4383 6.64C76.4383 6.824 76.4223 6.984 76.3903 7.12ZM81.243 6.64C81.243 6.824 81.227 6.984 81.195 7.12C81.227 7.248 81.243 7.408 81.243 7.6C81.243 7.784 81.227 7.944 81.195 8.08H78.675C78.707 8.208 78.723 8.368 78.723 8.56C78.723 8.744 78.707 8.904 78.675 9.04H80.715C80.747 9.168 80.763 9.328 80.763 9.52C80.763 9.704 80.747 9.864 80.715 10H78.315C78.283 9.864 78.267 9.704 78.267 9.52C78.267 9.328 78.283 9.168 78.315 9.04H77.715C77.683 8.904 77.667 8.744 77.667 8.56C77.667 8.368 77.683 8.208 77.715 8.08H77.355C77.323 7.944 77.307 7.784 77.307 7.6C77.307 7.408 77.323 7.248 77.355 7.12H77.715C77.683 6.984 77.667 6.824 77.667 6.64C77.667 6.448 77.683 6.288 77.715 6.16H78.315C78.283 6.024 78.267 5.864 78.267 5.68C78.267 5.488 78.283 5.328 78.315 5.2H80.715C80.747 5.328 80.763 5.488 80.763 5.68C80.763 5.864 80.747 6.024 80.715 6.16H81.195C81.227 6.288 81.243 6.448 81.243 6.64ZM80.235 7.12C80.203 6.984 80.187 6.824 80.187 6.64C80.187 6.448 80.203 6.288 80.235 6.16H78.675C78.707 6.288 78.723 6.448 78.723 6.64C78.723 6.824 78.707 6.984 78.675 7.12H80.235ZM88.4044 4.24C88.3724 4.104 88.3564 3.944 88.3564 3.76C88.3564 3.568 88.3724 3.408 88.4044 3.28H89.3644C89.3964 3.408 89.4124 3.568 89.4124 3.76C89.4124 3.944 89.3964 4.104 89.3644 4.24H88.4044ZM90.3244 9.04C90.3564 9.168 90.3724 9.328 90.3724 9.52C90.3724 9.704 90.3564 9.864 90.3244 10H87.4444C87.4124 9.864 87.3964 9.704 87.3964 9.52C87.3964 9.328 87.4124 9.168 87.4444 9.04H88.4044C88.3724 8.904 88.3564 8.744 88.3564 8.56C88.3564 8.368 88.3724 8.208 88.4044 8.08C88.3724 7.944 88.3564 7.784 88.3564 7.6C88.3564 7.408 88.3724 7.248 88.4044 7.12C88.3724 6.984 88.3564 6.824 88.3564 6.64C88.3564 6.448 88.3724 6.288 88.4044 6.16H87.6844C87.6524 6.024 87.6364 5.864 87.6364 5.68C87.6364 5.488 87.6524 5.328 87.6844 5.2H89.3644C89.3964 5.328 89.4124 5.488 89.4124 5.68C89.4124 5.864 89.3964 6.024 89.3644 6.16C89.3964 6.288 89.4124 6.448 89.4124 6.64C89.4124 6.824 89.3964 6.984 89.3644 7.12C89.3964 7.248 89.4124 7.408 89.4124 7.6C89.4124 7.784 89.3964 7.944 89.3644 8.08C89.3964 8.208 89.4124 8.368 89.4124 8.56C89.4124 8.744 89.3964 8.904 89.3644 9.04H90.3244ZM92.6571 5.68C92.6571 5.864 92.6411 6.024 92.6091 6.16H93.0891C93.1211 6.288 93.1371 6.448 93.1371 6.64C93.1371 6.824 93.1211 6.984 93.0891 7.12H92.7291C92.7611 7.248 92.7771 7.408 92.7771 7.6C92.7771 7.784 92.7611 7.944 92.7291 8.08C92.7611 8.208 92.7771 8.368 92.7771 8.56C92.7771 8.744 92.7611 8.904 92.7291 9.04C92.7611 9.168 92.7771 9.328 92.7771 9.52C92.7771 9.704 92.7611 9.864 92.7291 10H91.7691C91.7371 9.864 91.7211 9.704 91.7211 9.52C91.7211 9.328 91.7371 9.168 91.7691 9.04C91.7371 8.904 91.7211 8.744 91.7211 8.56C91.7211 8.368 91.7371 8.208 91.7691 8.08C91.7371 7.944 91.7211 7.784 91.7211 7.6C91.7211 7.408 91.7371 7.248 91.7691 7.12C91.7371 6.984 91.7211 6.824 91.7211 6.64C91.7211 6.448 91.7371 6.288 91.7691 6.16C91.7371 6.024 91.7211 5.864 91.7211 5.68C91.7211 5.488 91.7371 5.328 91.7691 5.2H92.6091C92.6411 5.328 92.6571 5.488 92.6571 5.68ZM95.6091 7.12C95.6411 7.248 95.6571 7.408 95.6571 7.6C95.6571 7.784 95.6411 7.944 95.6091 8.08C95.6411 8.208 95.6571 8.368 95.6571 8.56C95.6571 8.744 95.6411 8.904 95.6091 9.04C95.6411 9.168 95.6571 9.328 95.6571 9.52C95.6571 9.704 95.6411 9.864 95.6091 10H94.6491C94.6171 9.864 94.6011 9.704 94.6011 9.52C94.6011 9.328 94.6171 9.168 94.6491 9.04C94.6171 8.904 94.6011 8.744 94.6011 8.56C94.6011 8.368 94.6171 8.208 94.6491 8.08C94.6171 7.944 94.6011 7.784 94.6011 7.6C94.6011 7.408 94.6171 7.248 94.6491 7.12C94.6171 6.984 94.6011 6.824 94.6011 6.64C94.6011 6.448 94.6171 6.288 94.6491 6.16H93.0891C93.0571 6.024 93.0411 5.864 93.0411 5.68C93.0411 5.488 93.0571 5.328 93.0891 5.2H95.0091C95.0411 5.328 95.0571 5.488 95.0571 5.68C95.0571 5.864 95.0411 6.024 95.0091 6.16H95.6091C95.6411 6.288 95.6571 6.448 95.6571 6.64C95.6571 6.824 95.6411 6.984 95.6091 7.12ZM100.222 8.56C100.222 8.744 100.206 8.904 100.174 9.04H99.6938C99.7258 9.168 99.7418 9.328 99.7418 9.52C99.7418 9.704 99.7258 9.864 99.6938 10H97.0538C97.0218 9.864 97.0058 9.704 97.0058 9.52C97.0058 9.328 97.0218 9.168 97.0538 9.04H99.2138C99.1818 8.904 99.1658 8.744 99.1658 8.56C99.1658 8.368 99.1818 8.208 99.2138 8.08H97.2938C97.2618 7.944 97.2458 7.784 97.2458 7.6C97.2458 7.408 97.2618 7.248 97.2938 7.12H96.8138C96.7818 6.984 96.7658 6.824 96.7658 6.64C96.7658 6.448 96.7818 6.288 96.8138 6.16H97.2938C97.2618 6.024 97.2458 5.864 97.2458 5.68C97.2458 5.488 97.2618 5.328 97.2938 5.2H99.9338C99.9658 5.328 99.9818 5.488 99.9818 5.68C99.9818 5.864 99.9658 6.024 99.9338 6.16H97.7738C97.8058 6.288 97.8218 6.448 97.8218 6.64C97.8218 6.824 97.8058 6.984 97.7738 7.12H99.6938C99.7258 7.248 99.7418 7.408 99.7418 7.6C99.7418 7.784 99.7258 7.944 99.6938 8.08H100.174C100.206 8.208 100.222 8.368 100.222 8.56ZM104.738 9.04C104.77 9.168 104.786 9.328 104.786 9.52C104.786 9.704 104.77 9.864 104.738 10H102.818C102.786 9.864 102.77 9.704 102.77 9.52C102.77 9.328 102.786 9.168 102.818 9.04H102.338C102.306 8.904 102.29 8.744 102.29 8.56C102.29 8.368 102.306 8.208 102.338 8.08C102.306 7.944 102.29 7.784 102.29 7.6C102.29 7.408 102.306 7.248 102.338 7.12C102.306 6.984 102.29 6.824 102.29 6.64C102.29 6.448 102.306 6.288 102.338 6.16H101.378C101.346 6.024 101.33 5.864 101.33 5.68C101.33 5.488 101.346 5.328 101.378 5.2H102.338C102.306 5.064 102.29 4.904 102.29 4.72C102.29 4.528 102.306 4.368 102.338 4.24C102.306 4.104 102.29 3.944 102.29 3.76C102.29 3.568 102.306 3.408 102.338 3.28H103.298C103.33 3.408 103.346 3.568 103.346 3.76C103.346 3.944 103.33 4.104 103.298 4.24C103.33 4.368 103.346 4.528 103.346 4.72C103.346 4.904 103.33 5.064 103.298 5.2H104.738C104.77 5.328 104.786 5.488 104.786 5.68C104.786 5.864 104.77 6.024 104.738 6.16H103.298C103.33 6.288 103.346 6.448 103.346 6.64C103.346 6.824 103.33 6.984 103.298 7.12C103.33 7.248 103.346 7.408 103.346 7.6C103.346 7.784 103.33 7.944 103.298 8.08C103.33 8.208 103.346 8.368 103.346 8.56C103.346 8.744 103.33 8.904 103.298 9.04H104.738ZM110.023 6.16C110.055 6.288 110.071 6.448 110.071 6.64C110.071 6.824 110.055 6.984 110.023 7.12H109.063C109.031 6.984 109.015 6.824 109.015 6.64C109.015 6.448 109.031 6.288 109.063 6.16H108.223C108.255 6.288 108.271 6.448 108.271 6.64C108.271 6.824 108.255 6.984 108.223 7.12H107.863C107.895 7.248 107.911 7.408 107.911 7.6C107.911 7.784 107.895 7.944 107.863 8.08C107.895 8.208 107.911 8.368 107.911 8.56C107.911 8.744 107.895 8.904 107.863 9.04H108.583C108.615 9.168 108.631 9.328 108.631 9.52C108.631 9.704 108.615 9.864 108.583 10H106.183C106.151 9.864 106.135 9.704 106.135 9.52C106.135 9.328 106.151 9.168 106.183 9.04H106.903C106.871 8.904 106.855 8.744 106.855 8.56C106.855 8.368 106.871 8.208 106.903 8.08C106.871 7.944 106.855 7.784 106.855 7.6C106.855 7.408 106.871 7.248 106.903 7.12C106.871 6.984 106.855 6.824 106.855 6.64C106.855 6.448 106.871 6.288 106.903 6.16H106.183C106.151 6.024 106.135 5.864 106.135 5.68C106.135 5.488 106.151 5.328 106.183 5.2H107.383C107.415 5.328 107.431 5.488 107.431 5.68C107.431 5.864 107.415 6.024 107.383 6.16H107.863C107.831 6.024 107.815 5.864 107.815 5.68C107.815 5.488 107.831 5.328 107.863 5.2H109.663C109.695 5.328 109.711 5.488 109.711 5.68C109.711 5.864 109.695 6.024 109.663 6.16H110.023ZM112.356 8.56C112.356 8.744 112.34 8.904 112.308 9.04H113.508C113.54 9.168 113.556 9.328 113.556 9.52C113.556 9.704 113.54 9.864 113.508 10H111.588C111.556 9.864 111.54 9.704 111.54 9.52C111.54 9.328 111.556 9.168 111.588 9.04H110.988C110.956 8.904 110.94 8.744 110.94 8.56C110.94 8.368 110.956 8.208 110.988 8.08C110.956 7.944 110.94 7.784 110.94 7.6C110.94 7.408 110.956 7.248 110.988 7.12C110.956 6.984 110.94 6.824 110.94 6.64C110.94 6.448 110.956 6.288 110.988 6.16C110.956 6.024 110.94 5.864 110.94 5.68C110.94 5.488 110.956 5.328 110.988 5.2H111.948C111.98 5.328 111.996 5.488 111.996 5.68C111.996 5.864 111.98 6.024 111.948 6.16C111.98 6.288 111.996 6.448 111.996 6.64C111.996 6.824 111.98 6.984 111.948 7.12C111.98 7.248 111.996 7.408 111.996 7.6C111.996 7.784 111.98 7.944 111.948 8.08H112.308C112.34 8.208 112.356 8.368 112.356 8.56ZM114.828 6.16C114.86 6.288 114.876 6.448 114.876 6.64C114.876 6.824 114.86 6.984 114.828 7.12C114.86 7.248 114.876 7.408 114.876 7.6C114.876 7.784 114.86 7.944 114.828 8.08C114.86 8.208 114.876 8.368 114.876 8.56C114.876 8.744 114.86 8.904 114.828 9.04C114.86 9.168 114.876 9.328 114.876 9.52C114.876 9.704 114.86 9.864 114.828 10H113.868C113.836 9.864 113.82 9.704 113.82 9.52C113.82 9.328 113.836 9.168 113.868 9.04H113.508C113.476 8.904 113.46 8.744 113.46 8.56C113.46 8.368 113.476 8.208 113.508 8.08H113.868C113.836 7.944 113.82 7.784 113.82 7.6C113.82 7.408 113.836 7.248 113.868 7.12C113.836 6.984 113.82 6.824 113.82 6.64C113.82 6.448 113.836 6.288 113.868 6.16C113.836 6.024 113.82 5.864 113.82 5.68C113.82 5.488 113.836 5.328 113.868 5.2H114.828C114.86 5.328 114.876 5.488 114.876 5.68C114.876 5.864 114.86 6.024 114.828 6.16ZM119.633 8.08C119.665 8.208 119.681 8.368 119.681 8.56C119.681 8.744 119.665 8.904 119.633 9.04H119.153C119.185 9.168 119.201 9.328 119.201 9.52C119.201 9.704 119.185 9.864 119.153 10H116.753C116.721 9.864 116.705 9.704 116.705 9.52C116.705 9.328 116.721 9.168 116.753 9.04H116.273C116.241 8.904 116.225 8.744 116.225 8.56C116.225 8.368 116.241 8.208 116.273 8.08H115.793C115.761 7.944 115.745 7.784 115.745 7.6C115.745 7.408 115.761 7.248 115.793 7.12H116.273C116.241 6.984 116.225 6.824 116.225 6.64C116.225 6.448 116.241 6.288 116.273 6.16H116.753C116.721 6.024 116.705 5.864 116.705 5.68C116.705 5.488 116.721 5.328 116.753 5.2H119.153C119.185 5.328 119.201 5.488 119.201 5.68C119.201 5.864 119.185 6.024 119.153 6.16H119.633C119.665 6.288 119.681 6.448 119.681 6.64C119.681 6.824 119.665 6.984 119.633 7.12H118.673C118.641 6.984 118.625 6.824 118.625 6.64C118.625 6.448 118.641 6.288 118.673 6.16H117.233C117.265 6.288 117.281 6.448 117.281 6.64C117.281 6.824 117.265 6.984 117.233 7.12H116.753C116.785 7.248 116.801 7.408 116.801 7.6C116.801 7.784 116.785 7.944 116.753 8.08H117.233C117.265 8.208 117.281 8.368 117.281 8.56C117.281 8.744 117.265 8.904 117.233 9.04H118.673C118.641 8.904 118.625 8.744 118.625 8.56C118.625 8.368 118.641 8.208 118.673 8.08H119.633ZM123.957 9.04C123.989 9.168 124.005 9.328 124.005 9.52C124.005 9.704 123.989 9.864 123.957 10H122.037C122.005 9.864 121.989 9.704 121.989 9.52C121.989 9.328 122.005 9.168 122.037 9.04H121.557C121.525 8.904 121.509 8.744 121.509 8.56C121.509 8.368 121.525 8.208 121.557 8.08C121.525 7.944 121.509 7.784 121.509 7.6C121.509 7.408 121.525 7.248 121.557 7.12C121.525 6.984 121.509 6.824 121.509 6.64C121.509 6.448 121.525 6.288 121.557 6.16H120.597C120.565 6.024 120.549 5.864 120.549 5.68C120.549 5.488 120.565 5.328 120.597 5.2H121.557C121.525 5.064 121.509 4.904 121.509 4.72C121.509 4.528 121.525 4.368 121.557 4.24C121.525 4.104 121.509 3.944 121.509 3.76C121.509 3.568 121.525 3.408 121.557 3.28H122.517C122.549 3.408 122.565 3.568 122.565 3.76C122.565 3.944 122.549 4.104 122.517 4.24C122.549 4.368 122.565 4.528 122.565 4.72C122.565 4.904 122.549 5.064 122.517 5.2H123.957C123.989 5.328 124.005 5.488 124.005 5.68C124.005 5.864 123.989 6.024 123.957 6.16H122.517C122.549 6.288 122.565 6.448 122.565 6.64C122.565 6.824 122.549 6.984 122.517 7.12C122.549 7.248 122.565 7.408 122.565 7.6C122.565 7.784 122.549 7.944 122.517 8.08C122.549 8.208 122.565 8.368 122.565 8.56C122.565 8.744 122.549 8.904 122.517 9.04H123.957ZM126.842 4.24C126.81 4.104 126.794 3.944 126.794 3.76C126.794 3.568 126.81 3.408 126.842 3.28H127.802C127.834 3.408 127.85 3.568 127.85 3.76C127.85 3.944 127.834 4.104 127.802 4.24H126.842ZM128.762 9.04C128.794 9.168 128.81 9.328 128.81 9.52C128.81 9.704 128.794 9.864 128.762 10H125.882C125.85 9.864 125.834 9.704 125.834 9.52C125.834 9.328 125.85 9.168 125.882 9.04H126.842C126.81 8.904 126.794 8.744 126.794 8.56C126.794 8.368 126.81 8.208 126.842 8.08C126.81 7.944 126.794 7.784 126.794 7.6C126.794 7.408 126.81 7.248 126.842 7.12C126.81 6.984 126.794 6.824 126.794 6.64C126.794 6.448 126.81 6.288 126.842 6.16H126.122C126.09 6.024 126.074 5.864 126.074 5.68C126.074 5.488 126.09 5.328 126.122 5.2H127.802C127.834 5.328 127.85 5.488 127.85 5.68C127.85 5.864 127.834 6.024 127.802 6.16C127.834 6.288 127.85 6.448 127.85 6.64C127.85 6.824 127.834 6.984 127.802 7.12C127.834 7.248 127.85 7.408 127.85 7.6C127.85 7.784 127.834 7.944 127.802 8.08C127.834 8.208 127.85 8.368 127.85 8.56C127.85 8.744 127.834 8.904 127.802 9.04H128.762ZM134.095 7.6C134.095 7.784 134.079 7.944 134.047 8.08H133.687C133.719 8.208 133.735 8.368 133.735 8.56C133.735 8.744 133.719 8.904 133.687 9.04H133.087C133.119 9.168 133.135 9.328 133.135 9.52C133.135 9.704 133.119 9.864 133.087 10H131.167C131.135 9.864 131.119 9.704 131.119 9.52C131.119 9.328 131.135 9.168 131.167 9.04H130.567C130.535 8.904 130.519 8.744 130.519 8.56C130.519 8.368 130.535 8.208 130.567 8.08H130.207C130.175 7.944 130.159 7.784 130.159 7.6C130.159 7.408 130.175 7.248 130.207 7.12H130.567C130.535 6.984 130.519 6.824 130.519 6.64C130.519 6.448 130.535 6.288 130.567 6.16H131.167C131.135 6.024 131.119 5.864 131.119 5.68C131.119 5.488 131.135 5.328 131.167 5.2H133.087C133.119 5.328 133.135 5.488 133.135 5.68C133.135 5.864 133.119 6.024 133.087 6.16H133.687C133.719 6.288 133.735 6.448 133.735 6.64C133.735 6.824 133.719 6.984 133.687 7.12H134.047C134.079 7.248 134.095 7.408 134.095 7.6ZM133.087 8.08C133.055 7.944 133.039 7.784 133.039 7.6C133.039 7.408 133.055 7.248 133.087 7.12H132.727C132.695 6.984 132.679 6.824 132.679 6.64C132.679 6.448 132.695 6.288 132.727 6.16H131.527C131.559 6.288 131.575 6.448 131.575 6.64C131.575 6.824 131.559 6.984 131.527 7.12H131.167C131.199 7.248 131.215 7.408 131.215 7.6C131.215 7.784 131.199 7.944 131.167 8.08H131.527C131.559 8.208 131.575 8.368 131.575 8.56C131.575 8.744 131.559 8.904 131.527 9.04H132.727C132.695 8.904 132.679 8.744 132.679 8.56C132.679 8.368 132.695 8.208 132.727 8.08H133.087ZM135.899 5.68C135.899 5.864 135.883 6.024 135.851 6.16H136.331C136.363 6.288 136.379 6.448 136.379 6.64C136.379 6.824 136.363 6.984 136.331 7.12H135.971C136.003 7.248 136.019 7.408 136.019 7.6C136.019 7.784 136.003 7.944 135.971 8.08C136.003 8.208 136.019 8.368 136.019 8.56C136.019 8.744 136.003 8.904 135.971 9.04C136.003 9.168 136.019 9.328 136.019 9.52C136.019 9.704 136.003 9.864 135.971 10H135.011C134.979 9.864 134.963 9.704 134.963 9.52C134.963 9.328 134.979 9.168 135.011 9.04C134.979 8.904 134.963 8.744 134.963 8.56C134.963 8.368 134.979 8.208 135.011 8.08C134.979 7.944 134.963 7.784 134.963 7.6C134.963 7.408 134.979 7.248 135.011 7.12C134.979 6.984 134.963 6.824 134.963 6.64C134.963 6.448 134.979 6.288 135.011 6.16C134.979 6.024 134.963 5.864 134.963 5.68C134.963 5.488 134.979 5.328 135.011 5.2H135.851C135.883 5.328 135.899 5.488 135.899 5.68ZM138.851 7.12C138.883 7.248 138.899 7.408 138.899 7.6C138.899 7.784 138.883 7.944 138.851 8.08C138.883 8.208 138.899 8.368 138.899 8.56C138.899 8.744 138.883 8.904 138.851 9.04C138.883 9.168 138.899 9.328 138.899 9.52C138.899 9.704 138.883 9.864 138.851 10H137.891C137.859 9.864 137.843 9.704 137.843 9.52C137.843 9.328 137.859 9.168 137.891 9.04C137.859 8.904 137.843 8.744 137.843 8.56C137.843 8.368 137.859 8.208 137.891 8.08C137.859 7.944 137.843 7.784 137.843 7.6C137.843 7.408 137.859 7.248 137.891 7.12C137.859 6.984 137.843 6.824 137.843 6.64C137.843 6.448 137.859 6.288 137.891 6.16H136.331C136.299 6.024 136.283 5.864 136.283 5.68C136.283 5.488 136.299 5.328 136.331 5.2H138.251C138.283 5.328 138.299 5.488 138.299 5.68C138.299 5.864 138.283 6.024 138.251 6.16H138.851C138.883 6.288 138.899 6.448 138.899 6.64C138.899 6.824 138.883 6.984 138.851 7.12ZM143.464 8.56C143.464 8.744 143.448 8.904 143.416 9.04H142.936C142.968 9.168 142.984 9.328 142.984 9.52C142.984 9.704 142.968 9.864 142.936 10H140.296C140.264 9.864 140.248 9.704 140.248 9.52C140.248 9.328 140.264 9.168 140.296 9.04H142.456C142.424 8.904 142.408 8.744 142.408 8.56C142.408 8.368 142.424 8.208 142.456 8.08H140.536C140.504 7.944 140.488 7.784 140.488 7.6C140.488 7.408 140.504 7.248 140.536 7.12H140.056C140.024 6.984 140.008 6.824 140.008 6.64C140.008 6.448 140.024 6.288 140.056 6.16H140.536C140.504 6.024 140.488 5.864 140.488 5.68C140.488 5.488 140.504 5.328 140.536 5.2H143.176C143.208 5.328 143.224 5.488 143.224 5.68C143.224 5.864 143.208 6.024 143.176 6.16H141.016C141.048 6.288 141.064 6.448 141.064 6.64C141.064 6.824 141.048 6.984 141.016 7.12H142.936C142.968 7.248 142.984 7.408 142.984 7.6C142.984 7.784 142.968 7.944 142.936 8.08H143.416C143.448 8.208 143.464 8.368 143.464 8.56ZM147.189 4.72C147.189 4.904 147.173 5.064 147.141 5.2C147.173 5.328 147.189 5.488 147.189 5.68C147.189 5.864 147.173 6.024 147.141 6.16H145.941C145.909 6.024 145.893 5.864 145.893 5.68C145.893 5.488 145.909 5.328 145.941 5.2C145.909 5.064 145.893 4.904 145.893 4.72C145.893 4.528 145.909 4.368 145.941 4.24H147.141C147.173 4.368 147.189 4.528 147.189 4.72ZM147.141 8.08C147.173 8.208 147.189 8.368 147.189 8.56C147.189 8.744 147.173 8.904 147.141 9.04C147.173 9.168 147.189 9.328 147.189 9.52C147.189 9.704 147.173 9.864 147.141 10H145.941C145.909 9.864 145.893 9.704 145.893 9.52C145.893 9.328 145.909 9.168 145.941 9.04C145.909 8.904 145.893 8.744 145.893 8.56C145.893 8.368 145.909 8.208 145.941 8.08H147.141Z" fill="#FF5555"/>
</g>
<defs>
<clipPath id="clip0_324_66">
<rect width="366" height="12" fill="white"/>
</clipPath>
</defs>
</svg>
