<svg width="366" height="12" viewBox="0 0 366 12" fill="none" xmlns="http://www.w3.org/2000/svg">
<g clip-path="url(#clip0_324_66)">
<path d="M4.32 6.16C4.352 6.288 4.368 6.448 4.368 6.64C4.368 6.824 4.352 6.984 4.32 7.12C4.352 7.248 4.368 7.408 4.368 7.6C4.368 7.784 4.352 7.944 4.32 8.08H3.96C3.992 8.208 4.008 8.368 4.008 8.56C4.008 8.744 3.992 8.904 3.96 9.04H3.36C3.392 9.168 3.408 9.328 3.408 9.52C3.408 9.704 3.392 9.864 3.36 10H1.44C1.408 9.864 1.392 9.704 1.392 9.52C1.392 9.328 1.408 9.168 1.44 9.04H0.84C0.808 8.904 0.792 8.744 0.792 8.56C0.792 8.368 0.808 8.208 0.84 8.08H0.48C0.448 7.944 0.432 7.784 0.432 7.6C0.432 7.408 0.448 7.248 0.48 7.12C0.448 6.984 0.432 6.824 0.432 6.64C0.432 6.448 0.448 6.288 0.48 6.16C0.448 6.024 0.432 5.864 0.432 5.68C0.432 5.488 0.448 5.328 0.48 5.2H0.84C0.808 5.064 0.792 4.904 0.792 4.72C0.792 4.528 0.808 4.368 0.84 4.24H1.44C1.408 4.104 1.392 3.944 1.392 3.76C1.392 3.568 1.408 3.408 1.44 3.28H3.36C3.392 3.408 3.408 3.568 3.408 3.76C3.408 3.944 3.392 4.104 3.36 4.24H3.96C3.992 4.368 4.008 4.528 4.008 4.72C4.008 4.904 3.992 5.064 3.96 5.2H4.32C4.352 5.328 4.368 5.488 4.368 5.68C4.368 5.864 4.352 6.024 4.32 6.16ZM3.36 8.08C3.328 7.944 3.312 7.784 3.312 7.6C3.312 7.408 3.328 7.248 3.36 7.12C3.328 6.984 3.312 6.824 3.312 6.64C3.312 6.448 3.328 6.288 3.36 6.16C3.328 6.024 3.312 5.864 3.312 5.68C3.312 5.488 3.328 5.328 3.36 5.2H3C2.968 5.064 2.952 4.904 2.952 4.72C2.952 4.528 2.968 4.368 3 4.24H1.8C1.832 4.368 1.848 4.528 1.848 4.72C1.848 4.904 1.832 5.064 1.8 5.2H1.44C1.472 5.328 1.488 5.488 1.488 5.68C1.488 5.864 1.472 6.024 1.44 6.16C1.472 6.288 1.488 6.448 1.488 6.64C1.488 6.824 1.472 6.984 1.44 7.12C1.472 7.248 1.488 7.408 1.488 7.6C1.488 7.784 1.472 7.944 1.44 8.08H1.8C1.832 8.208 1.848 8.368 1.848 8.56C1.848 8.744 1.832 8.904 1.8 9.04H3C2.968 8.904 2.952 8.744 2.952 8.56C2.952 8.368 2.968 8.208 3 8.08H3.36ZM9.17269 7.6C9.17269 7.784 9.15669 7.944 9.12469 8.08H8.76469C8.79669 8.208 8.81269 8.368 8.81269 8.56C8.81269 8.744 8.79669 8.904 8.76469 9.04H8.16469C8.19669 9.168 8.21269 9.328 8.21269 9.52C8.21269 9.704 8.19669 9.864 8.16469 10H6.24469C6.21269 9.864 6.19669 9.704 6.19669 9.52C6.19669 9.328 6.21269 9.168 6.24469 9.04H5.64469C5.61269 8.904 5.59669 8.744 5.59669 8.56C5.59669 8.368 5.61269 8.208 5.64469 8.08H5.28469C5.25269 7.944 5.23669 7.784 5.23669 7.6C5.23669 7.408 5.25269 7.248 5.28469 7.12H5.64469C5.61269 6.984 5.59669 6.824 5.59669 6.64C5.59669 6.448 5.61269 6.288 5.64469 6.16H6.24469C6.21269 6.024 6.19669 5.864 6.19669 5.68C6.19669 5.488 6.21269 5.328 6.24469 5.2H8.16469C8.19669 5.328 8.21269 5.488 8.21269 5.68C8.21269 5.864 8.19669 6.024 8.16469 6.16H8.76469C8.79669 6.288 8.81269 6.448 8.81269 6.64C8.81269 6.824 8.79669 6.984 8.76469 7.12H9.12469C9.15669 7.248 9.17269 7.408 9.17269 7.6ZM8.16469 8.08C8.13269 7.944 8.11669 7.784 8.11669 7.6C8.11669 7.408 8.13269 7.248 8.16469 7.12H7.80469C7.77269 6.984 7.75669 6.824 7.75669 6.64C7.75669 6.448 7.77269 6.288 7.80469 6.16H6.60469C6.63669 6.288 6.65269 6.448 6.65269 6.64C6.65269 6.824 6.63669 6.984 6.60469 7.12H6.24469C6.27669 7.248 6.29269 7.408 6.29269 7.6C6.29269 7.784 6.27669 7.944 6.24469 8.08H6.60469C6.63669 8.208 6.65269 8.368 6.65269 8.56C6.65269 8.744 6.63669 8.904 6.60469 9.04H7.80469C7.77269 8.904 7.75669 8.744 7.75669 8.56C7.75669 8.368 7.77269 8.208 7.80469 8.08H8.16469ZM13.9774 7.6C13.9774 7.784 13.9614 7.944 13.9294 8.08H13.5694C13.6014 8.208 13.6174 8.368 13.6174 8.56C13.6174 8.744 13.6014 8.904 13.5694 9.04H12.9694C13.0014 9.168 13.0174 9.328 13.0174 9.52C13.0174 9.704 13.0014 9.864 12.9694 10H11.0494C11.0174 9.864 11.0014 9.704 11.0014 9.52C11.0014 9.328 11.0174 9.168 11.0494 9.04H10.4494C10.4174 8.904 10.4014 8.744 10.4014 8.56C10.4014 8.368 10.4174 8.208 10.4494 8.08H10.0894C10.0574 7.944 10.0414 7.784 10.0414 7.6C10.0414 7.408 10.0574 7.248 10.0894 7.12H10.4494C10.4174 6.984 10.4014 6.824 10.4014 6.64C10.4014 6.448 10.4174 6.288 10.4494 6.16H11.0494C11.0174 6.024 11.0014 5.864 11.0014 5.68C11.0014 5.488 11.0174 5.328 11.0494 5.2H12.9694C13.0014 5.328 13.0174 5.488 13.0174 5.68C13.0174 5.864 13.0014 6.024 12.9694 6.16H13.5694C13.6014 6.288 13.6174 6.448 13.6174 6.64C13.6174 6.824 13.6014 6.984 13.5694 7.12H13.9294C13.9614 7.248 13.9774 7.408 13.9774 7.6ZM12.9694 8.08C12.9374 7.944 12.9214 7.784 12.9214 7.6C12.9214 7.408 12.9374 7.248 12.9694 7.12H12.6094C12.5774 6.984 12.5614 6.824 12.5614 6.64C12.5614 6.448 12.5774 6.288 12.6094 6.16H11.4094C11.4414 6.288 11.4574 6.448 11.4574 6.64C11.4574 6.824 11.4414 6.984 11.4094 7.12H11.0494C11.0814 7.248 11.0974 7.408 11.0974 7.6C11.0974 7.784 11.0814 7.944 11.0494 8.08H11.4094C11.4414 8.208 11.4574 8.368 11.4574 8.56C11.4574 8.744 11.4414 8.904 11.4094 9.04H12.6094C12.5774 8.904 12.5614 8.744 12.5614 8.56C12.5614 8.368 12.5774 8.208 12.6094 8.08H12.9694ZM18.7821 7.6C18.7821 7.784 18.7661 7.944 18.7341 8.08H18.2541C18.2861 8.208 18.3021 8.368 18.3021 8.56C18.3021 8.744 18.2861 8.904 18.2541 9.04H17.7741C17.8061 9.168 17.8221 9.328 17.8221 9.52C17.8221 9.704 17.8061 9.864 17.7741 10H15.8541C15.8861 10.128 15.9021 10.288 15.9021 10.48C15.9021 10.664 15.8861 10.824 15.8541 10.96C15.8861 11.088 15.9021 11.248 15.9021 11.44C15.9021 11.624 15.8861 11.784 15.8541 11.92H14.8941C14.8621 11.784 14.8461 11.624 14.8461 11.44C14.8461 11.248 14.8621 11.088 14.8941 10.96C14.8621 10.824 14.8461 10.664 14.8461 10.48C14.8461 10.288 14.8621 10.128 14.8941 10C14.8621 9.864 14.8461 9.704 14.8461 9.52C14.8461 9.328 14.8621 9.168 14.8941 9.04C14.8621 8.904 14.8461 8.744 14.8461 8.56C14.8461 8.368 14.8621 8.208 14.8941 8.08C14.8621 7.944 14.8461 7.784 14.8461 7.6C14.8461 7.408 14.8621 7.248 14.8941 7.12C14.8621 6.984 14.8461 6.824 14.8461 6.64C14.8461 6.448 14.8621 6.288 14.8941 6.16C14.8621 6.024 14.8461 5.864 14.8461 5.68C14.8461 5.488 14.8621 5.328 14.8941 5.2H15.8541C15.8861 5.328 15.9021 5.488 15.9021 5.68C15.9021 5.864 15.8861 6.024 15.8541 6.16H16.3341C16.3661 6.288 16.3821 6.448 16.3821 6.64C16.3821 6.824 16.3661 6.984 16.3341 7.12H15.8541C15.8861 7.248 15.9021 7.408 15.9021 7.6C15.9021 7.784 15.8861 7.944 15.8541 8.08C15.8861 8.208 15.9021 8.368 15.9021 8.56C15.9021 8.744 15.8861 8.904 15.8541 9.04H17.2941C17.2621 8.904 17.2461 8.744 17.2461 8.56C17.2461 8.368 17.2621 8.208 17.2941 8.08H17.7741C17.7421 7.944 17.7261 7.784 17.7261 7.6C17.7261 7.408 17.7421 7.248 17.7741 7.12H17.2941C17.2621 6.984 17.2461 6.824 17.2461 6.64C17.2461 6.448 17.2621 6.288 17.2941 6.16H16.3341C16.3021 6.024 16.2861 5.864 16.2861 5.68C16.2861 5.488 16.3021 5.328 16.3341 5.2H17.7741C17.8061 5.328 17.8221 5.488 17.8221 5.68C17.8221 5.864 17.8061 6.024 17.7741 6.16H18.2541C18.2861 6.288 18.3021 6.448 18.3021 6.64C18.3021 6.824 18.2861 6.984 18.2541 7.12H18.7341C18.7661 7.248 18.7821 7.408 18.7821 7.6ZM23.3468 8.56C23.3468 8.744 23.3308 8.904 23.2988 9.04H22.8188C22.8508 9.168 22.8668 9.328 22.8668 9.52C22.8668 9.704 22.8508 9.864 22.8188 10H20.1788C20.1468 9.864 20.1308 9.704 20.1308 9.52C20.1308 9.328 20.1468 9.168 20.1788 9.04H22.3388C22.3068 8.904 22.2908 8.744 22.2908 8.56C22.2908 8.368 22.3068 8.208 22.3388 8.08H20.4188C20.3868 7.944 20.3708 7.784 20.3708 7.6C20.3708 7.408 20.3868 7.248 20.4188 7.12H19.9388C19.9068 6.984 19.8908 6.824 19.8908 6.64C19.8908 6.448 19.9068 6.288 19.9388 6.16H20.4188C20.3868 6.024 20.3708 5.864 20.3708 5.68C20.3708 5.488 20.3868 5.328 20.4188 5.2H23.0588C23.0908 5.328 23.1068 5.488 23.1068 5.68C23.1068 5.864 23.0908 6.024 23.0588 6.16H20.8988C20.9308 6.288 20.9468 6.448 20.9468 6.64C20.9468 6.824 20.9308 6.984 20.8988 7.12H22.8188C22.8508 7.248 22.8668 7.408 22.8668 7.6C22.8668 7.784 22.8508 7.944 22.8188 8.08H23.2988C23.3308 8.208 23.3468 8.368 23.3468 8.56ZM27.0234 9.04C27.0554 9.168 27.0714 9.328 27.0714 9.52C27.0714 9.704 27.0554 9.864 27.0234 10C27.0554 10.128 27.0714 10.288 27.0714 10.48C27.0714 10.664 27.0554 10.824 27.0234 10.96H26.5434C26.5754 11.088 26.5914 11.248 26.5914 11.44C26.5914 11.624 26.5754 11.784 26.5434 11.92H25.8234C25.7914 11.784 25.7754 11.624 25.7754 11.44C25.7754 11.248 25.7914 11.088 25.8234 10.96H26.3034C26.2714 10.824 26.2554 10.664 26.2554 10.48C26.2554 10.288 26.2714 10.128 26.3034 10H25.8234C25.7914 9.864 25.7754 9.704 25.7754 9.52C25.7754 9.328 25.7914 9.168 25.8234 9.04C25.7914 8.904 25.7754 8.744 25.7754 8.56C25.7754 8.368 25.7914 8.208 25.8234 8.08H27.0234C27.0554 8.208 27.0714 8.368 27.0714 8.56C27.0714 8.744 27.0554 8.904 27.0234 9.04ZM38.0008 5.68C38.0008 5.864 37.9848 6.024 37.9528 6.16H37.5928C37.6248 6.288 37.6408 6.448 37.6408 6.64C37.6408 6.824 37.6248 6.984 37.5928 7.12H37.2328C37.2648 7.248 37.2808 7.408 37.2808 7.6C37.2808 7.784 37.2648 7.944 37.2328 8.08H36.9928C37.0248 8.208 37.0408 8.368 37.0408 8.56C37.0408 8.744 37.0248 8.904 36.9928 9.04H36.6328C36.6648 9.168 36.6808 9.328 36.6808 9.52C36.6808 9.704 36.6648 9.864 36.6328 10H36.3928C36.4248 10.128 36.4408 10.288 36.4408 10.48C36.4408 10.664 36.4248 10.824 36.3928 10.96H35.9128C35.9448 11.088 35.9608 11.248 35.9608 11.44C35.9608 11.624 35.9448 11.784 35.9128 11.92H34.4728C34.4408 11.784 34.4248 11.624 34.4248 11.44C34.4248 11.248 34.4408 11.088 34.4728 10.96H35.4328C35.4008 10.824 35.3848 10.664 35.3848 10.48C35.3848 10.288 35.4008 10.128 35.4328 10C35.4008 9.864 35.3848 9.704 35.3848 9.52C35.3848 9.328 35.4008 9.168 35.4328 9.04H34.9528C34.9208 8.904 34.9048 8.744 34.9048 8.56C34.9048 8.368 34.9208 8.208 34.9528 8.08H34.7128C34.6808 7.944 34.6648 7.784 34.6648 7.6C34.6648 7.408 34.6808 7.248 34.7128 7.12H34.3528C34.3208 6.984 34.3048 6.824 34.3048 6.64C34.3048 6.448 34.3208 6.288 34.3528 6.16H33.9928C33.9608 6.024 33.9448 5.864 33.9448 5.68C33.9448 5.488 33.9608 5.328 33.9928 5.2H34.9528C34.9848 5.328 35.0008 5.488 35.0008 5.68C35.0008 5.864 34.9848 6.024 34.9528 6.16H35.3128C35.3448 6.288 35.3608 6.448 35.3608 6.64C35.3608 6.824 35.3448 6.984 35.3128 7.12H35.6728C35.7048 7.248 35.7208 7.408 35.7208 7.6C35.7208 7.784 35.7048 7.944 35.6728 8.08C35.7048 8.208 35.7208 8.368 35.7208 8.56C35.7208 8.744 35.7048 8.904 35.6728 9.04H36.0328C36.0008 8.904 35.9848 8.744 35.9848 8.56C35.9848 8.368 36.0008 8.208 36.0328 8.08H36.2728C36.2408 7.944 36.2248 7.784 36.2248 7.6C36.2248 7.408 36.2408 7.248 36.2728 7.12H36.6328C36.6008 6.984 36.5848 6.824 36.5848 6.64C36.5848 6.448 36.6008 6.288 36.6328 6.16H36.9928C36.9608 6.024 36.9448 5.864 36.9448 5.68C36.9448 5.488 36.9608 5.328 36.9928 5.2H37.9528C37.9848 5.328 38.0008 5.488 38.0008 5.68ZM42.8055 7.6C42.8055 7.784 42.7895 7.944 42.7575 8.08H42.3975C42.4295 8.208 42.4455 8.368 42.4455 8.56C42.4455 8.744 42.4295 8.904 42.3975 9.04H41.7975C41.8295 9.168 41.8455 9.328 41.8455 9.52C41.8455 9.704 41.8295 9.864 41.7975 10H39.8775C39.8455 9.864 39.8295 9.704 39.8295 9.52C39.8295 9.328 39.8455 9.168 39.8775 9.04H39.2775C39.2455 8.904 39.2295 8.744 39.2295 8.56C39.2295 8.368 39.2455 8.208 39.2775 8.08H38.9175C38.8855 7.944 38.8695 7.784 38.8695 7.6C38.8695 7.408 38.8855 7.248 38.9175 7.12H39.2775C39.2455 6.984 39.2295 6.824 39.2295 6.64C39.2295 6.448 39.2455 6.288 39.2775 6.16H39.8775C39.8455 6.024 39.8295 5.864 39.8295 5.68C39.8295 5.488 39.8455 5.328 39.8775 5.2H41.7975C41.8295 5.328 41.8455 5.488 41.8455 5.68C41.8455 5.864 41.8295 6.024 41.7975 6.16H42.3975C42.4295 6.288 42.4455 6.448 42.4455 6.64C42.4455 6.824 42.4295 6.984 42.3975 7.12H42.7575C42.7895 7.248 42.8055 7.408 42.8055 7.6ZM41.7975 8.08C41.7655 7.944 41.7495 7.784 41.7495 7.6C41.7495 7.408 41.7655 7.248 41.7975 7.12H41.4375C41.4055 6.984 41.3895 6.824 41.3895 6.64C41.3895 6.448 41.4055 6.288 41.4375 6.16H40.2375C40.2695 6.288 40.2855 6.448 40.2855 6.64C40.2855 6.824 40.2695 6.984 40.2375 7.12H39.8775C39.9095 7.248 39.9255 7.408 39.9255 7.6C39.9255 7.784 39.9095 7.944 39.8775 8.08H40.2375C40.2695 8.208 40.2855 8.368 40.2855 8.56C40.2855 8.744 40.2695 8.904 40.2375 9.04H41.4375C41.4055 8.904 41.3895 8.744 41.3895 8.56C41.3895 8.368 41.4055 8.208 41.4375 8.08H41.7975ZM45.0902 8.56C45.0902 8.744 45.0742 8.904 45.0422 9.04H46.2422C46.2742 9.168 46.2902 9.328 46.2902 9.52C46.2902 9.704 46.2742 9.864 46.2422 10H44.3222C44.2902 9.864 44.2742 9.704 44.2742 9.52C44.2742 9.328 44.2902 9.168 44.3222 9.04H43.7222C43.6902 8.904 43.6742 8.744 43.6742 8.56C43.6742 8.368 43.6902 8.208 43.7222 8.08C43.6902 7.944 43.6742 7.784 43.6742 7.6C43.6742 7.408 43.6902 7.248 43.7222 7.12C43.6902 6.984 43.6742 6.824 43.6742 6.64C43.6742 6.448 43.6902 6.288 43.7222 6.16C43.6902 6.024 43.6742 5.864 43.6742 5.68C43.6742 5.488 43.6902 5.328 43.7222 5.2H44.6822C44.7142 5.328 44.7302 5.488 44.7302 5.68C44.7302 5.864 44.7142 6.024 44.6822 6.16C44.7142 6.288 44.7302 6.448 44.7302 6.64C44.7302 6.824 44.7142 6.984 44.6822 7.12C44.7142 7.248 44.7302 7.408 44.7302 7.6C44.7302 7.784 44.7142 7.944 44.6822 8.08H45.0422C45.0742 8.208 45.0902 8.368 45.0902 8.56ZM47.5622 6.16C47.5942 6.288 47.6102 6.448 47.6102 6.64C47.6102 6.824 47.5942 6.984 47.5622 7.12C47.5942 7.248 47.6102 7.408 47.6102 7.6C47.6102 7.784 47.5942 7.944 47.5622 8.08C47.5942 8.208 47.6102 8.368 47.6102 8.56C47.6102 8.744 47.5942 8.904 47.5622 9.04C47.5942 9.168 47.6102 9.328 47.6102 9.52C47.6102 9.704 47.5942 9.864 47.5622 10H46.6022C46.5702 9.864 46.5542 9.704 46.5542 9.52C46.5542 9.328 46.5702 9.168 46.6022 9.04H46.2422C46.2102 8.904 46.1942 8.744 46.1942 8.56C46.1942 8.368 46.2102 8.208 46.2422 8.08H46.6022C46.5702 7.944 46.5542 7.784 46.5542 7.6C46.5542 7.408 46.5702 7.248 46.6022 7.12C46.5702 6.984 46.5542 6.824 46.5542 6.64C46.5542 6.448 46.5702 6.288 46.6022 6.16C46.5702 6.024 46.5542 5.864 46.5542 5.68C46.5542 5.488 46.5702 5.328 46.6022 5.2H47.5622C47.5942 5.328 47.6102 5.488 47.6102 5.68C47.6102 5.864 47.5942 6.024 47.5622 6.16ZM52.3669 6.16C52.3989 6.288 52.4149 6.448 52.4149 6.64C52.4149 6.824 52.3989 6.984 52.3669 7.12H51.4069C51.3749 6.984 51.3589 6.824 51.3589 6.64C51.3589 6.448 51.3749 6.288 51.4069 6.16H50.5669C50.5989 6.288 50.6149 6.448 50.6149 6.64C50.6149 6.824 50.5989 6.984 50.5669 7.12H50.2069C50.2389 7.248 50.2549 7.408 50.2549 7.6C50.2549 7.784 50.2389 7.944 50.2069 8.08C50.2389 8.208 50.2549 8.368 50.2549 8.56C50.2549 8.744 50.2389 8.904 50.2069 9.04H50.9269C50.9589 9.168 50.9749 9.328 50.9749 9.52C50.9749 9.704 50.9589 9.864 50.9269 10H48.5269C48.4949 9.864 48.4789 9.704 48.4789 9.52C48.4789 9.328 48.4949 9.168 48.5269 9.04H49.2469C49.2149 8.904 49.1989 8.744 49.1989 8.56C49.1989 8.368 49.2149 8.208 49.2469 8.08C49.2149 7.944 49.1989 7.784 49.1989 7.6C49.1989 7.408 49.2149 7.248 49.2469 7.12C49.2149 6.984 49.1989 6.824 49.1989 6.64C49.1989 6.448 49.2149 6.288 49.2469 6.16H48.5269C48.4949 6.024 48.4789 5.864 48.4789 5.68C48.4789 5.488 48.4949 5.328 48.5269 5.2H49.7269C49.7589 5.328 49.7749 5.488 49.7749 5.68C49.7749 5.864 49.7589 6.024 49.7269 6.16H50.2069C50.1749 6.024 50.1589 5.864 50.1589 5.68C50.1589 5.488 50.1749 5.328 50.2069 5.2H52.0069C52.0389 5.328 52.0549 5.488 52.0549 5.68C52.0549 5.864 52.0389 6.024 52.0069 6.16H52.3669ZM59.5763 4.24C59.5443 4.104 59.5283 3.944 59.5283 3.76C59.5283 3.568 59.5443 3.408 59.5763 3.28H60.5363C60.5683 3.408 60.5843 3.568 60.5843 3.76C60.5843 3.944 60.5683 4.104 60.5363 4.24H59.5763ZM61.4963 9.04C61.5283 9.168 61.5443 9.328 61.5443 9.52C61.5443 9.704 61.5283 9.864 61.4963 10H58.6163C58.5843 9.864 58.5683 9.704 58.5683 9.52C58.5683 9.328 58.5843 9.168 58.6163 9.04H59.5763C59.5443 8.904 59.5283 8.744 59.5283 8.56C59.5283 8.368 59.5443 8.208 59.5763 8.08C59.5443 7.944 59.5283 7.784 59.5283 7.6C59.5283 7.408 59.5443 7.248 59.5763 7.12C59.5443 6.984 59.5283 6.824 59.5283 6.64C59.5283 6.448 59.5443 6.288 59.5763 6.16H58.8563C58.8243 6.024 58.8083 5.864 58.8083 5.68C58.8083 5.488 58.8243 5.328 58.8563 5.2H60.5363C60.5683 5.328 60.5843 5.488 60.5843 5.68C60.5843 5.864 60.5683 6.024 60.5363 6.16C60.5683 6.288 60.5843 6.448 60.5843 6.64C60.5843 6.824 60.5683 6.984 60.5363 7.12C60.5683 7.248 60.5843 7.408 60.5843 7.6C60.5843 7.784 60.5683 7.944 60.5363 8.08C60.5683 8.208 60.5843 8.368 60.5843 8.56C60.5843 8.744 60.5683 8.904 60.5363 9.04H61.4963ZM63.5889 5.68C63.5889 5.864 63.5729 6.024 63.5409 6.16H63.9009C63.9329 6.288 63.9489 6.448 63.9489 6.64C63.9489 6.824 63.9329 6.984 63.9009 7.12C63.9329 7.248 63.9489 7.408 63.9489 7.6C63.9489 7.784 63.9329 7.944 63.9009 8.08C63.9329 8.208 63.9489 8.368 63.9489 8.56C63.9489 8.744 63.9329 8.904 63.9009 9.04C63.9329 9.168 63.9489 9.328 63.9489 9.52C63.9489 9.704 63.9329 9.864 63.9009 10H62.9409C62.9089 9.864 62.8929 9.704 62.8929 9.52C62.8929 9.328 62.9089 9.168 62.9409 9.04C62.9089 8.904 62.8929 8.744 62.8929 8.56C62.8929 8.368 62.9089 8.208 62.9409 8.08C62.9089 7.944 62.8929 7.784 62.8929 7.6C62.8929 7.408 62.9089 7.248 62.9409 7.12C62.9089 6.984 62.8929 6.824 62.8929 6.64C62.8929 6.448 62.9089 6.288 62.9409 6.16C62.9089 6.024 62.8929 5.864 62.8929 5.68C62.8929 5.488 62.9089 5.328 62.9409 5.2H63.5409C63.5729 5.328 63.5889 5.488 63.5889 5.68ZM64.9089 5.68C64.9089 5.864 64.8929 6.024 64.8609 6.16H65.2209C65.2529 6.288 65.2689 6.448 65.2689 6.64C65.2689 6.824 65.2529 6.984 65.2209 7.12C65.2529 7.248 65.2689 7.408 65.2689 7.6C65.2689 7.784 65.2529 7.944 65.2209 8.08C65.2529 8.208 65.2689 8.368 65.2689 8.56C65.2689 8.744 65.2529 8.904 65.2209 9.04C65.2529 9.168 65.2689 9.328 65.2689 9.52C65.2689 9.704 65.2529 9.864 65.2209 10H64.5009C64.4689 9.864 64.4529 9.704 64.4529 9.52C64.4529 9.328 64.4689 9.168 64.5009 9.04C64.4689 8.904 64.4529 8.744 64.4529 8.56C64.4529 8.368 64.4689 8.208 64.5009 8.08C64.4689 7.944 64.4529 7.784 64.4529 7.6C64.4529 7.408 64.4689 7.248 64.5009 7.12C64.4689 6.984 64.4529 6.824 64.4529 6.64C64.4529 6.448 64.4689 6.288 64.5009 6.16H63.9009C63.8689 6.024 63.8529 5.864 63.8529 5.68C63.8529 5.488 63.8689 5.328 63.9009 5.2H64.8609C64.8929 5.328 64.9089 5.488 64.9089 5.68ZM66.7809 7.12C66.8129 7.248 66.8289 7.408 66.8289 7.6C66.8289 7.784 66.8129 7.944 66.7809 8.08C66.8129 8.208 66.8289 8.368 66.8289 8.56C66.8289 8.744 66.8129 8.904 66.7809 9.04C66.8129 9.168 66.8289 9.328 66.8289 9.52C66.8289 9.704 66.8129 9.864 66.7809 10H65.8209C65.7889 9.864 65.7729 9.704 65.7729 9.52C65.7729 9.328 65.7889 9.168 65.8209 9.04C65.7889 8.904 65.7729 8.744 65.7729 8.56C65.7729 8.368 65.7889 8.208 65.8209 8.08C65.7889 7.944 65.7729 7.784 65.7729 7.6C65.7729 7.408 65.7889 7.248 65.8209 7.12C65.7889 6.984 65.7729 6.824 65.7729 6.64C65.7729 6.448 65.7889 6.288 65.8209 6.16H65.2209C65.1889 6.024 65.1729 5.864 65.1729 5.68C65.1729 5.488 65.1889 5.328 65.2209 5.2H66.3009C66.3329 5.328 66.3489 5.488 66.3489 5.68C66.3489 5.864 66.3329 6.024 66.3009 6.16H66.7809C66.8129 6.288 66.8289 6.448 66.8289 6.64C66.8289 6.824 66.8129 6.984 66.7809 7.12ZM71.6336 7.6C71.6336 7.784 71.6176 7.944 71.5856 8.08H71.1056C71.1376 8.208 71.1536 8.368 71.1536 8.56C71.1536 8.744 71.1376 8.904 71.1056 9.04H70.6256C70.6576 9.168 70.6736 9.328 70.6736 9.52C70.6736 9.704 70.6576 9.864 70.6256 10H68.7056C68.7376 10.128 68.7536 10.288 68.7536 10.48C68.7536 10.664 68.7376 10.824 68.7056 10.96C68.7376 11.088 68.7536 11.248 68.7536 11.44C68.7536 11.624 68.7376 11.784 68.7056 11.92H67.7456C67.7136 11.784 67.6976 11.624 67.6976 11.44C67.6976 11.248 67.7136 11.088 67.7456 10.96C67.7136 10.824 67.6976 10.664 67.6976 10.48C67.6976 10.288 67.7136 10.128 67.7456 10C67.7136 9.864 67.6976 9.704 67.6976 9.52C67.6976 9.328 67.7136 9.168 67.7456 9.04C67.7136 8.904 67.6976 8.744 67.6976 8.56C67.6976 8.368 67.7136 8.208 67.7456 8.08C67.7136 7.944 67.6976 7.784 67.6976 7.6C67.6976 7.408 67.7136 7.248 67.7456 7.12C67.7136 6.984 67.6976 6.824 67.6976 6.64C67.6976 6.448 67.7136 6.288 67.7456 6.16C67.7136 6.024 67.6976 5.864 67.6976 5.68C67.6976 5.488 67.7136 5.328 67.7456 5.2H68.7056C68.7376 5.328 68.7536 5.488 68.7536 5.68C68.7536 5.864 68.7376 6.024 68.7056 6.16H69.1856C69.2176 6.288 69.2336 6.448 69.2336 6.64C69.2336 6.824 69.2176 6.984 69.1856 7.12H68.7056C68.7376 7.248 68.7536 7.408 68.7536 7.6C68.7536 7.784 68.7376 7.944 68.7056 8.08C68.7376 8.208 68.7536 8.368 68.7536 8.56C68.7536 8.744 68.7376 8.904 68.7056 9.04H70.1456C70.1136 8.904 70.0976 8.744 70.0976 8.56C70.0976 8.368 70.1136 8.208 70.1456 8.08H70.6256C70.5936 7.944 70.5776 7.784 70.5776 7.6C70.5776 7.408 70.5936 7.248 70.6256 7.12H70.1456C70.1136 6.984 70.0976 6.824 70.0976 6.64C70.0976 6.448 70.1136 6.288 70.1456 6.16H69.1856C69.1536 6.024 69.1376 5.864 69.1376 5.68C69.1376 5.488 69.1536 5.328 69.1856 5.2H70.6256C70.6576 5.328 70.6736 5.488 70.6736 5.68C70.6736 5.864 70.6576 6.024 70.6256 6.16H71.1056C71.1376 6.288 71.1536 6.448 71.1536 6.64C71.1536 6.824 71.1376 6.984 71.1056 7.12H71.5856C71.6176 7.248 71.6336 7.408 71.6336 7.6ZM76.4383 7.6C76.4383 7.784 76.4223 7.944 76.3903 8.08H76.0303C76.0623 8.208 76.0783 8.368 76.0783 8.56C76.0783 8.744 76.0623 8.904 76.0303 9.04H75.4303C75.4623 9.168 75.4783 9.328 75.4783 9.52C75.4783 9.704 75.4623 9.864 75.4303 10H73.5103C73.4783 9.864 73.4623 9.704 73.4623 9.52C73.4623 9.328 73.4783 9.168 73.5103 9.04H72.9103C72.8783 8.904 72.8623 8.744 72.8623 8.56C72.8623 8.368 72.8783 8.208 72.9103 8.08H72.5503C72.5183 7.944 72.5023 7.784 72.5023 7.6C72.5023 7.408 72.5183 7.248 72.5503 7.12H72.9103C72.8783 6.984 72.8623 6.824 72.8623 6.64C72.8623 6.448 72.8783 6.288 72.9103 6.16H73.5103C73.4783 6.024 73.4623 5.864 73.4623 5.68C73.4623 5.488 73.4783 5.328 73.5103 5.2H75.4303C75.4623 5.328 75.4783 5.488 75.4783 5.68C75.4783 5.864 75.4623 6.024 75.4303 6.16H76.0303C76.0623 6.288 76.0783 6.448 76.0783 6.64C76.0783 6.824 76.0623 6.984 76.0303 7.12H76.3903C76.4223 7.248 76.4383 7.408 76.4383 7.6ZM75.4303 8.08C75.3983 7.944 75.3823 7.784 75.3823 7.6C75.3823 7.408 75.3983 7.248 75.4303 7.12H75.0703C75.0383 6.984 75.0223 6.824 75.0223 6.64C75.0223 6.448 75.0383 6.288 75.0703 6.16H73.8703C73.9023 6.288 73.9183 6.448 73.9183 6.64C73.9183 6.824 73.9023 6.984 73.8703 7.12H73.5103C73.5423 7.248 73.5583 7.408 73.5583 7.6C73.5583 7.784 73.5423 7.944 73.5103 8.08H73.8703C73.9023 8.208 73.9183 8.368 73.9183 8.56C73.9183 8.744 73.9023 8.904 73.8703 9.04H75.0703C75.0383 8.904 75.0223 8.744 75.0223 8.56C75.0223 8.368 75.0383 8.208 75.0703 8.08H75.4303ZM81.195 6.16C81.227 6.288 81.243 6.448 81.243 6.64C81.243 6.824 81.227 6.984 81.195 7.12H80.235C80.203 6.984 80.187 6.824 80.187 6.64C80.187 6.448 80.203 6.288 80.235 6.16H79.395C79.427 6.288 79.443 6.448 79.443 6.64C79.443 6.824 79.427 6.984 79.395 7.12H79.035C79.067 7.248 79.083 7.408 79.083 7.6C79.083 7.784 79.067 7.944 79.035 8.08C79.067 8.208 79.083 8.368 79.083 8.56C79.083 8.744 79.067 8.904 79.035 9.04H79.755C79.787 9.168 79.803 9.328 79.803 9.52C79.803 9.704 79.787 9.864 79.755 10H77.355C77.323 9.864 77.307 9.704 77.307 9.52C77.307 9.328 77.323 9.168 77.355 9.04H78.075C78.043 8.904 78.027 8.744 78.027 8.56C78.027 8.368 78.043 8.208 78.075 8.08C78.043 7.944 78.027 7.784 78.027 7.6C78.027 7.408 78.043 7.248 78.075 7.12C78.043 6.984 78.027 6.824 78.027 6.64C78.027 6.448 78.043 6.288 78.075 6.16H77.355C77.323 6.024 77.307 5.864 77.307 5.68C77.307 5.488 77.323 5.328 77.355 5.2H78.555C78.587 5.328 78.603 5.488 78.603 5.68C78.603 5.864 78.587 6.024 78.555 6.16H79.035C79.003 6.024 78.987 5.864 78.987 5.68C78.987 5.488 79.003 5.328 79.035 5.2H80.835C80.867 5.328 80.883 5.488 80.883 5.68C80.883 5.864 80.867 6.024 80.835 6.16H81.195ZM85.5197 9.04C85.5517 9.168 85.5677 9.328 85.5677 9.52C85.5677 9.704 85.5517 9.864 85.5197 10H83.5997C83.5677 9.864 83.5517 9.704 83.5517 9.52C83.5517 9.328 83.5677 9.168 83.5997 9.04H83.1197C83.0877 8.904 83.0717 8.744 83.0717 8.56C83.0717 8.368 83.0877 8.208 83.1197 8.08C83.0877 7.944 83.0717 7.784 83.0717 7.6C83.0717 7.408 83.0877 7.248 83.1197 7.12C83.0877 6.984 83.0717 6.824 83.0717 6.64C83.0717 6.448 83.0877 6.288 83.1197 6.16H82.1597C82.1277 6.024 82.1117 5.864 82.1117 5.68C82.1117 5.488 82.1277 5.328 82.1597 5.2H83.1197C83.0877 5.064 83.0717 4.904 83.0717 4.72C83.0717 4.528 83.0877 4.368 83.1197 4.24C83.0877 4.104 83.0717 3.944 83.0717 3.76C83.0717 3.568 83.0877 3.408 83.1197 3.28H84.0797C84.1117 3.408 84.1277 3.568 84.1277 3.76C84.1277 3.944 84.1117 4.104 84.0797 4.24C84.1117 4.368 84.1277 4.528 84.1277 4.72C84.1277 4.904 84.1117 5.064 84.0797 5.2H85.5197C85.5517 5.328 85.5677 5.488 85.5677 5.68C85.5677 5.864 85.5517 6.024 85.5197 6.16H84.0797C84.1117 6.288 84.1277 6.448 84.1277 6.64C84.1277 6.824 84.1117 6.984 84.0797 7.12C84.1117 7.248 84.1277 7.408 84.1277 7.6C84.1277 7.784 84.1117 7.944 84.0797 8.08C84.1117 8.208 84.1277 8.368 84.1277 8.56C84.1277 8.744 84.1117 8.904 84.0797 9.04H85.5197ZM90.8044 9.04C90.8364 9.168 90.8524 9.328 90.8524 9.52C90.8524 9.704 90.8364 9.864 90.8044 10H89.8444C89.8124 9.864 89.7964 9.704 89.7964 9.52C89.7964 9.328 89.8124 9.168 89.8444 9.04H89.3644C89.3324 8.904 89.3164 8.744 89.3164 8.56C89.3164 8.368 89.3324 8.208 89.3644 8.08H87.9244C87.9564 8.208 87.9724 8.368 87.9724 8.56C87.9724 8.744 87.9564 8.904 87.9244 9.04H89.3644C89.3964 9.168 89.4124 9.328 89.4124 9.52C89.4124 9.704 89.3964 9.864 89.3644 10H87.4444C87.4124 9.864 87.3964 9.704 87.3964 9.52C87.3964 9.328 87.4124 9.168 87.4444 9.04H86.9644C86.9324 8.904 86.9164 8.744 86.9164 8.56C86.9164 8.368 86.9324 8.208 86.9644 8.08H87.4444C87.4124 7.944 87.3964 7.784 87.3964 7.6C87.3964 7.408 87.4124 7.248 87.4444 7.12H89.3644C89.3324 6.984 89.3164 6.824 89.3164 6.64C89.3164 6.448 89.3324 6.288 89.3644 6.16H87.6844C87.6524 6.024 87.6364 5.864 87.6364 5.68C87.6364 5.488 87.6524 5.328 87.6844 5.2H89.8444C89.8764 5.328 89.8924 5.488 89.8924 5.68C89.8924 5.864 89.8764 6.024 89.8444 6.16H90.3244C90.3564 6.288 90.3724 6.448 90.3724 6.64C90.3724 6.824 90.3564 6.984 90.3244 7.12C90.3564 7.248 90.3724 7.408 90.3724 7.6C90.3724 7.784 90.3564 7.944 90.3244 8.08C90.3564 8.208 90.3724 8.368 90.3724 8.56C90.3724 8.744 90.3564 8.904 90.3244 9.04H90.8044ZM92.6571 5.68C92.6571 5.864 92.6411 6.024 92.6091 6.16H93.0891C93.1211 6.288 93.1371 6.448 93.1371 6.64C93.1371 6.824 93.1211 6.984 93.0891 7.12H92.7291C92.7611 7.248 92.7771 7.408 92.7771 7.6C92.7771 7.784 92.7611 7.944 92.7291 8.08C92.7611 8.208 92.7771 8.368 92.7771 8.56C92.7771 8.744 92.7611 8.904 92.7291 9.04C92.7611 9.168 92.7771 9.328 92.7771 9.52C92.7771 9.704 92.7611 9.864 92.7291 10H91.7691C91.7371 9.864 91.7211 9.704 91.7211 9.52C91.7211 9.328 91.7371 9.168 91.7691 9.04C91.7371 8.904 91.7211 8.744 91.7211 8.56C91.7211 8.368 91.7371 8.208 91.7691 8.08C91.7371 7.944 91.7211 7.784 91.7211 7.6C91.7211 7.408 91.7371 7.248 91.7691 7.12C91.7371 6.984 91.7211 6.824 91.7211 6.64C91.7211 6.448 91.7371 6.288 91.7691 6.16C91.7371 6.024 91.7211 5.864 91.7211 5.68C91.7211 5.488 91.7371 5.328 91.7691 5.2H92.6091C92.6411 5.328 92.6571 5.488 92.6571 5.68ZM95.6091 7.12C95.6411 7.248 95.6571 7.408 95.6571 7.6C95.6571 7.784 95.6411 7.944 95.6091 8.08C95.6411 8.208 95.6571 8.368 95.6571 8.56C95.6571 8.744 95.6411 8.904 95.6091 9.04C95.6411 9.168 95.6571 9.328 95.6571 9.52C95.6571 9.704 95.6411 9.864 95.6091 10H94.6491C94.6171 9.864 94.6011 9.704 94.6011 9.52C94.6011 9.328 94.6171 9.168 94.6491 9.04C94.6171 8.904 94.6011 8.744 94.6011 8.56C94.6011 8.368 94.6171 8.208 94.6491 8.08C94.6171 7.944 94.6011 7.784 94.6011 7.6C94.6011 7.408 94.6171 7.248 94.6491 7.12C94.6171 6.984 94.6011 6.824 94.6011 6.64C94.6011 6.448 94.6171 6.288 94.6491 6.16H93.0891C93.0571 6.024 93.0411 5.864 93.0411 5.68C93.0411 5.488 93.0571 5.328 93.0891 5.2H95.0091C95.0411 5.328 95.0571 5.488 95.0571 5.68C95.0571 5.864 95.0411 6.024 95.0091 6.16H95.6091C95.6411 6.288 95.6571 6.448 95.6571 6.64C95.6571 6.824 95.6411 6.984 95.6091 7.12ZM99.9338 9.04C99.9658 9.168 99.9818 9.328 99.9818 9.52C99.9818 9.704 99.9658 9.864 99.9338 10H98.0138C97.9818 9.864 97.9658 9.704 97.9658 9.52C97.9658 9.328 97.9818 9.168 98.0138 9.04H97.5338C97.5018 8.904 97.4858 8.744 97.4858 8.56C97.4858 8.368 97.5018 8.208 97.5338 8.08C97.5018 7.944 97.4858 7.784 97.4858 7.6C97.4858 7.408 97.5018 7.248 97.5338 7.12C97.5018 6.984 97.4858 6.824 97.4858 6.64C97.4858 6.448 97.5018 6.288 97.5338 6.16H96.5738C96.5418 6.024 96.5258 5.864 96.5258 5.68C96.5258 5.488 96.5418 5.328 96.5738 5.2H97.5338C97.5018 5.064 97.4858 4.904 97.4858 4.72C97.4858 4.528 97.5018 4.368 97.5338 4.24C97.5018 4.104 97.4858 3.944 97.4858 3.76C97.4858 3.568 97.5018 3.408 97.5338 3.28H98.4938C98.5258 3.408 98.5418 3.568 98.5418 3.76C98.5418 3.944 98.5258 4.104 98.4938 4.24C98.5258 4.368 98.5418 4.528 98.5418 4.72C98.5418 4.904 98.5258 5.064 98.4938 5.2H99.9338C99.9658 5.328 99.9818 5.488 99.9818 5.68C99.9818 5.864 99.9658 6.024 99.9338 6.16H98.4938C98.5258 6.288 98.5418 6.448 98.5418 6.64C98.5418 6.824 98.5258 6.984 98.4938 7.12C98.5258 7.248 98.5418 7.408 98.5418 7.6C98.5418 7.784 98.5258 7.944 98.4938 8.08C98.5258 8.208 98.5418 8.368 98.5418 8.56C98.5418 8.744 98.5258 8.904 98.4938 9.04H99.9338ZM110.023 6.16C110.055 6.288 110.071 6.448 110.071 6.64C110.071 6.824 110.055 6.984 110.023 7.12C110.055 7.248 110.071 7.408 110.071 7.6C110.071 7.784 110.055 7.944 110.023 8.08C110.055 8.208 110.071 8.368 110.071 8.56C110.071 8.744 110.055 8.904 110.023 9.04C110.055 9.168 110.071 9.328 110.071 9.52C110.071 9.704 110.055 9.864 110.023 10H109.063C109.031 9.864 109.015 9.704 109.015 9.52C109.015 9.328 109.031 9.168 109.063 9.04C109.031 8.904 109.015 8.744 109.015 8.56C109.015 8.368 109.031 8.208 109.063 8.08C109.031 7.944 109.015 7.784 109.015 7.6C109.015 7.408 109.031 7.248 109.063 7.12C109.031 6.984 109.015 6.824 109.015 6.64C109.015 6.448 109.031 6.288 109.063 6.16H107.623C107.655 6.288 107.671 6.448 107.671 6.64C107.671 6.824 107.655 6.984 107.623 7.12C107.655 7.248 107.671 7.408 107.671 7.6C107.671 7.784 107.655 7.944 107.623 8.08C107.655 8.208 107.671 8.368 107.671 8.56C107.671 8.744 107.655 8.904 107.623 9.04H108.103C108.135 9.168 108.151 9.328 108.151 9.52C108.151 9.704 108.135 9.864 108.103 10H106.183C106.151 9.864 106.135 9.704 106.135 9.52C106.135 9.328 106.151 9.168 106.183 9.04H106.663C106.631 8.904 106.615 8.744 106.615 8.56C106.615 8.368 106.631 8.208 106.663 8.08C106.631 7.944 106.615 7.784 106.615 7.6C106.615 7.408 106.631 7.248 106.663 7.12C106.631 6.984 106.615 6.824 106.615 6.64C106.615 6.448 106.631 6.288 106.663 6.16H106.183C106.151 6.024 106.135 5.864 106.135 5.68C106.135 5.488 106.151 5.328 106.183 5.2H106.663C106.631 5.064 106.615 4.904 106.615 4.72C106.615 4.528 106.631 4.368 106.663 4.24H107.143C107.111 4.104 107.095 3.944 107.095 3.76C107.095 3.568 107.111 3.408 107.143 3.28H109.063C109.095 3.408 109.111 3.568 109.111 3.76C109.111 3.944 109.095 4.104 109.063 4.24H107.623C107.655 4.368 107.671 4.528 107.671 4.72C107.671 4.904 107.655 5.064 107.623 5.2H110.023C110.055 5.328 110.071 5.488 110.071 5.68C110.071 5.864 110.055 6.024 110.023 6.16ZM114.348 9.04C114.38 9.168 114.396 9.328 114.396 9.52C114.396 9.704 114.38 9.864 114.348 10H111.468C111.436 9.864 111.42 9.704 111.42 9.52C111.42 9.328 111.436 9.168 111.468 9.04H112.428C112.396 8.904 112.38 8.744 112.38 8.56C112.38 8.368 112.396 8.208 112.428 8.08C112.396 7.944 112.38 7.784 112.38 7.6C112.38 7.408 112.396 7.248 112.428 7.12C112.396 6.984 112.38 6.824 112.38 6.64C112.38 6.448 112.396 6.288 112.428 6.16C112.396 6.024 112.38 5.864 112.38 5.68C112.38 5.488 112.396 5.328 112.428 5.2C112.396 5.064 112.38 4.904 112.38 4.72C112.38 4.528 112.396 4.368 112.428 4.24H111.708C111.676 4.104 111.66 3.944 111.66 3.76C111.66 3.568 111.676 3.408 111.708 3.28H113.388C113.42 3.408 113.436 3.568 113.436 3.76C113.436 3.944 113.42 4.104 113.388 4.24C113.42 4.368 113.436 4.528 113.436 4.72C113.436 4.904 113.42 5.064 113.388 5.2C113.42 5.328 113.436 5.488 113.436 5.68C113.436 5.864 113.42 6.024 113.388 6.16C113.42 6.288 113.436 6.448 113.436 6.64C113.436 6.824 113.42 6.984 113.388 7.12C113.42 7.248 113.436 7.408 113.436 7.6C113.436 7.784 113.42 7.944 113.388 8.08C113.42 8.208 113.436 8.368 113.436 8.56C113.436 8.744 113.42 8.904 113.388 9.04H114.348ZM119.681 6.64C119.681 6.824 119.665 6.984 119.633 7.12C119.665 7.248 119.681 7.408 119.681 7.6C119.681 7.784 119.665 7.944 119.633 8.08H117.113C117.145 8.208 117.161 8.368 117.161 8.56C117.161 8.744 117.145 8.904 117.113 9.04H119.153C119.185 9.168 119.201 9.328 119.201 9.52C119.201 9.704 119.185 9.864 119.153 10H116.753C116.721 9.864 116.705 9.704 116.705 9.52C116.705 9.328 116.721 9.168 116.753 9.04H116.153C116.12 8.904 116.104 8.744 116.104 8.56C116.104 8.368 116.12 8.208 116.153 8.08H115.793C115.761 7.944 115.745 7.784 115.745 7.6C115.745 7.408 115.761 7.248 115.793 7.12H116.153C116.12 6.984 116.104 6.824 116.104 6.64C116.104 6.448 116.12 6.288 116.153 6.16H116.753C116.721 6.024 116.705 5.864 116.705 5.68C116.705 5.488 116.721 5.328 116.753 5.2H119.153C119.185 5.328 119.201 5.488 119.201 5.68C119.201 5.864 119.185 6.024 119.153 6.16H119.633C119.665 6.288 119.681 6.448 119.681 6.64ZM118.673 7.12C118.641 6.984 118.625 6.824 118.625 6.64C118.625 6.448 118.641 6.288 118.673 6.16H117.113C117.145 6.288 117.161 6.448 117.161 6.64C117.161 6.824 117.145 6.984 117.113 7.12H118.673ZM124.245 8.56C124.245 8.744 124.229 8.904 124.197 9.04H123.717C123.749 9.168 123.765 9.328 123.765 9.52C123.765 9.704 123.749 9.864 123.717 10H121.077C121.045 9.864 121.029 9.704 121.029 9.52C121.029 9.328 121.045 9.168 121.077 9.04H123.237C123.205 8.904 123.189 8.744 123.189 8.56C123.189 8.368 123.205 8.208 123.237 8.08H121.317C121.285 7.944 121.269 7.784 121.269 7.6C121.269 7.408 121.285 7.248 121.317 7.12H120.837C120.805 6.984 120.789 6.824 120.789 6.64C120.789 6.448 120.805 6.288 120.837 6.16H121.317C121.285 6.024 121.269 5.864 121.269 5.68C121.269 5.488 121.285 5.328 121.317 5.2H123.957C123.989 5.328 124.005 5.488 124.005 5.68C124.005 5.864 123.989 6.024 123.957 6.16H121.797C121.829 6.288 121.845 6.448 121.845 6.64C121.845 6.824 121.829 6.984 121.797 7.12H123.717C123.749 7.248 123.765 7.408 123.765 7.6C123.765 7.784 123.749 7.944 123.717 8.08H124.197C124.229 8.208 124.245 8.368 124.245 8.56ZM134.047 9.04C134.079 9.168 134.095 9.328 134.095 9.52C134.095 9.704 134.079 9.864 134.047 10H133.087C133.055 9.864 133.039 9.704 133.039 9.52C133.039 9.328 133.055 9.168 133.087 9.04H132.607C132.575 8.904 132.559 8.744 132.559 8.56C132.559 8.368 132.575 8.208 132.607 8.08H131.167C131.199 8.208 131.215 8.368 131.215 8.56C131.215 8.744 131.199 8.904 131.167 9.04H132.607C132.639 9.168 132.655 9.328 132.655 9.52C132.655 9.704 132.639 9.864 132.607 10H130.687C130.655 9.864 130.639 9.704 130.639 9.52C130.639 9.328 130.655 9.168 130.687 9.04H130.207C130.175 8.904 130.159 8.744 130.159 8.56C130.159 8.368 130.175 8.208 130.207 8.08H130.687C130.655 7.944 130.639 7.784 130.639 7.6C130.639 7.408 130.655 7.248 130.687 7.12H132.607C132.575 6.984 132.559 6.824 132.559 6.64C132.559 6.448 132.575 6.288 132.607 6.16H130.927C130.895 6.024 130.879 5.864 130.879 5.68C130.879 5.488 130.895 5.328 130.927 5.2H133.087C133.119 5.328 133.135 5.488 133.135 5.68C133.135 5.864 133.119 6.024 133.087 6.16H133.567C133.599 6.288 133.615 6.448 133.615 6.64C133.615 6.824 133.599 6.984 133.567 7.12C133.599 7.248 133.615 7.408 133.615 7.6C133.615 7.784 133.599 7.944 133.567 8.08C133.599 8.208 133.615 8.368 133.615 8.56C133.615 8.744 133.599 8.904 133.567 9.04H134.047ZM138.851 6.16C138.883 6.288 138.899 6.448 138.899 6.64C138.899 6.824 138.883 6.984 138.851 7.12H137.891C137.859 6.984 137.843 6.824 137.843 6.64C137.843 6.448 137.859 6.288 137.891 6.16H137.051C137.083 6.288 137.099 6.448 137.099 6.64C137.099 6.824 137.083 6.984 137.051 7.12H136.691C136.723 7.248 136.739 7.408 136.739 7.6C136.739 7.784 136.723 7.944 136.691 8.08C136.723 8.208 136.739 8.368 136.739 8.56C136.739 8.744 136.723 8.904 136.691 9.04H137.411C137.443 9.168 137.459 9.328 137.459 9.52C137.459 9.704 137.443 9.864 137.411 10H135.011C134.979 9.864 134.963 9.704 134.963 9.52C134.963 9.328 134.979 9.168 135.011 9.04H135.731C135.699 8.904 135.683 8.744 135.683 8.56C135.683 8.368 135.699 8.208 135.731 8.08C135.699 7.944 135.683 7.784 135.683 7.6C135.683 7.408 135.699 7.248 135.731 7.12C135.699 6.984 135.683 6.824 135.683 6.64C135.683 6.448 135.699 6.288 135.731 6.16H135.011C134.979 6.024 134.963 5.864 134.963 5.68C134.963 5.488 134.979 5.328 135.011 5.2H136.211C136.243 5.328 136.259 5.488 136.259 5.68C136.259 5.864 136.243 6.024 136.211 6.16H136.691C136.659 6.024 136.643 5.864 136.643 5.68C136.643 5.488 136.659 5.328 136.691 5.2H138.491C138.523 5.328 138.539 5.488 138.539 5.68C138.539 5.864 138.523 6.024 138.491 6.16H138.851ZM143.704 6.64C143.704 6.824 143.688 6.984 143.656 7.12C143.688 7.248 143.704 7.408 143.704 7.6C143.704 7.784 143.688 7.944 143.656 8.08H141.136C141.168 8.208 141.184 8.368 141.184 8.56C141.184 8.744 141.168 8.904 141.136 9.04H143.176C143.208 9.168 143.224 9.328 143.224 9.52C143.224 9.704 143.208 9.864 143.176 10H140.776C140.744 9.864 140.728 9.704 140.728 9.52C140.728 9.328 140.744 9.168 140.776 9.04H140.176C140.144 8.904 140.128 8.744 140.128 8.56C140.128 8.368 140.144 8.208 140.176 8.08H139.816C139.784 7.944 139.768 7.784 139.768 7.6C139.768 7.408 139.784 7.248 139.816 7.12H140.176C140.144 6.984 140.128 6.824 140.128 6.64C140.128 6.448 140.144 6.288 140.176 6.16H140.776C140.744 6.024 140.728 5.864 140.728 5.68C140.728 5.488 140.744 5.328 140.776 5.2H143.176C143.208 5.328 143.224 5.488 143.224 5.68C143.224 5.864 143.208 6.024 143.176 6.16H143.656C143.688 6.288 143.704 6.448 143.704 6.64ZM142.696 7.12C142.664 6.984 142.648 6.824 142.648 6.64C142.648 6.448 142.664 6.288 142.696 6.16H141.136C141.168 6.288 141.184 6.448 141.184 6.64C141.184 6.824 141.168 6.984 141.136 7.12H142.696ZM153.313 6.64C153.313 6.824 153.297 6.984 153.265 7.12C153.297 7.248 153.313 7.408 153.313 7.6C153.313 7.784 153.297 7.944 153.265 8.08H150.745C150.777 8.208 150.793 8.368 150.793 8.56C150.793 8.744 150.777 8.904 150.745 9.04H152.785C152.817 9.168 152.833 9.328 152.833 9.52C152.833 9.704 152.817 9.864 152.785 10H150.385C150.353 9.864 150.337 9.704 150.337 9.52C150.337 9.328 150.353 9.168 150.385 9.04H149.785C149.753 8.904 149.737 8.744 149.737 8.56C149.737 8.368 149.753 8.208 149.785 8.08H149.425C149.393 7.944 149.377 7.784 149.377 7.6C149.377 7.408 149.393 7.248 149.425 7.12H149.785C149.753 6.984 149.737 6.824 149.737 6.64C149.737 6.448 149.753 6.288 149.785 6.16H150.385C150.353 6.024 150.337 5.864 150.337 5.68C150.337 5.488 150.353 5.328 150.385 5.2H152.785C152.817 5.328 152.833 5.488 152.833 5.68C152.833 5.864 152.817 6.024 152.785 6.16H153.265C153.297 6.288 153.313 6.448 153.313 6.64ZM152.305 7.12C152.273 6.984 152.257 6.824 152.257 6.64C152.257 6.448 152.273 6.288 152.305 6.16H150.745C150.777 6.288 150.793 6.448 150.793 6.64C150.793 6.824 150.777 6.984 150.745 7.12H152.305ZM155.118 5.68C155.118 5.864 155.102 6.024 155.07 6.16H155.55C155.582 6.288 155.598 6.448 155.598 6.64C155.598 6.824 155.582 6.984 155.55 7.12H155.19C155.222 7.248 155.238 7.408 155.238 7.6C155.238 7.784 155.222 7.944 155.19 8.08C155.222 8.208 155.238 8.368 155.238 8.56C155.238 8.744 155.222 8.904 155.19 9.04C155.222 9.168 155.238 9.328 155.238 9.52C155.238 9.704 155.222 9.864 155.19 10H154.23C154.198 9.864 154.182 9.704 154.182 9.52C154.182 9.328 154.198 9.168 154.23 9.04C154.198 8.904 154.182 8.744 154.182 8.56C154.182 8.368 154.198 8.208 154.23 8.08C154.198 7.944 154.182 7.784 154.182 7.6C154.182 7.408 154.198 7.248 154.23 7.12C154.198 6.984 154.182 6.824 154.182 6.64C154.182 6.448 154.198 6.288 154.23 6.16C154.198 6.024 154.182 5.864 154.182 5.68C154.182 5.488 154.198 5.328 154.23 5.2H155.07C155.102 5.328 155.118 5.488 155.118 5.68ZM158.07 7.12C158.102 7.248 158.118 7.408 158.118 7.6C158.118 7.784 158.102 7.944 158.07 8.08C158.102 8.208 158.118 8.368 158.118 8.56C158.118 8.744 158.102 8.904 158.07 9.04C158.102 9.168 158.118 9.328 158.118 9.52C158.118 9.704 158.102 9.864 158.07 10H157.11C157.078 9.864 157.062 9.704 157.062 9.52C157.062 9.328 157.078 9.168 157.11 9.04C157.078 8.904 157.062 8.744 157.062 8.56C157.062 8.368 157.078 8.208 157.11 8.08C157.078 7.944 157.062 7.784 157.062 7.6C157.062 7.408 157.078 7.248 157.11 7.12C157.078 6.984 157.062 6.824 157.062 6.64C157.062 6.448 157.078 6.288 157.11 6.16H155.55C155.518 6.024 155.502 5.864 155.502 5.68C155.502 5.488 155.518 5.328 155.55 5.2H157.47C157.502 5.328 157.518 5.488 157.518 5.68C157.518 5.864 157.502 6.024 157.47 6.16H158.07C158.102 6.288 158.118 6.448 158.118 6.64C158.118 6.824 158.102 6.984 158.07 7.12ZM162.875 8.08C162.907 8.208 162.923 8.368 162.923 8.56C162.923 8.744 162.907 8.904 162.875 9.04H162.395C162.427 9.168 162.443 9.328 162.443 9.52C162.443 9.704 162.427 9.864 162.395 10H159.995C159.963 9.864 159.947 9.704 159.947 9.52C159.947 9.328 159.963 9.168 159.995 9.04H159.515C159.483 8.904 159.467 8.744 159.467 8.56C159.467 8.368 159.483 8.208 159.515 8.08H159.035C159.003 7.944 158.987 7.784 158.987 7.6C158.987 7.408 159.003 7.248 159.035 7.12H159.515C159.483 6.984 159.467 6.824 159.467 6.64C159.467 6.448 159.483 6.288 159.515 6.16H159.995C159.963 6.024 159.947 5.864 159.947 5.68C159.947 5.488 159.963 5.328 159.995 5.2H162.395C162.427 5.328 162.443 5.488 162.443 5.68C162.443 5.864 162.427 6.024 162.395 6.16H162.875C162.907 6.288 162.923 6.448 162.923 6.64C162.923 6.824 162.907 6.984 162.875 7.12H161.915C161.883 6.984 161.867 6.824 161.867 6.64C161.867 6.448 161.883 6.288 161.915 6.16H160.475C160.507 6.288 160.523 6.448 160.523 6.64C160.523 6.824 160.507 6.984 160.475 7.12H159.995C160.027 7.248 160.043 7.408 160.043 7.6C160.043 7.784 160.027 7.944 159.995 8.08H160.475C160.507 8.208 160.523 8.368 160.523 8.56C160.523 8.744 160.507 8.904 160.475 9.04H161.915C161.883 8.904 161.867 8.744 161.867 8.56C161.867 8.368 161.883 8.208 161.915 8.08H162.875ZM167.679 6.16C167.711 6.288 167.727 6.448 167.727 6.64C167.727 6.824 167.711 6.984 167.679 7.12H166.719C166.687 6.984 166.671 6.824 166.671 6.64C166.671 6.448 166.687 6.288 166.719 6.16H165.879C165.911 6.288 165.927 6.448 165.927 6.64C165.927 6.824 165.911 6.984 165.879 7.12H165.519C165.551 7.248 165.567 7.408 165.567 7.6C165.567 7.784 165.551 7.944 165.519 8.08C165.551 8.208 165.567 8.368 165.567 8.56C165.567 8.744 165.551 8.904 165.519 9.04H166.239C166.271 9.168 166.287 9.328 166.287 9.52C166.287 9.704 166.271 9.864 166.239 10H163.839C163.807 9.864 163.791 9.704 163.791 9.52C163.791 9.328 163.807 9.168 163.839 9.04H164.559C164.527 8.904 164.511 8.744 164.511 8.56C164.511 8.368 164.527 8.208 164.559 8.08C164.527 7.944 164.511 7.784 164.511 7.6C164.511 7.408 164.527 7.248 164.559 7.12C164.527 6.984 164.511 6.824 164.511 6.64C164.511 6.448 164.527 6.288 164.559 6.16H163.839C163.807 6.024 163.791 5.864 163.791 5.68C163.791 5.488 163.807 5.328 163.839 5.2H165.039C165.071 5.328 165.087 5.488 165.087 5.68C165.087 5.864 165.071 6.024 165.039 6.16H165.519C165.487 6.024 165.471 5.864 165.471 5.68C165.471 5.488 165.487 5.328 165.519 5.2H167.319C167.351 5.328 167.367 5.488 167.367 5.68C167.367 5.864 167.351 6.024 167.319 6.16H167.679ZM172.532 5.68C172.532 5.864 172.516 6.024 172.484 6.16H172.124C172.156 6.288 172.172 6.448 172.172 6.64C172.172 6.824 172.156 6.984 172.124 7.12H171.764C171.796 7.248 171.812 7.408 171.812 7.6C171.812 7.784 171.796 7.944 171.764 8.08H171.524C171.556 8.208 171.572 8.368 171.572 8.56C171.572 8.744 171.556 8.904 171.524 9.04H171.164C171.196 9.168 171.212 9.328 171.212 9.52C171.212 9.704 171.196 9.864 171.164 10H170.924C170.956 10.128 170.972 10.288 170.972 10.48C170.972 10.664 170.956 10.824 170.924 10.96H170.444C170.476 11.088 170.492 11.248 170.492 11.44C170.492 11.624 170.476 11.784 170.444 11.92H169.004C168.972 11.784 168.956 11.624 168.956 11.44C168.956 11.248 168.972 11.088 169.004 10.96H169.964C169.932 10.824 169.916 10.664 169.916 10.48C169.916 10.288 169.932 10.128 169.964 10C169.932 9.864 169.916 9.704 169.916 9.52C169.916 9.328 169.932 9.168 169.964 9.04H169.484C169.452 8.904 169.436 8.744 169.436 8.56C169.436 8.368 169.452 8.208 169.484 8.08H169.244C169.212 7.944 169.196 7.784 169.196 7.6C169.196 7.408 169.212 7.248 169.244 7.12H168.884C168.852 6.984 168.836 6.824 168.836 6.64C168.836 6.448 168.852 6.288 168.884 6.16H168.524C168.492 6.024 168.476 5.864 168.476 5.68C168.476 5.488 168.492 5.328 168.524 5.2H169.484C169.516 5.328 169.532 5.488 169.532 5.68C169.532 5.864 169.516 6.024 169.484 6.16H169.844C169.876 6.288 169.892 6.448 169.892 6.64C169.892 6.824 169.876 6.984 169.844 7.12H170.204C170.236 7.248 170.252 7.408 170.252 7.6C170.252 7.784 170.236 7.944 170.204 8.08C170.236 8.208 170.252 8.368 170.252 8.56C170.252 8.744 170.236 8.904 170.204 9.04H170.564C170.532 8.904 170.516 8.744 170.516 8.56C170.516 8.368 170.532 8.208 170.564 8.08H170.804C170.772 7.944 170.756 7.784 170.756 7.6C170.756 7.408 170.772 7.248 170.804 7.12H171.164C171.132 6.984 171.116 6.824 171.116 6.64C171.116 6.448 171.132 6.288 171.164 6.16H171.524C171.492 6.024 171.476 5.864 171.476 5.68C171.476 5.488 171.492 5.328 171.524 5.2H172.484C172.516 5.328 172.532 5.488 172.532 5.68ZM177.337 7.6C177.337 7.784 177.321 7.944 177.289 8.08H176.809C176.841 8.208 176.857 8.368 176.857 8.56C176.857 8.744 176.841 8.904 176.809 9.04H176.329C176.361 9.168 176.377 9.328 176.377 9.52C176.377 9.704 176.361 9.864 176.329 10H174.409C174.441 10.128 174.457 10.288 174.457 10.48C174.457 10.664 174.441 10.824 174.409 10.96C174.441 11.088 174.457 11.248 174.457 11.44C174.457 11.624 174.441 11.784 174.409 11.92H173.449C173.417 11.784 173.401 11.624 173.401 11.44C173.401 11.248 173.417 11.088 173.449 10.96C173.417 10.824 173.401 10.664 173.401 10.48C173.401 10.288 173.417 10.128 173.449 10C173.417 9.864 173.401 9.704 173.401 9.52C173.401 9.328 173.417 9.168 173.449 9.04C173.417 8.904 173.401 8.744 173.401 8.56C173.401 8.368 173.417 8.208 173.449 8.08C173.417 7.944 173.401 7.784 173.401 7.6C173.401 7.408 173.417 7.248 173.449 7.12C173.417 6.984 173.401 6.824 173.401 6.64C173.401 6.448 173.417 6.288 173.449 6.16C173.417 6.024 173.401 5.864 173.401 5.68C173.401 5.488 173.417 5.328 173.449 5.2H174.409C174.441 5.328 174.457 5.488 174.457 5.68C174.457 5.864 174.441 6.024 174.409 6.16H174.889C174.921 6.288 174.937 6.448 174.937 6.64C174.937 6.824 174.921 6.984 174.889 7.12H174.409C174.441 7.248 174.457 7.408 174.457 7.6C174.457 7.784 174.441 7.944 174.409 8.08C174.441 8.208 174.457 8.368 174.457 8.56C174.457 8.744 174.441 8.904 174.409 9.04H175.849C175.817 8.904 175.801 8.744 175.801 8.56C175.801 8.368 175.817 8.208 175.849 8.08H176.329C176.297 7.944 176.281 7.784 176.281 7.6C176.281 7.408 176.297 7.248 176.329 7.12H175.849C175.817 6.984 175.801 6.824 175.801 6.64C175.801 6.448 175.817 6.288 175.849 6.16H174.889C174.857 6.024 174.841 5.864 174.841 5.68C174.841 5.488 174.857 5.328 174.889 5.2H176.329C176.361 5.328 176.377 5.488 176.377 5.68C176.377 5.864 176.361 6.024 176.329 6.16H176.809C176.841 6.288 176.857 6.448 176.857 6.64C176.857 6.824 176.841 6.984 176.809 7.12H177.289C177.321 7.248 177.337 7.408 177.337 7.6ZM181.613 9.04C181.645 9.168 181.661 9.328 181.661 9.52C181.661 9.704 181.645 9.864 181.613 10H179.693C179.661 9.864 179.645 9.704 179.645 9.52C179.645 9.328 179.661 9.168 179.693 9.04H179.213C179.181 8.904 179.165 8.744 179.165 8.56C179.165 8.368 179.181 8.208 179.213 8.08C179.181 7.944 179.165 7.784 179.165 7.6C179.165 7.408 179.181 7.248 179.213 7.12C179.181 6.984 179.165 6.824 179.165 6.64C179.165 6.448 179.181 6.288 179.213 6.16H178.253C178.221 6.024 178.205 5.864 178.205 5.68C178.205 5.488 178.221 5.328 178.253 5.2H179.213C179.181 5.064 179.165 4.904 179.165 4.72C179.165 4.528 179.181 4.368 179.213 4.24C179.181 4.104 179.165 3.944 179.165 3.76C179.165 3.568 179.181 3.408 179.213 3.28H180.173C180.205 3.408 180.221 3.568 180.221 3.76C180.221 3.944 180.205 4.104 180.173 4.24C180.205 4.368 180.221 4.528 180.221 4.72C180.221 4.904 180.205 5.064 180.173 5.2H181.613C181.645 5.328 181.661 5.488 181.661 5.68C181.661 5.864 181.645 6.024 181.613 6.16H180.173C180.205 6.288 180.221 6.448 180.221 6.64C180.221 6.824 180.205 6.984 180.173 7.12C180.205 7.248 180.221 7.408 180.221 7.6C180.221 7.784 180.205 7.944 180.173 8.08C180.205 8.208 180.221 8.368 180.221 8.56C180.221 8.744 180.205 8.904 180.173 9.04H181.613ZM186.946 6.64C186.946 6.824 186.93 6.984 186.898 7.12C186.93 7.248 186.946 7.408 186.946 7.6C186.946 7.784 186.93 7.944 186.898 8.08H184.378C184.41 8.208 184.426 8.368 184.426 8.56C184.426 8.744 184.41 8.904 184.378 9.04H186.418C186.45 9.168 186.466 9.328 186.466 9.52C186.466 9.704 186.45 9.864 186.418 10H184.018C183.986 9.864 183.97 9.704 183.97 9.52C183.97 9.328 183.986 9.168 184.018 9.04H183.418C183.386 8.904 183.37 8.744 183.37 8.56C183.37 8.368 183.386 8.208 183.418 8.08H183.058C183.026 7.944 183.01 7.784 183.01 7.6C183.01 7.408 183.026 7.248 183.058 7.12H183.418C183.386 6.984 183.37 6.824 183.37 6.64C183.37 6.448 183.386 6.288 183.418 6.16H184.018C183.986 6.024 183.97 5.864 183.97 5.68C183.97 5.488 183.986 5.328 184.018 5.2H186.418C186.45 5.328 186.466 5.488 186.466 5.68C186.466 5.864 186.45 6.024 186.418 6.16H186.898C186.93 6.288 186.946 6.448 186.946 6.64ZM185.938 7.12C185.906 6.984 185.89 6.824 185.89 6.64C185.89 6.448 185.906 6.288 185.938 6.16H184.378C184.41 6.288 184.426 6.448 184.426 6.64C184.426 6.824 184.41 6.984 184.378 7.12H185.938ZM191.703 4.24C191.735 4.368 191.751 4.528 191.751 4.72C191.751 4.904 191.735 5.064 191.703 5.2C191.735 5.328 191.751 5.488 191.751 5.68C191.751 5.864 191.735 6.024 191.703 6.16C191.735 6.288 191.751 6.448 191.751 6.64C191.751 6.824 191.735 6.984 191.703 7.12C191.735 7.248 191.751 7.408 191.751 7.6C191.751 7.784 191.735 7.944 191.703 8.08C191.735 8.208 191.751 8.368 191.751 8.56C191.751 8.744 191.735 8.904 191.703 9.04C191.735 9.168 191.751 9.328 191.751 9.52C191.751 9.704 191.735 9.864 191.703 10H190.743C190.711 9.864 190.695 9.704 190.695 9.52C190.695 9.328 190.711 9.168 190.743 9.04H190.383C190.351 8.904 190.335 8.744 190.335 8.56C190.335 8.368 190.351 8.208 190.383 8.08H190.743C190.711 7.944 190.695 7.784 190.695 7.6C190.695 7.408 190.711 7.248 190.743 7.12H190.383C190.351 6.984 190.335 6.824 190.335 6.64C190.335 6.448 190.351 6.288 190.383 6.16H190.743C190.711 6.024 190.695 5.864 190.695 5.68C190.695 5.488 190.711 5.328 190.743 5.2C190.711 5.064 190.695 4.904 190.695 4.72C190.695 4.528 190.711 4.368 190.743 4.24C190.711 4.104 190.695 3.944 190.695 3.76C190.695 3.568 190.711 3.408 190.743 3.28H191.703C191.735 3.408 191.751 3.568 191.751 3.76C191.751 3.944 191.735 4.104 191.703 4.24ZM190.191 5.68C190.191 5.864 190.175 6.024 190.143 6.16H188.943C188.975 6.288 188.991 6.448 188.991 6.64C188.991 6.824 188.975 6.984 188.943 7.12H188.583C188.615 7.248 188.631 7.408 188.631 7.6C188.631 7.784 188.615 7.944 188.583 8.08H188.943C188.975 8.208 188.991 8.368 188.991 8.56C188.991 8.744 188.975 8.904 188.943 9.04H190.143C190.175 9.168 190.191 9.328 190.191 9.52C190.191 9.704 190.175 9.864 190.143 10H188.823C188.791 9.864 188.775 9.704 188.775 9.52C188.775 9.328 188.791 9.168 188.823 9.04H188.223C188.191 8.904 188.175 8.744 188.175 8.56C188.175 8.368 188.191 8.208 188.223 8.08H187.863C187.831 7.944 187.815 7.784 187.815 7.6C187.815 7.408 187.831 7.248 187.863 7.12H188.223C188.191 6.984 188.175 6.824 188.175 6.64C188.175 6.448 188.191 6.288 188.223 6.16H188.823C188.791 6.024 188.775 5.864 188.775 5.68C188.775 5.488 188.791 5.328 188.823 5.2H190.143C190.175 5.328 190.191 5.488 190.191 5.68ZM195.236 8.56C195.236 8.744 195.22 8.904 195.188 9.04C195.22 9.168 195.236 9.328 195.236 9.52C195.236 9.704 195.22 9.864 195.188 10H193.988C193.956 9.864 193.94 9.704 193.94 9.52C193.94 9.328 193.956 9.168 193.988 9.04C193.956 8.904 193.94 8.744 193.94 8.56C193.94 8.368 193.956 8.208 193.988 8.08H195.188C195.22 8.208 195.236 8.368 195.236 8.56Z" fill="#FF5555"/>
</g>
<defs>
<clipPath id="clip0_324_66">
<rect width="366" height="12" fill="white"/>
</clipPath>
</defs>
</svg>
