<svg width="366" height="12" viewBox="0 0 366 12" fill="none" xmlns="http://www.w3.org/2000/svg">
<g clip-path="url(#clip0_324_66)">
<path d="M3.84 9.04C3.872 9.168 3.888 9.328 3.888 9.52C3.888 9.704 3.872 9.864 3.84 10H0.96C0.928 9.864 0.912 9.704 0.912 9.52C0.912 9.328 0.928 9.168 0.96 9.04H1.92C1.888 8.904 1.872 8.744 1.872 8.56C1.872 8.368 1.888 8.208 1.92 8.08C1.888 7.944 1.872 7.784 1.872 7.6C1.872 7.408 1.888 7.248 1.92 7.12C1.888 6.984 1.872 6.824 1.872 6.64C1.872 6.448 1.888 6.288 1.92 6.16C1.888 6.024 1.872 5.864 1.872 5.68C1.872 5.488 1.888 5.328 1.92 5.2H1.2C1.168 5.064 1.152 4.904 1.152 4.72C1.152 4.528 1.168 4.368 1.2 4.24H1.92C1.888 4.104 1.872 3.944 1.872 3.76C1.872 3.568 1.888 3.408 1.92 3.28H2.88C2.912 3.408 2.928 3.568 2.928 3.76C2.928 3.944 2.912 4.104 2.88 4.24C2.912 4.368 2.928 4.528 2.928 4.72C2.928 4.904 2.912 5.064 2.88 5.2C2.912 5.328 2.928 5.488 2.928 5.68C2.928 5.864 2.912 6.024 2.88 6.16C2.912 6.288 2.928 6.448 2.928 6.64C2.928 6.824 2.912 6.984 2.88 7.12C2.912 7.248 2.928 7.408 2.928 7.6C2.928 7.784 2.912 7.944 2.88 8.08C2.912 8.208 2.928 8.368 2.928 8.56C2.928 8.744 2.912 8.904 2.88 9.04H3.84ZM7.85269 8.56C7.85269 8.744 7.83669 8.904 7.80469 9.04C7.83669 9.168 7.85269 9.328 7.85269 9.52C7.85269 9.704 7.83669 9.864 7.80469 10H6.60469C6.57269 9.864 6.55669 9.704 6.55669 9.52C6.55669 9.328 6.57269 9.168 6.60469 9.04C6.57269 8.904 6.55669 8.744 6.55669 8.56C6.55669 8.368 6.57269 8.208 6.60469 8.08H7.80469C7.83669 8.208 7.85269 8.368 7.85269 8.56ZM18.7341 7.12C18.7661 7.248 18.7821 7.408 18.7821 7.6C18.7821 7.784 18.7661 7.944 18.7341 8.08C18.7661 8.208 18.7821 8.368 18.7821 8.56C18.7821 8.744 18.7661 8.904 18.7341 9.04H18.2541C18.2861 9.168 18.3021 9.328 18.3021 9.52C18.3021 9.704 18.2861 9.864 18.2541 10H15.3741C15.3421 9.864 15.3261 9.704 15.3261 9.52C15.3261 9.328 15.3421 9.168 15.3741 9.04H14.8941C14.8621 8.904 14.8461 8.744 14.8461 8.56C14.8461 8.368 14.8621 8.208 14.8941 8.08H15.8541C15.8861 8.208 15.9021 8.368 15.9021 8.56C15.9021 8.744 15.8861 8.904 15.8541 9.04H17.7741C17.7421 8.904 17.7261 8.744 17.7261 8.56C17.7261 8.368 17.7421 8.208 17.7741 8.08C17.7421 7.944 17.7261 7.784 17.7261 7.6C17.7261 7.408 17.7421 7.248 17.7741 7.12H15.3741C15.3421 6.984 15.3261 6.824 15.3261 6.64C15.3261 6.448 15.3421 6.288 15.3741 6.16H14.8941C14.8621 6.024 14.8461 5.864 14.8461 5.68C14.8461 5.488 14.8621 5.328 14.8941 5.2C14.8621 5.064 14.8461 4.904 14.8461 4.72C14.8461 4.528 14.8621 4.368 14.8941 4.24H15.3741C15.3421 4.104 15.3261 3.944 15.3261 3.76C15.3261 3.568 15.3421 3.408 15.3741 3.28H18.2541C18.2861 3.408 18.3021 3.568 18.3021 3.76C18.3021 3.944 18.2861 4.104 18.2541 4.24H18.7341C18.7661 4.368 18.7821 4.528 18.7821 4.72C18.7821 4.904 18.7661 5.064 18.7341 5.2H17.7741C17.7421 5.064 17.7261 4.904 17.7261 4.72C17.7261 4.528 17.7421 4.368 17.7741 4.24H15.8541C15.8861 4.368 15.9021 4.528 15.9021 4.72C15.9021 4.904 15.8861 5.064 15.8541 5.2C15.8861 5.328 15.9021 5.488 15.9021 5.68C15.9021 5.864 15.8861 6.024 15.8541 6.16H18.2541C18.2861 6.288 18.3021 6.448 18.3021 6.64C18.3021 6.824 18.2861 6.984 18.2541 7.12H18.7341ZM23.5868 6.64C23.5868 6.824 23.5708 6.984 23.5388 7.12C23.5708 7.248 23.5868 7.408 23.5868 7.6C23.5868 7.784 23.5708 7.944 23.5388 8.08H21.0188C21.0508 8.208 21.0668 8.368 21.0668 8.56C21.0668 8.744 21.0508 8.904 21.0188 9.04H23.0588C23.0908 9.168 23.1068 9.328 23.1068 9.52C23.1068 9.704 23.0908 9.864 23.0588 10H20.6588C20.6268 9.864 20.6108 9.704 20.6108 9.52C20.6108 9.328 20.6268 9.168 20.6588 9.04H20.0588C20.0267 8.904 20.0107 8.744 20.0107 8.56C20.0107 8.368 20.0267 8.208 20.0588 8.08H19.6988C19.6668 7.944 19.6508 7.784 19.6508 7.6C19.6508 7.408 19.6668 7.248 19.6988 7.12H20.0588C20.0267 6.984 20.0107 6.824 20.0107 6.64C20.0107 6.448 20.0267 6.288 20.0588 6.16H20.6588C20.6268 6.024 20.6108 5.864 20.6108 5.68C20.6108 5.488 20.6268 5.328 20.6588 5.2H23.0588C23.0908 5.328 23.1068 5.488 23.1068 5.68C23.1068 5.864 23.0908 6.024 23.0588 6.16H23.5388C23.5708 6.288 23.5868 6.448 23.5868 6.64ZM22.5788 7.12C22.5468 6.984 22.5308 6.824 22.5308 6.64C22.5308 6.448 22.5468 6.288 22.5788 6.16H21.0188C21.0508 6.288 21.0668 6.448 21.0668 6.64C21.0668 6.824 21.0508 6.984 21.0188 7.12H22.5788ZM25.3914 5.68C25.3914 5.864 25.3754 6.024 25.3434 6.16H25.8234C25.8554 6.288 25.8714 6.448 25.8714 6.64C25.8714 6.824 25.8554 6.984 25.8234 7.12H25.4634C25.4954 7.248 25.5114 7.408 25.5114 7.6C25.5114 7.784 25.4954 7.944 25.4634 8.08C25.4954 8.208 25.5114 8.368 25.5114 8.56C25.5114 8.744 25.4954 8.904 25.4634 9.04C25.4954 9.168 25.5114 9.328 25.5114 9.52C25.5114 9.704 25.4954 9.864 25.4634 10H24.5034C24.4714 9.864 24.4554 9.704 24.4554 9.52C24.4554 9.328 24.4714 9.168 24.5034 9.04C24.4714 8.904 24.4554 8.744 24.4554 8.56C24.4554 8.368 24.4714 8.208 24.5034 8.08C24.4714 7.944 24.4554 7.784 24.4554 7.6C24.4554 7.408 24.4714 7.248 24.5034 7.12C24.4714 6.984 24.4554 6.824 24.4554 6.64C24.4554 6.448 24.4714 6.288 24.5034 6.16C24.4714 6.024 24.4554 5.864 24.4554 5.68C24.4554 5.488 24.4714 5.328 24.5034 5.2H25.3434C25.3754 5.328 25.3914 5.488 25.3914 5.68ZM28.3434 7.12C28.3754 7.248 28.3914 7.408 28.3914 7.6C28.3914 7.784 28.3754 7.944 28.3434 8.08C28.3754 8.208 28.3914 8.368 28.3914 8.56C28.3914 8.744 28.3754 8.904 28.3434 9.04C28.3754 9.168 28.3914 9.328 28.3914 9.52C28.3914 9.704 28.3754 9.864 28.3434 10H27.3834C27.3514 9.864 27.3354 9.704 27.3354 9.52C27.3354 9.328 27.3514 9.168 27.3834 9.04C27.3514 8.904 27.3354 8.744 27.3354 8.56C27.3354 8.368 27.3514 8.208 27.3834 8.08C27.3514 7.944 27.3354 7.784 27.3354 7.6C27.3354 7.408 27.3514 7.248 27.3834 7.12C27.3514 6.984 27.3354 6.824 27.3354 6.64C27.3354 6.448 27.3514 6.288 27.3834 6.16H25.8234C25.7914 6.024 25.7754 5.864 25.7754 5.68C25.7754 5.488 25.7914 5.328 25.8234 5.2H27.7434C27.7754 5.328 27.7914 5.488 27.7914 5.68C27.7914 5.864 27.7754 6.024 27.7434 6.16H28.3434C28.3754 6.288 28.3914 6.448 28.3914 6.64C28.3914 6.824 28.3754 6.984 28.3434 7.12ZM33.1481 4.24C33.1801 4.368 33.1961 4.528 33.1961 4.72C33.1961 4.904 33.1801 5.064 33.1481 5.2C33.1801 5.328 33.1961 5.488 33.1961 5.68C33.1961 5.864 33.1801 6.024 33.1481 6.16C33.1801 6.288 33.1961 6.448 33.1961 6.64C33.1961 6.824 33.1801 6.984 33.1481 7.12C33.1801 7.248 33.1961 7.408 33.1961 7.6C33.1961 7.784 33.1801 7.944 33.1481 8.08C33.1801 8.208 33.1961 8.368 33.1961 8.56C33.1961 8.744 33.1801 8.904 33.1481 9.04C33.1801 9.168 33.1961 9.328 33.1961 9.52C33.1961 9.704 33.1801 9.864 33.1481 10H32.1881C32.1561 9.864 32.1401 9.704 32.1401 9.52C32.1401 9.328 32.1561 9.168 32.1881 9.04H31.8281C31.7961 8.904 31.7801 8.744 31.7801 8.56C31.7801 8.368 31.7961 8.208 31.8281 8.08H32.1881C32.1561 7.944 32.1401 7.784 32.1401 7.6C32.1401 7.408 32.1561 7.248 32.1881 7.12H31.8281C31.7961 6.984 31.7801 6.824 31.7801 6.64C31.7801 6.448 31.7961 6.288 31.8281 6.16H32.1881C32.1561 6.024 32.1401 5.864 32.1401 5.68C32.1401 5.488 32.1561 5.328 32.1881 5.2C32.1561 5.064 32.1401 4.904 32.1401 4.72C32.1401 4.528 32.1561 4.368 32.1881 4.24C32.1561 4.104 32.1401 3.944 32.1401 3.76C32.1401 3.568 32.1561 3.408 32.1881 3.28H33.1481C33.1801 3.408 33.1961 3.568 33.1961 3.76C33.1961 3.944 33.1801 4.104 33.1481 4.24ZM31.6361 5.68C31.6361 5.864 31.6201 6.024 31.5881 6.16H30.3881C30.4201 6.288 30.4361 6.448 30.4361 6.64C30.4361 6.824 30.4201 6.984 30.3881 7.12H30.0281C30.0601 7.248 30.0761 7.408 30.0761 7.6C30.0761 7.784 30.0601 7.944 30.0281 8.08H30.3881C30.4201 8.208 30.4361 8.368 30.4361 8.56C30.4361 8.744 30.4201 8.904 30.3881 9.04H31.5881C31.6201 9.168 31.6361 9.328 31.6361 9.52C31.6361 9.704 31.6201 9.864 31.5881 10H30.2681C30.2361 9.864 30.2201 9.704 30.2201 9.52C30.2201 9.328 30.2361 9.168 30.2681 9.04H29.6681C29.6361 8.904 29.6201 8.744 29.6201 8.56C29.6201 8.368 29.6361 8.208 29.6681 8.08H29.3081C29.2761 7.944 29.2601 7.784 29.2601 7.6C29.2601 7.408 29.2761 7.248 29.3081 7.12H29.6681C29.6361 6.984 29.6201 6.824 29.6201 6.64C29.6201 6.448 29.6361 6.288 29.6681 6.16H30.2681C30.2361 6.024 30.2201 5.864 30.2201 5.68C30.2201 5.488 30.2361 5.328 30.2681 5.2H31.5881C31.6201 5.328 31.6361 5.488 31.6361 5.68ZM42.7575 7.12C42.7895 7.248 42.8055 7.408 42.8055 7.6C42.8055 7.784 42.7895 7.944 42.7575 8.08C42.7895 8.208 42.8055 8.368 42.8055 8.56C42.8055 8.744 42.7895 8.904 42.7575 9.04H42.2775C42.3095 9.168 42.3255 9.328 42.3255 9.52C42.3255 9.704 42.3095 9.864 42.2775 10H41.1975C41.2295 10.128 41.2455 10.288 41.2455 10.48C41.2455 10.664 41.2295 10.824 41.1975 10.96H40.4775C40.4455 10.824 40.4295 10.664 40.4295 10.48C40.4295 10.288 40.4455 10.128 40.4775 10H39.3975C39.3655 9.864 39.3495 9.704 39.3495 9.52C39.3495 9.328 39.3655 9.168 39.3975 9.04H38.9175C38.8855 8.904 38.8695 8.744 38.8695 8.56C38.8695 8.368 38.8855 8.208 38.9175 8.08H39.8775C39.9095 8.208 39.9255 8.368 39.9255 8.56C39.9255 8.744 39.9095 8.904 39.8775 9.04H40.4775C40.4455 8.904 40.4295 8.744 40.4295 8.56C40.4295 8.368 40.4455 8.208 40.4775 8.08C40.4455 7.944 40.4295 7.784 40.4295 7.6C40.4295 7.408 40.4455 7.248 40.4775 7.12H39.3975C39.3655 6.984 39.3495 6.824 39.3495 6.64C39.3495 6.448 39.3655 6.288 39.3975 6.16H38.9175C38.8855 6.024 38.8695 5.864 38.8695 5.68C38.8695 5.488 38.8855 5.328 38.9175 5.2C38.8855 5.064 38.8695 4.904 38.8695 4.72C38.8695 4.528 38.8855 4.368 38.9175 4.24H39.3975C39.3655 4.104 39.3495 3.944 39.3495 3.76C39.3495 3.568 39.3655 3.408 39.3975 3.28H40.4775C40.4455 3.144 40.4295 2.984 40.4295 2.8C40.4295 2.608 40.4455 2.448 40.4775 2.32H41.1975C41.2295 2.448 41.2455 2.608 41.2455 2.8C41.2455 2.984 41.2295 3.144 41.1975 3.28H42.2775C42.3095 3.408 42.3255 3.568 42.3255 3.76C42.3255 3.944 42.3095 4.104 42.2775 4.24H42.7575C42.7895 4.368 42.8055 4.528 42.8055 4.72C42.8055 4.904 42.7895 5.064 42.7575 5.2H41.7975C41.7655 5.064 41.7495 4.904 41.7495 4.72C41.7495 4.528 41.7655 4.368 41.7975 4.24H41.1975C41.2295 4.368 41.2455 4.528 41.2455 4.72C41.2455 4.904 41.2295 5.064 41.1975 5.2C41.2295 5.328 41.2455 5.488 41.2455 5.68C41.2455 5.864 41.2295 6.024 41.1975 6.16H42.2775C42.3095 6.288 42.3255 6.448 42.3255 6.64C42.3255 6.824 42.3095 6.984 42.2775 7.12H42.7575ZM40.4775 6.16C40.4455 6.024 40.4295 5.864 40.4295 5.68C40.4295 5.488 40.4455 5.328 40.4775 5.2C40.4455 5.064 40.4295 4.904 40.4295 4.72C40.4295 4.528 40.4455 4.368 40.4775 4.24H39.8775C39.9095 4.368 39.9255 4.528 39.9255 4.72C39.9255 4.904 39.9095 5.064 39.8775 5.2C39.9095 5.328 39.9255 5.488 39.9255 5.68C39.9255 5.864 39.9095 6.024 39.8775 6.16H40.4775ZM41.7975 9.04C41.7655 8.904 41.7495 8.744 41.7495 8.56C41.7495 8.368 41.7655 8.208 41.7975 8.08C41.7655 7.944 41.7495 7.784 41.7495 7.6C41.7495 7.408 41.7655 7.248 41.7975 7.12H41.1975C41.2295 7.248 41.2455 7.408 41.2455 7.6C41.2455 7.784 41.2295 7.944 41.1975 8.08C41.2295 8.208 41.2455 8.368 41.2455 8.56C41.2455 8.744 41.2295 8.904 41.1975 9.04H41.7975ZM47.3702 5.68C47.3702 5.864 47.3542 6.024 47.3222 6.16H46.8422C46.8742 6.288 46.8902 6.448 46.8902 6.64C46.8902 6.824 46.8742 6.984 46.8422 7.12H47.3222C47.3542 7.248 47.3702 7.408 47.3702 7.6C47.3702 7.784 47.3542 7.944 47.3222 8.08C47.3542 8.208 47.3702 8.368 47.3702 8.56C47.3702 8.744 47.3542 8.904 47.3222 9.04H46.8422C46.8742 9.168 46.8902 9.328 46.8902 9.52C46.8902 9.704 46.8742 9.864 46.8422 10H44.4422C44.4102 9.864 44.3942 9.704 44.3942 9.52C44.3942 9.328 44.4102 9.168 44.4422 9.04H43.9622C43.9302 8.904 43.9142 8.744 43.9142 8.56C43.9142 8.368 43.9302 8.208 43.9622 8.08H44.9222C44.9542 8.208 44.9702 8.368 44.9702 8.56C44.9702 8.744 44.9542 8.904 44.9222 9.04H46.3622C46.3302 8.904 46.3142 8.744 46.3142 8.56C46.3142 8.368 46.3302 8.208 46.3622 8.08C46.3302 7.944 46.3142 7.784 46.3142 7.6C46.3142 7.408 46.3302 7.248 46.3622 7.12H45.1622C45.1302 6.984 45.1142 6.824 45.1142 6.64C45.1142 6.448 45.1302 6.288 45.1622 6.16H46.3622C46.3302 6.024 46.3142 5.864 46.3142 5.68C46.3142 5.488 46.3302 5.328 46.3622 5.2C46.3302 5.064 46.3142 4.904 46.3142 4.72C46.3142 4.528 46.3302 4.368 46.3622 4.24H44.9222C44.9542 4.368 44.9702 4.528 44.9702 4.72C44.9702 4.904 44.9542 5.064 44.9222 5.2H43.9622C43.9302 5.064 43.9142 4.904 43.9142 4.72C43.9142 4.528 43.9302 4.368 43.9622 4.24H44.4422C44.4102 4.104 44.3942 3.944 44.3942 3.76C44.3942 3.568 44.4102 3.408 44.4422 3.28H46.8422C46.8742 3.408 46.8902 3.568 46.8902 3.76C46.8902 3.944 46.8742 4.104 46.8422 4.24H47.3222C47.3542 4.368 47.3702 4.528 47.3702 4.72C47.3702 4.904 47.3542 5.064 47.3222 5.2C47.3542 5.328 47.3702 5.488 47.3702 5.68ZM51.0949 3.76C51.0949 3.944 51.0789 4.104 51.0469 4.24H49.8469C49.8149 4.104 49.7989 3.944 49.7989 3.76C49.7989 3.568 49.8149 3.408 49.8469 3.28H51.0469C51.0789 3.408 51.0949 3.568 51.0949 3.76ZM49.8469 8.08C49.8789 8.208 49.8949 8.368 49.8949 8.56C49.8949 8.744 49.8789 8.904 49.8469 9.04H49.2469C49.2149 8.904 49.1989 8.744 49.1989 8.56C49.1989 8.368 49.2149 8.208 49.2469 8.08H48.8869C48.8549 7.944 48.8389 7.784 48.8389 7.6C48.8389 7.408 48.8549 7.248 48.8869 7.12C48.8549 6.984 48.8389 6.824 48.8389 6.64C48.8389 6.448 48.8549 6.288 48.8869 6.16C48.8549 6.024 48.8389 5.864 48.8389 5.68C48.8389 5.488 48.8549 5.328 48.8869 5.2H49.2469C49.2149 5.064 49.1989 4.904 49.1989 4.72C49.1989 4.528 49.2149 4.368 49.2469 4.24H49.8469C49.8789 4.368 49.8949 4.528 49.8949 4.72C49.8949 4.904 49.8789 5.064 49.8469 5.2C49.8789 5.328 49.8949 5.488 49.8949 5.68C49.8949 5.864 49.8789 6.024 49.8469 6.16C49.8789 6.288 49.8949 6.448 49.8949 6.64C49.8949 6.824 49.8789 6.984 49.8469 7.12C49.8789 7.248 49.8949 7.408 49.8949 7.6C49.8949 7.784 49.8789 7.944 49.8469 8.08ZM52.0069 6.16C52.0389 6.288 52.0549 6.448 52.0549 6.64C52.0549 6.824 52.0389 6.984 52.0069 7.12C52.0389 7.248 52.0549 7.408 52.0549 7.6C52.0549 7.784 52.0389 7.944 52.0069 8.08H51.6469C51.6789 8.208 51.6949 8.368 51.6949 8.56C51.6949 8.744 51.6789 8.904 51.6469 9.04H51.0469C51.0149 8.904 50.9989 8.744 50.9989 8.56C50.9989 8.368 51.0149 8.208 51.0469 8.08C51.0149 7.944 50.9989 7.784 50.9989 7.6C50.9989 7.408 51.0149 7.248 51.0469 7.12C51.0149 6.984 50.9989 6.824 50.9989 6.64C50.9989 6.448 51.0149 6.288 51.0469 6.16C51.0149 6.024 50.9989 5.864 50.9989 5.68C50.9989 5.488 51.0149 5.328 51.0469 5.2C51.0149 5.064 50.9989 4.904 50.9989 4.72C50.9989 4.528 51.0149 4.368 51.0469 4.24H51.6469C51.6789 4.368 51.6949 4.528 51.6949 4.72C51.6949 4.904 51.6789 5.064 51.6469 5.2H52.0069C52.0389 5.328 52.0549 5.488 52.0549 5.68C52.0549 5.864 52.0389 6.024 52.0069 6.16ZM49.7989 9.52C49.7989 9.328 49.8149 9.168 49.8469 9.04H51.0469C51.0789 9.168 51.0949 9.328 51.0949 9.52C51.0949 9.704 51.0789 9.864 51.0469 10H49.8469C49.8149 9.864 49.7989 9.704 49.7989 9.52ZM55.8996 3.76C55.8996 3.944 55.8836 4.104 55.8516 4.24H54.6516C54.6196 4.104 54.6036 3.944 54.6036 3.76C54.6036 3.568 54.6196 3.408 54.6516 3.28H55.8516C55.8836 3.408 55.8996 3.568 55.8996 3.76ZM54.6516 8.08C54.6836 8.208 54.6996 8.368 54.6996 8.56C54.6996 8.744 54.6836 8.904 54.6516 9.04H54.0516C54.0196 8.904 54.0036 8.744 54.0036 8.56C54.0036 8.368 54.0196 8.208 54.0516 8.08H53.6916C53.6596 7.944 53.6436 7.784 53.6436 7.6C53.6436 7.408 53.6596 7.248 53.6916 7.12C53.6596 6.984 53.6436 6.824 53.6436 6.64C53.6436 6.448 53.6596 6.288 53.6916 6.16C53.6596 6.024 53.6436 5.864 53.6436 5.68C53.6436 5.488 53.6596 5.328 53.6916 5.2H54.0516C54.0196 5.064 54.0036 4.904 54.0036 4.72C54.0036 4.528 54.0196 4.368 54.0516 4.24H54.6516C54.6836 4.368 54.6996 4.528 54.6996 4.72C54.6996 4.904 54.6836 5.064 54.6516 5.2C54.6836 5.328 54.6996 5.488 54.6996 5.68C54.6996 5.864 54.6836 6.024 54.6516 6.16C54.6836 6.288 54.6996 6.448 54.6996 6.64C54.6996 6.824 54.6836 6.984 54.6516 7.12C54.6836 7.248 54.6996 7.408 54.6996 7.6C54.6996 7.784 54.6836 7.944 54.6516 8.08ZM56.8116 6.16C56.8436 6.288 56.8596 6.448 56.8596 6.64C56.8596 6.824 56.8436 6.984 56.8116 7.12C56.8436 7.248 56.8596 7.408 56.8596 7.6C56.8596 7.784 56.8436 7.944 56.8116 8.08H56.4516C56.4836 8.208 56.4996 8.368 56.4996 8.56C56.4996 8.744 56.4836 8.904 56.4516 9.04H55.8516C55.8196 8.904 55.8036 8.744 55.8036 8.56C55.8036 8.368 55.8196 8.208 55.8516 8.08C55.8196 7.944 55.8036 7.784 55.8036 7.6C55.8036 7.408 55.8196 7.248 55.8516 7.12C55.8196 6.984 55.8036 6.824 55.8036 6.64C55.8036 6.448 55.8196 6.288 55.8516 6.16C55.8196 6.024 55.8036 5.864 55.8036 5.68C55.8036 5.488 55.8196 5.328 55.8516 5.2C55.8196 5.064 55.8036 4.904 55.8036 4.72C55.8036 4.528 55.8196 4.368 55.8516 4.24H56.4516C56.4836 4.368 56.4996 4.528 56.4996 4.72C56.4996 4.904 56.4836 5.064 56.4516 5.2H56.8116C56.8436 5.328 56.8596 5.488 56.8596 5.68C56.8596 5.864 56.8436 6.024 56.8116 6.16ZM54.6036 9.52C54.6036 9.328 54.6196 9.168 54.6516 9.04H55.8516C55.8836 9.168 55.8996 9.328 55.8996 9.52C55.8996 9.704 55.8836 9.864 55.8516 10H54.6516C54.6196 9.864 54.6036 9.704 54.6036 9.52ZM66.8289 5.68C66.8289 5.864 66.8129 6.024 66.7809 6.16C66.8129 6.288 66.8289 6.448 66.8289 6.64C66.8289 6.824 66.8129 6.984 66.7809 7.12H66.4209C66.4529 7.248 66.4689 7.408 66.4689 7.6C66.4689 7.784 66.4529 7.944 66.4209 8.08C66.4529 8.208 66.4689 8.368 66.4689 8.56C66.4689 8.744 66.4529 8.904 66.4209 9.04H66.1809C66.2129 9.168 66.2289 9.328 66.2289 9.52C66.2289 9.704 66.2129 9.864 66.1809 10H65.4609C65.4289 9.864 65.4129 9.704 65.4129 9.52C65.4129 9.328 65.4289 9.168 65.4609 9.04H65.2209C65.1889 8.904 65.1729 8.744 65.1729 8.56C65.1729 8.368 65.1889 8.208 65.2209 8.08H64.5009C64.5329 8.208 64.5489 8.368 64.5489 8.56C64.5489 8.744 64.5329 8.904 64.5009 9.04H64.2609C64.2929 9.168 64.3089 9.328 64.3089 9.52C64.3089 9.704 64.2929 9.864 64.2609 10H63.5409C63.5089 9.864 63.4929 9.704 63.4929 9.52C63.4929 9.328 63.5089 9.168 63.5409 9.04H63.3009C63.2689 8.904 63.2529 8.744 63.2529 8.56C63.2529 8.368 63.2689 8.208 63.3009 8.08C63.2689 7.944 63.2529 7.784 63.2529 7.6C63.2529 7.408 63.2689 7.248 63.3009 7.12H62.9409C62.9089 6.984 62.8929 6.824 62.8929 6.64C62.8929 6.448 62.9089 6.288 62.9409 6.16C62.9089 6.024 62.8929 5.864 62.8929 5.68C62.8929 5.488 62.9089 5.328 62.9409 5.2H63.9009C63.9329 5.328 63.9489 5.488 63.9489 5.68C63.9489 5.864 63.9329 6.024 63.9009 6.16C63.9329 6.288 63.9489 6.448 63.9489 6.64C63.9489 6.824 63.9329 6.984 63.9009 7.12C63.9329 7.248 63.9489 7.408 63.9489 7.6C63.9489 7.784 63.9329 7.944 63.9009 8.08H64.2609C64.2289 7.944 64.2129 7.784 64.2129 7.6C64.2129 7.408 64.2289 7.248 64.2609 7.12H64.5009C64.4689 6.984 64.4529 6.824 64.4529 6.64C64.4529 6.448 64.4689 6.288 64.5009 6.16C64.4689 6.024 64.4529 5.864 64.4529 5.68C64.4529 5.488 64.4689 5.328 64.5009 5.2H65.2209C65.2529 5.328 65.2689 5.488 65.2689 5.68C65.2689 5.864 65.2529 6.024 65.2209 6.16C65.2529 6.288 65.2689 6.448 65.2689 6.64C65.2689 6.824 65.2529 6.984 65.2209 7.12H65.4609C65.4929 7.248 65.5089 7.408 65.5089 7.6C65.5089 7.784 65.4929 7.944 65.4609 8.08H65.8209C65.7889 7.944 65.7729 7.784 65.7729 7.6C65.7729 7.408 65.7889 7.248 65.8209 7.12C65.7889 6.984 65.7729 6.824 65.7729 6.64C65.7729 6.448 65.7889 6.288 65.8209 6.16C65.7889 6.024 65.7729 5.864 65.7729 5.68C65.7729 5.488 65.7889 5.328 65.8209 5.2H66.7809C66.8129 5.328 66.8289 5.488 66.8289 5.68ZM71.6336 7.6C71.6336 7.784 71.6176 7.944 71.5856 8.08H71.2256C71.2576 8.208 71.2736 8.368 71.2736 8.56C71.2736 8.744 71.2576 8.904 71.2256 9.04H70.6256C70.6576 9.168 70.6736 9.328 70.6736 9.52C70.6736 9.704 70.6576 9.864 70.6256 10H68.7056C68.6736 9.864 68.6576 9.704 68.6576 9.52C68.6576 9.328 68.6736 9.168 68.7056 9.04H68.1056C68.0736 8.904 68.0576 8.744 68.0576 8.56C68.0576 8.368 68.0736 8.208 68.1056 8.08H67.7456C67.7136 7.944 67.6976 7.784 67.6976 7.6C67.6976 7.408 67.7136 7.248 67.7456 7.12H68.1056C68.0736 6.984 68.0576 6.824 68.0576 6.64C68.0576 6.448 68.0736 6.288 68.1056 6.16H68.7056C68.6736 6.024 68.6576 5.864 68.6576 5.68C68.6576 5.488 68.6736 5.328 68.7056 5.2H70.6256C70.6576 5.328 70.6736 5.488 70.6736 5.68C70.6736 5.864 70.6576 6.024 70.6256 6.16H71.2256C71.2576 6.288 71.2736 6.448 71.2736 6.64C71.2736 6.824 71.2576 6.984 71.2256 7.12H71.5856C71.6176 7.248 71.6336 7.408 71.6336 7.6ZM70.6256 8.08C70.5936 7.944 70.5776 7.784 70.5776 7.6C70.5776 7.408 70.5936 7.248 70.6256 7.12H70.2656C70.2336 6.984 70.2176 6.824 70.2176 6.64C70.2176 6.448 70.2336 6.288 70.2656 6.16H69.0656C69.0976 6.288 69.1136 6.448 69.1136 6.64C69.1136 6.824 69.0976 6.984 69.0656 7.12H68.7056C68.7376 7.248 68.7536 7.408 68.7536 7.6C68.7536 7.784 68.7376 7.944 68.7056 8.08H69.0656C69.0976 8.208 69.1136 8.368 69.1136 8.56C69.1136 8.744 69.0976 8.904 69.0656 9.04H70.2656C70.2336 8.904 70.2176 8.744 70.2176 8.56C70.2176 8.368 70.2336 8.208 70.2656 8.08H70.6256ZM76.3903 6.16C76.4223 6.288 76.4383 6.448 76.4383 6.64C76.4383 6.824 76.4223 6.984 76.3903 7.12H75.4303C75.3983 6.984 75.3823 6.824 75.3823 6.64C75.3823 6.448 75.3983 6.288 75.4303 6.16H74.5903C74.6223 6.288 74.6383 6.448 74.6383 6.64C74.6383 6.824 74.6223 6.984 74.5903 7.12H74.2303C74.2623 7.248 74.2783 7.408 74.2783 7.6C74.2783 7.784 74.2623 7.944 74.2303 8.08C74.2623 8.208 74.2783 8.368 74.2783 8.56C74.2783 8.744 74.2623 8.904 74.2303 9.04H74.9503C74.9823 9.168 74.9983 9.328 74.9983 9.52C74.9983 9.704 74.9823 9.864 74.9503 10H72.5503C72.5183 9.864 72.5023 9.704 72.5023 9.52C72.5023 9.328 72.5183 9.168 72.5503 9.04H73.2703C73.2383 8.904 73.2223 8.744 73.2223 8.56C73.2223 8.368 73.2383 8.208 73.2703 8.08C73.2383 7.944 73.2223 7.784 73.2223 7.6C73.2223 7.408 73.2383 7.248 73.2703 7.12C73.2383 6.984 73.2223 6.824 73.2223 6.64C73.2223 6.448 73.2383 6.288 73.2703 6.16H72.5503C72.5183 6.024 72.5023 5.864 72.5023 5.68C72.5023 5.488 72.5183 5.328 72.5503 5.2H73.7503C73.7823 5.328 73.7983 5.488 73.7983 5.68C73.7983 5.864 73.7823 6.024 73.7503 6.16H74.2303C74.1983 6.024 74.1823 5.864 74.1823 5.68C74.1823 5.488 74.1983 5.328 74.2303 5.2H76.0303C76.0623 5.328 76.0783 5.488 76.0783 5.68C76.0783 5.864 76.0623 6.024 76.0303 6.16H76.3903ZM80.715 9.04C80.747 9.168 80.763 9.328 80.763 9.52C80.763 9.704 80.747 9.864 80.715 10H78.795C78.763 9.864 78.747 9.704 78.747 9.52C78.747 9.328 78.763 9.168 78.795 9.04H78.315C78.283 8.904 78.267 8.744 78.267 8.56C78.267 8.368 78.283 8.208 78.315 8.08C78.283 7.944 78.267 7.784 78.267 7.6C78.267 7.408 78.283 7.248 78.315 7.12C78.283 6.984 78.267 6.824 78.267 6.64C78.267 6.448 78.283 6.288 78.315 6.16H77.355C77.323 6.024 77.307 5.864 77.307 5.68C77.307 5.488 77.323 5.328 77.355 5.2H78.315C78.283 5.064 78.267 4.904 78.267 4.72C78.267 4.528 78.283 4.368 78.315 4.24C78.283 4.104 78.267 3.944 78.267 3.76C78.267 3.568 78.283 3.408 78.315 3.28H79.275C79.307 3.408 79.323 3.568 79.323 3.76C79.323 3.944 79.307 4.104 79.275 4.24C79.307 4.368 79.323 4.528 79.323 4.72C79.323 4.904 79.307 5.064 79.275 5.2H80.715C80.747 5.328 80.763 5.488 80.763 5.68C80.763 5.864 80.747 6.024 80.715 6.16H79.275C79.307 6.288 79.323 6.448 79.323 6.64C79.323 6.824 79.307 6.984 79.275 7.12C79.307 7.248 79.323 7.408 79.323 7.6C79.323 7.784 79.307 7.944 79.275 8.08C79.307 8.208 79.323 8.368 79.323 8.56C79.323 8.744 79.307 8.904 79.275 9.04H80.715ZM83.1677 5.68C83.1677 5.864 83.1517 6.024 83.1197 6.16H83.4797C83.5117 6.288 83.5277 6.448 83.5277 6.64C83.5277 6.824 83.5117 6.984 83.4797 7.12H83.1197C83.1517 7.248 83.1677 7.408 83.1677 7.6C83.1677 7.784 83.1517 7.944 83.1197 8.08C83.1517 8.208 83.1677 8.368 83.1677 8.56C83.1677 8.744 83.1517 8.904 83.1197 9.04C83.1517 9.168 83.1677 9.328 83.1677 9.52C83.1677 9.704 83.1517 9.864 83.1197 10H82.1597C82.1277 9.864 82.1117 9.704 82.1117 9.52C82.1117 9.328 82.1277 9.168 82.1597 9.04C82.1277 8.904 82.1117 8.744 82.1117 8.56C82.1117 8.368 82.1277 8.208 82.1597 8.08C82.1277 7.944 82.1117 7.784 82.1117 7.6C82.1117 7.408 82.1277 7.248 82.1597 7.12C82.1277 6.984 82.1117 6.824 82.1117 6.64C82.1117 6.448 82.1277 6.288 82.1597 6.16C82.1277 6.024 82.1117 5.864 82.1117 5.68C82.1117 5.488 82.1277 5.328 82.1597 5.2C82.1277 5.064 82.1117 4.904 82.1117 4.72C82.1117 4.528 82.1277 4.368 82.1597 4.24C82.1277 4.104 82.1117 3.944 82.1117 3.76C82.1117 3.568 82.1277 3.408 82.1597 3.28H83.1197C83.1517 3.408 83.1677 3.568 83.1677 3.76C83.1677 3.944 83.1517 4.104 83.1197 4.24C83.1517 4.368 83.1677 4.528 83.1677 4.72C83.1677 4.904 83.1517 5.064 83.1197 5.2C83.1517 5.328 83.1677 5.488 83.1677 5.68ZM85.9997 7.12C86.0317 7.248 86.0477 7.408 86.0477 7.6C86.0477 7.784 86.0317 7.944 85.9997 8.08C86.0317 8.208 86.0477 8.368 86.0477 8.56C86.0477 8.744 86.0317 8.904 85.9997 9.04C86.0317 9.168 86.0477 9.328 86.0477 9.52C86.0477 9.704 86.0317 9.864 85.9997 10H85.0397C85.0077 9.864 84.9917 9.704 84.9917 9.52C84.9917 9.328 85.0077 9.168 85.0397 9.04C85.0077 8.904 84.9917 8.744 84.9917 8.56C84.9917 8.368 85.0077 8.208 85.0397 8.08C85.0077 7.944 84.9917 7.784 84.9917 7.6C84.9917 7.408 85.0077 7.248 85.0397 7.12C85.0077 6.984 84.9917 6.824 84.9917 6.64C84.9917 6.448 85.0077 6.288 85.0397 6.16H83.4797C83.4477 6.024 83.4317 5.864 83.4317 5.68C83.4317 5.488 83.4477 5.328 83.4797 5.2H85.3997C85.4317 5.328 85.4477 5.488 85.4477 5.68C85.4477 5.864 85.4317 6.024 85.3997 6.16H85.9997C86.0317 6.288 86.0477 6.448 86.0477 6.64C86.0477 6.824 86.0317 6.984 85.9997 7.12ZM95.6571 7.6C95.6571 7.784 95.6411 7.944 95.6091 8.08H95.2491C95.2811 8.208 95.2971 8.368 95.2971 8.56C95.2971 8.744 95.2811 8.904 95.2491 9.04H94.6491C94.6811 9.168 94.6971 9.328 94.6971 9.52C94.6971 9.704 94.6811 9.864 94.6491 10H92.7291C92.6971 9.864 92.6811 9.704 92.6811 9.52C92.6811 9.328 92.6971 9.168 92.7291 9.04H92.1291C92.0971 8.904 92.0811 8.744 92.0811 8.56C92.0811 8.368 92.0971 8.208 92.1291 8.08H91.7691C91.7371 7.944 91.7211 7.784 91.7211 7.6C91.7211 7.408 91.7371 7.248 91.7691 7.12H92.1291C92.0971 6.984 92.0811 6.824 92.0811 6.64C92.0811 6.448 92.0971 6.288 92.1291 6.16H92.7291C92.6971 6.024 92.6811 5.864 92.6811 5.68C92.6811 5.488 92.6971 5.328 92.7291 5.2H94.6491C94.6811 5.328 94.6971 5.488 94.6971 5.68C94.6971 5.864 94.6811 6.024 94.6491 6.16H95.2491C95.2811 6.288 95.2971 6.448 95.2971 6.64C95.2971 6.824 95.2811 6.984 95.2491 7.12H95.6091C95.6411 7.248 95.6571 7.408 95.6571 7.6ZM94.6491 8.08C94.6171 7.944 94.6011 7.784 94.6011 7.6C94.6011 7.408 94.6171 7.248 94.6491 7.12H94.2891C94.2571 6.984 94.2411 6.824 94.2411 6.64C94.2411 6.448 94.2571 6.288 94.2891 6.16H93.0891C93.1211 6.288 93.1371 6.448 93.1371 6.64C93.1371 6.824 93.1211 6.984 93.0891 7.12H92.7291C92.7611 7.248 92.7771 7.408 92.7771 7.6C92.7771 7.784 92.7611 7.944 92.7291 8.08H93.0891C93.1211 8.208 93.1371 8.368 93.1371 8.56C93.1371 8.744 93.1211 8.904 93.0891 9.04H94.2891C94.2571 8.904 94.2411 8.744 94.2411 8.56C94.2411 8.368 94.2571 8.208 94.2891 8.08H94.6491ZM99.9338 5.2C99.9658 5.328 99.9818 5.488 99.9818 5.68C99.9818 5.864 99.9658 6.024 99.9338 6.16H98.4938C98.5258 6.288 98.5418 6.448 98.5418 6.64C98.5418 6.824 98.5258 6.984 98.4938 7.12C98.5258 7.248 98.5418 7.408 98.5418 7.6C98.5418 7.784 98.5258 7.944 98.4938 8.08C98.5258 8.208 98.5418 8.368 98.5418 8.56C98.5418 8.744 98.5258 8.904 98.4938 9.04H99.4538C99.4858 9.168 99.5018 9.328 99.5018 9.52C99.5018 9.704 99.4858 9.864 99.4538 10H97.0538C97.0218 9.864 97.0058 9.704 97.0058 9.52C97.0058 9.328 97.0218 9.168 97.0538 9.04H97.5338C97.5018 8.904 97.4858 8.744 97.4858 8.56C97.4858 8.368 97.5018 8.208 97.5338 8.08C97.5018 7.944 97.4858 7.784 97.4858 7.6C97.4858 7.408 97.5018 7.248 97.5338 7.12C97.5018 6.984 97.4858 6.824 97.4858 6.64C97.4858 6.448 97.5018 6.288 97.5338 6.16H97.0538C97.0218 6.024 97.0058 5.864 97.0058 5.68C97.0058 5.488 97.0218 5.328 97.0538 5.2H97.5338C97.5018 5.064 97.4858 4.904 97.4858 4.72C97.4858 4.528 97.5018 4.368 97.5338 4.24H98.0138C97.9818 4.104 97.9658 3.944 97.9658 3.76C97.9658 3.568 97.9818 3.408 98.0138 3.28H99.9338C99.9658 3.408 99.9818 3.568 99.9818 3.76C99.9818 3.944 99.9658 4.104 99.9338 4.24H98.4938C98.5258 4.368 98.5418 4.528 98.5418 4.72C98.5418 4.904 98.5258 5.064 98.4938 5.2H99.9338ZM110.071 5.68C110.071 5.864 110.055 6.024 110.023 6.16H109.543C109.575 6.288 109.591 6.448 109.591 6.64C109.591 6.824 109.575 6.984 109.543 7.12H110.023C110.055 7.248 110.071 7.408 110.071 7.6C110.071 7.784 110.055 7.944 110.023 8.08C110.055 8.208 110.071 8.368 110.071 8.56C110.071 8.744 110.055 8.904 110.023 9.04H109.543C109.575 9.168 109.591 9.328 109.591 9.52C109.591 9.704 109.575 9.864 109.543 10H106.183C106.151 9.864 106.135 9.704 106.135 9.52C106.135 9.328 106.151 9.168 106.183 9.04C106.151 8.904 106.135 8.744 106.135 8.56C106.135 8.368 106.151 8.208 106.183 8.08C106.151 7.944 106.135 7.784 106.135 7.6C106.135 7.408 106.151 7.248 106.183 7.12C106.151 6.984 106.135 6.824 106.135 6.64C106.135 6.448 106.151 6.288 106.183 6.16C106.151 6.024 106.135 5.864 106.135 5.68C106.135 5.488 106.151 5.328 106.183 5.2C106.151 5.064 106.135 4.904 106.135 4.72C106.135 4.528 106.151 4.368 106.183 4.24C106.151 4.104 106.135 3.944 106.135 3.76C106.135 3.568 106.151 3.408 106.183 3.28H109.543C109.575 3.408 109.591 3.568 109.591 3.76C109.591 3.944 109.575 4.104 109.543 4.24H110.023C110.055 4.368 110.071 4.528 110.071 4.72C110.071 4.904 110.055 5.064 110.023 5.2C110.055 5.328 110.071 5.488 110.071 5.68ZM109.063 6.16C109.031 6.024 109.015 5.864 109.015 5.68C109.015 5.488 109.031 5.328 109.063 5.2C109.031 5.064 109.015 4.904 109.015 4.72C109.015 4.528 109.031 4.368 109.063 4.24H107.143C107.175 4.368 107.191 4.528 107.191 4.72C107.191 4.904 107.175 5.064 107.143 5.2C107.175 5.328 107.191 5.488 107.191 5.68C107.191 5.864 107.175 6.024 107.143 6.16H109.063ZM109.063 8.08C109.031 7.944 109.015 7.784 109.015 7.6C109.015 7.408 109.031 7.248 109.063 7.12H107.143C107.175 7.248 107.191 7.408 107.191 7.6C107.191 7.784 107.175 7.944 107.143 8.08C107.175 8.208 107.191 8.368 107.191 8.56C107.191 8.744 107.175 8.904 107.143 9.04H109.063C109.031 8.904 109.015 8.744 109.015 8.56C109.015 8.368 109.031 8.208 109.063 8.08ZM112.428 4.24C112.396 4.104 112.38 3.944 112.38 3.76C112.38 3.568 112.396 3.408 112.428 3.28H113.388C113.42 3.408 113.436 3.568 113.436 3.76C113.436 3.944 113.42 4.104 113.388 4.24H112.428ZM114.348 9.04C114.38 9.168 114.396 9.328 114.396 9.52C114.396 9.704 114.38 9.864 114.348 10H111.468C111.436 9.864 111.42 9.704 111.42 9.52C111.42 9.328 111.436 9.168 111.468 9.04H112.428C112.396 8.904 112.38 8.744 112.38 8.56C112.38 8.368 112.396 8.208 112.428 8.08C112.396 7.944 112.38 7.784 112.38 7.6C112.38 7.408 112.396 7.248 112.428 7.12C112.396 6.984 112.38 6.824 112.38 6.64C112.38 6.448 112.396 6.288 112.428 6.16H111.708C111.676 6.024 111.66 5.864 111.66 5.68C111.66 5.488 111.676 5.328 111.708 5.2H113.388C113.42 5.328 113.436 5.488 113.436 5.68C113.436 5.864 113.42 6.024 113.388 6.16C113.42 6.288 113.436 6.448 113.436 6.64C113.436 6.824 113.42 6.984 113.388 7.12C113.42 7.248 113.436 7.408 113.436 7.6C113.436 7.784 113.42 7.944 113.388 8.08C113.42 8.208 113.436 8.368 113.436 8.56C113.436 8.744 113.42 8.904 113.388 9.04H114.348ZM119.153 9.04C119.185 9.168 119.201 9.328 119.201 9.52C119.201 9.704 119.185 9.864 119.153 10H117.233C117.201 9.864 117.185 9.704 117.185 9.52C117.185 9.328 117.201 9.168 117.233 9.04H116.753C116.721 8.904 116.705 8.744 116.705 8.56C116.705 8.368 116.721 8.208 116.753 8.08C116.721 7.944 116.705 7.784 116.705 7.6C116.705 7.408 116.721 7.248 116.753 7.12C116.721 6.984 116.705 6.824 116.705 6.64C116.705 6.448 116.721 6.288 116.753 6.16H115.793C115.761 6.024 115.745 5.864 115.745 5.68C115.745 5.488 115.761 5.328 115.793 5.2H116.753C116.721 5.064 116.705 4.904 116.705 4.72C116.705 4.528 116.721 4.368 116.753 4.24C116.721 4.104 116.705 3.944 116.705 3.76C116.705 3.568 116.721 3.408 116.753 3.28H117.713C117.745 3.408 117.761 3.568 117.761 3.76C117.761 3.944 117.745 4.104 117.713 4.24C117.745 4.368 117.761 4.528 117.761 4.72C117.761 4.904 117.745 5.064 117.713 5.2H119.153C119.185 5.328 119.201 5.488 119.201 5.68C119.201 5.864 119.185 6.024 119.153 6.16H117.713C117.745 6.288 117.761 6.448 117.761 6.64C117.761 6.824 117.745 6.984 117.713 7.12C117.745 7.248 117.761 7.408 117.761 7.6C117.761 7.784 117.745 7.944 117.713 8.08C117.745 8.208 117.761 8.368 117.761 8.56C117.761 8.744 117.745 8.904 117.713 9.04H119.153ZM124.437 8.08C124.469 8.208 124.485 8.368 124.485 8.56C124.485 8.744 124.469 8.904 124.437 9.04H123.957C123.989 9.168 124.005 9.328 124.005 9.52C124.005 9.704 123.989 9.864 123.957 10H121.557C121.525 9.864 121.509 9.704 121.509 9.52C121.509 9.328 121.525 9.168 121.557 9.04H121.077C121.045 8.904 121.029 8.744 121.029 8.56C121.029 8.368 121.045 8.208 121.077 8.08H120.597C120.565 7.944 120.549 7.784 120.549 7.6C120.549 7.408 120.565 7.248 120.597 7.12H121.077C121.045 6.984 121.029 6.824 121.029 6.64C121.029 6.448 121.045 6.288 121.077 6.16H121.557C121.525 6.024 121.509 5.864 121.509 5.68C121.509 5.488 121.525 5.328 121.557 5.2H123.957C123.989 5.328 124.005 5.488 124.005 5.68C124.005 5.864 123.989 6.024 123.957 6.16H124.437C124.469 6.288 124.485 6.448 124.485 6.64C124.485 6.824 124.469 6.984 124.437 7.12H123.477C123.445 6.984 123.429 6.824 123.429 6.64C123.429 6.448 123.445 6.288 123.477 6.16H122.037C122.069 6.288 122.085 6.448 122.085 6.64C122.085 6.824 122.069 6.984 122.037 7.12H121.557C121.589 7.248 121.605 7.408 121.605 7.6C121.605 7.784 121.589 7.944 121.557 8.08H122.037C122.069 8.208 122.085 8.368 122.085 8.56C122.085 8.744 122.069 8.904 122.037 9.04H123.477C123.445 8.904 123.429 8.744 123.429 8.56C123.429 8.368 123.445 8.208 123.477 8.08H124.437ZM129.29 7.6C129.29 7.784 129.274 7.944 129.242 8.08H128.882C128.914 8.208 128.93 8.368 128.93 8.56C128.93 8.744 128.914 8.904 128.882 9.04H128.282C128.314 9.168 128.33 9.328 128.33 9.52C128.33 9.704 128.314 9.864 128.282 10H126.362C126.33 9.864 126.314 9.704 126.314 9.52C126.314 9.328 126.33 9.168 126.362 9.04H125.762C125.73 8.904 125.714 8.744 125.714 8.56C125.714 8.368 125.73 8.208 125.762 8.08H125.402C125.37 7.944 125.354 7.784 125.354 7.6C125.354 7.408 125.37 7.248 125.402 7.12H125.762C125.73 6.984 125.714 6.824 125.714 6.64C125.714 6.448 125.73 6.288 125.762 6.16H126.362C126.33 6.024 126.314 5.864 126.314 5.68C126.314 5.488 126.33 5.328 126.362 5.2H128.282C128.314 5.328 128.33 5.488 128.33 5.68C128.33 5.864 128.314 6.024 128.282 6.16H128.882C128.914 6.288 128.93 6.448 128.93 6.64C128.93 6.824 128.914 6.984 128.882 7.12H129.242C129.274 7.248 129.29 7.408 129.29 7.6ZM128.282 8.08C128.25 7.944 128.234 7.784 128.234 7.6C128.234 7.408 128.25 7.248 128.282 7.12H127.922C127.89 6.984 127.874 6.824 127.874 6.64C127.874 6.448 127.89 6.288 127.922 6.16H126.722C126.754 6.288 126.77 6.448 126.77 6.64C126.77 6.824 126.754 6.984 126.722 7.12H126.362C126.394 7.248 126.41 7.408 126.41 7.6C126.41 7.784 126.394 7.944 126.362 8.08H126.722C126.754 8.208 126.77 8.368 126.77 8.56C126.77 8.744 126.754 8.904 126.722 9.04H127.922C127.89 8.904 127.874 8.744 127.874 8.56C127.874 8.368 127.89 8.208 127.922 8.08H128.282ZM131.647 4.24C131.615 4.104 131.599 3.944 131.599 3.76C131.599 3.568 131.615 3.408 131.647 3.28H132.607C132.639 3.408 132.655 3.568 132.655 3.76C132.655 3.944 132.639 4.104 132.607 4.24H131.647ZM133.567 9.04C133.599 9.168 133.615 9.328 133.615 9.52C133.615 9.704 133.599 9.864 133.567 10H130.687C130.655 9.864 130.639 9.704 130.639 9.52C130.639 9.328 130.655 9.168 130.687 9.04H131.647C131.615 8.904 131.599 8.744 131.599 8.56C131.599 8.368 131.615 8.208 131.647 8.08C131.615 7.944 131.599 7.784 131.599 7.6C131.599 7.408 131.615 7.248 131.647 7.12C131.615 6.984 131.599 6.824 131.599 6.64C131.599 6.448 131.615 6.288 131.647 6.16H130.927C130.895 6.024 130.879 5.864 130.879 5.68C130.879 5.488 130.895 5.328 130.927 5.2H132.607C132.639 5.328 132.655 5.488 132.655 5.68C132.655 5.864 132.639 6.024 132.607 6.16C132.639 6.288 132.655 6.448 132.655 6.64C132.655 6.824 132.639 6.984 132.607 7.12C132.639 7.248 132.655 7.408 132.655 7.6C132.655 7.784 132.639 7.944 132.607 8.08C132.639 8.208 132.655 8.368 132.655 8.56C132.655 8.744 132.639 8.904 132.607 9.04H133.567ZM135.899 5.68C135.899 5.864 135.883 6.024 135.851 6.16H136.331C136.363 6.288 136.379 6.448 136.379 6.64C136.379 6.824 136.363 6.984 136.331 7.12H135.971C136.003 7.248 136.019 7.408 136.019 7.6C136.019 7.784 136.003 7.944 135.971 8.08C136.003 8.208 136.019 8.368 136.019 8.56C136.019 8.744 136.003 8.904 135.971 9.04C136.003 9.168 136.019 9.328 136.019 9.52C136.019 9.704 136.003 9.864 135.971 10H135.011C134.979 9.864 134.963 9.704 134.963 9.52C134.963 9.328 134.979 9.168 135.011 9.04C134.979 8.904 134.963 8.744 134.963 8.56C134.963 8.368 134.979 8.208 135.011 8.08C134.979 7.944 134.963 7.784 134.963 7.6C134.963 7.408 134.979 7.248 135.011 7.12C134.979 6.984 134.963 6.824 134.963 6.64C134.963 6.448 134.979 6.288 135.011 6.16C134.979 6.024 134.963 5.864 134.963 5.68C134.963 5.488 134.979 5.328 135.011 5.2H135.851C135.883 5.328 135.899 5.488 135.899 5.68ZM138.851 7.12C138.883 7.248 138.899 7.408 138.899 7.6C138.899 7.784 138.883 7.944 138.851 8.08C138.883 8.208 138.899 8.368 138.899 8.56C138.899 8.744 138.883 8.904 138.851 9.04C138.883 9.168 138.899 9.328 138.899 9.52C138.899 9.704 138.883 9.864 138.851 10H137.891C137.859 9.864 137.843 9.704 137.843 9.52C137.843 9.328 137.859 9.168 137.891 9.04C137.859 8.904 137.843 8.744 137.843 8.56C137.843 8.368 137.859 8.208 137.891 8.08C137.859 7.944 137.843 7.784 137.843 7.6C137.843 7.408 137.859 7.248 137.891 7.12C137.859 6.984 137.843 6.824 137.843 6.64C137.843 6.448 137.859 6.288 137.891 6.16H136.331C136.299 6.024 136.283 5.864 136.283 5.68C136.283 5.488 136.299 5.328 136.331 5.2H138.251C138.283 5.328 138.299 5.488 138.299 5.68C138.299 5.864 138.283 6.024 138.251 6.16H138.851C138.883 6.288 138.899 6.448 138.899 6.64C138.899 6.824 138.883 6.984 138.851 7.12ZM147.981 9.04C148.013 9.168 148.029 9.328 148.029 9.52C148.029 9.704 148.013 9.864 147.981 10H146.061C146.029 9.864 146.013 9.704 146.013 9.52C146.013 9.328 146.029 9.168 146.061 9.04H145.581C145.549 8.904 145.533 8.744 145.533 8.56C145.533 8.368 145.549 8.208 145.581 8.08C145.549 7.944 145.533 7.784 145.533 7.6C145.533 7.408 145.549 7.248 145.581 7.12C145.549 6.984 145.533 6.824 145.533 6.64C145.533 6.448 145.549 6.288 145.581 6.16H144.621C144.589 6.024 144.573 5.864 144.573 5.68C144.573 5.488 144.589 5.328 144.621 5.2H145.581C145.549 5.064 145.533 4.904 145.533 4.72C145.533 4.528 145.549 4.368 145.581 4.24C145.549 4.104 145.533 3.944 145.533 3.76C145.533 3.568 145.549 3.408 145.581 3.28H146.541C146.573 3.408 146.589 3.568 146.589 3.76C146.589 3.944 146.573 4.104 146.541 4.24C146.573 4.368 146.589 4.528 146.589 4.72C146.589 4.904 146.573 5.064 146.541 5.2H147.981C148.013 5.328 148.029 5.488 148.029 5.68C148.029 5.864 148.013 6.024 147.981 6.16H146.541C146.573 6.288 146.589 6.448 146.589 6.64C146.589 6.824 146.573 6.984 146.541 7.12C146.573 7.248 146.589 7.408 146.589 7.6C146.589 7.784 146.573 7.944 146.541 8.08C146.573 8.208 146.589 8.368 146.589 8.56C146.589 8.744 146.573 8.904 146.541 9.04H147.981ZM153.313 7.6C153.313 7.784 153.297 7.944 153.265 8.08H152.905C152.937 8.208 152.953 8.368 152.953 8.56C152.953 8.744 152.937 8.904 152.905 9.04H152.305C152.337 9.168 152.353 9.328 152.353 9.52C152.353 9.704 152.337 9.864 152.305 10H150.385C150.353 9.864 150.337 9.704 150.337 9.52C150.337 9.328 150.353 9.168 150.385 9.04H149.785C149.753 8.904 149.737 8.744 149.737 8.56C149.737 8.368 149.753 8.208 149.785 8.08H149.425C149.393 7.944 149.377 7.784 149.377 7.6C149.377 7.408 149.393 7.248 149.425 7.12H149.785C149.753 6.984 149.737 6.824 149.737 6.64C149.737 6.448 149.753 6.288 149.785 6.16H150.385C150.353 6.024 150.337 5.864 150.337 5.68C150.337 5.488 150.353 5.328 150.385 5.2H152.305C152.337 5.328 152.353 5.488 152.353 5.68C152.353 5.864 152.337 6.024 152.305 6.16H152.905C152.937 6.288 152.953 6.448 152.953 6.64C152.953 6.824 152.937 6.984 152.905 7.12H153.265C153.297 7.248 153.313 7.408 153.313 7.6ZM152.305 8.08C152.273 7.944 152.257 7.784 152.257 7.6C152.257 7.408 152.273 7.248 152.305 7.12H151.945C151.913 6.984 151.897 6.824 151.897 6.64C151.897 6.448 151.913 6.288 151.945 6.16H150.745C150.777 6.288 150.793 6.448 150.793 6.64C150.793 6.824 150.777 6.984 150.745 7.12H150.385C150.417 7.248 150.433 7.408 150.433 7.6C150.433 7.784 150.417 7.944 150.385 8.08H150.745C150.777 8.208 150.793 8.368 150.793 8.56C150.793 8.744 150.777 8.904 150.745 9.04H151.945C151.913 8.904 151.897 8.744 151.897 8.56C151.897 8.368 151.913 8.208 151.945 8.08H152.305ZM162.395 5.2C162.427 5.328 162.443 5.488 162.443 5.68C162.443 5.864 162.427 6.024 162.395 6.16H160.955C160.987 6.288 161.003 6.448 161.003 6.64C161.003 6.824 160.987 6.984 160.955 7.12C160.987 7.248 161.003 7.408 161.003 7.6C161.003 7.784 160.987 7.944 160.955 8.08C160.987 8.208 161.003 8.368 161.003 8.56C161.003 8.744 160.987 8.904 160.955 9.04H161.915C161.947 9.168 161.963 9.328 161.963 9.52C161.963 9.704 161.947 9.864 161.915 10H159.515C159.483 9.864 159.467 9.704 159.467 9.52C159.467 9.328 159.483 9.168 159.515 9.04H159.995C159.963 8.904 159.947 8.744 159.947 8.56C159.947 8.368 159.963 8.208 159.995 8.08C159.963 7.944 159.947 7.784 159.947 7.6C159.947 7.408 159.963 7.248 159.995 7.12C159.963 6.984 159.947 6.824 159.947 6.64C159.947 6.448 159.963 6.288 159.995 6.16H159.515C159.483 6.024 159.467 5.864 159.467 5.68C159.467 5.488 159.483 5.328 159.515 5.2H159.995C159.963 5.064 159.947 4.904 159.947 4.72C159.947 4.528 159.963 4.368 159.995 4.24H160.475C160.443 4.104 160.427 3.944 160.427 3.76C160.427 3.568 160.443 3.408 160.475 3.28H162.395C162.427 3.408 162.443 3.568 162.443 3.76C162.443 3.944 162.427 4.104 162.395 4.24H160.955C160.987 4.368 161.003 4.528 161.003 4.72C161.003 4.904 160.987 5.064 160.955 5.2H162.395ZM167.727 7.6C167.727 7.784 167.711 7.944 167.679 8.08H167.319C167.351 8.208 167.367 8.368 167.367 8.56C167.367 8.744 167.351 8.904 167.319 9.04H166.719C166.751 9.168 166.767 9.328 166.767 9.52C166.767 9.704 166.751 9.864 166.719 10H164.799C164.767 9.864 164.751 9.704 164.751 9.52C164.751 9.328 164.767 9.168 164.799 9.04H164.199C164.167 8.904 164.151 8.744 164.151 8.56C164.151 8.368 164.167 8.208 164.199 8.08H163.839C163.807 7.944 163.791 7.784 163.791 7.6C163.791 7.408 163.807 7.248 163.839 7.12H164.199C164.167 6.984 164.151 6.824 164.151 6.64C164.151 6.448 164.167 6.288 164.199 6.16H164.799C164.767 6.024 164.751 5.864 164.751 5.68C164.751 5.488 164.767 5.328 164.799 5.2H166.719C166.751 5.328 166.767 5.488 166.767 5.68C166.767 5.864 166.751 6.024 166.719 6.16H167.319C167.351 6.288 167.367 6.448 167.367 6.64C167.367 6.824 167.351 6.984 167.319 7.12H167.679C167.711 7.248 167.727 7.408 167.727 7.6ZM166.719 8.08C166.687 7.944 166.671 7.784 166.671 7.6C166.671 7.408 166.687 7.248 166.719 7.12H166.359C166.327 6.984 166.311 6.824 166.311 6.64C166.311 6.448 166.327 6.288 166.359 6.16H165.159C165.191 6.288 165.207 6.448 165.207 6.64C165.207 6.824 165.191 6.984 165.159 7.12H164.799C164.831 7.248 164.847 7.408 164.847 7.6C164.847 7.784 164.831 7.944 164.799 8.08H165.159C165.191 8.208 165.207 8.368 165.207 8.56C165.207 8.744 165.191 8.904 165.159 9.04H166.359C166.327 8.904 166.311 8.744 166.311 8.56C166.311 8.368 166.327 8.208 166.359 8.08H166.719ZM172.004 9.04C172.036 9.168 172.052 9.328 172.052 9.52C172.052 9.704 172.036 9.864 172.004 10H169.124C169.092 9.864 169.076 9.704 169.076 9.52C169.076 9.328 169.092 9.168 169.124 9.04H170.084C170.052 8.904 170.036 8.744 170.036 8.56C170.036 8.368 170.052 8.208 170.084 8.08C170.052 7.944 170.036 7.784 170.036 7.6C170.036 7.408 170.052 7.248 170.084 7.12C170.052 6.984 170.036 6.824 170.036 6.64C170.036 6.448 170.052 6.288 170.084 6.16C170.052 6.024 170.036 5.864 170.036 5.68C170.036 5.488 170.052 5.328 170.084 5.2C170.052 5.064 170.036 4.904 170.036 4.72C170.036 4.528 170.052 4.368 170.084 4.24H169.364C169.332 4.104 169.316 3.944 169.316 3.76C169.316 3.568 169.332 3.408 169.364 3.28H171.044C171.076 3.408 171.092 3.568 171.092 3.76C171.092 3.944 171.076 4.104 171.044 4.24C171.076 4.368 171.092 4.528 171.092 4.72C171.092 4.904 171.076 5.064 171.044 5.2C171.076 5.328 171.092 5.488 171.092 5.68C171.092 5.864 171.076 6.024 171.044 6.16C171.076 6.288 171.092 6.448 171.092 6.64C171.092 6.824 171.076 6.984 171.044 7.12C171.076 7.248 171.092 7.408 171.092 7.6C171.092 7.784 171.076 7.944 171.044 8.08C171.076 8.208 171.092 8.368 171.092 8.56C171.092 8.744 171.076 8.904 171.044 9.04H172.004ZM176.809 9.04C176.841 9.168 176.857 9.328 176.857 9.52C176.857 9.704 176.841 9.864 176.809 10H173.929C173.897 9.864 173.881 9.704 173.881 9.52C173.881 9.328 173.897 9.168 173.929 9.04H174.889C174.857 8.904 174.841 8.744 174.841 8.56C174.841 8.368 174.857 8.208 174.889 8.08C174.857 7.944 174.841 7.784 174.841 7.6C174.841 7.408 174.857 7.248 174.889 7.12C174.857 6.984 174.841 6.824 174.841 6.64C174.841 6.448 174.857 6.288 174.889 6.16C174.857 6.024 174.841 5.864 174.841 5.68C174.841 5.488 174.857 5.328 174.889 5.2C174.857 5.064 174.841 4.904 174.841 4.72C174.841 4.528 174.857 4.368 174.889 4.24H174.169C174.137 4.104 174.121 3.944 174.121 3.76C174.121 3.568 174.137 3.408 174.169 3.28H175.849C175.881 3.408 175.897 3.568 175.897 3.76C175.897 3.944 175.881 4.104 175.849 4.24C175.881 4.368 175.897 4.528 175.897 4.72C175.897 4.904 175.881 5.064 175.849 5.2C175.881 5.328 175.897 5.488 175.897 5.68C175.897 5.864 175.881 6.024 175.849 6.16C175.881 6.288 175.897 6.448 175.897 6.64C175.897 6.824 175.881 6.984 175.849 7.12C175.881 7.248 175.897 7.408 175.897 7.6C175.897 7.784 175.881 7.944 175.849 8.08C175.881 8.208 175.897 8.368 175.897 8.56C175.897 8.744 175.881 8.904 175.849 9.04H176.809ZM182.141 7.6C182.141 7.784 182.125 7.944 182.093 8.08H181.733C181.765 8.208 181.781 8.368 181.781 8.56C181.781 8.744 181.765 8.904 181.733 9.04H181.133C181.165 9.168 181.181 9.328 181.181 9.52C181.181 9.704 181.165 9.864 181.133 10H179.213C179.181 9.864 179.165 9.704 179.165 9.52C179.165 9.328 179.181 9.168 179.213 9.04H178.613C178.581 8.904 178.565 8.744 178.565 8.56C178.565 8.368 178.581 8.208 178.613 8.08H178.253C178.221 7.944 178.205 7.784 178.205 7.6C178.205 7.408 178.221 7.248 178.253 7.12H178.613C178.581 6.984 178.565 6.824 178.565 6.64C178.565 6.448 178.581 6.288 178.613 6.16H179.213C179.181 6.024 179.165 5.864 179.165 5.68C179.165 5.488 179.181 5.328 179.213 5.2H181.133C181.165 5.328 181.181 5.488 181.181 5.68C181.181 5.864 181.165 6.024 181.133 6.16H181.733C181.765 6.288 181.781 6.448 181.781 6.64C181.781 6.824 181.765 6.984 181.733 7.12H182.093C182.125 7.248 182.141 7.408 182.141 7.6ZM181.133 8.08C181.101 7.944 181.085 7.784 181.085 7.6C181.085 7.408 181.101 7.248 181.133 7.12H180.773C180.741 6.984 180.725 6.824 180.725 6.64C180.725 6.448 180.741 6.288 180.773 6.16H179.573C179.605 6.288 179.621 6.448 179.621 6.64C179.621 6.824 179.605 6.984 179.573 7.12H179.213C179.245 7.248 179.261 7.408 179.261 7.6C179.261 7.784 179.245 7.944 179.213 8.08H179.573C179.605 8.208 179.621 8.368 179.621 8.56C179.621 8.744 179.605 8.904 179.573 9.04H180.773C180.741 8.904 180.725 8.744 180.725 8.56C180.725 8.368 180.741 8.208 180.773 8.08H181.133ZM186.946 5.68C186.946 5.864 186.93 6.024 186.898 6.16C186.93 6.288 186.946 6.448 186.946 6.64C186.946 6.824 186.93 6.984 186.898 7.12H186.538C186.57 7.248 186.586 7.408 186.586 7.6C186.586 7.784 186.57 7.944 186.538 8.08C186.57 8.208 186.586 8.368 186.586 8.56C186.586 8.744 186.57 8.904 186.538 9.04H186.298C186.33 9.168 186.346 9.328 186.346 9.52C186.346 9.704 186.33 9.864 186.298 10H185.578C185.546 9.864 185.53 9.704 185.53 9.52C185.53 9.328 185.546 9.168 185.578 9.04H185.338C185.306 8.904 185.29 8.744 185.29 8.56C185.29 8.368 185.306 8.208 185.338 8.08H184.618C184.65 8.208 184.666 8.368 184.666 8.56C184.666 8.744 184.65 8.904 184.618 9.04H184.378C184.41 9.168 184.426 9.328 184.426 9.52C184.426 9.704 184.41 9.864 184.378 10H183.658C183.626 9.864 183.61 9.704 183.61 9.52C183.61 9.328 183.626 9.168 183.658 9.04H183.418C183.386 8.904 183.37 8.744 183.37 8.56C183.37 8.368 183.386 8.208 183.418 8.08C183.386 7.944 183.37 7.784 183.37 7.6C183.37 7.408 183.386 7.248 183.418 7.12H183.058C183.026 6.984 183.01 6.824 183.01 6.64C183.01 6.448 183.026 6.288 183.058 6.16C183.026 6.024 183.01 5.864 183.01 5.68C183.01 5.488 183.026 5.328 183.058 5.2H184.018C184.05 5.328 184.066 5.488 184.066 5.68C184.066 5.864 184.05 6.024 184.018 6.16C184.05 6.288 184.066 6.448 184.066 6.64C184.066 6.824 184.05 6.984 184.018 7.12C184.05 7.248 184.066 7.408 184.066 7.6C184.066 7.784 184.05 7.944 184.018 8.08H184.378C184.346 7.944 184.33 7.784 184.33 7.6C184.33 7.408 184.346 7.248 184.378 7.12H184.618C184.586 6.984 184.57 6.824 184.57 6.64C184.57 6.448 184.586 6.288 184.618 6.16C184.586 6.024 184.57 5.864 184.57 5.68C184.57 5.488 184.586 5.328 184.618 5.2H185.338C185.37 5.328 185.386 5.488 185.386 5.68C185.386 5.864 185.37 6.024 185.338 6.16C185.37 6.288 185.386 6.448 185.386 6.64C185.386 6.824 185.37 6.984 185.338 7.12H185.578C185.61 7.248 185.626 7.408 185.626 7.6C185.626 7.784 185.61 7.944 185.578 8.08H185.938C185.906 7.944 185.89 7.784 185.89 7.6C185.89 7.408 185.906 7.248 185.938 7.12C185.906 6.984 185.89 6.824 185.89 6.64C185.89 6.448 185.906 6.288 185.938 6.16C185.906 6.024 185.89 5.864 185.89 5.68C185.89 5.488 185.906 5.328 185.938 5.2H186.898C186.93 5.328 186.946 5.488 186.946 5.68ZM189.303 4.24C189.271 4.104 189.255 3.944 189.255 3.76C189.255 3.568 189.271 3.408 189.303 3.28H190.263C190.295 3.408 190.311 3.568 190.311 3.76C190.311 3.944 190.295 4.104 190.263 4.24H189.303ZM191.223 9.04C191.255 9.168 191.271 9.328 191.271 9.52C191.271 9.704 191.255 9.864 191.223 10H188.343C188.311 9.864 188.295 9.704 188.295 9.52C188.295 9.328 188.311 9.168 188.343 9.04H189.303C189.271 8.904 189.255 8.744 189.255 8.56C189.255 8.368 189.271 8.208 189.303 8.08C189.271 7.944 189.255 7.784 189.255 7.6C189.255 7.408 189.271 7.248 189.303 7.12C189.271 6.984 189.255 6.824 189.255 6.64C189.255 6.448 189.271 6.288 189.303 6.16H188.583C188.551 6.024 188.535 5.864 188.535 5.68C188.535 5.488 188.551 5.328 188.583 5.2H190.263C190.295 5.328 190.311 5.488 190.311 5.68C190.311 5.864 190.295 6.024 190.263 6.16C190.295 6.288 190.311 6.448 190.311 6.64C190.311 6.824 190.295 6.984 190.263 7.12C190.295 7.248 190.311 7.408 190.311 7.6C190.311 7.784 190.295 7.944 190.263 8.08C190.295 8.208 190.311 8.368 190.311 8.56C190.311 8.744 190.295 8.904 190.263 9.04H191.223ZM193.556 5.68C193.556 5.864 193.54 6.024 193.508 6.16H193.988C194.02 6.288 194.036 6.448 194.036 6.64C194.036 6.824 194.02 6.984 193.988 7.12H193.628C193.66 7.248 193.676 7.408 193.676 7.6C193.676 7.784 193.66 7.944 193.628 8.08C193.66 8.208 193.676 8.368 193.676 8.56C193.676 8.744 193.66 8.904 193.628 9.04C193.66 9.168 193.676 9.328 193.676 9.52C193.676 9.704 193.66 9.864 193.628 10H192.668C192.636 9.864 192.62 9.704 192.62 9.52C192.62 9.328 192.636 9.168 192.668 9.04C192.636 8.904 192.62 8.744 192.62 8.56C192.62 8.368 192.636 8.208 192.668 8.08C192.636 7.944 192.62 7.784 192.62 7.6C192.62 7.408 192.636 7.248 192.668 7.12C192.636 6.984 192.62 6.824 192.62 6.64C192.62 6.448 192.636 6.288 192.668 6.16C192.636 6.024 192.62 5.864 192.62 5.68C192.62 5.488 192.636 5.328 192.668 5.2H193.508C193.54 5.328 193.556 5.488 193.556 5.68ZM196.508 7.12C196.54 7.248 196.556 7.408 196.556 7.6C196.556 7.784 196.54 7.944 196.508 8.08C196.54 8.208 196.556 8.368 196.556 8.56C196.556 8.744 196.54 8.904 196.508 9.04C196.54 9.168 196.556 9.328 196.556 9.52C196.556 9.704 196.54 9.864 196.508 10H195.548C195.516 9.864 195.5 9.704 195.5 9.52C195.5 9.328 195.516 9.168 195.548 9.04C195.516 8.904 195.5 8.744 195.5 8.56C195.5 8.368 195.516 8.208 195.548 8.08C195.516 7.944 195.5 7.784 195.5 7.6C195.5 7.408 195.516 7.248 195.548 7.12C195.516 6.984 195.5 6.824 195.5 6.64C195.5 6.448 195.516 6.288 195.548 6.16H193.988C193.956 6.024 193.94 5.864 193.94 5.68C193.94 5.488 193.956 5.328 193.988 5.2H195.908C195.94 5.328 195.956 5.488 195.956 5.68C195.956 5.864 195.94 6.024 195.908 6.16H196.508C196.54 6.288 196.556 6.448 196.556 6.64C196.556 6.824 196.54 6.984 196.508 7.12ZM201.312 6.16C201.344 6.288 201.36 6.448 201.36 6.64C201.36 6.824 201.344 6.984 201.312 7.12C201.344 7.248 201.36 7.408 201.36 7.6C201.36 7.784 201.344 7.944 201.312 8.08C201.344 8.208 201.36 8.368 201.36 8.56C201.36 8.744 201.344 8.904 201.312 9.04C201.344 9.168 201.36 9.328 201.36 9.52C201.36 9.704 201.344 9.864 201.312 10H200.832C200.864 10.128 200.88 10.288 200.88 10.48C200.88 10.664 200.864 10.824 200.832 10.96H200.352C200.384 11.088 200.4 11.248 200.4 11.44C200.4 11.624 200.384 11.784 200.352 11.92H198.432C198.4 11.784 198.384 11.624 198.384 11.44C198.384 11.248 198.4 11.088 198.432 10.96H199.872C199.84 10.824 199.824 10.664 199.824 10.48C199.824 10.288 199.84 10.128 199.872 10H200.352C200.32 9.864 200.304 9.704 200.304 9.52C200.304 9.328 200.32 9.168 200.352 9.04H199.872C199.84 8.904 199.824 8.744 199.824 8.56C199.824 8.368 199.84 8.208 199.872 8.08H200.352C200.32 7.944 200.304 7.784 200.304 7.6C200.304 7.408 200.32 7.248 200.352 7.12C200.32 6.984 200.304 6.824 200.304 6.64C200.304 6.448 200.32 6.288 200.352 6.16H198.792C198.824 6.288 198.84 6.448 198.84 6.64C198.84 6.824 198.824 6.984 198.792 7.12H198.432C198.464 7.248 198.48 7.408 198.48 7.6C198.48 7.784 198.464 7.944 198.432 8.08H198.792C198.824 8.208 198.84 8.368 198.84 8.56C198.84 8.744 198.824 8.904 198.792 9.04H199.872C199.904 9.168 199.92 9.328 199.92 9.52C199.92 9.704 199.904 9.864 199.872 10H198.432C198.4 9.864 198.384 9.704 198.384 9.52C198.384 9.328 198.4 9.168 198.432 9.04H197.832C197.8 8.904 197.784 8.744 197.784 8.56C197.784 8.368 197.8 8.208 197.832 8.08H197.472C197.44 7.944 197.424 7.784 197.424 7.6C197.424 7.408 197.44 7.248 197.472 7.12H197.832C197.8 6.984 197.784 6.824 197.784 6.64C197.784 6.448 197.8 6.288 197.832 6.16H198.432C198.4 6.024 198.384 5.864 198.384 5.68C198.384 5.488 198.4 5.328 198.432 5.2H201.312C201.344 5.328 201.36 5.488 201.36 5.68C201.36 5.864 201.344 6.024 201.312 6.16ZM210.922 9.04C210.954 9.168 210.97 9.328 210.97 9.52C210.97 9.704 210.954 9.864 210.922 10H209.962C209.93 9.864 209.914 9.704 209.914 9.52C209.914 9.328 209.93 9.168 209.962 9.04H209.482C209.45 8.904 209.434 8.744 209.434 8.56C209.434 8.368 209.45 8.208 209.482 8.08H208.042C208.074 8.208 208.09 8.368 208.09 8.56C208.09 8.744 208.074 8.904 208.042 9.04H209.482C209.514 9.168 209.53 9.328 209.53 9.52C209.53 9.704 209.514 9.864 209.482 10H207.562C207.53 9.864 207.514 9.704 207.514 9.52C207.514 9.328 207.53 9.168 207.562 9.04H207.082C207.05 8.904 207.034 8.744 207.034 8.56C207.034 8.368 207.05 8.208 207.082 8.08H207.562C207.53 7.944 207.514 7.784 207.514 7.6C207.514 7.408 207.53 7.248 207.562 7.12H209.482C209.45 6.984 209.434 6.824 209.434 6.64C209.434 6.448 209.45 6.288 209.482 6.16H207.802C207.77 6.024 207.754 5.864 207.754 5.68C207.754 5.488 207.77 5.328 207.802 5.2H209.962C209.994 5.328 210.01 5.488 210.01 5.68C210.01 5.864 209.994 6.024 209.962 6.16H210.442C210.474 6.288 210.49 6.448 210.49 6.64C210.49 6.824 210.474 6.984 210.442 7.12C210.474 7.248 210.49 7.408 210.49 7.6C210.49 7.784 210.474 7.944 210.442 8.08C210.474 8.208 210.49 8.368 210.49 8.56C210.49 8.744 210.474 8.904 210.442 9.04H210.922ZM215.726 4.24C215.758 4.368 215.774 4.528 215.774 4.72C215.774 4.904 215.758 5.064 215.726 5.2C215.758 5.328 215.774 5.488 215.774 5.68C215.774 5.864 215.758 6.024 215.726 6.16C215.758 6.288 215.774 6.448 215.774 6.64C215.774 6.824 215.758 6.984 215.726 7.12C215.758 7.248 215.774 7.408 215.774 7.6C215.774 7.784 215.758 7.944 215.726 8.08C215.758 8.208 215.774 8.368 215.774 8.56C215.774 8.744 215.758 8.904 215.726 9.04C215.758 9.168 215.774 9.328 215.774 9.52C215.774 9.704 215.758 9.864 215.726 10H214.766C214.734 9.864 214.718 9.704 214.718 9.52C214.718 9.328 214.734 9.168 214.766 9.04H214.406C214.374 8.904 214.358 8.744 214.358 8.56C214.358 8.368 214.374 8.208 214.406 8.08H214.766C214.734 7.944 214.718 7.784 214.718 7.6C214.718 7.408 214.734 7.248 214.766 7.12H214.406C214.374 6.984 214.358 6.824 214.358 6.64C214.358 6.448 214.374 6.288 214.406 6.16H214.766C214.734 6.024 214.718 5.864 214.718 5.68C214.718 5.488 214.734 5.328 214.766 5.2C214.734 5.064 214.718 4.904 214.718 4.72C214.718 4.528 214.734 4.368 214.766 4.24C214.734 4.104 214.718 3.944 214.718 3.76C214.718 3.568 214.734 3.408 214.766 3.28H215.726C215.758 3.408 215.774 3.568 215.774 3.76C215.774 3.944 215.758 4.104 215.726 4.24ZM214.214 5.68C214.214 5.864 214.198 6.024 214.166 6.16H212.966C212.998 6.288 213.014 6.448 213.014 6.64C213.014 6.824 212.998 6.984 212.966 7.12H212.606C212.638 7.248 212.654 7.408 212.654 7.6C212.654 7.784 212.638 7.944 212.606 8.08H212.966C212.998 8.208 213.014 8.368 213.014 8.56C213.014 8.744 212.998 8.904 212.966 9.04H214.166C214.198 9.168 214.214 9.328 214.214 9.52C214.214 9.704 214.198 9.864 214.166 10H212.846C212.814 9.864 212.798 9.704 212.798 9.52C212.798 9.328 212.814 9.168 212.846 9.04H212.246C212.214 8.904 212.198 8.744 212.198 8.56C212.198 8.368 212.214 8.208 212.246 8.08H211.886C211.854 7.944 211.838 7.784 211.838 7.6C211.838 7.408 211.854 7.248 211.886 7.12H212.246C212.214 6.984 212.198 6.824 212.198 6.64C212.198 6.448 212.214 6.288 212.246 6.16H212.846C212.814 6.024 212.798 5.864 212.798 5.68C212.798 5.488 212.814 5.328 212.846 5.2H214.166C214.198 5.328 214.214 5.488 214.214 5.68ZM220.531 4.24C220.563 4.368 220.579 4.528 220.579 4.72C220.579 4.904 220.563 5.064 220.531 5.2C220.563 5.328 220.579 5.488 220.579 5.68C220.579 5.864 220.563 6.024 220.531 6.16C220.563 6.288 220.579 6.448 220.579 6.64C220.579 6.824 220.563 6.984 220.531 7.12C220.563 7.248 220.579 7.408 220.579 7.6C220.579 7.784 220.563 7.944 220.531 8.08C220.563 8.208 220.579 8.368 220.579 8.56C220.579 8.744 220.563 8.904 220.531 9.04C220.563 9.168 220.579 9.328 220.579 9.52C220.579 9.704 220.563 9.864 220.531 10H219.571C219.539 9.864 219.523 9.704 219.523 9.52C219.523 9.328 219.539 9.168 219.571 9.04H219.211C219.179 8.904 219.163 8.744 219.163 8.56C219.163 8.368 219.179 8.208 219.211 8.08H219.571C219.539 7.944 219.523 7.784 219.523 7.6C219.523 7.408 219.539 7.248 219.571 7.12H219.211C219.179 6.984 219.163 6.824 219.163 6.64C219.163 6.448 219.179 6.288 219.211 6.16H219.571C219.539 6.024 219.523 5.864 219.523 5.68C219.523 5.488 219.539 5.328 219.571 5.2C219.539 5.064 219.523 4.904 219.523 4.72C219.523 4.528 219.539 4.368 219.571 4.24C219.539 4.104 219.523 3.944 219.523 3.76C219.523 3.568 219.539 3.408 219.571 3.28H220.531C220.563 3.408 220.579 3.568 220.579 3.76C220.579 3.944 220.563 4.104 220.531 4.24ZM219.019 5.68C219.019 5.864 219.003 6.024 218.971 6.16H217.771C217.803 6.288 217.819 6.448 217.819 6.64C217.819 6.824 217.803 6.984 217.771 7.12H217.411C217.443 7.248 217.459 7.408 217.459 7.6C217.459 7.784 217.443 7.944 217.411 8.08H217.771C217.803 8.208 217.819 8.368 217.819 8.56C217.819 8.744 217.803 8.904 217.771 9.04H218.971C219.003 9.168 219.019 9.328 219.019 9.52C219.019 9.704 219.003 9.864 218.971 10H217.651C217.619 9.864 217.603 9.704 217.603 9.52C217.603 9.328 217.619 9.168 217.651 9.04H217.051C217.019 8.904 217.003 8.744 217.003 8.56C217.003 8.368 217.019 8.208 217.051 8.08H216.691C216.659 7.944 216.643 7.784 216.643 7.6C216.643 7.408 216.659 7.248 216.691 7.12H217.051C217.019 6.984 217.003 6.824 217.003 6.64C217.003 6.448 217.019 6.288 217.051 6.16H217.651C217.619 6.024 217.603 5.864 217.603 5.68C217.603 5.488 217.619 5.328 217.651 5.2H218.971C219.003 5.328 219.019 5.488 219.019 5.68ZM225.336 6.16C225.368 6.288 225.384 6.448 225.384 6.64C225.384 6.824 225.368 6.984 225.336 7.12H224.376C224.344 6.984 224.328 6.824 224.328 6.64C224.328 6.448 224.344 6.288 224.376 6.16H223.536C223.568 6.288 223.584 6.448 223.584 6.64C223.584 6.824 223.568 6.984 223.536 7.12H223.176C223.208 7.248 223.224 7.408 223.224 7.6C223.224 7.784 223.208 7.944 223.176 8.08C223.208 8.208 223.224 8.368 223.224 8.56C223.224 8.744 223.208 8.904 223.176 9.04H223.896C223.928 9.168 223.944 9.328 223.944 9.52C223.944 9.704 223.928 9.864 223.896 10H221.496C221.464 9.864 221.448 9.704 221.448 9.52C221.448 9.328 221.464 9.168 221.496 9.04H222.216C222.184 8.904 222.168 8.744 222.168 8.56C222.168 8.368 222.184 8.208 222.216 8.08C222.184 7.944 222.168 7.784 222.168 7.6C222.168 7.408 222.184 7.248 222.216 7.12C222.184 6.984 222.168 6.824 222.168 6.64C222.168 6.448 222.184 6.288 222.216 6.16H221.496C221.464 6.024 221.448 5.864 221.448 5.68C221.448 5.488 221.464 5.328 221.496 5.2H222.696C222.728 5.328 222.744 5.488 222.744 5.68C222.744 5.864 222.728 6.024 222.696 6.16H223.176C223.144 6.024 223.128 5.864 223.128 5.68C223.128 5.488 223.144 5.328 223.176 5.2H224.976C225.008 5.328 225.024 5.488 225.024 5.68C225.024 5.864 225.008 6.024 224.976 6.16H225.336ZM230.188 6.64C230.188 6.824 230.172 6.984 230.14 7.12C230.172 7.248 230.188 7.408 230.188 7.6C230.188 7.784 230.172 7.944 230.14 8.08H227.62C227.652 8.208 227.668 8.368 227.668 8.56C227.668 8.744 227.652 8.904 227.62 9.04H229.66C229.692 9.168 229.708 9.328 229.708 9.52C229.708 9.704 229.692 9.864 229.66 10H227.26C227.228 9.864 227.212 9.704 227.212 9.52C227.212 9.328 227.228 9.168 227.26 9.04H226.66C226.628 8.904 226.612 8.744 226.612 8.56C226.612 8.368 226.628 8.208 226.66 8.08H226.3C226.268 7.944 226.252 7.784 226.252 7.6C226.252 7.408 226.268 7.248 226.3 7.12H226.66C226.628 6.984 226.612 6.824 226.612 6.64C226.612 6.448 226.628 6.288 226.66 6.16H227.26C227.228 6.024 227.212 5.864 227.212 5.68C227.212 5.488 227.228 5.328 227.26 5.2H229.66C229.692 5.328 229.708 5.488 229.708 5.68C229.708 5.864 229.692 6.024 229.66 6.16H230.14C230.172 6.288 230.188 6.448 230.188 6.64ZM229.18 7.12C229.148 6.984 229.132 6.824 229.132 6.64C229.132 6.448 229.148 6.288 229.18 6.16H227.62C227.652 6.288 227.668 6.448 227.668 6.64C227.668 6.824 227.652 6.984 227.62 7.12H229.18ZM234.753 8.56C234.753 8.744 234.737 8.904 234.705 9.04H234.225C234.257 9.168 234.273 9.328 234.273 9.52C234.273 9.704 234.257 9.864 234.225 10H231.585C231.553 9.864 231.537 9.704 231.537 9.52C231.537 9.328 231.553 9.168 231.585 9.04H233.745C233.713 8.904 233.697 8.744 233.697 8.56C233.697 8.368 233.713 8.208 233.745 8.08H231.825C231.793 7.944 231.777 7.784 231.777 7.6C231.777 7.408 231.793 7.248 231.825 7.12H231.345C231.313 6.984 231.297 6.824 231.297 6.64C231.297 6.448 231.313 6.288 231.345 6.16H231.825C231.793 6.024 231.777 5.864 231.777 5.68C231.777 5.488 231.793 5.328 231.825 5.2H234.465C234.497 5.328 234.513 5.488 234.513 5.68C234.513 5.864 234.497 6.024 234.465 6.16H232.305C232.337 6.288 232.353 6.448 232.353 6.64C232.353 6.824 232.337 6.984 232.305 7.12H234.225C234.257 7.248 234.273 7.408 234.273 7.6C234.273 7.784 234.257 7.944 234.225 8.08H234.705C234.737 8.208 234.753 8.368 234.753 8.56ZM239.558 8.56C239.558 8.744 239.542 8.904 239.51 9.04H239.03C239.062 9.168 239.078 9.328 239.078 9.52C239.078 9.704 239.062 9.864 239.03 10H236.39C236.358 9.864 236.342 9.704 236.342 9.52C236.342 9.328 236.358 9.168 236.39 9.04H238.55C238.518 8.904 238.502 8.744 238.502 8.56C238.502 8.368 238.518 8.208 238.55 8.08H236.63C236.598 7.944 236.582 7.784 236.582 7.6C236.582 7.408 236.598 7.248 236.63 7.12H236.15C236.118 6.984 236.102 6.824 236.102 6.64C236.102 6.448 236.118 6.288 236.15 6.16H236.63C236.598 6.024 236.582 5.864 236.582 5.68C236.582 5.488 236.598 5.328 236.63 5.2H239.27C239.302 5.328 239.318 5.488 239.318 5.68C239.318 5.864 239.302 6.024 239.27 6.16H237.11C237.142 6.288 237.158 6.448 237.158 6.64C237.158 6.824 237.142 6.984 237.11 7.12H239.03C239.062 7.248 239.078 7.408 239.078 7.6C239.078 7.784 239.062 7.944 239.03 8.08H239.51C239.542 8.208 239.558 8.368 239.558 8.56ZM243.282 4.72C243.282 4.904 243.266 5.064 243.234 5.2C243.266 5.328 243.282 5.488 243.282 5.68C243.282 5.864 243.266 6.024 243.234 6.16H242.034C242.002 6.024 241.986 5.864 241.986 5.68C241.986 5.488 242.002 5.328 242.034 5.2C242.002 5.064 241.986 4.904 241.986 4.72C241.986 4.528 242.002 4.368 242.034 4.24H243.234C243.266 4.368 243.282 4.528 243.282 4.72ZM243.234 8.08C243.266 8.208 243.282 8.368 243.282 8.56C243.282 8.744 243.266 8.904 243.234 9.04C243.266 9.168 243.282 9.328 243.282 9.52C243.282 9.704 243.266 9.864 243.234 10H242.034C242.002 9.864 241.986 9.704 241.986 9.52C241.986 9.328 242.002 9.168 242.034 9.04C242.002 8.904 241.986 8.744 241.986 8.56C241.986 8.368 242.002 8.208 242.034 8.08H243.234Z" fill="#FF5555"/>
</g>
<defs>
<clipPath id="clip0_324_66">
<rect width="366" height="12" fill="white"/>
</clipPath>
</defs>
</svg>
